<?xml version="1.0" encoding="UTF-8"?>
<!DOCTYPE svg PUBLIC "-//W3C//DTD SVG 1.1//EN" "http://www.w3.org/Graphics/SVG/1.1/DTD/svg11.dtd">
<!-- Creator: CorelDRAW -->
<svg xmlns="http://www.w3.org/2000/svg" xml:space="preserve" width="1920px" height="1081px" version="1.1" style="shape-rendering:geometricPrecision; text-rendering:geometricPrecision; image-rendering:optimizeQuality; fill-rule:evenodd; clip-rule:evenodd"
viewBox="0 0 1920 1081.31"
 xmlns:xlink="http://www.w3.org/1999/xlink"
 xmlns:xodm="http://www.corel.com/coreldraw/odm/2003">
 <defs>
  <style type="text/css">
   <![CDATA[
    .str0 {stroke:black;stroke-width:3;stroke-miterlimit:22.9256}
    .str1 {stroke:#042433;stroke-width:3;stroke-miterlimit:22.9256}
    .fil7 {fill:none}
    .fil6 {fill:none;fill-rule:nonzero}
    .fil3 {fill:black}
    .fil4 {fill:#F2F2F2}
    .fil2 {fill:black;fill-rule:nonzero}
    .fil5 {fill:#7F7F7F;fill-rule:nonzero}
    .fil1 {fill:#F2F2F2;fill-rule:nonzero}
    .fil0 {fill:white;fill-rule:nonzero}
   ]]>
  </style>
    <clipPath id="id0">
     <path d="M52.25 142.88l37.47 0 0 -31.37 -37.47 0 0 31.37z"/>
    </clipPath>
    <clipPath id="id1" style="clip-rule:nonzero">
     <path d="M56.18 216.94l29.62 0 0 -31.37 -29.62 0 0 31.37z"/>
    </clipPath>
    <clipPath id="id2" style="clip-rule:nonzero">
     <path d="M54 1044.3l31.37 0 0 -31.36 -31.37 0 0 31.36z"/>
    </clipPath>
 </defs>
 <g id="Capa_x0020_1">
  <metadata id="CorelCorpID_0Corel-Layer"/>
  <g id="_1892201601344">
   <rect class="fil0 str0" x="1.5" y="1.5" width="1917" height="1078.32"/>
   <rect class="fil1 str0" x="137.87" y="98.66" width="1780.64" height="981.16"/>
   <path class="fil2" d="M54.87 69.68l0 -39.5 12.68 0c3.98,0 7.15,0.8 9.51,2.41 2.38,1.6 3.56,4.03 3.56,7.32 0,2.06 -0.58,3.92 -1.73,5.53 -1.16,1.63 -2.7,2.68 -4.61,3.17 2.73,0.45 4.92,1.54 6.54,3.28 1.62,1.73 2.43,3.87 2.43,6.42 0,2.39 -0.53,4.43 -1.59,6.12 -1.07,1.7 -2.66,3 -4.8,3.9 -2.13,0.9 -4.82,1.35 -8.04,1.35l-13.95 0zm5.29 -4.41l8.53 0c1.69,0 3.24,-0.21 4.64,-0.63 1.42,-0.42 2.55,-1.16 3.4,-2.23 0.85,-1.07 1.27,-2.54 1.27,-4.42 0,-2.28 -0.83,-3.97 -2.48,-5.09 -1.65,-1.11 -3.93,-1.68 -6.83,-1.68l-8.53 0 0 14.05zm0 -18.33l7.36 0c2.55,0 4.49,-0.59 5.83,-1.75 1.34,-1.15 2.01,-2.72 2.01,-4.69 0,-1.33 -0.3,-2.43 -0.91,-3.32 -0.6,-0.9 -1.5,-1.56 -2.67,-2 -1.17,-0.44 -2.59,-0.65 -4.26,-0.65l-7.36 0 0 12.41z"/>
   <path id="_1" class="fil2" d="M96.32 70.22c-1.54,0 -2.95,-0.31 -4.23,-0.93 -1.27,-0.62 -2.29,-1.55 -3.05,-2.79 -0.76,-1.25 -1.15,-2.79 -1.15,-4.63 0,-2.65 0.77,-4.65 2.28,-6.02 1.51,-1.36 3.67,-2.28 6.44,-2.76 2.78,-0.48 6.03,-0.74 9.75,-0.78l0 -2.2c0,-2.57 -0.56,-4.34 -1.67,-5.29 -1.12,-0.96 -2.52,-1.44 -4.2,-1.44 -1.84,0 -3.39,0.51 -4.64,1.52 -1.25,1.01 -1.88,2.64 -1.88,4.87l-4.75 0c0,-2.37 0.48,-4.31 1.45,-5.78 0.97,-1.48 2.3,-2.57 4.01,-3.24 1.7,-0.67 3.64,-1.01 5.81,-1.01 1.37,0 2.69,0.14 3.96,0.42 1.27,0.28 2.42,0.8 3.44,1.54 1.02,0.75 1.82,1.79 2.4,3.13 0.59,1.34 0.88,3.07 0.88,5.18l0 19.67 -4.52 0 -0.17 -4.16c-1.25,1.46 -2.71,2.6 -4.38,3.44 -1.66,0.84 -3.58,1.26 -5.78,1.26zm1.29 -3.75c1.86,0 3.52,-0.46 4.99,-1.37 1.47,-0.9 2.71,-2.08 3.73,-3.54l0 -6.2c-4.84,0.06 -8.29,0.57 -10.39,1.54 -2.09,0.97 -3.15,2.56 -3.15,4.78 0,1.46 0.41,2.62 1.21,3.49 0.81,0.86 2.01,1.3 3.61,1.3z"/>
   <path id="_2" class="fil2" d="M118.7 69.68l0 -29.46 4.75 0 0.12 4.19c0.84,-1.13 2.04,-2.19 3.61,-3.19 1.57,-0.99 3.52,-1.48 5.87,-1.48 3.05,0 5.24,0.94 6.55,2.84 1.31,1.88 1.97,4.55 1.97,7.97l0 19.13 -4.87 0 0 -18.54c0,-1.41 -0.14,-2.66 -0.41,-3.76 -0.26,-1.11 -0.74,-1.97 -1.43,-2.6 -0.7,-0.62 -1.69,-0.93 -2.98,-0.93 -1.98,0 -3.65,0.5 -5,1.48 -1.37,0.99 -2.46,2.07 -3.28,3.21l0 21.14 -4.9 0z"/>
   <path id="_3" class="fil2" d="M160.58 70.22c-2.5,0 -4.72,-0.56 -6.66,-1.69 -1.93,-1.13 -3.46,-2.83 -4.55,-5.07 -1.09,-2.26 -1.64,-5.05 -1.64,-8.4 0,-3.35 0.54,-6.17 1.61,-8.45 1.08,-2.28 2.59,-3.99 4.51,-5.15 1.92,-1.15 4.17,-1.72 6.73,-1.72 2.16,0 4.09,0.37 5.81,1.12 1.71,0.75 3.07,1.88 4.1,3.38 1.04,1.51 1.59,3.42 1.67,5.72l-4.85 0c-0.14,-1.94 -0.79,-3.47 -1.99,-4.59 -1.18,-1.11 -2.73,-1.66 -4.65,-1.66 -2.6,0 -4.56,0.99 -5.9,2.97 -1.33,2 -1.99,4.78 -1.99,8.38 0,2.37 0.29,4.38 0.88,6.05 0.58,1.68 1.46,2.96 2.64,3.83 1.18,0.88 2.63,1.32 4.37,1.32 1.96,0 3.58,-0.57 4.84,-1.69 1.28,-1.13 1.95,-2.79 2.01,-4.99l4.81 0c-0.04,2.36 -0.58,4.33 -1.62,5.91 -1.06,1.59 -2.46,2.77 -4.2,3.55 -1.76,0.79 -3.73,1.18 -5.93,1.18z"/>
   <path id="_4" class="fil2" d="M190.1 70.22c-2.69,0 -4.98,-0.6 -6.88,-1.81 -1.89,-1.21 -3.36,-2.95 -4.36,-5.22 -1.01,-2.27 -1.51,-4.97 -1.51,-8.12 0,-3.18 0.5,-5.92 1.51,-8.2 1,-2.3 2.47,-4.05 4.36,-5.29 1.9,-1.23 4.19,-1.84 6.88,-1.84 2.73,0 5.08,0.61 7.04,1.84 1.95,1.24 3.45,2.99 4.49,5.29 1.03,2.28 1.55,5.02 1.55,8.2 0,3.15 -0.52,5.85 -1.55,8.12 -1.04,2.27 -2.54,4.01 -4.49,5.22 -1.96,1.21 -4.31,1.81 -7.04,1.81zm0 -3.87c1.97,0 3.54,-0.5 4.71,-1.47 1.16,-0.98 2,-2.31 2.52,-4.01 0.51,-1.68 0.77,-3.62 0.77,-5.8 0,-2.18 -0.26,-4.13 -0.77,-5.84 -0.52,-1.7 -1.36,-3.06 -2.52,-4.05 -1.17,-0.98 -2.74,-1.47 -4.71,-1.47 -1.87,0 -3.36,0.49 -4.5,1.47 -1.14,0.99 -1.96,2.35 -2.45,4.05 -0.5,1.71 -0.75,3.67 -0.75,5.87 0,2.16 0.25,4.09 0.75,5.77 0.49,1.7 1.31,3.03 2.45,4.01 1.14,0.97 2.63,1.47 4.5,1.47z"/>
   <path id="_5" class="fil2" d="M230.75 70.22c-2.24,0 -4.17,-0.57 -5.81,-1.7 -1.65,-1.14 -2.92,-2.83 -3.82,-5.06 -0.9,-2.24 -1.35,-5 -1.35,-8.3 0,-3.39 0.46,-6.24 1.38,-8.53 0.92,-2.28 2.22,-3.99 3.93,-5.16 1.7,-1.15 3.71,-1.73 6.02,-1.73 2.07,0 3.82,0.44 5.24,1.32 1.41,0.88 2.57,2.08 3.45,3.58l0 -14.46 4.79 0 0 39.5 -4.53 0 -0.32 -4.3c-0.92,1.45 -2.13,2.62 -3.61,3.51 -1.49,0.89 -3.28,1.33 -5.37,1.33zm0.85 -4.01c1.98,0 3.62,-0.54 4.94,-1.6 1.32,-1.05 2.36,-2.31 3.1,-3.78l0 -11.52c-0.72,-1.64 -1.72,-2.99 -2.98,-4.01 -1.26,-1.02 -2.82,-1.54 -4.68,-1.54 -2.38,0 -4.18,0.98 -5.37,2.94 -1.2,1.97 -1.79,4.77 -1.79,8.43 0,3.58 0.57,6.33 1.71,8.22 1.15,1.9 2.84,2.86 5.07,2.86z"/>
   <path id="_6" class="fil2" d="M264.07 70.22c-2.98,0 -5.43,-0.67 -7.38,-2 -1.93,-1.34 -3.37,-3.17 -4.33,-5.47 -0.95,-2.31 -1.42,-4.9 -1.42,-7.79 0,-2.99 0.46,-5.64 1.38,-7.92 0.93,-2.29 2.32,-4.07 4.18,-5.37 1.88,-1.29 4.22,-1.93 7.04,-1.93 3.77,0 6.73,1.2 8.87,3.62 2.13,2.41 3.19,5.89 3.19,10.41 0,0.3 -0.01,0.66 -0.02,1.07 0,0.41 -0.03,0.71 -0.07,0.89l-19.64 0c0.02,1.94 0.31,3.72 0.85,5.33 0.55,1.63 1.43,2.93 2.63,3.91 1.2,0.97 2.77,1.47 4.72,1.47 2.09,0 3.72,-0.55 4.88,-1.62 1.17,-1.08 1.78,-2.63 1.83,-4.67l4.85 0c-0.06,2.08 -0.56,3.87 -1.51,5.37 -0.95,1.51 -2.28,2.66 -3.98,3.48 -1.7,0.81 -3.73,1.22 -6.07,1.22zm-8.17 -18.06l14.86 0c-0.06,-2.81 -0.72,-4.95 -1.97,-6.44 -1.25,-1.48 -3.01,-2.22 -5.25,-2.22 -2.3,0 -4.08,0.73 -5.36,2.2 -1.29,1.48 -2.04,3.63 -2.28,6.46z"/>
   <path id="_7" class="fil2" d="M301.94 69.68c-2.32,0 -4.08,-0.37 -5.31,-1.1 -1.24,-0.73 -2.09,-1.78 -2.55,-3.17 -0.46,-1.38 -0.69,-3.03 -0.69,-4.98l0 -30.25 4.91 0 0 30.02c0,1.79 0.23,3.14 0.68,4.08 0.46,0.94 1.55,1.41 3.28,1.41l1.32 0 0 3.99 -1.64 0z"/>
   <path id="_8" class="fil2" d="M308.28 69.68l0 -29.46 4.9 0 0 29.46 -4.9 0zm2.46 -34.81c-0.94,0 -1.68,-0.27 -2.23,-0.81 -0.55,-0.53 -0.82,-1.21 -0.82,-2.04 0,-0.82 0.27,-1.5 0.82,-2.04 0.55,-0.54 1.29,-0.8 2.23,-0.8 0.93,0 1.67,0.26 2.23,0.8 0.57,0.54 0.85,1.22 0.85,2.04 0,0.83 -0.28,1.51 -0.85,2.04 -0.56,0.54 -1.3,0.81 -2.23,0.81z"/>
   <path id="_9" class="fil2" d="M334.73 70.22c-2.07,0 -3.85,-0.39 -5.33,-1.16 -1.48,-0.77 -2.68,-1.91 -3.62,-3.42l-0.23 4.04 -4.61 0 0 -39.5 4.93 0 0 14.58c0.92,-1.37 2.13,-2.54 3.63,-3.54 1.52,-0.99 3.3,-1.48 5.37,-1.48 2.24,0 4.16,0.57 5.78,1.7 1.61,1.15 2.86,2.84 3.74,5.09 0.88,2.26 1.32,5.07 1.32,8.43 0,3.35 -0.44,6.15 -1.34,8.42 -0.89,2.26 -2.15,3.98 -3.79,5.12 -1.65,1.15 -3.6,1.72 -5.85,1.72zm-0.94 -4.01c2.33,0 4.06,-0.99 5.18,-2.95 1.13,-1.97 1.69,-4.74 1.69,-8.32 0,-3.63 -0.55,-6.4 -1.67,-8.34 -1.12,-1.93 -2.8,-2.89 -5.05,-2.89 -1.96,0 -3.6,0.58 -4.95,1.75 -1.34,1.16 -2.38,2.52 -3.12,4.04l0 11.51c0.74,1.59 1.77,2.85 3.09,3.79 1.33,0.93 2.93,1.41 4.83,1.41z"/>
   <path id="_10" class="fil2" d="M352.11 69.68l0 -29.46 4.61 0 0.17 4.72c0.82,-1.47 1.95,-2.7 3.38,-3.71 1.43,-0.99 3.27,-1.49 5.55,-1.49l0.59 0 0 4.49 -0.68 0c-1.42,0 -2.68,0.2 -3.76,0.58 -1.07,0.39 -2.01,0.92 -2.81,1.6 -0.79,0.69 -1.51,1.48 -2.15,2.38l0 20.89 -4.9 0z"/>
   <path id="_11" class="fil2" d="M381.35 70.22c-2.68,0 -4.98,-0.6 -6.87,-1.81 -1.9,-1.21 -3.36,-2.95 -4.36,-5.22 -1.01,-2.27 -1.52,-4.97 -1.52,-8.12 0,-3.18 0.51,-5.92 1.52,-8.2 1,-2.3 2.46,-4.05 4.36,-5.29 1.89,-1.23 4.19,-1.84 6.87,-1.84 2.74,0 5.08,0.61 7.05,1.84 1.95,1.24 3.44,2.99 4.48,5.29 1.04,2.28 1.56,5.02 1.56,8.2 0,3.15 -0.52,5.85 -1.56,8.12 -1.04,2.27 -2.53,4.01 -4.48,5.22 -1.97,1.21 -4.31,1.81 -7.05,1.81zm0 -3.87c1.97,0 3.55,-0.5 4.71,-1.47 1.16,-0.98 2,-2.31 2.53,-4.01 0.51,-1.68 0.77,-3.62 0.77,-5.8 0,-2.18 -0.26,-4.13 -0.77,-5.84 -0.53,-1.7 -1.37,-3.06 -2.53,-4.05 -1.16,-0.98 -2.74,-1.47 -4.71,-1.47 -1.86,0 -3.36,0.49 -4.5,1.47 -1.13,0.99 -1.95,2.35 -2.44,4.05 -0.5,1.71 -0.76,3.67 -0.76,5.87 0,2.16 0.26,4.09 0.76,5.77 0.49,1.7 1.31,3.03 2.44,4.01 1.14,0.97 2.64,1.47 4.5,1.47z"/>
   <path id="_12" class="fil2" d="M410.73 70.22c-1.62,0 -3.16,-0.18 -4.59,-0.53 -1.44,-0.36 -2.7,-0.93 -3.81,-1.72 -1.09,-0.79 -1.95,-1.83 -2.56,-3.08 -0.62,-1.26 -0.92,-2.79 -0.92,-4.61l4.72 0c0,2.34 0.7,3.96 2.08,4.9 1.39,0.93 3.13,1.41 5.2,1.41 1.86,0 3.39,-0.38 4.59,-1.13 1.2,-0.74 1.81,-1.95 1.81,-3.65 0,-1.47 -0.55,-2.54 -1.63,-3.23 -1.09,-0.69 -3,-1.39 -5.77,-2.11 -2.23,-0.55 -4.1,-1.18 -5.6,-1.9 -1.52,-0.72 -2.65,-1.63 -3.41,-2.74 -0.76,-1.11 -1.14,-2.51 -1.14,-4.19 0,-1.31 0.26,-2.45 0.8,-3.43 0.54,-0.99 1.29,-1.81 2.26,-2.48 0.97,-0.66 2.11,-1.15 3.41,-1.49 1.29,-0.33 2.72,-0.5 4.24,-0.5 1.5,0 2.92,0.18 4.24,0.55 1.32,0.36 2.49,0.93 3.51,1.69 1.02,0.77 1.82,1.75 2.39,2.96 0.58,1.2 0.87,2.65 0.87,4.31l-4.76 0c0,-2.1 -0.6,-3.6 -1.8,-4.48 -1.2,-0.89 -2.69,-1.33 -4.45,-1.33 -1.76,0 -3.19,0.33 -4.29,0.98 -1.09,0.65 -1.64,1.67 -1.64,3.07 0,0.79 0.24,1.46 0.73,2 0.49,0.55 1.31,1.04 2.47,1.48 1.16,0.44 2.7,0.91 4.63,1.39 2.16,0.53 3.95,1.16 5.4,1.89 1.43,0.73 2.52,1.67 3.25,2.84 0.73,1.15 1.1,2.65 1.1,4.48 0,1.5 -0.28,2.8 -0.85,3.89 -0.57,1.11 -1.36,2.01 -2.39,2.71 -1.02,0.7 -2.23,1.21 -3.61,1.55 -1.38,0.33 -2.88,0.5 -4.48,0.5z"/>
   <polygon class="fil2" points="1546.11,42.23 1546.11,23.91 1548.61,23.91 1558.67,38.49 1558.67,23.91 1560.98,23.91 1560.98,42.23 1558.48,42.23 1548.43,27.63 1548.43,42.23 "/>
   <path id="_1_0" class="fil2" d="M1570.11 42.49c-1.25,0 -2.31,-0.28 -3.19,-0.85 -0.88,-0.56 -1.56,-1.36 -2.02,-2.42 -0.47,-1.05 -0.7,-2.3 -0.7,-3.76 0,-1.48 0.23,-2.75 0.7,-3.81 0.46,-1.06 1.14,-1.88 2.02,-2.45 0.88,-0.57 1.94,-0.85 3.19,-0.85 1.27,0 2.35,0.28 3.26,0.85 0.91,0.57 1.6,1.39 2.09,2.45 0.47,1.06 0.72,2.33 0.72,3.81 0,1.46 -0.25,2.71 -0.72,3.76 -0.49,1.06 -1.18,1.86 -2.09,2.42 -0.91,0.57 -1.99,0.85 -3.26,0.85zm0 -1.8c0.91,0 1.64,-0.23 2.18,-0.68 0.54,-0.46 0.93,-1.08 1.17,-1.86 0.24,-0.78 0.36,-1.68 0.36,-2.69 0,-1.01 -0.12,-1.92 -0.36,-2.71 -0.24,-0.79 -0.63,-1.42 -1.17,-1.88 -0.54,-0.45 -1.27,-0.68 -2.18,-0.68 -0.87,0 -1.56,0.23 -2.09,0.68 -0.52,0.46 -0.91,1.09 -1.13,1.88 -0.24,0.79 -0.35,1.7 -0.35,2.72 0,1 0.11,1.9 0.35,2.68 0.22,0.78 0.61,1.4 1.13,1.86 0.53,0.45 1.22,0.68 2.09,0.68z"/>
   <path id="_2_1" class="fil2" d="M1579.13 42.23l0 -13.66 2.2 0 0.06 1.94c0.38,-0.52 0.92,-1.01 1.62,-1.47 0.7,-0.46 1.57,-0.69 2.61,-0.69 1.46,0 2.5,0.44 3.12,1.33 0.63,0.88 0.94,2.11 0.94,3.68l0 8.87 -2.26 0 0 -8.59c0,-0.66 -0.06,-1.24 -0.17,-1.75 -0.12,-0.51 -0.35,-0.91 -0.68,-1.2 -0.33,-0.29 -0.81,-0.44 -1.45,-0.44 -0.87,0 -1.61,0.24 -2.22,0.69 -0.62,0.46 -1.11,0.96 -1.5,1.49l0 9.8 -2.27 0zm16.53 0l0 -8.59c0,-0.66 -0.06,-1.24 -0.18,-1.75 -0.13,-0.51 -0.35,-0.91 -0.68,-1.2 -0.32,-0.29 -0.8,-0.44 -1.43,-0.44 -0.87,0 -1.62,0.22 -2.24,0.66 -0.63,0.44 -1.13,0.9 -1.5,1.41l-0.34 -1.67c0.5,-0.57 1.12,-1.1 1.88,-1.58 0.75,-0.48 1.66,-0.72 2.72,-0.72 1.42,0 2.46,0.44 3.09,1.33 0.63,0.88 0.95,2.11 0.95,3.68l0 8.87 -2.27 0z"/>
   <path id="_3_2" class="fil2" d="M1607.83 42.49c-0.96,0 -1.79,-0.19 -2.47,-0.54 -0.69,-0.36 -1.24,-0.89 -1.68,-1.59l-0.11 1.87 -2.14 0 0 -18.32 2.29 0 0 6.77c0.43,-0.64 0.99,-1.18 1.69,-1.64 0.7,-0.46 1.53,-0.69 2.49,-0.69 1.03,0 1.93,0.26 2.68,0.79 0.74,0.53 1.32,1.31 1.73,2.36 0.41,1.04 0.61,2.35 0.61,3.91 0,1.55 -0.2,2.85 -0.62,3.9 -0.41,1.05 -1,1.85 -1.76,2.38 -0.76,0.53 -1.67,0.8 -2.71,0.8zm-0.43 -1.87c1.07,0 1.88,-0.45 2.4,-1.36 0.52,-0.92 0.78,-2.2 0.78,-3.86 0,-1.68 -0.26,-2.97 -0.77,-3.87 -0.52,-0.9 -1.3,-1.34 -2.34,-1.34 -0.91,0 -1.68,0.27 -2.3,0.81 -0.62,0.54 -1.11,1.17 -1.45,1.87l0 5.34c0.34,0.74 0.82,1.32 1.44,1.76 0.61,0.43 1.35,0.65 2.24,0.65z"/>
   <path id="_4_3" class="fil2" d="M1615.89 42.23l0 -13.66 2.14 0 0.08 2.19c0.38,-0.68 0.9,-1.25 1.56,-1.72 0.67,-0.46 1.52,-0.69 2.58,-0.69l0.27 0 0 2.08 -0.31 0c-0.66,0 -1.24,0.09 -1.75,0.27 -0.49,0.18 -0.93,0.43 -1.3,0.74 -0.36,0.32 -0.7,0.69 -1,1.1l0 9.69 -2.27 0z"/>
   <path id="_5_4" class="fil2" d="M1629.63 42.49c-1.38,0 -2.52,-0.32 -3.42,-0.93 -0.9,-0.63 -1.57,-1.47 -2.01,-2.54 -0.44,-1.07 -0.66,-2.27 -0.66,-3.61 0,-1.39 0.21,-2.62 0.64,-3.68 0.43,-1.06 1.08,-1.89 1.94,-2.49 0.87,-0.59 1.96,-0.89 3.26,-0.89 1.75,0 3.13,0.56 4.12,1.68 0.99,1.12 1.48,2.73 1.48,4.82 0,0.14 -0.01,0.31 -0.01,0.5 0,0.19 -0.02,0.33 -0.03,0.42l-9.11 0c0.01,0.89 0.14,1.72 0.39,2.47 0.26,0.75 0.66,1.35 1.22,1.81 0.56,0.45 1.29,0.68 2.19,0.68 0.97,0 1.72,-0.25 2.26,-0.75 0.55,-0.5 0.83,-1.22 0.85,-2.17l2.25 0c-0.03,0.97 -0.26,1.8 -0.7,2.5 -0.44,0.69 -1.05,1.23 -1.84,1.61 -0.79,0.37 -1.73,0.57 -2.82,0.57zm-3.79 -8.38l6.89 0c-0.02,-1.31 -0.33,-2.3 -0.91,-2.99 -0.58,-0.69 -1.4,-1.03 -2.44,-1.03 -1.06,0 -1.89,0.34 -2.48,1.02 -0.6,0.69 -0.95,1.69 -1.06,3z"/>
   <path id="_6_5" class="fil2" d="M1647.79 42.49c-1.04,0 -1.93,-0.27 -2.69,-0.8 -0.77,-0.52 -1.36,-1.31 -1.78,-2.34 -0.41,-1.04 -0.62,-2.32 -0.62,-3.85 0,-1.58 0.21,-2.9 0.64,-3.95 0.43,-1.06 1.03,-1.86 1.82,-2.4 0.79,-0.53 1.72,-0.8 2.79,-0.8 0.97,0 1.77,0.2 2.43,0.61 0.66,0.41 1.19,0.96 1.6,1.66l0 -6.71 2.22 0 0 18.32 -2.1 0 -0.15 -1.99c-0.42,0.67 -0.98,1.21 -1.67,1.63 -0.69,0.41 -1.52,0.62 -2.49,0.62zm0.4 -1.87c0.91,0 1.67,-0.24 2.29,-0.74 0.61,-0.49 1.09,-1.07 1.43,-1.75l0 -5.34c-0.33,-0.77 -0.79,-1.39 -1.38,-1.86 -0.58,-0.48 -1.31,-0.72 -2.17,-0.72 -1.1,0 -1.94,0.46 -2.49,1.37 -0.56,0.91 -0.83,2.21 -0.83,3.91 0,1.66 0.26,2.93 0.79,3.81 0.54,0.88 1.32,1.32 2.36,1.32z"/>
   <path id="_7_6" class="fil2" d="M1663.24 42.49c-1.38,0 -2.52,-0.32 -3.42,-0.93 -0.89,-0.63 -1.56,-1.47 -2.01,-2.54 -0.44,-1.07 -0.66,-2.27 -0.66,-3.61 0,-1.39 0.22,-2.62 0.65,-3.68 0.42,-1.06 1.07,-1.89 1.93,-2.49 0.87,-0.59 1.96,-0.89 3.27,-0.89 1.75,0 3.12,0.56 4.11,1.68 0.99,1.12 1.48,2.73 1.48,4.82 0,0.14 0,0.31 -0.01,0.5 0,0.19 -0.01,0.33 -0.03,0.42l-9.11 0c0.01,0.89 0.15,1.72 0.4,2.47 0.25,0.75 0.66,1.35 1.21,1.81 0.56,0.45 1.29,0.68 2.19,0.68 0.97,0 1.73,-0.25 2.27,-0.75 0.54,-0.5 0.82,-1.22 0.85,-2.17l2.25 0c-0.03,0.97 -0.26,1.8 -0.71,2.5 -0.44,0.69 -1.05,1.23 -1.84,1.61 -0.79,0.37 -1.73,0.57 -2.82,0.57zm-3.78 -8.38l6.89 0c-0.03,-1.31 -0.34,-2.3 -0.92,-2.99 -0.58,-0.69 -1.39,-1.03 -2.43,-1.03 -1.07,0 -1.89,0.34 -2.49,1.02 -0.59,0.69 -0.94,1.69 -1.05,3z"/>
   <path id="_8_7" class="fil2" d="M1675.43 42.23c-1.08,0 -1.89,-0.17 -2.47,-0.51 -0.57,-0.34 -0.96,-0.82 -1.18,-1.47 -0.21,-0.64 -0.32,-1.4 -0.32,-2.31l0 -14.03 2.28 0 0 13.93c0,0.82 0.11,1.45 0.32,1.89 0.21,0.44 0.72,0.65 1.52,0.65l0.61 0 0 1.85 -0.76 0z"/>
   <path id="_9_8" class="fil2" d="M1683.75 42.23l0 -13.66 2.2 0 0.06 1.94c0.38,-0.52 0.92,-1.01 1.62,-1.47 0.69,-0.46 1.57,-0.69 2.61,-0.69 1.45,0 2.49,0.44 3.12,1.33 0.62,0.88 0.94,2.11 0.94,3.68l0 8.87 -2.26 0 0 -8.59c0,-0.66 -0.06,-1.24 -0.18,-1.75 -0.12,-0.51 -0.34,-0.91 -0.67,-1.2 -0.33,-0.29 -0.82,-0.44 -1.45,-0.44 -0.88,0 -1.62,0.24 -2.23,0.69 -0.61,0.46 -1.11,0.96 -1.49,1.49l0 9.8 -2.27 0zm16.52 0l0 -8.59c0,-0.66 -0.06,-1.24 -0.18,-1.75 -0.12,-0.51 -0.35,-0.91 -0.67,-1.2 -0.33,-0.29 -0.81,-0.44 -1.43,-0.44 -0.87,0 -1.62,0.22 -2.25,0.66 -0.63,0.44 -1.12,0.9 -1.5,1.41l-0.34 -1.67c0.5,-0.57 1.13,-1.1 1.88,-1.58 0.76,-0.48 1.66,-0.72 2.73,-0.72 1.42,0 2.45,0.44 3.09,1.33 0.63,0.88 0.95,2.11 0.95,3.68l0 8.87 -2.28 0z"/>
   <path id="_10_9" class="fil2" d="M1706.05 42.23l0 -13.66 2.27 0 0 13.66 -2.27 0zm1.14 -16.14c-0.43,0 -0.78,-0.13 -1.03,-0.38 -0.26,-0.24 -0.39,-0.56 -0.39,-0.94 0,-0.38 0.13,-0.7 0.39,-0.95 0.25,-0.25 0.6,-0.37 1.03,-0.37 0.43,0 0.77,0.12 1.03,0.37 0.27,0.25 0.4,0.57 0.4,0.95 0,0.38 -0.13,0.7 -0.4,0.94 -0.26,0.25 -0.6,0.38 -1.03,0.38z"/>
   <path id="_11_10" class="fil2" d="M1717.37 42.49c-1.39,0 -2.52,-0.32 -3.43,-0.93 -0.89,-0.63 -1.56,-1.47 -2,-2.54 -0.44,-1.07 -0.66,-2.27 -0.66,-3.61 0,-1.39 0.21,-2.62 0.64,-3.68 0.43,-1.06 1.07,-1.89 1.94,-2.49 0.87,-0.59 1.95,-0.89 3.26,-0.89 1.75,0 3.12,0.56 4.11,1.68 0.99,1.12 1.48,2.73 1.48,4.82 0,0.14 0,0.31 -0.01,0.5 0,0.19 -0.01,0.33 -0.03,0.42l-9.11 0c0.01,0.89 0.15,1.72 0.4,2.47 0.25,0.75 0.66,1.35 1.22,1.81 0.55,0.45 1.28,0.68 2.19,0.68 0.97,0 1.72,-0.25 2.26,-0.75 0.54,-0.5 0.83,-1.22 0.85,-2.17l2.25 0c-0.03,0.97 -0.26,1.8 -0.7,2.5 -0.45,0.69 -1.06,1.23 -1.85,1.61 -0.79,0.37 -1.73,0.57 -2.81,0.57zm-3.79 -8.38l6.89 0c-0.03,-1.31 -0.34,-2.3 -0.92,-2.99 -0.58,-0.69 -1.39,-1.03 -2.43,-1.03 -1.07,0 -1.89,0.34 -2.49,1.02 -0.59,0.69 -0.94,1.69 -1.05,3z"/>
   <path id="_12_11" class="fil2" d="M1725.7 42.23l0 -13.66 2.2 0 0.06 1.94c0.38,-0.52 0.92,-1.01 1.62,-1.47 0.7,-0.46 1.57,-0.69 2.61,-0.69 1.45,0 2.49,0.44 3.12,1.33 0.63,0.88 0.94,2.11 0.94,3.68l0 8.87 -2.26 0 0 -8.59c0,-0.66 -0.06,-1.24 -0.18,-1.75 -0.12,-0.51 -0.34,-0.91 -0.67,-1.2 -0.33,-0.29 -0.82,-0.44 -1.45,-0.44 -0.88,0 -1.61,0.24 -2.23,0.69 -0.61,0.46 -1.11,0.96 -1.49,1.49l0 9.8 -2.27 0zm16.52 0l0 -8.59c0,-0.66 -0.06,-1.24 -0.18,-1.75 -0.12,-0.51 -0.35,-0.91 -0.67,-1.2 -0.33,-0.29 -0.81,-0.44 -1.43,-0.44 -0.87,0 -1.62,0.22 -2.25,0.66 -0.63,0.44 -1.12,0.9 -1.49,1.41l-0.35 -1.67c0.5,-0.57 1.13,-1.1 1.88,-1.58 0.76,-0.48 1.66,-0.72 2.73,-0.72 1.42,0 2.45,0.44 3.09,1.33 0.63,0.88 0.95,2.11 0.95,3.68l0 8.87 -2.28 0z"/>
   <path id="_13" class="fil2" d="M1754.4 42.49c-0.96,0 -1.79,-0.19 -2.47,-0.54 -0.69,-0.36 -1.25,-0.89 -1.69,-1.59l-0.1 1.87 -2.14 0 0 -18.32 2.29 0 0 6.77c0.42,-0.64 0.99,-1.18 1.68,-1.64 0.71,-0.46 1.53,-0.69 2.49,-0.69 1.04,0 1.93,0.26 2.68,0.79 0.75,0.53 1.33,1.31 1.74,2.36 0.4,1.04 0.61,2.35 0.61,3.91 0,1.55 -0.21,2.85 -0.62,3.9 -0.41,1.05 -1,1.85 -1.76,2.38 -0.76,0.53 -1.67,0.8 -2.71,0.8zm-0.44 -1.87c1.08,0 1.88,-0.45 2.41,-1.36 0.52,-0.92 0.78,-2.2 0.78,-3.86 0,-1.68 -0.26,-2.97 -0.78,-3.87 -0.52,-0.9 -1.3,-1.34 -2.34,-1.34 -0.91,0 -1.67,0.27 -2.29,0.81 -0.63,0.54 -1.11,1.17 -1.45,1.87l0 5.34c0.34,0.74 0.82,1.32 1.43,1.76 0.62,0.43 1.36,0.65 2.24,0.65z"/>
   <path id="_14" class="fil2" d="M1762.46 42.23l0 -13.66 2.14 0 0.07 2.19c0.39,-0.68 0.91,-1.25 1.57,-1.72 0.67,-0.46 1.52,-0.69 2.58,-0.69l0.27 0 0 2.08 -0.32 0c-0.66,0 -1.24,0.09 -1.74,0.27 -0.5,0.18 -0.93,0.43 -1.3,0.74 -0.37,0.32 -0.7,0.69 -1,1.1l0 9.69 -2.27 0z"/>
   <path id="_15" class="fil2" d="M1776.02 42.49c-1.25,0 -2.31,-0.28 -3.19,-0.85 -0.88,-0.56 -1.56,-1.36 -2.02,-2.42 -0.47,-1.05 -0.7,-2.3 -0.7,-3.76 0,-1.48 0.23,-2.75 0.7,-3.81 0.46,-1.06 1.14,-1.88 2.02,-2.45 0.88,-0.57 1.94,-0.85 3.19,-0.85 1.27,0 2.35,0.28 3.27,0.85 0.9,0.57 1.59,1.39 2.08,2.45 0.48,1.06 0.72,2.33 0.72,3.81 0,1.46 -0.24,2.71 -0.72,3.76 -0.49,1.06 -1.18,1.86 -2.08,2.42 -0.92,0.57 -2,0.85 -3.27,0.85zm0 -1.8c0.91,0 1.64,-0.23 2.18,-0.68 0.54,-0.46 0.93,-1.08 1.17,-1.86 0.24,-0.78 0.36,-1.68 0.36,-2.69 0,-1.01 -0.12,-1.92 -0.36,-2.71 -0.24,-0.79 -0.63,-1.42 -1.17,-1.88 -0.54,-0.45 -1.27,-0.68 -2.18,-0.68 -0.87,0 -1.56,0.23 -2.09,0.68 -0.52,0.46 -0.9,1.09 -1.13,1.88 -0.23,0.79 -0.35,1.7 -0.35,2.72 0,1 0.12,1.9 0.35,2.68 0.23,0.78 0.61,1.4 1.13,1.86 0.53,0.45 1.22,0.68 2.09,0.68z"/>
   <path class="fil2" d="M1658.13 78.71c-2.21,0 -4.15,-0.44 -5.83,-1.32 -1.68,-0.87 -2.99,-2.11 -3.94,-3.72 -0.95,-1.62 -1.42,-3.52 -1.42,-5.72 0,-1.62 0.27,-3.09 0.81,-4.41 0.55,-1.32 1.32,-2.46 2.3,-3.4 0.99,-0.94 2.16,-1.67 3.5,-2.17 1.34,-0.51 2.81,-0.76 4.4,-0.76 1.68,0 3.19,0.26 4.53,0.78 1.34,0.51 2.5,1.24 3.47,2.19 0.97,0.94 1.7,2.05 2.22,3.32 0.51,1.27 0.77,2.66 0.77,4.17 0,1.42 -0.21,2.57 -0.63,3.43 -0.42,0.86 -0.97,1.48 -1.65,1.87 -0.69,0.39 -1.44,0.58 -2.26,0.58 -0.87,0 -1.59,-0.18 -2.17,-0.55 -0.58,-0.36 -0.96,-0.91 -1.14,-1.66 -0.29,0.64 -0.76,1.17 -1.42,1.58 -0.67,0.42 -1.45,0.63 -2.35,0.63 -1.01,0 -1.88,-0.23 -2.59,-0.69 -0.71,-0.46 -1.26,-1.1 -1.64,-1.92 -0.37,-0.82 -0.56,-1.78 -0.56,-2.88 0,-1.09 0.2,-2.05 0.6,-2.87 0.4,-0.82 0.97,-1.45 1.7,-1.9 0.74,-0.45 1.61,-0.67 2.63,-0.67 0.81,0 1.5,0.16 2.09,0.5 0.58,0.34 1.01,0.73 1.27,1.18l0.1 -1.52 2.05 0 0 7.34c0,0.62 0.14,1.07 0.41,1.33 0.27,0.27 0.67,0.4 1.2,0.4 0.58,0 1.05,-0.18 1.42,-0.52 0.36,-0.36 0.63,-0.85 0.8,-1.47 0.17,-0.63 0.26,-1.35 0.26,-2.16 0,-1.79 -0.39,-3.35 -1.15,-4.67 -0.77,-1.32 -1.83,-2.34 -3.2,-3.08 -1.37,-0.73 -2.96,-1.09 -4.76,-1.09 -1.79,0 -3.37,0.37 -4.74,1.11 -1.38,0.74 -2.46,1.79 -3.23,3.15 -0.78,1.36 -1.17,2.97 -1.17,4.83 0,1.94 0.4,3.59 1.2,4.95 0.8,1.36 1.89,2.39 3.28,3.1 1.39,0.71 2.97,1.06 4.75,1.06 0.91,0 1.78,-0.09 2.65,-0.27 0.87,-0.17 1.68,-0.41 2.42,-0.72l0 1.79c-0.74,0.28 -1.54,0.49 -2.39,0.63 -0.85,0.15 -1.71,0.22 -2.59,0.22zm-0.51 -6.9c0.79,0 1.42,-0.17 1.88,-0.52 0.46,-0.35 0.8,-0.81 1.01,-1.38 0.21,-0.57 0.31,-1.19 0.31,-1.88 0,-0.65 -0.1,-1.25 -0.3,-1.82 -0.21,-0.56 -0.53,-1.01 -0.98,-1.35 -0.46,-0.34 -1.05,-0.52 -1.78,-0.52 -0.77,0 -1.38,0.18 -1.83,0.52 -0.45,0.34 -0.77,0.79 -0.96,1.35 -0.19,0.57 -0.29,1.17 -0.29,1.82 0,0.68 0.1,1.3 0.28,1.88 0.19,0.57 0.5,1.03 0.93,1.38 0.43,0.35 1.01,0.52 1.73,0.52z"/>
   <path id="_1_12" class="fil2" d="M1675.91 76.03c-1.43,0 -2.47,-0.44 -3.1,-1.34 -0.63,-0.88 -0.95,-2.11 -0.95,-3.68l0 -8.89 2.29 0 0 8.62c0,0.65 0.07,1.22 0.19,1.71 0.12,0.5 0.35,0.88 0.68,1.16 0.34,0.28 0.82,0.42 1.45,0.42 0.91,0 1.66,-0.21 2.27,-0.64 0.61,-0.42 1.1,-0.91 1.47,-1.45l0 -9.82 2.27 0 0 13.66 -2.19 0 -0.05 -1.93c-0.39,0.52 -0.94,1.02 -1.66,1.48 -0.71,0.47 -1.6,0.7 -2.67,0.7z"/>
   <path id="_2_13" class="fil2" d="M1690.84 76.03c-0.75,0 -1.46,-0.08 -2.12,-0.24 -0.67,-0.17 -1.26,-0.44 -1.77,-0.8 -0.51,-0.37 -0.91,-0.85 -1.19,-1.43 -0.29,-0.59 -0.43,-1.3 -0.43,-2.14l2.19 0c0,1.09 0.33,1.84 0.97,2.28 0.64,0.43 1.45,0.65 2.41,0.65 0.86,0 1.57,-0.18 2.13,-0.52 0.56,-0.35 0.84,-0.91 0.84,-1.7 0,-0.68 -0.26,-1.18 -0.76,-1.5 -0.5,-0.32 -1.39,-0.64 -2.67,-0.97 -1.04,-0.26 -1.91,-0.55 -2.6,-0.89 -0.7,-0.33 -1.23,-0.75 -1.58,-1.27 -0.36,-0.51 -0.53,-1.16 -0.53,-1.94 0,-0.61 0.12,-1.14 0.37,-1.59 0.25,-0.46 0.6,-0.84 1.05,-1.15 0.45,-0.31 0.98,-0.53 1.58,-0.69 0.6,-0.16 1.26,-0.23 1.97,-0.23 0.69,0 1.35,0.08 1.96,0.25 0.61,0.17 1.16,0.43 1.63,0.79 0.47,0.35 0.84,0.81 1.11,1.37 0.27,0.56 0.4,1.22 0.4,2l-2.2 0c0,-0.98 -0.28,-1.67 -0.84,-2.08 -0.56,-0.41 -1.25,-0.62 -2.06,-0.62 -0.82,0 -1.48,0.15 -1.99,0.46 -0.51,0.3 -0.77,0.77 -0.77,1.42 0,0.37 0.12,0.68 0.34,0.93 0.23,0.25 0.61,0.48 1.15,0.69 0.54,0.2 1.25,0.41 2.15,0.64 1,0.24 1.83,0.54 2.5,0.88 0.66,0.33 1.17,0.77 1.51,1.31 0.34,0.53 0.51,1.23 0.51,2.08 0,0.69 -0.13,1.3 -0.39,1.81 -0.27,0.51 -0.64,0.92 -1.12,1.25 -0.47,0.33 -1.03,0.56 -1.67,0.72 -0.64,0.15 -1.33,0.23 -2.08,0.23z"/>
   <path id="_3_14" class="fil2" d="M1704.27 76.03c-1.38,0 -2.52,-0.31 -3.42,-0.93 -0.9,-0.62 -1.57,-1.47 -2.01,-2.53 -0.44,-1.07 -0.66,-2.28 -0.66,-3.61 0,-1.39 0.22,-2.62 0.64,-3.68 0.43,-1.06 1.08,-1.89 1.94,-2.49 0.87,-0.6 1.96,-0.89 3.26,-0.89 1.76,0 3.13,0.55 4.12,1.67 0.99,1.12 1.48,2.74 1.48,4.83 0,0.14 -0.01,0.31 -0.01,0.5 0,0.19 -0.01,0.33 -0.03,0.41l-9.11 0c0.01,0.9 0.14,1.73 0.39,2.48 0.26,0.75 0.66,1.35 1.22,1.81 0.56,0.45 1.29,0.68 2.19,0.68 0.97,0 1.72,-0.25 2.26,-0.75 0.55,-0.5 0.83,-1.22 0.85,-2.17l2.25 0c-0.02,0.96 -0.26,1.8 -0.7,2.49 -0.44,0.7 -1.05,1.23 -1.84,1.62 -0.79,0.37 -1.73,0.56 -2.82,0.56zm-3.79 -8.38l6.89 0c-0.02,-1.3 -0.33,-2.29 -0.91,-2.98 -0.58,-0.69 -1.4,-1.03 -2.44,-1.03 -1.06,0 -1.89,0.34 -2.48,1.02 -0.6,0.68 -0.95,1.68 -1.06,2.99z"/>
   <path id="_4_15" class="fil2" d="M1712.6 75.78l0 -13.66 2.14 0 0.08 2.19c0.38,-0.69 0.91,-1.26 1.57,-1.72 0.66,-0.46 1.52,-0.69 2.57,-0.69l0.27 0 0 2.08 -0.31 0c-0.66,0 -1.24,0.09 -1.74,0.27 -0.5,0.18 -0.94,0.42 -1.31,0.74 -0.36,0.32 -0.7,0.68 -0.99,1.1l0 9.69 -2.28 0z"/>
   <path id="_5_16" class="fil2" d="M1721.25 75.78l0 -13.66 2.2 0 0.06 1.94c0.39,-0.52 0.94,-1.02 1.67,-1.48 0.73,-0.46 1.63,-0.68 2.72,-0.68 1.42,0 2.43,0.43 3.04,1.31 0.61,0.87 0.91,2.11 0.91,3.7l0 8.87 -2.26 0 0 -8.6c0,-0.65 -0.06,-1.23 -0.18,-1.74 -0.12,-0.51 -0.35,-0.91 -0.67,-1.21 -0.32,-0.28 -0.78,-0.43 -1.38,-0.43 -0.92,0 -1.69,0.23 -2.32,0.69 -0.63,0.46 -1.14,0.96 -1.52,1.49l0 9.8 -2.27 0z"/>
   <path id="_6_17" class="fil2" d="M1738.62 76.03c-0.72,0 -1.37,-0.14 -1.96,-0.43 -0.59,-0.29 -1.07,-0.72 -1.42,-1.3 -0.35,-0.57 -0.53,-1.29 -0.53,-2.14 0,-1.23 0.35,-2.16 1.05,-2.79 0.71,-0.63 1.71,-1.06 2.99,-1.28 1.29,-0.23 2.8,-0.35 4.52,-0.37l0 -1.01c0,-1.2 -0.26,-2.02 -0.77,-2.46 -0.52,-0.44 -1.17,-0.67 -1.95,-0.67 -0.85,0 -1.57,0.24 -2.15,0.71 -0.58,0.47 -0.87,1.22 -0.87,2.26l-2.21 0c0,-1.1 0.23,-2 0.68,-2.68 0.45,-0.69 1.07,-1.19 1.86,-1.5 0.79,-0.32 1.68,-0.47 2.69,-0.47 0.64,0 1.25,0.06 1.84,0.19 0.59,0.13 1.12,0.37 1.59,0.72 0.47,0.34 0.85,0.82 1.12,1.45 0.27,0.62 0.41,1.42 0.41,2.4l0 9.12 -2.1 0 -0.08 -1.93c-0.58,0.68 -1.26,1.21 -2.03,1.6 -0.77,0.39 -1.66,0.58 -2.68,0.58zm0.6 -1.74c0.86,0 1.63,-0.21 2.31,-0.63 0.68,-0.42 1.26,-0.97 1.73,-1.65l0 -2.87c-2.24,0.03 -3.85,0.27 -4.82,0.71 -0.97,0.45 -1.46,1.19 -1.46,2.22 0,0.68 0.19,1.22 0.56,1.62 0.38,0.4 0.93,0.6 1.68,0.6z"/>
   <path id="_7_18" class="fil2" d="M1749 75.78l0 -13.66 2.2 0 0.05 1.94c0.38,-0.52 0.92,-1.02 1.63,-1.48 0.69,-0.46 1.57,-0.68 2.61,-0.68 1.45,0 2.49,0.44 3.12,1.32 0.62,0.89 0.93,2.12 0.93,3.69l0 8.87 -2.25 0 0 -8.6c0,-0.65 -0.06,-1.23 -0.18,-1.74 -0.12,-0.51 -0.34,-0.91 -0.67,-1.21 -0.33,-0.28 -0.82,-0.43 -1.45,-0.43 -0.88,0 -1.62,0.23 -2.23,0.69 -0.61,0.46 -1.11,0.96 -1.49,1.49l0 9.8 -2.27 0zm16.52 0l0 -8.6c0,-0.65 -0.06,-1.23 -0.18,-1.74 -0.13,-0.51 -0.35,-0.91 -0.67,-1.21 -0.33,-0.28 -0.81,-0.43 -1.44,-0.43 -0.86,0 -1.61,0.22 -2.24,0.66 -0.63,0.43 -1.12,0.9 -1.5,1.41l-0.34 -1.67c0.5,-0.58 1.12,-1.1 1.88,-1.58 0.75,-0.48 1.66,-0.72 2.73,-0.72 1.42,0 2.45,0.44 3.09,1.32 0.63,0.89 0.95,2.12 0.95,3.69l0 8.87 -2.28 0z"/>
   <path id="_8_19" class="fil2" d="M1776.74 76.03c-1.38,0 -2.51,-0.31 -3.42,-0.93 -0.89,-0.62 -1.56,-1.47 -2,-2.53 -0.45,-1.07 -0.66,-2.28 -0.66,-3.61 0,-1.39 0.21,-2.62 0.64,-3.68 0.43,-1.06 1.07,-1.89 1.94,-2.49 0.86,-0.6 1.95,-0.89 3.26,-0.89 1.75,0 3.12,0.55 4.11,1.67 0.99,1.12 1.48,2.74 1.48,4.83 0,0.14 0,0.31 -0.01,0.5 0,0.19 -0.01,0.33 -0.03,0.41l-9.11 0c0.01,0.9 0.15,1.73 0.4,2.48 0.25,0.75 0.66,1.35 1.22,1.81 0.55,0.45 1.28,0.68 2.18,0.68 0.98,0 1.73,-0.25 2.27,-0.75 0.54,-0.5 0.82,-1.22 0.85,-2.17l2.25 0c-0.03,0.96 -0.26,1.8 -0.7,2.49 -0.45,0.7 -1.06,1.23 -1.85,1.62 -0.79,0.37 -1.73,0.56 -2.82,0.56zm-3.78 -8.38l6.89 0c-0.03,-1.3 -0.34,-2.29 -0.92,-2.98 -0.58,-0.69 -1.39,-1.03 -2.43,-1.03 -1.07,0 -1.89,0.34 -2.49,1.02 -0.59,0.68 -0.94,1.68 -1.05,2.99z"/>
   <path class="fil3 str0" d="M1798.69 28.07c0,-6.25 5.07,-11.32 11.33,-11.32l45.31 0c6.25,0 11.33,5.07 11.33,11.32l0 45.31c0,6.26 -5.08,11.33 -11.33,11.33l-45.31 0c-6.26,0 -11.33,-5.07 -11.33,-11.33l0 -45.31z"/>
   <g>
    <g>
     <g>
      <path class="fil0" d="M1843.78 37.77c0,6.25 -5.07,11.33 -11.33,11.33 -6.25,0 -11.32,-5.08 -11.32,-11.33 0,-6.26 5.07,-11.33 11.32,-11.33 6.26,0 11.33,5.07 11.33,11.33z"/>
      <path class="fil0" d="M1855.11 74.58l0 -11.32c0,-1.7 -0.85,-3.4 -2.27,-4.54 -3.11,-2.54 -7.07,-4.24 -11.04,-5.38 -2.83,-0.85 -5.95,-1.41 -9.35,-1.41 -3.11,0 -6.23,0.56 -9.34,1.41 -3.97,1.14 -7.93,3.12 -11.04,5.38 -1.42,1.14 -2.27,2.84 -2.27,4.54l0 11.32 45.31 0z"/>
     </g>
    </g>
   </g>
   <path class="fil4 str0" d="M473.78 28.08c0,-6.26 5.07,-11.33 11.33,-11.33l999.02 0c6.25,0 11.32,5.07 11.32,11.33l0 45.3c0,6.26 -5.07,11.33 -11.32,11.33l-999.02 0c-6.26,0 -11.33,-5.07 -11.33,-11.33l0 -45.3z"/>
   <path class="fil5" d="M508.78 62.28l0 -23.76 7.62 0c2.4,0 4.31,0.48 5.74,1.44 1.42,0.97 2.14,2.43 2.14,4.41 0,1.24 -0.35,2.36 -1.05,3.33 -0.7,0.97 -1.62,1.61 -2.78,1.9 1.65,0.27 2.96,0.93 3.93,1.97 0.99,1.04 1.47,2.33 1.47,3.87 0,1.44 -0.32,2.66 -0.95,3.68 -0.64,1.02 -1.6,1.8 -2.88,2.34 -1.28,0.54 -2.9,0.82 -4.86,0.82l-8.38 0zm3.18 -2.66l5.15 0c1,0 1.93,-0.12 2.77,-0.38 0.85,-0.25 1.53,-0.7 2.03,-1.34 0.51,-0.64 0.76,-1.52 0.76,-2.66 0,-1.37 -0.49,-2.38 -1.48,-3.06 -0.99,-0.67 -2.35,-1.01 -4.08,-1.01l-5.15 0 0 8.45zm0 -11.03l4.43 0c1.53,0 2.7,-0.35 3.5,-1.04 0.81,-0.7 1.21,-1.64 1.21,-2.82 0,-0.81 -0.18,-1.47 -0.54,-2.01 -0.37,-0.53 -0.9,-0.93 -1.6,-1.2 -0.71,-0.26 -1.56,-0.39 -2.57,-0.39l-4.43 0 0 7.46z"/>
   <path id="_1_20" class="fil5" d="M535.81 62.6c-1.99,0 -3.42,-0.57 -4.31,-1.72 -0.88,-1.14 -1.32,-2.71 -1.32,-4.72l0 -11.6 2.97 0 0 11.24c0,0.81 0.08,1.53 0.26,2.17 0.18,0.64 0.51,1.13 1,1.49 0.5,0.35 1.21,0.53 2.14,0.53 1.3,0 2.38,-0.28 3.25,-0.84 0.87,-0.55 1.57,-1.2 2.1,-1.93l0 -12.66 2.97 0 0 17.72 -2.85 0 -0.08 -2.59c-0.55,0.68 -1.34,1.34 -2.34,1.96 -1.01,0.64 -2.27,0.95 -3.79,0.95z"/>
   <path id="_2_21" class="fil5" d="M556.65 62.6c-0.97,0 -1.88,-0.11 -2.75,-0.32 -0.86,-0.22 -1.62,-0.57 -2.29,-1.04 -0.65,-0.48 -1.17,-1.1 -1.54,-1.86 -0.37,-0.77 -0.55,-1.7 -0.55,-2.79l2.84 0c0,1.4 0.41,2.39 1.24,2.96 0.83,0.57 1.87,0.86 3.12,0.86 1.12,0 2.04,-0.23 2.76,-0.68 0.73,-0.45 1.09,-1.2 1.09,-2.23 0,-0.88 -0.33,-1.52 -0.98,-1.95 -0.65,-0.42 -1.8,-0.83 -3.46,-1.24 -1.33,-0.32 -2.47,-0.7 -3.38,-1.13 -0.92,-0.43 -1.61,-0.98 -2.07,-1.64 -0.46,-0.66 -0.69,-1.49 -0.69,-2.49 0,-0.79 0.16,-1.49 0.48,-2.08 0.33,-0.61 0.78,-1.11 1.37,-1.5 0.58,-0.4 1.27,-0.7 2.05,-0.9 0.79,-0.2 1.65,-0.3 2.56,-0.3 0.91,0 1.76,0.11 2.56,0.32 0.79,0.22 1.49,0.56 2.1,1.02 0.6,0.46 1.08,1.06 1.44,1.79 0.35,0.72 0.53,1.59 0.53,2.61l-2.87 0c0,-1.28 -0.36,-2.19 -1.09,-2.72 -0.73,-0.53 -1.62,-0.8 -2.67,-0.8 -1.06,0 -1.91,0.2 -2.58,0.6 -0.65,0.4 -0.99,1.02 -0.99,1.87 0,0.47 0.16,0.87 0.45,1.2 0.29,0.32 0.79,0.62 1.48,0.88 0.7,0.25 1.63,0.53 2.81,0.82 1.28,0.31 2.36,0.69 3.23,1.13 0.87,0.43 1.53,0.99 1.97,1.68 0.44,0.69 0.66,1.56 0.66,2.63 0,0.91 -0.17,1.72 -0.52,2.38 -0.35,0.68 -0.83,1.23 -1.44,1.66 -0.63,0.43 -1.35,0.75 -2.18,0.95 -0.83,0.21 -1.72,0.31 -2.69,0.31z"/>
   <path id="_3_22" class="fil5" d="M574.91 62.6c-1.56,0 -2.94,-0.34 -4.14,-1.01 -1.2,-0.67 -2.14,-1.68 -2.81,-3.03 -0.68,-1.36 -1.01,-3.05 -1.01,-5.09 0,-2.04 0.33,-3.74 0.99,-5.1 0.66,-1.37 1.6,-2.39 2.79,-3.07 1.19,-0.69 2.59,-1.03 4.18,-1.03 1.33,0 2.52,0.22 3.59,0.67 1.07,0.45 1.92,1.12 2.55,2.02 0.64,0.9 0.98,2.04 1.01,3.42l-2.92 0c-0.07,-1.16 -0.47,-2.07 -1.19,-2.73 -0.73,-0.66 -1.73,-1 -2.99,-1 -1.67,0 -2.92,0.6 -3.74,1.79 -0.83,1.2 -1.24,2.87 -1.24,5.03 0,1.43 0.18,2.65 0.55,3.65 0.36,1 0.92,1.76 1.66,2.3 0.74,0.53 1.66,0.79 2.77,0.79 1.26,0 2.29,-0.34 3.07,-1.03 0.79,-0.68 1.2,-1.69 1.24,-3.02l2.91 0c-0.03,1.44 -0.37,2.63 -1.02,3.59 -0.64,0.95 -1.5,1.66 -2.59,2.14 -1.09,0.48 -2.31,0.71 -3.66,0.71z"/>
   <path id="_4_23" class="fil5" d="M591.11 62.6c-0.98,0 -1.89,-0.19 -2.71,-0.58 -0.81,-0.38 -1.47,-0.95 -1.96,-1.7 -0.49,-0.76 -0.73,-1.69 -0.73,-2.8 0,-1.58 0.49,-2.78 1.45,-3.6 0.96,-0.82 2.33,-1.37 4.1,-1.67 1.76,-0.29 3.83,-0.46 6.19,-0.48l0 -1.26c0,-1.55 -0.36,-2.61 -1.09,-3.19 -0.73,-0.58 -1.65,-0.87 -2.78,-0.87 -1.18,0 -2.18,0.32 -3,0.95 -0.81,0.63 -1.21,1.62 -1.21,2.97l-2.87 0c0,-1.45 0.31,-2.63 0.91,-3.52 0.61,-0.9 1.45,-1.55 2.51,-1.96 1.07,-0.42 2.29,-0.62 3.66,-0.62 0.89,0 1.73,0.08 2.54,0.25 0.8,0.17 1.53,0.48 2.17,0.93 0.64,0.44 1.15,1.07 1.53,1.88 0.38,0.81 0.56,1.84 0.56,3.11l0 11.84 -2.75 0 -0.12 -2.61c-0.79,0.88 -1.71,1.59 -2.75,2.13 -1.04,0.54 -2.25,0.8 -3.65,0.8zm0.78 -2.26c1.18,0 2.24,-0.29 3.18,-0.86 0.94,-0.58 1.73,-1.3 2.37,-2.18l0 -3.64c-3.14,0.04 -5.38,0.34 -6.74,0.92 -1.36,0.57 -2.04,1.52 -2.04,2.83 0,0.89 0.27,1.6 0.82,2.14 0.55,0.53 1.35,0.79 2.41,0.79z"/>
   <path id="_5_24" class="fil5" d="M618.19 62.28c-1.4,0 -2.47,-0.23 -3.22,-0.67 -0.74,-0.44 -1.24,-1.07 -1.51,-1.9 -0.28,-0.83 -0.41,-1.83 -0.41,-3l0 -18.19 2.93 0 0 18.05c0,1.08 0.14,1.89 0.42,2.46 0.27,0.56 0.93,0.85 1.98,0.85l0.8 0 0 2.4 -0.99 0z"/>
   <path id="_6_25" class="fil5" d="M622.66 62.28l0 -17.72 2.95 0 0 17.72 -2.95 0zm1.46 -20.94c-0.55,0 -1,-0.16 -1.33,-0.49 -0.34,-0.32 -0.5,-0.73 -0.5,-1.22 0,-0.5 0.16,-0.91 0.5,-1.23 0.33,-0.33 0.78,-0.49 1.33,-0.49 0.56,0 1,0.16 1.35,0.49 0.33,0.32 0.5,0.73 0.5,1.23 0,0.49 -0.17,0.9 -0.5,1.22 -0.35,0.33 -0.79,0.49 -1.35,0.49z"/>
   <path id="_7_26" class="fil5" d="M639.64 62.6c-1.26,0 -2.35,-0.25 -3.25,-0.73 -0.89,-0.49 -1.62,-1.16 -2.18,-2.02l-0.16 2.43 -2.75 0 0 -23.76 2.94 0 0 8.8c0.61,-0.91 1.39,-1.64 2.36,-2.2 0.97,-0.57 2.11,-0.85 3.42,-0.85 1.39,0 2.61,0.34 3.63,1.02 1.03,0.69 1.82,1.71 2.38,3.06 0.56,1.36 0.84,3.05 0.84,5.07 0,2.02 -0.3,3.7 -0.89,5.06 -0.6,1.37 -1.44,2.4 -2.52,3.08 -1.08,0.7 -2.35,1.04 -3.82,1.04zm-0.54 -2.42c1.55,0 2.73,-0.58 3.53,-1.75 0.8,-1.17 1.2,-2.83 1.2,-4.97 0,-2.2 -0.37,-3.89 -1.12,-5.06 -0.75,-1.18 -1.85,-1.76 -3.31,-1.76 -1.24,0 -2.28,0.33 -3.14,1.02 -0.85,0.69 -1.52,1.52 -2.02,2.5l0 6.88c0.46,0.91 1.09,1.66 1.89,2.25 0.8,0.59 1.79,0.89 2.97,0.89z"/>
   <path id="_8_27" class="fil5" d="M651.58 62.28l0 -17.72 2.77 0 0.11 2.85c0.48,-0.89 1.15,-1.64 2.01,-2.24 0.86,-0.6 1.98,-0.9 3.36,-0.9l0.35 0 0 2.7 -0.41 0c-0.86,0 -1.61,0.12 -2.26,0.35 -0.64,0.23 -1.21,0.55 -1.69,0.96 -0.48,0.41 -0.92,0.89 -1.29,1.43l0 12.57 -2.95 0z"/>
   <path id="_9_28" class="fil5" d="M670.23 62.6c-1.69,0 -3.13,-0.37 -4.33,-1.1 -1.2,-0.73 -2.11,-1.78 -2.75,-3.14 -0.62,-1.36 -0.94,-2.99 -0.94,-4.86 0,-1.93 0.32,-3.58 0.94,-4.95 0.64,-1.38 1.55,-2.44 2.75,-3.17 1.2,-0.75 2.64,-1.11 4.33,-1.11 1.72,0 3.18,0.36 4.41,1.11 1.21,0.73 2.15,1.79 2.8,3.17 0.65,1.37 0.98,3.02 0.98,4.95 0,1.87 -0.33,3.5 -0.98,4.86 -0.65,1.36 -1.59,2.41 -2.8,3.14 -1.23,0.73 -2.69,1.1 -4.41,1.1zm0 -2.35c1.27,0 2.28,-0.29 3.04,-0.87 0.75,-0.58 1.29,-1.38 1.62,-2.4 0.33,-1.03 0.49,-2.18 0.49,-3.48 0,-1.33 -0.16,-2.51 -0.49,-3.54 -0.33,-1.05 -0.87,-1.86 -1.62,-2.46 -0.76,-0.59 -1.77,-0.88 -3.04,-0.88 -1.24,0 -2.22,0.29 -2.94,0.88 -0.72,0.6 -1.25,1.41 -1.56,2.46 -0.32,1.03 -0.48,2.21 -0.48,3.54 0,1.3 0.16,2.45 0.48,3.48 0.31,1.02 0.84,1.82 1.56,2.4 0.72,0.58 1.7,0.87 2.94,0.87z"/>
   <path id="_10_29" class="fil5" d="M689.01 62.6c-0.96,0 -1.88,-0.11 -2.74,-0.32 -0.87,-0.22 -1.63,-0.57 -2.29,-1.04 -0.66,-0.48 -1.17,-1.1 -1.55,-1.86 -0.36,-0.77 -0.55,-1.7 -0.55,-2.79l2.84 0c0,1.4 0.41,2.39 1.25,2.96 0.83,0.57 1.86,0.86 3.11,0.86 1.12,0 2.04,-0.23 2.77,-0.68 0.72,-0.45 1.08,-1.2 1.08,-2.23 0,-0.88 -0.32,-1.52 -0.98,-1.95 -0.65,-0.42 -1.8,-0.83 -3.45,-1.24 -1.34,-0.32 -2.47,-0.7 -3.39,-1.13 -0.92,-0.43 -1.61,-0.98 -2.07,-1.64 -0.46,-0.66 -0.68,-1.49 -0.68,-2.49 0,-0.79 0.16,-1.49 0.48,-2.08 0.32,-0.61 0.78,-1.11 1.36,-1.5 0.58,-0.4 1.27,-0.7 2.06,-0.9 0.78,-0.2 1.64,-0.3 2.56,-0.3 0.91,0 1.76,0.11 2.55,0.32 0.79,0.22 1.5,0.56 2.1,1.02 0.61,0.46 1.08,1.06 1.44,1.79 0.36,0.72 0.53,1.59 0.53,2.61l-2.86 0c0,-1.28 -0.36,-2.19 -1.09,-2.72 -0.74,-0.53 -1.62,-0.8 -2.67,-0.8 -1.06,0 -1.92,0.2 -2.58,0.6 -0.66,0.4 -0.99,1.02 -0.99,1.87 0,0.47 0.15,0.87 0.44,1.2 0.29,0.32 0.79,0.62 1.49,0.88 0.69,0.25 1.62,0.53 2.81,0.82 1.27,0.31 2.35,0.69 3.23,1.13 0.86,0.43 1.52,0.99 1.96,1.68 0.45,0.69 0.66,1.56 0.66,2.63 0,0.91 -0.17,1.72 -0.51,2.38 -0.35,0.68 -0.84,1.23 -1.45,1.66 -0.62,0.43 -1.34,0.75 -2.18,0.95 -0.82,0.21 -1.72,0.31 -2.69,0.31z"/>
   <path id="_11_30" class="fil5" d="M700.15 67.01l-0.74 -1.66c0.68,-0.31 1.29,-0.74 1.8,-1.29 0.52,-0.55 0.84,-1.21 0.94,-1.96l0.19 0.18c-0.66,0 -1.2,-0.22 -1.64,-0.65 -0.43,-0.43 -0.66,-0.96 -0.66,-1.58 0,-0.65 0.23,-1.18 0.66,-1.6 0.44,-0.42 0.98,-0.62 1.64,-0.62 0.65,0 1.19,0.23 1.61,0.68 0.42,0.46 0.63,1.17 0.63,2.13 0,1.11 -0.19,2.08 -0.59,2.9 -0.39,0.81 -0.92,1.51 -1.58,2.07 -0.67,0.57 -1.42,1.04 -2.26,1.4z"/>
   <path id="_12_31" class="fil5" d="M717.67 62.28l0 -17.72 2.78 0 0.1 2.85c0.48,-0.89 1.16,-1.64 2.01,-2.24 0.86,-0.6 1.98,-0.9 3.36,-0.9l0.35 0 0 2.7 -0.41 0c-0.86,0 -1.61,0.12 -2.26,0.35 -0.64,0.23 -1.21,0.55 -1.69,0.96 -0.48,0.41 -0.92,0.89 -1.29,1.43l0 12.57 -2.95 0z"/>
   <path id="_13_32" class="fil5" d="M736.42 62.6c-1.86,0 -3.4,-0.4 -4.6,-1.2 -1.19,-0.81 -2.07,-1.91 -2.65,-3.3 -0.58,-1.38 -0.86,-2.94 -0.86,-4.68 0,-1.8 0.27,-3.39 0.83,-4.77 0.56,-1.37 1.41,-2.44 2.56,-3.22 1.15,-0.78 2.61,-1.16 4.37,-1.16 2.34,0 4.18,0.72 5.51,2.17 1.33,1.46 2,3.55 2,6.26 0,0.19 -0.01,0.4 -0.02,0.65 -0.01,0.25 -0.03,0.43 -0.05,0.54l-12.26 0c0.01,1.16 0.2,2.23 0.54,3.2 0.35,0.98 0.9,1.76 1.65,2.35 0.75,0.59 1.75,0.88 2.98,0.88 1.32,0 2.35,-0.32 3.1,-0.97 0.74,-0.65 1.12,-1.58 1.16,-2.81l2.92 0c-0.04,1.25 -0.35,2.33 -0.94,3.23 -0.59,0.91 -1.42,1.6 -2.48,2.1 -1.06,0.48 -2.31,0.73 -3.76,0.73zm-5.15 -10.87l9.39 0c-0.03,-1.68 -0.45,-2.97 -1.25,-3.86 -0.8,-0.9 -1.91,-1.34 -3.34,-1.34 -1.44,0 -2.56,0.44 -3.38,1.32 -0.82,0.89 -1.29,2.18 -1.42,3.88z"/>
   <polygon id="_14_33" class="fil5" points="752.05,62.28 745.45,44.56 748.57,44.56 753.65,59.29 758.8,44.56 761.8,44.56 755.3,62.28 "/>
   <path id="_15_34" class="fil5" d="M764.64 62.28l0 -17.72 2.95 0 0 17.72 -2.95 0zm1.47 -20.94c-0.56,0 -1,-0.16 -1.34,-0.49 -0.33,-0.32 -0.5,-0.73 -0.5,-1.22 0,-0.5 0.17,-0.91 0.5,-1.23 0.34,-0.33 0.78,-0.49 1.34,-0.49 0.55,0 1,0.16 1.34,0.49 0.34,0.32 0.51,0.73 0.51,1.23 0,0.49 -0.17,0.9 -0.51,1.22 -0.34,0.33 -0.79,0.49 -1.34,0.49z"/>
   <path id="_16" class="fil5" d="M779.37 62.6c-0.97,0 -1.88,-0.11 -2.75,-0.32 -0.86,-0.22 -1.62,-0.57 -2.29,-1.04 -0.65,-0.48 -1.17,-1.1 -1.54,-1.86 -0.37,-0.77 -0.55,-1.7 -0.55,-2.79l2.84 0c0,1.4 0.41,2.39 1.24,2.96 0.83,0.57 1.87,0.86 3.12,0.86 1.12,0 2.04,-0.23 2.76,-0.68 0.73,-0.45 1.09,-1.2 1.09,-2.23 0,-0.88 -0.33,-1.52 -0.98,-1.95 -0.65,-0.42 -1.81,-0.83 -3.46,-1.24 -1.33,-0.32 -2.47,-0.7 -3.38,-1.13 -0.92,-0.43 -1.61,-0.98 -2.07,-1.64 -0.46,-0.66 -0.69,-1.49 -0.69,-2.49 0,-0.79 0.16,-1.49 0.48,-2.08 0.33,-0.61 0.78,-1.11 1.37,-1.5 0.58,-0.4 1.27,-0.7 2.05,-0.9 0.79,-0.2 1.65,-0.3 2.56,-0.3 0.91,0 1.76,0.11 2.56,0.32 0.79,0.22 1.49,0.56 2.1,1.02 0.6,0.46 1.08,1.06 1.44,1.79 0.35,0.72 0.53,1.59 0.53,2.61l-2.87 0c0,-1.28 -0.36,-2.19 -1.09,-2.72 -0.73,-0.53 -1.62,-0.8 -2.67,-0.8 -1.06,0 -1.91,0.2 -2.58,0.6 -0.65,0.4 -0.99,1.02 -0.99,1.87 0,0.47 0.16,0.87 0.45,1.2 0.29,0.32 0.79,0.62 1.48,0.88 0.7,0.25 1.63,0.53 2.81,0.82 1.28,0.31 2.36,0.69 3.23,1.13 0.87,0.43 1.53,0.99 1.97,1.68 0.44,0.69 0.66,1.56 0.66,2.63 0,0.91 -0.17,1.72 -0.52,2.38 -0.35,0.68 -0.83,1.23 -1.44,1.66 -0.63,0.43 -1.35,0.75 -2.18,0.95 -0.83,0.21 -1.72,0.31 -2.69,0.31z"/>
   <path id="_17" class="fil5" d="M796.37 62.28c-1.39,0 -2.45,-0.23 -3.19,-0.69 -0.74,-0.46 -1.25,-1.12 -1.53,-1.97 -0.28,-0.86 -0.42,-1.89 -0.42,-3.1l0 -9.58 -2.87 0 0 -2.38 2.87 0 0 -3.95 2.94 0 0 3.95 4.23 0 0 2.38 -4.23 0 0 9.5c0,1.11 0.14,1.97 0.41,2.56 0.27,0.59 0.94,0.89 1.99,0.89l1.87 0 0 2.39 -2.07 0z"/>
   <path id="_18" class="fil5" d="M806.61 62.6c-0.99,0 -1.89,-0.19 -2.71,-0.58 -0.81,-0.38 -1.47,-0.95 -1.96,-1.7 -0.49,-0.76 -0.73,-1.69 -0.73,-2.8 0,-1.58 0.49,-2.78 1.45,-3.6 0.96,-0.82 2.33,-1.37 4.1,-1.67 1.76,-0.29 3.83,-0.46 6.19,-0.48l0 -1.26c0,-1.55 -0.36,-2.61 -1.09,-3.19 -0.73,-0.58 -1.65,-0.87 -2.78,-0.87 -1.18,0 -2.18,0.32 -3,0.95 -0.81,0.63 -1.21,1.62 -1.21,2.97l-2.87 0c0,-1.45 0.31,-2.63 0.91,-3.52 0.61,-0.9 1.45,-1.55 2.51,-1.96 1.07,-0.42 2.29,-0.62 3.66,-0.62 0.89,0 1.73,0.08 2.54,0.25 0.8,0.17 1.53,0.48 2.17,0.93 0.64,0.44 1.15,1.07 1.53,1.88 0.38,0.81 0.56,1.84 0.56,3.11l0 11.84 -2.75 0 -0.12 -2.61c-0.79,0.88 -1.71,1.59 -2.75,2.13 -1.04,0.54 -2.25,0.8 -3.65,0.8zm0.78 -2.26c1.18,0 2.24,-0.29 3.18,-0.86 0.94,-0.58 1.73,-1.3 2.37,-2.18l0 -3.64c-3.14,0.04 -5.38,0.34 -6.74,0.92 -1.36,0.57 -2.04,1.52 -2.04,2.83 0,0.89 0.27,1.6 0.82,2.14 0.55,0.53 1.35,0.79 2.41,0.79z"/>
   <path id="_19" class="fil5" d="M827.48 62.6c-0.96,0 -1.88,-0.11 -2.74,-0.32 -0.87,-0.22 -1.62,-0.57 -2.29,-1.04 -0.65,-0.48 -1.17,-1.1 -1.54,-1.86 -0.37,-0.77 -0.56,-1.7 -0.56,-2.79l2.85 0c0,1.4 0.41,2.39 1.24,2.96 0.83,0.57 1.87,0.86 3.12,0.86 1.12,0 2.04,-0.23 2.76,-0.68 0.73,-0.45 1.09,-1.2 1.09,-2.23 0,-0.88 -0.33,-1.52 -0.98,-1.95 -0.66,-0.42 -1.81,-0.83 -3.46,-1.24 -1.34,-0.32 -2.47,-0.7 -3.38,-1.13 -0.92,-0.43 -1.61,-0.98 -2.07,-1.64 -0.46,-0.66 -0.69,-1.49 -0.69,-2.49 0,-0.79 0.16,-1.49 0.48,-2.08 0.33,-0.61 0.78,-1.11 1.37,-1.5 0.58,-0.4 1.27,-0.7 2.05,-0.9 0.79,-0.2 1.65,-0.3 2.56,-0.3 0.91,0 1.76,0.11 2.56,0.32 0.79,0.22 1.49,0.56 2.09,1.02 0.61,0.46 1.09,1.06 1.44,1.79 0.36,0.72 0.54,1.59 0.54,2.61l-2.87 0c0,-1.28 -0.36,-2.19 -1.09,-2.72 -0.73,-0.53 -1.62,-0.8 -2.67,-0.8 -1.06,0 -1.91,0.2 -2.58,0.6 -0.65,0.4 -0.99,1.02 -0.99,1.87 0,0.47 0.15,0.87 0.45,1.2 0.29,0.32 0.79,0.62 1.48,0.88 0.7,0.25 1.63,0.53 2.81,0.82 1.28,0.31 2.36,0.69 3.23,1.13 0.87,0.43 1.53,0.99 1.97,1.68 0.44,0.69 0.66,1.56 0.66,2.63 0,0.91 -0.18,1.72 -0.52,2.38 -0.35,0.68 -0.83,1.23 -1.45,1.66 -0.62,0.43 -1.34,0.75 -2.17,0.95 -0.83,0.21 -1.73,0.31 -2.7,0.31z"/>
   <path class="fil5" d="M851.57 62.6c-1.87,0 -3.41,-0.4 -4.6,-1.2 -1.19,-0.81 -2.08,-1.91 -2.66,-3.3 -0.58,-1.38 -0.86,-2.94 -0.86,-4.68 0,-1.8 0.28,-3.39 0.84,-4.77 0.55,-1.37 1.41,-2.44 2.56,-3.22 1.15,-0.78 2.6,-1.16 4.37,-1.16 2.34,0 4.18,0.72 5.51,2.17 1.32,1.46 1.99,3.55 1.99,6.26 0,0.19 0,0.4 -0.01,0.65 -0.02,0.25 -0.03,0.43 -0.06,0.54l-12.25 0c0.01,1.16 0.19,2.23 0.54,3.2 0.34,0.98 0.89,1.76 1.65,2.35 0.75,0.59 1.74,0.88 2.98,0.88 1.32,0 2.35,-0.32 3.09,-0.97 0.74,-0.65 1.13,-1.58 1.16,-2.81l2.92 0c-0.03,1.25 -0.35,2.33 -0.94,3.23 -0.58,0.91 -1.41,1.6 -2.47,2.1 -1.06,0.48 -2.31,0.73 -3.76,0.73zm-5.15 -10.87l9.39 0c-0.03,-1.68 -0.46,-2.97 -1.26,-3.86 -0.79,-0.9 -1.91,-1.34 -3.33,-1.34 -1.44,0 -2.57,0.44 -3.38,1.32 -0.82,0.89 -1.3,2.18 -1.42,3.88z"/>
   <path class="fil5" d="M877.78 62.6c-1.87,0 -3.41,-0.4 -4.6,-1.2 -1.2,-0.81 -2.08,-1.91 -2.66,-3.3 -0.58,-1.38 -0.86,-2.94 -0.86,-4.68 0,-1.8 0.27,-3.39 0.84,-4.77 0.55,-1.37 1.41,-2.44 2.56,-3.22 1.14,-0.78 2.6,-1.16 4.37,-1.16 2.33,0 4.17,0.72 5.51,2.17 1.32,1.46 1.99,3.55 1.99,6.26 0,0.19 -0.01,0.4 -0.02,0.65 -0.01,0.25 -0.03,0.43 -0.05,0.54l-12.26 0c0.02,1.16 0.2,2.23 0.54,3.2 0.35,0.98 0.9,1.76 1.65,2.35 0.76,0.59 1.75,0.88 2.99,0.88 1.32,0 2.35,-0.32 3.09,-0.97 0.74,-0.65 1.12,-1.58 1.16,-2.81l2.92 0c-0.04,1.25 -0.35,2.33 -0.94,3.23 -0.59,0.91 -1.41,1.6 -2.47,2.1 -1.06,0.48 -2.32,0.73 -3.76,0.73zm-5.16 -10.87l9.39 0c-0.03,-1.68 -0.45,-2.97 -1.25,-3.86 -0.8,-0.9 -1.91,-1.34 -3.33,-1.34 -1.44,0 -2.57,0.44 -3.38,1.32 -0.82,0.89 -1.3,2.18 -1.43,3.88z"/>
   <polygon class="fil5" points="888.51,54.8 888.51,52.19 897.32,52.19 897.32,54.8 "/>
   <path class="fil5" d="M910.18 62.6c-1.27,0 -2.35,-0.25 -3.25,-0.73 -0.89,-0.49 -1.62,-1.16 -2.19,-2.02l-0.15 2.43 -2.76 0 0 -23.76 2.95 0 0 8.8c0.6,-0.91 1.39,-1.64 2.36,-2.2 0.97,-0.57 2.1,-0.85 3.41,-0.85 1.4,0 2.62,0.34 3.64,1.02 1.02,0.69 1.82,1.71 2.38,3.06 0.55,1.36 0.84,3.05 0.84,5.07 0,2.02 -0.31,3.7 -0.9,5.06 -0.59,1.37 -1.43,2.4 -2.52,3.08 -1.07,0.7 -2.35,1.04 -3.81,1.04zm-0.54 -2.42c1.55,0 2.73,-0.58 3.53,-1.75 0.79,-1.17 1.2,-2.83 1.2,-4.97 0,-2.2 -0.38,-3.89 -1.12,-5.06 -0.75,-1.18 -1.85,-1.76 -3.32,-1.76 -1.23,0 -2.28,0.33 -3.13,1.02 -0.85,0.69 -1.53,1.52 -2.02,2.5l0 6.88c0.46,0.91 1.09,1.66 1.89,2.25 0.8,0.59 1.79,0.89 2.97,0.89z"/>
   <path id="_1_35" class="fil5" d="M929.16 62.6c-1.68,0 -3.12,-0.37 -4.32,-1.1 -1.2,-0.73 -2.12,-1.78 -2.75,-3.14 -0.63,-1.36 -0.94,-2.99 -0.94,-4.86 0,-1.93 0.31,-3.58 0.94,-4.95 0.63,-1.38 1.55,-2.44 2.75,-3.17 1.2,-0.75 2.64,-1.11 4.32,-1.11 1.72,0 3.19,0.36 4.41,1.11 1.22,0.73 2.15,1.79 2.8,3.17 0.66,1.37 0.98,3.02 0.98,4.95 0,1.87 -0.32,3.5 -0.98,4.86 -0.65,1.36 -1.58,2.41 -2.8,3.14 -1.22,0.73 -2.69,1.1 -4.41,1.1zm0 -2.35c1.28,0 2.29,-0.29 3.04,-0.87 0.76,-0.58 1.29,-1.38 1.62,-2.4 0.33,-1.03 0.5,-2.18 0.5,-3.48 0,-1.33 -0.17,-2.51 -0.5,-3.54 -0.33,-1.05 -0.86,-1.86 -1.62,-2.46 -0.75,-0.59 -1.76,-0.88 -3.04,-0.88 -1.23,0 -2.21,0.29 -2.94,0.88 -0.72,0.6 -1.24,1.41 -1.56,2.46 -0.32,1.03 -0.47,2.21 -0.47,3.54 0,1.3 0.15,2.45 0.47,3.48 0.32,1.02 0.84,1.82 1.56,2.4 0.73,0.58 1.71,0.87 2.94,0.87z"/>
   <path id="_2_36" class="fil5" d="M949.12 62.6c-1.69,0 -3.13,-0.37 -4.33,-1.1 -1.2,-0.73 -2.11,-1.78 -2.75,-3.14 -0.62,-1.36 -0.94,-2.99 -0.94,-4.86 0,-1.93 0.32,-3.58 0.94,-4.95 0.64,-1.38 1.55,-2.44 2.75,-3.17 1.2,-0.75 2.64,-1.11 4.33,-1.11 1.72,0 3.18,0.36 4.4,1.11 1.22,0.73 2.16,1.79 2.81,3.17 0.65,1.37 0.98,3.02 0.98,4.95 0,1.87 -0.33,3.5 -0.98,4.86 -0.65,1.36 -1.59,2.41 -2.81,3.14 -1.22,0.73 -2.68,1.1 -4.4,1.1zm0 -2.35c1.27,0 2.28,-0.29 3.04,-0.87 0.75,-0.58 1.29,-1.38 1.62,-2.4 0.33,-1.03 0.49,-2.18 0.49,-3.48 0,-1.33 -0.16,-2.51 -0.49,-3.54 -0.33,-1.05 -0.87,-1.86 -1.62,-2.46 -0.76,-0.59 -1.77,-0.88 -3.04,-0.88 -1.24,0 -2.22,0.29 -2.94,0.88 -0.73,0.6 -1.25,1.41 -1.56,2.46 -0.32,1.03 -0.48,2.21 -0.48,3.54 0,1.3 0.16,2.45 0.48,3.48 0.31,1.02 0.83,1.82 1.56,2.4 0.72,0.58 1.7,0.87 2.94,0.87z"/>
   <polygon id="_3_37" class="fil5" points="962.03,62.28 962.03,38.52 964.98,38.52 964.98,52.9 972.74,44.56 976.22,44.56 968.45,52.85 976.93,62.28 973.26,62.28 964.98,53.07 964.98,62.28 "/>
   <path id="_4_38" class="fil5" d="M985.23 62.6c-0.97,0 -1.88,-0.11 -2.75,-0.32 -0.86,-0.22 -1.62,-0.57 -2.29,-1.04 -0.65,-0.48 -1.17,-1.1 -1.54,-1.86 -0.37,-0.77 -0.55,-1.7 -0.55,-2.79l2.84 0c0,1.4 0.41,2.39 1.24,2.96 0.83,0.57 1.87,0.86 3.12,0.86 1.12,0 2.04,-0.23 2.77,-0.68 0.72,-0.45 1.08,-1.2 1.08,-2.23 0,-0.88 -0.33,-1.52 -0.98,-1.95 -0.65,-0.42 -1.8,-0.83 -3.46,-1.24 -1.33,-0.32 -2.47,-0.7 -3.38,-1.13 -0.92,-0.43 -1.61,-0.98 -2.07,-1.64 -0.46,-0.66 -0.69,-1.49 -0.69,-2.49 0,-0.79 0.17,-1.49 0.49,-2.08 0.32,-0.61 0.77,-1.11 1.36,-1.5 0.58,-0.4 1.27,-0.7 2.05,-0.9 0.79,-0.2 1.65,-0.3 2.56,-0.3 0.91,0 1.76,0.11 2.56,0.32 0.79,0.22 1.49,0.56 2.1,1.02 0.61,0.46 1.08,1.06 1.44,1.79 0.35,0.72 0.53,1.59 0.53,2.61l-2.87 0c0,-1.28 -0.36,-2.19 -1.09,-2.72 -0.73,-0.53 -1.62,-0.8 -2.67,-0.8 -1.06,0 -1.91,0.2 -2.58,0.6 -0.65,0.4 -0.98,1.02 -0.98,1.87 0,0.47 0.15,0.87 0.44,1.2 0.29,0.32 0.79,0.62 1.48,0.88 0.7,0.25 1.63,0.53 2.81,0.82 1.28,0.31 2.36,0.69 3.23,1.13 0.87,0.43 1.53,0.99 1.97,1.68 0.44,0.69 0.66,1.56 0.66,2.63 0,0.91 -0.17,1.72 -0.52,2.38 -0.35,0.68 -0.83,1.23 -1.44,1.66 -0.62,0.43 -1.35,0.75 -2.18,0.95 -0.83,0.21 -1.72,0.31 -2.69,0.31z"/>
   <line class="fil6 str0" x1="1433.59" y1="16.75" x2="1433.59" y2= "84.5" />
   <g>
    <g>
     <g>
      <path class="fil2" d="M1483.02 62.98l-6.23 -6.24c-0.85,-0.85 -2,-1.14 -3.1,-0.95l-2.2 -2.19c1.95,-2.5 3.1,-5.69 3.1,-9.09 0,-8.23 -6.74,-14.97 -14.98,-14.97 -8.24,0 -14.98,6.74 -14.98,14.97 0,8.24 6.74,14.98 14.98,14.98 3.39,0 6.54,-1.15 9.08,-3.1l2.2 2.2c-0.2,1.1 0.1,2.25 0.95,3.1l6.24 6.24c0.7,0.69 1.6,1.04 2.5,1.04 0.9,0 1.8,-0.35 2.49,-1.04 1.3,-1.4 1.3,-3.6 -0.05,-4.95zm-23.46 -6.54c-6.59,0 -11.98,-5.39 -11.98,-11.98 0,-6.59 5.39,-11.98 11.98,-11.98 6.59,0 11.98,5.39 11.98,11.98 0,6.59 -5.39,11.98 -11.98,11.98z"/>
     </g>
    </g>
   </g>
   <path class="fil4 str1" d="M26.77 401.82c0,-5.74 4.65,-10.39 10.38,-10.39l116.47 0c5.74,0 10.39,4.65 10.39,10.39l0 41.53c0,5.74 -4.65,10.39 -10.39,10.39l-116.47 0c-5.73,0 -10.38,-4.65 -10.38,-10.39l0 -41.53z"/>
   <g>
   </g>
   <g style="clip-path:url(#id0)">
    <g>
     <polygon class="fil2" points="70.97,111.53 70.97,111.53 52.89,128.95 54.83,130.6 70.97,115.1 70.97,115.1 87.12,130.6 89.06,128.95 "/>
     <polygon class="fil2" points="58.06,129.95 58.06,142.88 68.39,142.88 68.39,131.99 73.56,131.99 73.56,142.88 83.89,142.88 83.89,129.95 70.97,117.54 "/>
    </g>
   </g>
   <polygon class="fil7" points="52.25,142.88 89.72,142.88 89.72,111.51 52.25,111.51 "/>
   <g>
    <g>
     <g>
      <path class="fil2" d="M84.12 272.57l-26.7 0 0 -6.2 26.7 0 0 6.2zm0 10.84l-26.7 0 0 -6.2 26.7 0 0 6.2zm0.79 -19.36l-28.27 0c-0.87,0 -1.57,0.69 -1.57,1.54l0 18.59c0,0.86 0.7,1.55 1.57,1.55l28.27 0c0.86,0 1.57,-0.69 1.57,-1.55l0 -18.59c0,-0.85 -0.71,-1.54 -1.57,-1.54z"/>
      <polygon class="fil2" points="59.78,279.54 66.06,279.54 66.06,281.09 59.78,281.09 "/>
      <polygon class="fil2" points="67.63,279.54 70.77,279.54 70.77,281.09 67.63,281.09 "/>
     </g>
    </g>
   </g>
   <g>
   </g>
   <g style="clip-path:url(#id1)">
    <g>
     <path class="fil2" d="M78.33 193.06c0,4.07 -3.29,7.37 -7.34,7.37 -4.06,0 -7.34,-3.3 -7.34,-7.37 0,-4.07 3.28,-7.37 7.34,-7.37 4.05,0 7.34,3.3 7.34,7.37z"/>
     <path class="fil2" d="M85.67 216.94l0 -7.29c0,-1.11 -0.55,-2.21 -1.47,-2.95 -2.02,-1.66 -4.59,-2.76 -7.15,-3.5 -1.84,-0.55 -3.86,-0.92 -6.06,-0.92 -2.02,0 -4.04,0.37 -6.06,0.92 -2.57,0.74 -5.14,2.03 -7.16,3.5 -0.91,0.74 -1.46,1.84 -1.46,2.95l0 7.29 29.36 0z"/>
    </g>
   </g>
   <polygon class="fil6" points="56.18,216.94 85.8,216.94 85.8,185.57 56.18,185.57 "/>
   <g>
    <g>
     <g>
      <path class="fil2" d="M84.22 358.29c-2.42,-1.2 -6.06,-4.26 -6.4,-15.61 -0.13,-4.18 -2.74,-5.97 -4.93,-6.74 0.09,-0.28 0.13,-0.56 0.13,-0.85 0,-1.69 -1.38,-3.05 -3.08,-3.05 -1.7,0 -3.08,1.36 -3.08,3.05 0,0.29 0.04,0.57 0.12,0.85 -2.19,0.77 -4.8,2.56 -4.92,6.74 -0.35,11.34 -3.99,14.4 -6.41,15.61 -0.99,0.48 -0.49,1.63 0.08,1.63l10.98 0c0.18,1.76 1.78,3.04 3.56,2.86 1.53,-0.15 2.74,-1.35 2.9,-2.86l10.97 0c0.58,0 1.07,-1.14 0.08,-1.63zm-15.64 -23.18c0,-0.74 0.61,-1.34 1.36,-1.34 0.75,0 1.35,0.6 1.35,1.34 0,0.13 -0.02,0.27 -0.06,0.4 -0.43,-0.09 -0.86,-0.13 -1.29,-0.15l0 0c-0.44,0.02 -0.87,0.07 -1.29,0.15 -0.05,-0.13 -0.07,-0.27 -0.07,-0.4z"/>
     </g>
    </g>
   </g>
   <g>
    <g>
     <g>
      <polygon class="fil2" points="59.35,405.32 61.66,405.32 61.66,436.01 59.35,436.01 "/>
      <path class="fil2" d="M77.42 416.78l-10.76 0 0 -2.31 10.76 0 0 2.31zm-2.3 3.84l-5.96 0 0 -1.53 5.96 0 0 1.53zm4.23 -15.38l-16.15 0.08 0 30.69 16.15 0c0.84,0 1.53,-0.69 1.53,-1.54l0 -27.69c0,-0.85 -0.69,-1.54 -1.53,-1.54z"/>
     </g>
    </g>
   </g>
   <g>
    <g>
     <g>
      <path class="fil2" d="M77.46 482.88l-15.99 0 0 22.75 15.99 0 0 -22.75zm-9.77 25.59l3.55 0c0.49,0 0.89,-0.32 0.89,-0.71 0,-0.39 -0.4,-0.71 -0.89,-0.71l-3.55 0c-0.49,0 -0.89,0.32 -0.89,0.71 0,0.39 0.4,0.71 0.89,0.71zm11.55 1.42l-19.55 0c-0.49,0 -0.89,-0.32 -0.89,-0.71l0 -29.85c0,-0.39 0.4,-0.71 0.89,-0.71l19.55 0c0.49,0 0.89,0.32 0.89,0.71l0 29.85c0,0.39 -0.4,0.71 -0.89,0.71z"/>
     </g>
    </g>
   </g>
   <g>
   </g>
   <g style="clip-path:url(#id2)">
    <g>
     <path class="fil2" d="M67.95 1029.73l-2.51 -2.55 2.51 -2.55 2.52 2.55c0.52,0.53 1.37,0.52 1.89,-0.01 0.51,-0.53 0.51,-1.38 0,-1.9l-2.52 -2.55 1.57 -1.6 -3.14 -3.19c-2.24,-2.27 -5.75,-2.63 -8.39,-0.87l-1.03 -1.08c-1.33,-1.39 -2.96,-2.43 -4.74,-3.04l-0.11 0 0 2.85c1.09,0.49 2.09,1.19 2.93,2.07l1.06 1.11c-1.75,2.69 -1.4,6.25 0.84,8.53l3.15 3.19 1.57 -1.59 2.52 2.55c0.52,0.52 1.37,0.51 1.88,-0.02 0.51,-0.52 0.51,-1.37 0,-1.9z"/>
     <path class="fil2" d="M85.37 1041.53c-1.37,-0.44 -2.63,-1.19 -3.68,-2.23l-1.22 -1.19c1.74,-2.68 1.39,-6.23 -0.85,-8.5l-3.15 -3.19 -9.43 9.56 3.14 3.19c2.25,2.28 5.76,2.64 8.41,0.86l1.24 1.22c1.52,1.49 3.39,2.54 5.4,3.05l0.14 0 0 -2.77z"/>
    </g>
   </g>
   <polygon class="fil6" points="54,1044.3 85.37,1044.3 85.37,1012.94 54,1012.94 "/>
   <rect class="fil1" x="138.96" y="379.02" width="30.06" height="84.96"/>
   <path class="fil2" d="M806.46 427.48c-2.81,0 -5.37,-0.43 -7.66,-1.29 -2.29,-0.86 -4.1,-2.21 -5.44,-4.05 -1.32,-1.84 -1.99,-4.23 -1.99,-7.16l5.29 0c0.01,2.09 0.48,3.74 1.39,4.93 0.91,1.19 2.12,2.03 3.61,2.52 1.49,0.49 3.15,0.73 4.95,0.73 1.69,0 3.21,-0.25 4.59,-0.74 1.38,-0.5 2.49,-1.25 3.31,-2.26 0.82,-1.01 1.23,-2.3 1.23,-3.87 0,-1.38 -0.32,-2.53 -0.97,-3.4 -0.64,-0.88 -1.71,-1.65 -3.2,-2.31 -1.49,-0.65 -3.51,-1.3 -6.05,-1.95 -2.98,-0.79 -5.42,-1.64 -7.34,-2.57 -1.92,-0.93 -3.34,-2.09 -4.26,-3.48 -0.94,-1.39 -1.41,-3.15 -1.41,-5.29 0,-2.24 0.53,-4.14 1.6,-5.68 1.05,-1.53 2.56,-2.71 4.53,-3.51 1.97,-0.8 4.31,-1.2 7.06,-1.2 2.55,0 4.87,0.41 6.98,1.23 2.12,0.82 3.8,2.06 5.06,3.7 1.27,1.64 1.9,3.7 1.9,6.14l-5.31 0c0.04,-2.23 -0.77,-3.93 -2.44,-5.07 -1.66,-1.14 -3.71,-1.71 -6.16,-1.71 -2.51,0 -4.47,0.5 -5.89,1.51 -1.42,1 -2.13,2.48 -2.13,4.42 0,1.15 0.3,2.11 0.92,2.89 0.6,0.78 1.65,1.48 3.15,2.1 1.49,0.63 3.57,1.28 6.2,1.96 3.06,0.83 5.54,1.71 7.44,2.65 1.89,0.94 3.3,2.14 4.2,3.62 0.89,1.46 1.34,3.39 1.34,5.78 0,2.54 -0.64,4.65 -1.92,6.32 -1.29,1.68 -3.01,2.94 -5.19,3.78 -2.19,0.84 -4.65,1.26 -7.39,1.26z"/>
   <path id="_1_39" class="fil2" d="M838.64 427.48c-2.69,0 -4.98,-0.6 -6.88,-1.81 -1.89,-1.21 -3.35,-2.95 -4.36,-5.22 -1.01,-2.27 -1.51,-4.97 -1.51,-8.12 0,-3.18 0.5,-5.92 1.51,-8.21 1.01,-2.29 2.47,-4.04 4.36,-5.28 1.9,-1.23 4.19,-1.84 6.88,-1.84 2.73,0 5.08,0.61 7.04,1.84 1.96,1.24 3.45,2.99 4.49,5.28 1.03,2.29 1.55,5.03 1.55,8.21 0,3.15 -0.52,5.85 -1.55,8.12 -1.04,2.27 -2.53,4.01 -4.49,5.22 -1.96,1.21 -4.31,1.81 -7.04,1.81zm0 -3.87c1.97,0 3.55,-0.5 4.71,-1.47 1.16,-0.98 2,-2.31 2.52,-4.01 0.51,-1.68 0.77,-3.62 0.77,-5.8 0,-2.18 -0.26,-4.13 -0.77,-5.84 -0.52,-1.7 -1.36,-3.06 -2.52,-4.05 -1.16,-0.98 -2.74,-1.47 -4.71,-1.47 -1.87,0 -3.36,0.49 -4.5,1.47 -1.13,0.99 -1.96,2.35 -2.45,4.05 -0.5,1.71 -0.75,3.67 -0.75,5.87 0,2.16 0.25,4.09 0.75,5.77 0.49,1.7 1.32,3.03 2.45,4.01 1.14,0.97 2.63,1.47 4.5,1.47z"/>
   <path id="_2_40" class="fil2" d="M866.41 426.94c-2.32,0 -4.08,-0.37 -5.32,-1.1 -1.23,-0.73 -2.08,-1.78 -2.54,-3.17 -0.46,-1.38 -0.69,-3.03 -0.69,-4.98l0 -30.25 4.91 0 0 30.02c0,1.79 0.23,3.14 0.68,4.08 0.46,0.94 1.55,1.41 3.28,1.41l1.32 0 0 3.99 -1.64 0z"/>
   <path id="_3_41" class="fil2" d="M872.75 426.94l0 -29.46 4.9 0 0 29.46 -4.9 0zm2.46 -34.81c-0.94,0 -1.68,-0.27 -2.23,-0.81 -0.55,-0.53 -0.82,-1.21 -0.82,-2.04 0,-0.82 0.27,-1.5 0.82,-2.04 0.55,-0.54 1.29,-0.8 2.23,-0.8 0.93,0 1.67,0.26 2.23,0.8 0.57,0.54 0.85,1.22 0.85,2.04 0,0.83 -0.28,1.51 -0.85,2.04 -0.56,0.54 -1.3,0.81 -2.23,0.81z"/>
   <path id="_4_42" class="fil2" d="M896.88 427.48c-2.51,0 -4.72,-0.56 -6.67,-1.69 -1.93,-1.13 -3.45,-2.83 -4.54,-5.07 -1.1,-2.26 -1.65,-5.05 -1.65,-8.4 0,-3.35 0.54,-6.17 1.61,-8.45 1.09,-2.28 2.59,-3.99 4.51,-5.15 1.93,-1.15 4.17,-1.72 6.74,-1.72 2.15,0 4.09,0.37 5.8,1.12 1.71,0.75 3.08,1.88 4.11,3.38 1.03,1.51 1.58,3.42 1.66,5.72l-4.85 0c-0.14,-1.94 -0.79,-3.47 -1.98,-4.59 -1.18,-1.11 -2.74,-1.66 -4.65,-1.66 -2.61,0 -4.57,0.99 -5.9,2.97 -1.34,2 -2,4.78 -2,8.38 0,2.37 0.29,4.38 0.88,6.05 0.59,1.68 1.47,2.96 2.64,3.83 1.18,0.88 2.63,1.32 4.38,1.32 1.95,0 3.58,-0.57 4.84,-1.69 1.27,-1.13 1.94,-2.79 2,-4.99l4.81 0c-0.04,2.36 -0.58,4.33 -1.62,5.91 -1.05,1.59 -2.46,2.77 -4.2,3.55 -1.75,0.79 -3.73,1.18 -5.92,1.18z"/>
   <path id="_5_43" class="fil2" d="M915.03 426.94l0 -29.46 4.9 0 0 29.46 -4.9 0zm2.46 -34.81c-0.94,0 -1.68,-0.27 -2.23,-0.81 -0.55,-0.53 -0.83,-1.21 -0.83,-2.04 0,-0.82 0.28,-1.5 0.83,-2.04 0.55,-0.54 1.29,-0.8 2.23,-0.8 0.92,0 1.66,0.26 2.23,0.8 0.57,0.54 0.85,1.22 0.85,2.04 0,0.83 -0.28,1.51 -0.85,2.04 -0.57,0.54 -1.31,0.81 -2.23,0.81z"/>
   <path id="_6_44" class="fil2" d="M937.42 426.94c-2.28,0 -4.06,-0.38 -5.3,-1.14 -1.24,-0.76 -2.09,-1.85 -2.55,-3.28 -0.47,-1.43 -0.69,-3.14 -0.69,-5.15l0 -15.92 -4.76 0 0 -3.97 4.76 0 0 -6.55 4.9 0 0 6.55 7.08 0 0 3.97 -7.08 0 0 15.78c0,1.86 0.23,3.27 0.7,4.25 0.45,0.98 1.54,1.47 3.26,1.47l3.12 0 0 3.99 -3.44 0z"/>
   <path id="_7_45" class="fil2" d="M952.6 427.48c-1.54,0 -2.95,-0.31 -4.23,-0.93 -1.27,-0.62 -2.29,-1.55 -3.05,-2.79 -0.76,-1.25 -1.14,-2.79 -1.14,-4.63 0,-2.65 0.76,-4.65 2.27,-6.02 1.51,-1.36 3.67,-2.28 6.44,-2.76 2.78,-0.48 6.04,-0.74 9.75,-0.78l0 -2.2c0,-2.57 -0.56,-4.34 -1.67,-5.29 -1.12,-0.96 -2.51,-1.44 -4.2,-1.44 -1.84,0 -3.38,0.51 -4.64,1.52 -1.25,1.01 -1.88,2.64 -1.88,4.87l-4.75 0c0,-2.37 0.48,-4.31 1.45,-5.78 0.97,-1.48 2.31,-2.57 4.01,-3.24 1.7,-0.67 3.64,-1.01 5.81,-1.01 1.37,0 2.69,0.14 3.96,0.42 1.27,0.28 2.43,0.8 3.44,1.54 1.02,0.75 1.82,1.79 2.4,3.13 0.59,1.34 0.88,3.07 0.88,5.18l0 19.67 -4.52 0 -0.17 -4.16c-1.25,1.46 -2.71,2.6 -4.37,3.44 -1.67,0.84 -3.59,1.26 -5.79,1.26zm1.3 -3.75c1.85,0 3.51,-0.46 4.99,-1.37 1.46,-0.9 2.7,-2.08 3.72,-3.54l0 -6.2c-4.84,0.06 -8.29,0.57 -10.39,1.54 -2.09,0.97 -3.14,2.56 -3.14,4.78 0,1.46 0.4,2.62 1.2,3.49 0.81,0.86 2.01,1.3 3.62,1.3z"/>
   <path id="_8_46" class="fil2" d="M974.98 426.94l0 -29.46 4.61 0 0.17 4.72c0.82,-1.47 1.95,-2.7 3.38,-3.71 1.43,-0.99 3.27,-1.49 5.55,-1.49l0.59 0 0 4.49 -0.68 0c-1.43,0 -2.68,0.2 -3.76,0.58 -1.07,0.39 -2.01,0.92 -2.81,1.6 -0.79,0.69 -1.51,1.48 -2.15,2.38l0 20.89 -4.9 0z"/>
   <path id="_9_47" class="fil2" d="M1005.21 426.94l0 -29.46 4.61 0 0.17 4.72c0.82,-1.47 1.96,-2.7 3.38,-3.71 1.43,-0.99 3.28,-1.49 5.55,-1.49l0.59 0 0 4.49 -0.68 0c-1.42,0 -2.68,0.2 -3.76,0.58 -1.07,0.39 -2.01,0.92 -2.8,1.6 -0.79,0.69 -1.52,1.48 -2.16,2.38l0 20.89 -4.9 0z"/>
   <path id="_10_48" class="fil2" d="M1034.83 427.48c-2.97,0 -5.43,-0.67 -7.37,-2 -1.94,-1.34 -3.38,-3.17 -4.33,-5.47 -0.95,-2.31 -1.42,-4.9 -1.42,-7.79 0,-2.99 0.46,-5.64 1.38,-7.92 0.92,-2.29 2.31,-4.07 4.18,-5.37 1.87,-1.29 4.22,-1.93 7.03,-1.93 3.78,0 6.74,1.2 8.87,3.62 2.14,2.41 3.2,5.89 3.2,10.41 0,0.3 -0.01,0.66 -0.02,1.07 0,0.41 -0.03,0.71 -0.07,0.89l-19.64 0c0.02,1.94 0.31,3.72 0.85,5.33 0.55,1.63 1.42,2.93 2.62,3.91 1.21,0.97 2.78,1.47 4.72,1.47 2.1,0 3.72,-0.55 4.88,-1.62 1.18,-1.08 1.79,-2.63 1.84,-4.67l4.85 0c-0.06,2.08 -0.56,3.87 -1.52,5.37 -0.95,1.51 -2.27,2.66 -3.97,3.48 -1.71,0.81 -3.73,1.22 -6.08,1.22zm-8.16 -18.06l14.86 0c-0.06,-2.81 -0.72,-4.95 -1.98,-6.44 -1.25,-1.48 -3,-2.22 -5.25,-2.22 -2.29,0 -4.08,0.73 -5.36,2.2 -1.28,1.48 -2.03,3.63 -2.27,6.46z"/>
   <path id="_11_49" class="fil2" d="M1062.78 427.48c-1.62,0 -3.16,-0.18 -4.59,-0.53 -1.44,-0.36 -2.7,-0.93 -3.81,-1.72 -1.09,-0.79 -1.95,-1.83 -2.56,-3.08 -0.62,-1.26 -0.92,-2.79 -0.92,-4.61l4.72 0c0,2.34 0.7,3.96 2.08,4.9 1.39,0.93 3.13,1.41 5.2,1.41 1.86,0 3.39,-0.38 4.59,-1.13 1.2,-0.74 1.81,-1.95 1.81,-3.65 0,-1.47 -0.55,-2.54 -1.63,-3.23 -1.09,-0.69 -3,-1.39 -5.77,-2.11 -2.23,-0.55 -4.1,-1.18 -5.6,-1.9 -1.52,-0.72 -2.65,-1.63 -3.41,-2.74 -0.76,-1.11 -1.14,-2.51 -1.14,-4.19 0,-1.31 0.26,-2.45 0.8,-3.43 0.54,-0.99 1.29,-1.81 2.26,-2.48 0.97,-0.66 2.11,-1.15 3.41,-1.49 1.29,-0.33 2.72,-0.5 4.24,-0.5 1.5,0 2.92,0.18 4.24,0.55 1.32,0.36 2.49,0.93 3.51,1.69 1.02,0.77 1.82,1.75 2.39,2.96 0.58,1.2 0.87,2.65 0.87,4.31l-4.76 0c0,-2.1 -0.6,-3.6 -1.8,-4.48 -1.2,-0.89 -2.69,-1.33 -4.45,-1.33 -1.76,0 -3.19,0.33 -4.29,0.98 -1.09,0.65 -1.64,1.67 -1.64,3.07 0,0.79 0.24,1.46 0.73,2 0.49,0.55 1.31,1.04 2.46,1.48 1.17,0.44 2.71,0.91 4.64,1.39 2.16,0.53 3.95,1.16 5.4,1.89 1.43,0.73 2.52,1.67 3.25,2.84 0.73,1.15 1.1,2.65 1.1,4.48 0,1.5 -0.28,2.8 -0.85,3.89 -0.57,1.11 -1.36,2.01 -2.39,2.71 -1.02,0.7 -2.23,1.21 -3.61,1.55 -1.38,0.33 -2.88,0.5 -4.48,0.5z"/>
   <path id="_12_50" class="fil2" d="M1091.73 427.48c-2.98,0 -5.43,-0.67 -7.37,-2 -1.94,-1.34 -3.38,-3.17 -4.33,-5.47 -0.96,-2.31 -1.43,-4.9 -1.43,-7.79 0,-2.99 0.46,-5.64 1.39,-7.92 0.92,-2.29 2.31,-4.07 4.18,-5.37 1.87,-1.29 4.21,-1.93 7.03,-1.93 3.78,0 6.73,1.2 8.87,3.62 2.13,2.41 3.19,5.89 3.19,10.41 0,0.3 -0.01,0.66 -0.02,1.07 0,0.41 -0.03,0.71 -0.07,0.89l-19.64 0c0.02,1.94 0.31,3.72 0.86,5.33 0.55,1.63 1.42,2.93 2.62,3.91 1.2,0.97 2.78,1.47 4.72,1.47 2.1,0 3.72,-0.55 4.88,-1.62 1.17,-1.08 1.78,-2.63 1.83,-4.67l4.85 0c-0.06,2.08 -0.56,3.87 -1.51,5.37 -0.95,1.51 -2.27,2.66 -3.98,3.48 -1.7,0.81 -3.72,1.22 -6.07,1.22zm-8.17 -18.06l14.86 0c-0.06,-2.81 -0.72,-4.95 -1.97,-6.44 -1.25,-1.48 -3.01,-2.22 -5.25,-2.22 -2.29,0 -4.08,0.73 -5.36,2.2 -1.28,1.48 -2.04,3.63 -2.28,6.46z"/>
   <path id="_13_51" class="fil2" d="M1109.7 426.94l0 -29.46 4.61 0 0.17 4.72c0.82,-1.47 1.95,-2.7 3.38,-3.71 1.43,-0.99 3.27,-1.49 5.55,-1.49l0.59 0 0 4.49 -0.68 0c-1.43,0 -2.68,0.2 -3.76,0.58 -1.07,0.39 -2.02,0.92 -2.81,1.6 -0.79,0.69 -1.51,1.48 -2.15,2.38l0 20.89 -4.9 0z"/>
   <polygon id="_14_52" class="fil2" points="1135.73,426.94 1125.25,397.48 1130.42,397.48 1138.44,421.98 1146.5,397.48 1151.49,397.48 1141.13,426.94 "/>
   <path id="_15_53" class="fil2" d="M1162.1 427.48c-1.55,0 -2.96,-0.31 -4.23,-0.93 -1.28,-0.62 -2.3,-1.55 -3.06,-2.79 -0.76,-1.25 -1.14,-2.79 -1.14,-4.63 0,-2.65 0.76,-4.65 2.27,-6.02 1.52,-1.36 3.67,-2.28 6.45,-2.76 2.77,-0.48 6.03,-0.74 9.75,-0.78l0 -2.2c0,-2.57 -0.56,-4.34 -1.68,-5.29 -1.12,-0.96 -2.51,-1.44 -4.2,-1.44 -1.84,0 -3.38,0.51 -4.63,1.52 -1.26,1.01 -1.89,2.64 -1.89,4.87l-4.75 0c0,-2.37 0.48,-4.31 1.45,-5.78 0.98,-1.48 2.31,-2.57 4.01,-3.24 1.71,-0.67 3.64,-1.01 5.81,-1.01 1.38,0 2.69,0.14 3.96,0.42 1.28,0.28 2.43,0.8 3.44,1.54 1.02,0.75 1.82,1.79 2.41,3.13 0.59,1.34 0.88,3.07 0.88,5.18l0 19.67 -4.52 0 -0.17 -4.16c-1.26,1.46 -2.72,2.6 -4.38,3.44 -1.67,0.84 -3.59,1.26 -5.78,1.26zm1.29 -3.75c1.85,0 3.52,-0.46 4.99,-1.37 1.46,-0.9 2.7,-2.08 3.73,-3.54l0 -6.2c-4.84,0.06 -8.3,0.57 -10.39,1.54 -2.1,0.97 -3.15,2.56 -3.15,4.78 0,1.46 0.4,2.62 1.2,3.49 0.81,0.86 2.02,1.3 3.62,1.3z"/>
   <path class="fil3 str0" d="M886.81 770.48c0,-4.82 3.89,-8.72 8.71,-8.72l176.89 0c4.81,0 8.71,3.9 8.71,8.72l0 34.85c0,4.82 -3.9,8.72 -8.71,8.72l-176.89 0c-4.82,0 -8.71,-3.9 -8.71,-8.72l0 -34.85z"/>
   <path class="fil0" d="M919.32 799.34c-2.46,0 -4.54,-0.52 -6.22,-1.55 -1.68,-1.04 -2.96,-2.47 -3.82,-4.3 -0.87,-1.82 -1.3,-3.94 -1.3,-6.34 0,-2.4 0.43,-4.52 1.3,-6.35 0.86,-1.84 2.14,-3.28 3.82,-4.31 1.68,-1.04 3.76,-1.56 6.22,-1.56 1.62,0 3.15,0.28 4.6,0.85 1.44,0.56 2.64,1.43 3.6,2.59 0.96,1.15 1.52,2.62 1.69,4.38l-3.2 0c-0.14,-1.18 -0.54,-2.17 -1.19,-2.94 -0.65,-0.77 -1.46,-1.34 -2.42,-1.72 -0.96,-0.37 -1.99,-0.56 -3.08,-0.56 -1.91,0 -3.45,0.43 -4.64,1.31 -1.18,0.86 -2.04,2.03 -2.58,3.47 -0.55,1.45 -0.82,3.07 -0.82,4.84 0,1.77 0.27,3.38 0.82,4.83 0.54,1.44 1.4,2.59 2.58,3.45 1.19,0.86 2.73,1.28 4.64,1.28 1.93,0 3.49,-0.48 4.7,-1.43 1.2,-0.95 1.89,-2.38 2.08,-4.27l3.21 0c-0.19,1.86 -0.74,3.42 -1.64,4.65 -0.9,1.23 -2.08,2.15 -3.51,2.76 -1.44,0.61 -3.05,0.92 -4.84,0.92z"/>
   <path id="_1_54" class="fil0" d="M941 799.34c-1.69,0 -3.13,-0.37 -4.33,-1.1 -1.19,-0.73 -2.11,-1.78 -2.74,-3.14 -0.63,-1.36 -0.94,-2.99 -0.94,-4.86 0,-1.93 0.31,-3.58 0.94,-4.95 0.63,-1.38 1.55,-2.44 2.74,-3.17 1.2,-0.75 2.64,-1.11 4.33,-1.11 1.72,0 3.18,0.36 4.41,1.11 1.21,0.73 2.15,1.79 2.8,3.17 0.66,1.37 0.98,3.02 0.98,4.95 0,1.87 -0.32,3.5 -0.98,4.86 -0.65,1.36 -1.59,2.41 -2.8,3.14 -1.23,0.73 -2.69,1.1 -4.41,1.1zm0 -2.35c1.27,0 2.29,-0.29 3.04,-0.87 0.75,-0.58 1.29,-1.38 1.62,-2.4 0.33,-1.03 0.49,-2.18 0.49,-3.48 0,-1.33 -0.16,-2.51 -0.49,-3.54 -0.33,-1.05 -0.87,-1.86 -1.62,-2.46 -0.75,-0.59 -1.77,-0.88 -3.04,-0.88 -1.23,0 -2.22,0.29 -2.94,0.88 -0.72,0.6 -1.25,1.41 -1.56,2.46 -0.32,1.03 -0.48,2.21 -0.48,3.54 0,1.3 0.16,2.45 0.48,3.48 0.31,1.02 0.84,1.82 1.56,2.4 0.72,0.58 1.71,0.87 2.94,0.87z"/>
   <path id="_2_55" class="fil0" d="M953.91 799.02l0 -17.72 2.82 0 0.11 2.6c0.53,-0.69 1.29,-1.35 2.28,-1.97 0.99,-0.62 2.25,-0.92 3.8,-0.92 1.88,0 3.25,0.57 4.11,1.72 0.86,1.15 1.29,2.76 1.29,4.84l0 11.45 -2.95 0 0 -11.07c0,-0.87 -0.09,-1.64 -0.27,-2.31 -0.17,-0.67 -0.48,-1.2 -0.94,-1.58 -0.45,-0.39 -1.11,-0.58 -1.97,-0.58 -1.28,0 -2.36,0.3 -3.23,0.91 -0.87,0.6 -1.57,1.26 -2.1,1.98l0 12.65 -2.95 0z"/>
   <path id="_3_56" class="fil0" d="M979.59 799.02c-1.4,0 -2.46,-0.23 -3.2,-0.69 -0.74,-0.46 -1.25,-1.12 -1.53,-1.97 -0.28,-0.86 -0.41,-1.9 -0.41,-3.1l0 -9.58 -2.88 0 0 -2.38 2.88 0 0 -3.95 2.93 0 0 3.95 4.24 0 0 2.38 -4.24 0 0 9.5c0,1.11 0.14,1.97 0.41,2.56 0.28,0.59 0.94,0.89 1.99,0.89l1.87 0 0 2.39 -2.06 0z"/>
   <path id="_4_57" class="fil0" d="M985.53 799.02l0 -17.72 2.95 0 0 17.72 -2.95 0zm1.47 -20.94c-0.56,0 -1,-0.17 -1.33,-0.49 -0.34,-0.32 -0.51,-0.73 -0.51,-1.22 0,-0.5 0.17,-0.91 0.51,-1.23 0.33,-0.33 0.77,-0.49 1.33,-0.49 0.55,0 1,0.16 1.34,0.49 0.34,0.32 0.51,0.73 0.51,1.23 0,0.49 -0.17,0.9 -0.51,1.22 -0.34,0.32 -0.79,0.49 -1.34,0.49z"/>
   <path id="_5_58" class="fil0" d="M994.17 799.02l0 -17.72 2.82 0 0.11 2.6c0.53,-0.69 1.29,-1.35 2.28,-1.97 0.99,-0.62 2.25,-0.92 3.8,-0.92 1.88,0 3.25,0.57 4.11,1.72 0.86,1.15 1.29,2.76 1.29,4.84l0 11.45 -2.95 0 0 -11.07c0,-0.87 -0.09,-1.64 -0.27,-2.31 -0.17,-0.67 -0.48,-1.2 -0.94,-1.58 -0.45,-0.39 -1.11,-0.58 -1.97,-0.58 -1.28,0 -2.36,0.3 -3.23,0.91 -0.87,0.6 -1.57,1.26 -2.1,1.98l0 12.65 -2.95 0z"/>
   <path id="_6_59" class="fil0" d="M1019.56 799.34c-1.99,0 -3.42,-0.57 -4.31,-1.72 -0.88,-1.14 -1.32,-2.72 -1.32,-4.72l0 -11.6 2.97 0 0 11.24c0,0.81 0.08,1.53 0.26,2.17 0.18,0.63 0.51,1.13 1,1.48 0.51,0.36 1.22,0.54 2.14,0.54 1.3,0 2.38,-0.28 3.25,-0.84 0.88,-0.55 1.58,-1.2 2.11,-1.93l0 -12.66 2.96 0 0 17.72 -2.84 0 -0.09 -2.59c-0.55,0.68 -1.34,1.34 -2.34,1.96 -1.01,0.64 -2.27,0.95 -3.79,0.95z"/>
   <path id="_7_60" class="fil0" d="M1038.56 799.34c-0.99,0 -1.89,-0.19 -2.71,-0.58 -0.82,-0.38 -1.47,-0.95 -1.96,-1.7 -0.49,-0.76 -0.73,-1.69 -0.73,-2.8 0,-1.58 0.48,-2.78 1.45,-3.6 0.96,-0.82 2.33,-1.37 4.09,-1.67 1.76,-0.29 3.83,-0.46 6.2,-0.48l0 -1.26c0,-1.55 -0.37,-2.62 -1.1,-3.19 -0.73,-0.58 -1.65,-0.87 -2.77,-0.87 -1.19,0 -2.19,0.32 -3,0.95 -0.81,0.63 -1.22,1.62 -1.22,2.97l-2.86 0c0,-1.45 0.31,-2.63 0.91,-3.52 0.61,-0.9 1.45,-1.55 2.51,-1.96 1.06,-0.42 2.29,-0.62 3.66,-0.62 0.89,0 1.73,0.08 2.54,0.25 0.8,0.17 1.53,0.48 2.17,0.93 0.64,0.44 1.15,1.07 1.52,1.88 0.38,0.81 0.57,1.84 0.57,3.11l0 11.84 -2.76 0 -0.12 -2.61c-0.78,0.88 -1.7,1.59 -2.74,2.13 -1.05,0.54 -2.26,0.8 -3.65,0.8zm0.78 -2.26c1.17,0 2.23,-0.29 3.17,-0.86 0.95,-0.58 1.73,-1.3 2.37,-2.18l0 -3.64c-3.13,0.04 -5.37,0.34 -6.74,0.92 -1.35,0.57 -2.03,1.52 -2.03,2.83 0,0.89 0.27,1.6 0.82,2.14 0.55,0.53 1.35,0.79 2.41,0.79z"/>
   <path id="_8_61" class="fil0" d="M1053.34 799.02l0 -17.72 2.78 0 0.1 2.85c0.48,-0.9 1.16,-1.64 2.01,-2.25 0.86,-0.59 1.98,-0.89 3.36,-0.89l0.35 0 0 2.7 -0.41 0c-0.86,0 -1.61,0.12 -2.26,0.35 -0.64,0.23 -1.21,0.55 -1.69,0.96 -0.48,0.41 -0.92,0.89 -1.29,1.43l0 12.57 -2.95 0z"/>
   <path class="fil6 str0" d="M501.23 469.64c0,-6.38 5.16,-11.55 11.54,-11.55l942.82 0c6.38,0 11.54,5.17 11.54,11.55l0 46.18c0,6.38 -5.16,11.55 -11.54,11.55l-942.82 0c-6.38,0 -11.54,-5.17 -11.54,-11.55l0 -46.18z"/>
   <path class="fil6 str0" d="M499.48 570.72c0,-6.38 5.17,-11.55 11.55,-11.55l942.82 0c6.37,0 11.54,5.17 11.54,11.55l0 46.18c0,6.38 -5.17,11.55 -11.54,11.55l-942.82 0c-6.38,0 -11.55,-5.17 -11.55,-11.55l0 -46.18z"/>
   <polygon class="fil5" points="520.28,605.14 520.28,581.38 523.53,581.38 536.56,600.28 536.56,581.38 539.58,581.38 539.58,605.14 536.33,605.14 523.28,586.19 523.28,605.14 "/>
   <path id="_1_62" class="fil5" d="M552.59 605.46c-1.69,0 -3.13,-0.37 -4.33,-1.1 -1.2,-0.73 -2.11,-1.78 -2.75,-3.14 -0.62,-1.36 -0.94,-2.98 -0.94,-4.86 0,-1.93 0.32,-3.58 0.94,-4.95 0.64,-1.38 1.55,-2.44 2.75,-3.17 1.2,-0.74 2.64,-1.11 4.33,-1.11 1.72,0 3.18,0.37 4.4,1.11 1.22,0.73 2.16,1.79 2.81,3.17 0.65,1.37 0.98,3.02 0.98,4.95 0,1.88 -0.33,3.5 -0.98,4.86 -0.65,1.36 -1.59,2.41 -2.81,3.14 -1.22,0.73 -2.68,1.1 -4.4,1.1zm0 -2.35c1.27,0 2.28,-0.29 3.04,-0.87 0.75,-0.58 1.29,-1.38 1.62,-2.4 0.33,-1.03 0.49,-2.18 0.49,-3.48 0,-1.32 -0.16,-2.51 -0.49,-3.54 -0.33,-1.05 -0.87,-1.86 -1.62,-2.46 -0.76,-0.59 -1.77,-0.88 -3.04,-0.88 -1.24,0 -2.22,0.29 -2.94,0.88 -0.73,0.6 -1.25,1.41 -1.56,2.46 -0.32,1.03 -0.48,2.22 -0.48,3.54 0,1.3 0.16,2.45 0.48,3.48 0.31,1.02 0.83,1.82 1.56,2.4 0.72,0.58 1.7,0.87 2.94,0.87z"/>
   <path id="_2_63" class="fil5" d="M565.5 605.14l0 -17.72 2.82 0 0.11 2.6c0.5,-0.69 1.24,-1.35 2.22,-1.96 0.98,-0.62 2.19,-0.93 3.66,-0.93 1.9,0 3.28,0.58 4.11,1.73 0.84,1.15 1.25,2.76 1.25,4.83l0 11.45 -2.96 0 0 -11.07c0,-0.87 -0.09,-1.64 -0.26,-2.31 -0.17,-0.67 -0.48,-1.2 -0.94,-1.58 -0.46,-0.39 -1.12,-0.58 -1.98,-0.58 -1.21,0 -2.23,0.3 -3.07,0.91 -0.84,0.6 -1.51,1.26 -2.02,1.98l0 12.65 -2.94 0zm22.39 0l0 -11.07c0,-0.87 -0.09,-1.64 -0.26,-2.31 -0.17,-0.67 -0.49,-1.2 -0.95,-1.58 -0.46,-0.39 -1.11,-0.58 -1.96,-0.58 -1.22,0 -2.25,0.29 -3.09,0.85 -0.83,0.58 -1.52,1.21 -2.06,1.9l-0.45 -2.15c0.69,-0.75 1.55,-1.45 2.6,-2.1 1.03,-0.65 2.29,-0.97 3.74,-0.97 1.92,0 3.28,0.58 4.12,1.73 0.83,1.15 1.25,2.76 1.25,4.83l0 11.45 -2.94 0z"/>
   <path id="_3_64" class="fil5" d="M604.69 605.46c-1.26,0 -2.35,-0.25 -3.25,-0.73 -0.89,-0.49 -1.62,-1.16 -2.19,-2.02l-0.15 2.43 -2.76 0 0 -23.76 2.95 0 0 8.8c0.6,-0.91 1.39,-1.64 2.36,-2.2 0.97,-0.57 2.11,-0.85 3.41,-0.85 1.4,0 2.62,0.34 3.64,1.02 1.02,0.69 1.82,1.71 2.38,3.06 0.55,1.36 0.84,3.05 0.84,5.07 0,2.02 -0.3,3.7 -0.89,5.07 -0.6,1.36 -1.44,2.39 -2.52,3.08 -1.08,0.69 -2.35,1.03 -3.82,1.03zm-0.54 -2.41c1.55,0 2.73,-0.59 3.53,-1.76 0.8,-1.17 1.2,-2.83 1.2,-4.97 0,-2.2 -0.37,-3.89 -1.12,-5.06 -0.75,-1.18 -1.85,-1.76 -3.32,-1.76 -1.23,0 -2.27,0.33 -3.13,1.02 -0.85,0.69 -1.53,1.52 -2.02,2.5l0 6.88c0.46,0.91 1.09,1.66 1.89,2.25 0.8,0.59 1.79,0.9 2.97,0.9z"/>
   <path id="_4_65" class="fil5" d="M616.63 605.14l0 -17.72 2.77 0 0.11 2.85c0.48,-0.89 1.15,-1.64 2.01,-2.24 0.86,-0.6 1.97,-0.9 3.36,-0.9l0.34 0 0 2.7 -0.4 0c-0.86,0 -1.61,0.12 -2.26,0.35 -0.64,0.23 -1.21,0.55 -1.69,0.96 -0.48,0.41 -0.92,0.89 -1.29,1.43l0 12.57 -2.95 0z"/>
   <path id="_5_66" class="fil5" d="M635.38 605.46c-1.87,0 -3.41,-0.4 -4.6,-1.2 -1.19,-0.81 -2.08,-1.91 -2.66,-3.29 -0.58,-1.39 -0.86,-2.95 -0.86,-4.69 0,-1.8 0.28,-3.39 0.84,-4.76 0.55,-1.38 1.41,-2.45 2.56,-3.23 1.15,-0.78 2.6,-1.16 4.37,-1.16 2.34,0 4.18,0.72 5.51,2.17 1.32,1.46 1.99,3.55 1.99,6.27 0,0.18 0,0.39 -0.01,0.64 -0.02,0.25 -0.03,0.43 -0.06,0.54l-12.25 0c0.01,1.16 0.19,2.23 0.54,3.2 0.34,0.98 0.89,1.76 1.65,2.35 0.75,0.59 1.74,0.88 2.98,0.88 1.32,0 2.35,-0.32 3.09,-0.97 0.74,-0.65 1.13,-1.58 1.16,-2.81l2.92 0c-0.03,1.25 -0.35,2.33 -0.94,3.24 -0.58,0.9 -1.41,1.59 -2.47,2.09 -1.06,0.48 -2.31,0.73 -3.76,0.73zm-5.15 -10.86l9.39 0c-0.03,-1.69 -0.46,-2.98 -1.26,-3.87 -0.79,-0.9 -1.91,-1.34 -3.33,-1.34 -1.44,0 -2.57,0.44 -3.38,1.32 -0.82,0.89 -1.3,2.19 -1.42,3.89z"/>
   <path id="_6_67" class="fil5" d="M660.51 605.46c-1.4,0 -2.61,-0.34 -3.64,-1.03 -1.02,-0.69 -1.82,-1.73 -2.37,-3.1 -0.56,-1.38 -0.84,-3.08 -0.84,-5.1 0,-2.01 0.29,-3.69 0.89,-5.03 0.59,-1.35 1.43,-2.36 2.51,-3.05 1.09,-0.68 2.37,-1.02 3.84,-1.02 1.22,0 2.29,0.26 3.19,0.8 0.91,0.54 1.64,1.27 2.19,2.18l0 -8.73 2.95 0 0 23.76 -2.79 0 -0.16 -2.5c-0.61,0.83 -1.4,1.51 -2.36,2.04 -0.97,0.52 -2.11,0.78 -3.41,0.78zm0.6 -2.41c1.26,0 2.31,-0.32 3.14,-0.93 0.84,-0.62 1.51,-1.37 2.03,-2.23l0 -6.89c-0.48,-1 -1.11,-1.83 -1.9,-2.49 -0.78,-0.65 -1.76,-0.98 -2.95,-0.98 -1.57,0 -2.75,0.58 -3.55,1.74 -0.79,1.17 -1.18,2.82 -1.18,4.96 0,2.22 0.37,3.9 1.12,5.07 0.75,1.16 1.84,1.75 3.29,1.75z"/>
   <path id="_7_68" class="fil5" d="M682.05 605.46c-1.87,0 -3.41,-0.4 -4.6,-1.2 -1.2,-0.81 -2.08,-1.91 -2.66,-3.29 -0.58,-1.39 -0.86,-2.95 -0.86,-4.69 0,-1.8 0.28,-3.39 0.84,-4.76 0.55,-1.38 1.41,-2.45 2.56,-3.23 1.14,-0.78 2.6,-1.16 4.37,-1.16 2.34,0 4.17,0.72 5.51,2.17 1.32,1.46 1.99,3.55 1.99,6.27 0,0.18 -0.01,0.39 -0.02,0.64 -0.01,0.25 -0.03,0.43 -0.05,0.54l-12.25 0c0.01,1.16 0.19,2.23 0.53,3.2 0.35,0.98 0.9,1.76 1.65,2.35 0.76,0.59 1.75,0.88 2.99,0.88 1.32,0 2.35,-0.32 3.09,-0.97 0.74,-0.65 1.13,-1.58 1.16,-2.81l2.92 0c-0.04,1.25 -0.35,2.33 -0.94,3.24 -0.59,0.9 -1.41,1.59 -2.47,2.09 -1.06,0.48 -2.32,0.73 -3.76,0.73zm-5.16 -10.86l9.39 0c-0.03,-1.69 -0.45,-2.98 -1.25,-3.87 -0.8,-0.9 -1.91,-1.34 -3.33,-1.34 -1.44,0 -2.57,0.44 -3.38,1.32 -0.82,0.89 -1.3,2.19 -1.43,3.89z"/>
   <path id="_8_69" class="fil5" d="M698.89 605.14c-1.4,0 -2.47,-0.23 -3.21,-0.67 -0.74,-0.44 -1.25,-1.07 -1.52,-1.9 -0.27,-0.83 -0.4,-1.83 -0.4,-3l0 -18.19 2.93 0 0 18.05c0,1.08 0.13,1.89 0.41,2.46 0.28,0.56 0.94,0.85 1.98,0.85l0.8 0 0 2.4 -0.99 0z"/>
   <path id="_9_70" class="fil5" d="M715.14 605.46c-0.99,0 -1.89,-0.19 -2.71,-0.58 -0.82,-0.38 -1.47,-0.95 -1.96,-1.7 -0.49,-0.76 -0.73,-1.69 -0.73,-2.8 0,-1.58 0.48,-2.78 1.45,-3.6 0.96,-0.82 2.33,-1.37 4.1,-1.67 1.76,-0.29 3.82,-0.45 6.19,-0.48l0 -1.26c0,-1.55 -0.37,-2.61 -1.1,-3.19 -0.73,-0.58 -1.65,-0.86 -2.77,-0.86 -1.19,0 -2.19,0.31 -3,0.94 -0.81,0.63 -1.22,1.62 -1.22,2.97l-2.86 0c0,-1.45 0.31,-2.62 0.91,-3.52 0.61,-0.9 1.45,-1.55 2.51,-1.96 1.06,-0.42 2.29,-0.62 3.66,-0.62 0.89,0 1.73,0.08 2.54,0.25 0.8,0.17 1.53,0.48 2.17,0.93 0.64,0.45 1.15,1.07 1.52,1.88 0.38,0.81 0.57,1.84 0.57,3.12l0 11.83 -2.75 0 -0.12 -2.61c-0.79,0.88 -1.71,1.59 -2.75,2.13 -1.05,0.54 -2.26,0.8 -3.65,0.8zm0.78 -2.26c1.17,0 2.23,-0.29 3.17,-0.86 0.95,-0.58 1.73,-1.3 2.37,-2.18l0 -3.64c-3.13,0.04 -5.37,0.34 -6.74,0.92 -1.35,0.57 -2.03,1.52 -2.03,2.83 0,0.89 0.27,1.6 0.82,2.14 0.55,0.53 1.35,0.79 2.41,0.79z"/>
   <path id="_10_71" class="fil5" d="M735.38 605.46c-1.99,0 -3.42,-0.57 -4.31,-1.72 -0.88,-1.13 -1.33,-2.71 -1.33,-4.72l0 -11.6 2.98 0 0 11.24c0,0.81 0.08,1.53 0.26,2.17 0.17,0.64 0.51,1.13 1,1.49 0.5,0.35 1.21,0.53 2.14,0.53 1.3,0 2.38,-0.28 3.25,-0.84 0.87,-0.55 1.57,-1.2 2.1,-1.93l0 -12.66 2.97 0 0 17.72 -2.85 0 -0.08 -2.59c-0.56,0.68 -1.34,1.34 -2.35,1.97 -1,0.63 -2.26,0.94 -3.78,0.94z"/>
   <path id="_11_72" class="fil5" d="M755.77 605.14c-1.39,0 -2.45,-0.23 -3.19,-0.69 -0.74,-0.46 -1.25,-1.12 -1.53,-1.97 -0.28,-0.86 -0.42,-1.89 -0.42,-3.1l0 -9.58 -2.87 0 0 -2.38 2.87 0 0 -3.94 2.94 0 0 3.94 4.24 0 0 2.38 -4.24 0 0 9.5c0,1.11 0.14,1.97 0.41,2.56 0.28,0.59 0.94,0.89 1.99,0.89l1.87 0 0 2.39 -2.07 0z"/>
   <path id="_12_73" class="fil5" d="M768.59 605.46c-1.68,0 -3.12,-0.37 -4.32,-1.1 -1.2,-0.73 -2.12,-1.78 -2.75,-3.14 -0.63,-1.36 -0.94,-2.98 -0.94,-4.86 0,-1.93 0.31,-3.58 0.94,-4.95 0.63,-1.38 1.55,-2.44 2.75,-3.17 1.2,-0.74 2.64,-1.11 4.32,-1.11 1.72,0 3.19,0.37 4.41,1.11 1.22,0.73 2.15,1.79 2.8,3.17 0.66,1.37 0.98,3.02 0.98,4.95 0,1.88 -0.32,3.5 -0.98,4.86 -0.65,1.36 -1.58,2.41 -2.8,3.14 -1.22,0.73 -2.69,1.1 -4.41,1.1zm0 -2.35c1.27,0 2.29,-0.29 3.04,-0.87 0.75,-0.58 1.29,-1.38 1.62,-2.4 0.33,-1.03 0.5,-2.18 0.5,-3.48 0,-1.32 -0.17,-2.51 -0.5,-3.54 -0.33,-1.05 -0.87,-1.86 -1.62,-2.46 -0.75,-0.59 -1.77,-0.88 -3.04,-0.88 -1.23,0 -2.21,0.29 -2.94,0.88 -0.72,0.6 -1.25,1.41 -1.56,2.46 -0.32,1.03 -0.47,2.22 -0.47,3.54 0,1.3 0.15,2.45 0.47,3.48 0.31,1.02 0.84,1.82 1.56,2.4 0.73,0.58 1.71,0.87 2.94,0.87z"/>
   <path id="_13_74" class="fil5" d="M781.5 605.14l0 -17.72 2.78 0 0.1 2.85c0.48,-0.89 1.16,-1.64 2.01,-2.24 0.86,-0.6 1.98,-0.9 3.36,-0.9l0.35 0 0 2.7 -0.41 0c-0.86,0 -1.61,0.12 -2.26,0.35 -0.64,0.23 -1.21,0.55 -1.69,0.96 -0.48,0.41 -0.92,0.89 -1.29,1.43l0 12.57 -2.95 0z"/>
   <path class="fil6 str0" d="M501.23 672.59c0,-6.33 5.13,-11.47 11.47,-11.47l941.22 0c6.34,0 11.47,5.14 11.47,11.47l0 45.9c0,6.33 -5.13,11.47 -11.47,11.47l-941.22 0c-6.34,0 -11.47,-5.14 -11.47,-11.47l0 -45.9z"/>
   <path class="fil5" d="M518.71 706.65l8.91 -23.76 3.35 0 8.78 23.76 -3.29 0 -2.26 -6.65 -9.85 0 -2.37 6.65 -3.27 0zm6.51 -9.32l8.08 0 -4.03 -11.28 -4.05 11.28z"/>
   <path id="_1_75" class="fil5" d="M542.94 706.65l0 -17.72 2.82 0 0.11 2.6c0.53,-0.69 1.29,-1.35 2.28,-1.96 0.99,-0.62 2.25,-0.93 3.8,-0.93 1.88,0 3.25,0.57 4.11,1.73 0.86,1.14 1.29,2.76 1.29,4.84l0 11.44 -2.95 0 0 -11.07c0,-0.86 -0.09,-1.63 -0.27,-2.3 -0.17,-0.68 -0.48,-1.2 -0.94,-1.59 -0.45,-0.38 -1.11,-0.58 -1.97,-0.58 -1.28,0 -2.36,0.3 -3.23,0.91 -0.87,0.61 -1.57,1.27 -2.1,1.99l0 12.64 -2.95 0zm2.11 -20.83c0.11,-1.08 0.39,-1.94 0.83,-2.58 0.44,-0.63 1.11,-0.95 1.99,-0.95 0.48,0 0.95,0.08 1.42,0.25 0.47,0.17 0.91,0.35 1.35,0.54 0.39,0.17 0.74,0.31 1.05,0.41 0.32,0.11 0.6,0.16 0.86,0.16 0.28,0 0.52,-0.12 0.7,-0.35 0.19,-0.24 0.31,-0.6 0.36,-1.09l1.73 0c-0.12,1.04 -0.39,1.88 -0.81,2.49 -0.41,0.62 -1.06,0.93 -1.93,0.93 -0.52,0 -1,-0.08 -1.46,-0.24 -0.47,-0.16 -0.9,-0.33 -1.31,-0.5 -0.4,-0.18 -0.75,-0.32 -1.06,-0.44 -0.31,-0.11 -0.6,-0.17 -0.87,-0.17 -0.31,0 -0.56,0.13 -0.76,0.38 -0.18,0.25 -0.3,0.63 -0.37,1.16l-1.72 0z"/>
   <path id="_2_76" class="fil5" d="M569.92 706.98c-1.68,0 -3.12,-0.37 -4.32,-1.1 -1.2,-0.74 -2.12,-1.79 -2.75,-3.15 -0.63,-1.36 -0.94,-2.98 -0.94,-4.85 0,-1.93 0.31,-3.58 0.94,-4.96 0.63,-1.37 1.55,-2.43 2.75,-3.17 1.2,-0.74 2.64,-1.11 4.32,-1.11 1.72,0 3.19,0.37 4.41,1.11 1.22,0.74 2.15,1.8 2.8,3.17 0.66,1.38 0.99,3.03 0.99,4.96 0,1.87 -0.33,3.49 -0.99,4.85 -0.65,1.36 -1.58,2.41 -2.8,3.15 -1.22,0.73 -2.69,1.1 -4.41,1.1zm0 -2.35c1.28,0 2.29,-0.29 3.04,-0.87 0.76,-0.59 1.29,-1.39 1.62,-2.41 0.33,-1.02 0.5,-2.18 0.5,-3.47 0,-1.33 -0.17,-2.51 -0.5,-3.55 -0.33,-1.04 -0.86,-1.86 -1.62,-2.45 -0.75,-0.59 -1.76,-0.89 -3.04,-0.89 -1.23,0 -2.21,0.3 -2.94,0.89 -0.72,0.59 -1.24,1.41 -1.56,2.45 -0.32,1.04 -0.47,2.22 -0.47,3.55 0,1.29 0.15,2.45 0.47,3.47 0.32,1.02 0.84,1.82 1.56,2.41 0.73,0.58 1.71,0.87 2.94,0.87z"/>
   <path id="_3_77" class="fil5" d="M596.06 706.98c-1.4,0 -2.61,-0.35 -3.64,-1.04 -1.02,-0.69 -1.82,-1.72 -2.37,-3.1 -0.56,-1.37 -0.84,-3.07 -0.84,-5.1 0,-2 0.3,-3.69 0.89,-5.03 0.59,-1.34 1.43,-2.36 2.52,-3.04 1.08,-0.68 2.36,-1.03 3.83,-1.03 1.22,0 2.29,0.27 3.19,0.8 0.91,0.54 1.64,1.27 2.19,2.19l0 -8.74 2.95 0 0 23.76 -2.79 0 -0.16 -2.5c-0.61,0.84 -1.4,1.52 -2.36,2.04 -0.97,0.53 -2.1,0.79 -3.41,0.79zm0.6 -2.42c1.26,0 2.31,-0.31 3.14,-0.93 0.84,-0.62 1.51,-1.36 2.03,-2.23l0 -6.89c-0.48,-1 -1.11,-1.83 -1.9,-2.49 -0.78,-0.65 -1.76,-0.98 -2.95,-0.98 -1.57,0 -2.75,0.59 -3.54,1.75 -0.8,1.16 -1.19,2.81 -1.19,4.95 0,2.22 0.37,3.91 1.12,5.07 0.75,1.16 1.84,1.75 3.29,1.75z"/>
   <path id="_4_78" class="fil5" d="M617.6 706.98c-1.87,0 -3.41,-0.41 -4.6,-1.21 -1.19,-0.81 -2.08,-1.9 -2.66,-3.29 -0.58,-1.39 -0.86,-2.95 -0.86,-4.68 0,-1.81 0.28,-3.4 0.84,-4.77 0.55,-1.37 1.41,-2.45 2.56,-3.22 1.14,-0.78 2.6,-1.17 4.37,-1.17 2.34,0 4.17,0.73 5.51,2.18 1.32,1.45 1.99,3.54 1.99,6.26 0,0.18 0,0.4 -0.02,0.64 -0.01,0.25 -0.03,0.43 -0.05,0.54l-12.25 0c0.01,1.16 0.19,2.24 0.53,3.21 0.35,0.97 0.9,1.76 1.65,2.35 0.76,0.58 1.75,0.88 2.99,0.88 1.32,0 2.35,-0.33 3.09,-0.97 0.74,-0.65 1.13,-1.59 1.16,-2.81l2.92 0c-0.04,1.25 -0.35,2.33 -0.94,3.23 -0.59,0.9 -1.41,1.6 -2.47,2.09 -1.06,0.49 -2.32,0.74 -3.76,0.74zm-5.16 -10.87l9.39 0c-0.03,-1.69 -0.45,-2.98 -1.25,-3.87 -0.79,-0.89 -1.91,-1.34 -3.33,-1.34 -1.44,0 -2.57,0.44 -3.38,1.33 -0.82,0.88 -1.3,2.18 -1.43,3.88z"/>
   <path id="_5_79" class="fil5" d="M636.85 712.98l0 -24.05 2.85 0 0.09 2.82c0.62,-0.92 1.41,-1.67 2.38,-2.24 0.97,-0.58 2.1,-0.87 3.38,-0.87 1.41,0 2.63,0.35 3.65,1.03 1.03,0.68 1.82,1.7 2.38,3.06 0.56,1.35 0.84,3.05 0.84,5.07 0,2 -0.3,3.68 -0.89,5.04 -0.6,1.36 -1.44,2.39 -2.52,3.09 -1.08,0.7 -2.35,1.05 -3.82,1.05 -1.22,0 -2.29,-0.25 -3.21,-0.74 -0.91,-0.49 -1.65,-1.15 -2.2,-2l0 8.74 -2.93 0zm7.8 -8.42c1.56,0 2.74,-0.59 3.54,-1.75 0.8,-1.17 1.19,-2.84 1.19,-5.01 0,-2.19 -0.37,-3.87 -1.11,-5.03 -0.74,-1.16 -1.83,-1.74 -3.27,-1.74 -1.26,0 -2.32,0.34 -3.19,1.04 -0.86,0.7 -1.53,1.51 -2.02,2.44l0 6.91c0.47,0.93 1.11,1.68 1.91,2.27 0.8,0.57 1.78,0.87 2.95,0.87z"/>
   <path id="_6_80" class="fil5" d="M662.38 706.98c-1.99,0 -3.43,-0.58 -4.31,-1.72 -0.88,-1.14 -1.33,-2.72 -1.33,-4.73l0 -11.6 2.97 0 0 11.25c0,0.81 0.09,1.53 0.27,2.16 0.17,0.64 0.51,1.13 1,1.49 0.5,0.36 1.21,0.53 2.14,0.53 1.29,0 2.38,-0.28 3.25,-0.83 0.87,-0.56 1.57,-1.21 2.1,-1.94l0 -12.66 2.97 0 0 17.72 -2.85 0 -0.08 -2.59c-0.56,0.69 -1.34,1.34 -2.35,1.97 -1,0.63 -2.26,0.95 -3.78,0.95z"/>
   <path id="_7_81" class="fil5" d="M685.47 706.98c-1.26,0 -2.35,-0.25 -3.25,-0.74 -0.89,-0.49 -1.62,-1.16 -2.18,-2.02l-0.16 2.43 -2.75 0 0 -23.76 2.94 0 0 8.81c0.61,-0.91 1.39,-1.65 2.36,-2.21 0.97,-0.56 2.11,-0.85 3.42,-0.85 1.39,0 2.61,0.35 3.63,1.03 1.03,0.68 1.82,1.7 2.38,3.06 0.56,1.35 0.84,3.05 0.84,5.07 0,2.01 -0.3,3.7 -0.89,5.06 -0.6,1.36 -1.44,2.39 -2.52,3.08 -1.08,0.69 -2.35,1.04 -3.82,1.04zm-0.54 -2.42c1.55,0 2.73,-0.59 3.53,-1.75 0.8,-1.17 1.2,-2.83 1.2,-4.97 0,-2.21 -0.37,-3.89 -1.12,-5.07 -0.75,-1.17 -1.85,-1.76 -3.31,-1.76 -1.24,0 -2.28,0.34 -3.14,1.03 -0.85,0.68 -1.52,1.51 -2.02,2.49l0 6.89c0.46,0.9 1.09,1.65 1.89,2.25 0.8,0.59 1.79,0.89 2.97,0.89z"/>
   <path id="_8_82" class="fil5" d="M702.35 706.65c-1.39,0 -2.47,-0.22 -3.21,-0.66 -0.74,-0.44 -1.25,-1.08 -1.52,-1.91 -0.27,-0.83 -0.4,-1.82 -0.4,-2.99l0 -18.2 2.93 0 0 18.06c0,1.07 0.14,1.89 0.41,2.45 0.28,0.57 0.94,0.85 1.99,0.85l0.79 0 0 2.4 -0.99 0z"/>
   <path id="_9_83" class="fil5" d="M706.83 706.65l0 -17.72 2.94 0 0 17.72 -2.94 0zm1.46 -20.94c-0.55,0 -1,-0.16 -1.33,-0.49 -0.34,-0.31 -0.51,-0.72 -0.51,-1.22 0,-0.49 0.17,-0.9 0.51,-1.23 0.33,-0.32 0.78,-0.48 1.33,-0.48 0.56,0 1,0.16 1.34,0.48 0.34,0.33 0.51,0.74 0.51,1.23 0,0.5 -0.17,0.91 -0.51,1.22 -0.34,0.33 -0.78,0.49 -1.34,0.49z"/>
   <path id="_10_84" class="fil5" d="M722.45 706.98c-1.55,0 -2.93,-0.34 -4.13,-1.01 -1.2,-0.68 -2.14,-1.69 -2.81,-3.04 -0.68,-1.35 -1.02,-3.05 -1.02,-5.09 0,-2.03 0.33,-3.73 1,-5.09 0.66,-1.37 1.59,-2.4 2.79,-3.08 1.19,-0.68 2.58,-1.03 4.17,-1.03 1.34,0 2.53,0.22 3.6,0.67 1.06,0.45 1.91,1.12 2.55,2.03 0.63,0.89 0.97,2.03 1,3.41l-2.91 0c-0.07,-1.15 -0.47,-2.06 -1.2,-2.73 -0.73,-0.66 -1.72,-0.99 -2.98,-0.99 -1.68,0 -2.92,0.6 -3.74,1.79 -0.83,1.19 -1.24,2.87 -1.24,5.02 0,1.44 0.18,2.66 0.54,3.66 0.37,0.99 0.92,1.76 1.67,2.29 0.74,0.53 1.66,0.8 2.77,0.8 1.26,0 2.28,-0.34 3.07,-1.03 0.79,-0.69 1.2,-1.7 1.23,-3.02l2.92 0c-0.04,1.43 -0.37,2.63 -1.02,3.59 -0.64,0.95 -1.51,1.66 -2.59,2.13 -1.09,0.48 -2.32,0.72 -3.67,0.72z"/>
   <path id="_11_85" class="fil5" d="M738.66 706.98c-0.99,0 -1.89,-0.2 -2.71,-0.58 -0.82,-0.39 -1.47,-0.95 -1.96,-1.71 -0.49,-0.75 -0.73,-1.69 -0.73,-2.79 0,-1.58 0.48,-2.78 1.45,-3.6 0.96,-0.82 2.33,-1.38 4.1,-1.67 1.76,-0.3 3.82,-0.46 6.19,-0.48l0 -1.26c0,-1.55 -0.37,-2.62 -1.1,-3.19 -0.73,-0.58 -1.65,-0.87 -2.77,-0.87 -1.19,0 -2.19,0.31 -3,0.95 -0.81,0.62 -1.22,1.61 -1.22,2.97l-2.86 0c0,-1.46 0.31,-2.63 0.91,-3.53 0.61,-0.9 1.45,-1.55 2.51,-1.96 1.06,-0.41 2.29,-0.62 3.66,-0.62 0.89,0 1.73,0.09 2.54,0.25 0.8,0.17 1.53,0.49 2.17,0.93 0.64,0.45 1.15,1.08 1.52,1.88 0.38,0.81 0.57,1.85 0.57,3.12l0 11.83 -2.75 0 -0.12 -2.6c-0.79,0.88 -1.71,1.59 -2.75,2.12 -1.05,0.54 -2.26,0.81 -3.65,0.81zm0.78 -2.26c1.17,0 2.23,-0.29 3.17,-0.87 0.95,-0.57 1.73,-1.3 2.37,-2.18l0 -3.63c-3.13,0.03 -5.37,0.34 -6.74,0.91 -1.35,0.58 -2.03,1.52 -2.03,2.83 0,0.89 0.27,1.6 0.82,2.14 0.55,0.53 1.35,0.8 2.41,0.8z"/>
   <path id="_12_86" class="fil5" d="M760.44 706.98c-1.56,0 -2.94,-0.34 -4.14,-1.01 -1.2,-0.68 -2.14,-1.69 -2.81,-3.04 -0.68,-1.35 -1.02,-3.05 -1.02,-5.09 0,-2.03 0.34,-3.73 1,-5.09 0.66,-1.37 1.6,-2.4 2.79,-3.08 1.19,-0.68 2.58,-1.03 4.18,-1.03 1.33,0 2.52,0.22 3.59,0.67 1.06,0.45 1.91,1.12 2.55,2.03 0.64,0.89 0.97,2.03 1,3.41l-2.91 0c-0.07,-1.15 -0.47,-2.06 -1.2,-2.73 -0.73,-0.66 -1.72,-0.99 -2.98,-0.99 -1.68,0 -2.92,0.6 -3.74,1.79 -0.83,1.19 -1.24,2.87 -1.24,5.02 0,1.44 0.18,2.66 0.54,3.66 0.37,0.99 0.93,1.76 1.67,2.29 0.74,0.53 1.66,0.8 2.77,0.8 1.26,0 2.28,-0.34 3.07,-1.03 0.79,-0.69 1.2,-1.7 1.23,-3.02l2.92 0c-0.04,1.43 -0.37,2.63 -1.02,3.59 -0.64,0.95 -1.5,1.66 -2.59,2.13 -1.09,0.48 -2.31,0.72 -3.66,0.72z"/>
   <path id="_13_87" class="fil5" d="M772.42 706.65l0 -17.72 2.95 0 0 17.72 -2.95 0zm1.47 -20.94c-0.56,0 -1,-0.16 -1.33,-0.49 -0.34,-0.31 -0.51,-0.72 -0.51,-1.22 0,-0.49 0.17,-0.9 0.51,-1.23 0.33,-0.32 0.77,-0.48 1.33,-0.48 0.55,0 1,0.16 1.34,0.48 0.34,0.33 0.51,0.74 0.51,1.23 0,0.5 -0.17,0.91 -0.51,1.22 -0.34,0.33 -0.79,0.49 -1.34,0.49z"/>
   <path id="_14_88" class="fil5" d="M788.11 706.98c-1.69,0 -3.13,-0.37 -4.33,-1.1 -1.2,-0.74 -2.12,-1.79 -2.75,-3.15 -0.63,-1.36 -0.94,-2.98 -0.94,-4.85 0,-1.93 0.31,-3.58 0.94,-4.96 0.63,-1.37 1.55,-2.43 2.75,-3.17 1.2,-0.74 2.64,-1.11 4.33,-1.11 1.71,0 3.18,0.37 4.4,1.11 1.22,0.74 2.15,1.8 2.8,3.17 0.66,1.38 0.99,3.03 0.99,4.96 0,1.87 -0.33,3.49 -0.99,4.85 -0.65,1.36 -1.58,2.41 -2.8,3.15 -1.22,0.73 -2.69,1.1 -4.4,1.1zm0 -2.35c1.27,0 2.28,-0.29 3.03,-0.87 0.76,-0.59 1.29,-1.39 1.62,-2.41 0.34,-1.02 0.5,-2.18 0.5,-3.47 0,-1.33 -0.16,-2.51 -0.5,-3.55 -0.33,-1.04 -0.86,-1.86 -1.62,-2.45 -0.75,-0.59 -1.76,-0.89 -3.03,-0.89 -1.24,0 -2.22,0.3 -2.95,0.89 -0.72,0.59 -1.24,1.41 -1.56,2.45 -0.32,1.04 -0.47,2.22 -0.47,3.55 0,1.29 0.15,2.45 0.47,3.47 0.32,1.02 0.84,1.82 1.56,2.41 0.73,0.58 1.71,0.87 2.95,0.87zm-1.58 -18.09l3.59 -4.73 3.42 0 -4.73 4.73 -2.28 0z"/>
   <path id="_15_89" class="fil5" d="M801.02 706.65l0 -17.72 2.82 0 0.1 2.6c0.53,-0.69 1.29,-1.35 2.28,-1.96 0.99,-0.62 2.26,-0.93 3.8,-0.93 1.88,0 3.25,0.57 4.11,1.73 0.86,1.14 1.29,2.76 1.29,4.84l0 11.44 -2.95 0 0 -11.07c0,-0.86 -0.09,-1.63 -0.26,-2.3 -0.18,-0.68 -0.49,-1.2 -0.95,-1.59 -0.45,-0.38 -1.11,-0.58 -1.96,-0.58 -1.29,0 -2.37,0.3 -3.23,0.91 -0.88,0.61 -1.58,1.27 -2.11,1.99l0 12.64 -2.94 0z"/>
   <rect class="fil1" x="512.34" y="441.32" width="266.2" height="29.19"/>
   <polygon class="fil2" points="520.62,465.28 520.62,449.02 515.42,449.02 515.42,446.96 528.26,446.96 528.26,449.02 523.07,449.02 523.07,465.28 "/>
   <path id="_1_90" class="fil2" d="M530.3 465.28l0 -13.66 2.27 0 0 13.66 -2.27 0zm-0.12 -15.56l2.76 -3.65 2.64 0 -3.65 3.65 -1.75 0z"/>
   <path id="_2_91" class="fil2" d="M540.69 465.28c-1.06,0 -1.88,-0.17 -2.46,-0.53 -0.58,-0.35 -0.97,-0.86 -1.19,-1.52 -0.21,-0.66 -0.31,-1.46 -0.31,-2.39l0 -7.38 -2.21 0 0 -1.84 2.21 0 0 -3.04 2.27 0 0 3.04 3.28 0 0 1.84 -3.28 0 0 7.32c0,0.86 0.11,1.51 0.32,1.97 0.21,0.46 0.72,0.68 1.52,0.68l1.44 0 0 1.85 -1.59 0z"/>
   <path id="_3_92" class="fil2" d="M548.5 465.53c-1.43,0 -2.46,-0.44 -3.09,-1.34 -0.64,-0.88 -0.95,-2.11 -0.95,-3.68l0 -8.89 2.28 0 0 8.62c0,0.65 0.07,1.22 0.19,1.71 0.12,0.5 0.35,0.88 0.69,1.16 0.33,0.28 0.82,0.42 1.44,0.42 0.91,0 1.67,-0.21 2.28,-0.64 0.6,-0.42 1.09,-0.91 1.46,-1.45l0 -9.82 2.28 0 0 13.66 -2.19 0 -0.06 -1.93c-0.39,0.52 -0.94,1.02 -1.65,1.48 -0.71,0.47 -1.61,0.7 -2.68,0.7z"/>
   <path id="_4_93" class="fil2" d="M562.53 465.28c-1.08,0 -1.9,-0.17 -2.47,-0.51 -0.57,-0.34 -0.96,-0.83 -1.18,-1.47 -0.21,-0.64 -0.32,-1.41 -0.32,-2.31l0 -14.03 2.28 0 0 13.93c0,0.82 0.11,1.45 0.31,1.89 0.22,0.43 0.73,0.65 1.52,0.65l0.62 0 0 1.85 -0.76 0z"/>
   <path id="_5_94" class="fil2" d="M570.74 465.53c-1.25,0 -2.31,-0.28 -3.19,-0.84 -0.88,-0.56 -1.56,-1.36 -2.02,-2.42 -0.47,-1.05 -0.7,-2.3 -0.7,-3.76 0,-1.48 0.23,-2.75 0.7,-3.81 0.46,-1.06 1.14,-1.88 2.02,-2.45 0.88,-0.57 1.94,-0.85 3.19,-0.85 1.27,0 2.35,0.28 3.26,0.85 0.91,0.57 1.6,1.39 2.09,2.45 0.48,1.06 0.72,2.33 0.72,3.81 0,1.46 -0.24,2.71 -0.72,3.76 -0.49,1.06 -1.18,1.86 -2.09,2.42 -0.91,0.56 -1.99,0.84 -3.26,0.84zm0 -1.8c0.91,0 1.64,-0.22 2.18,-0.67 0.54,-0.46 0.93,-1.08 1.17,-1.86 0.24,-0.78 0.36,-1.68 0.36,-2.69 0,-1.02 -0.12,-1.92 -0.36,-2.71 -0.24,-0.79 -0.63,-1.42 -1.17,-1.88 -0.54,-0.46 -1.27,-0.68 -2.18,-0.68 -0.87,0 -1.56,0.22 -2.09,0.68 -0.52,0.46 -0.91,1.09 -1.13,1.88 -0.24,0.79 -0.35,1.7 -0.35,2.72 0,1 0.11,1.9 0.35,2.68 0.22,0.78 0.61,1.4 1.13,1.86 0.53,0.45 1.22,0.67 2.09,0.67z"/>
   <path id="_6_95" class="fil2" d="M589.59 465.53c-1.03,0 -1.93,-0.26 -2.69,-0.79 -0.77,-0.53 -1.36,-1.31 -1.77,-2.34 -0.42,-1.04 -0.63,-2.32 -0.63,-3.85 0,-1.58 0.21,-2.9 0.64,-3.96 0.43,-1.06 1.03,-1.85 1.82,-2.39 0.79,-0.53 1.72,-0.8 2.79,-0.8 0.97,0 1.77,0.2 2.43,0.61 0.66,0.41 1.19,0.96 1.6,1.66l0 -6.71 2.22 0 0 18.32 -2.1 0 -0.14 -1.99c-0.43,0.67 -0.99,1.21 -1.68,1.63 -0.69,0.41 -1.52,0.61 -2.49,0.61zm0.4 -1.86c0.91,0 1.67,-0.25 2.29,-0.74 0.61,-0.49 1.09,-1.07 1.43,-1.75l0 -5.35c-0.33,-0.76 -0.79,-1.38 -1.38,-1.85 -0.58,-0.48 -1.31,-0.72 -2.17,-0.72 -1.1,0 -1.93,0.46 -2.49,1.37 -0.56,0.91 -0.83,2.21 -0.83,3.9 0,1.66 0.27,2.94 0.79,3.82 0.54,0.88 1.32,1.32 2.36,1.32z"/>
   <path id="_7_96" class="fil2" d="M605.04 465.53c-1.38,0 -2.52,-0.31 -3.42,-0.93 -0.89,-0.62 -1.56,-1.46 -2,-2.53 -0.45,-1.07 -0.66,-2.28 -0.66,-3.61 0,-1.39 0.21,-2.62 0.64,-3.68 0.42,-1.06 1.07,-1.89 1.94,-2.49 0.86,-0.6 1.95,-0.89 3.26,-0.89 1.75,0 3.12,0.55 4.11,1.67 0.99,1.12 1.48,2.74 1.48,4.83 0,0.14 0,0.31 -0.01,0.5 0,0.19 -0.01,0.33 -0.03,0.41l-9.11 0c0.01,0.9 0.15,1.73 0.4,2.48 0.25,0.75 0.66,1.35 1.21,1.81 0.56,0.45 1.29,0.68 2.19,0.68 0.97,0 1.73,-0.25 2.27,-0.75 0.54,-0.5 0.82,-1.22 0.85,-2.17l2.25 0c-0.03,0.96 -0.26,1.8 -0.71,2.49 -0.44,0.7 -1.05,1.24 -1.84,1.62 -0.79,0.37 -1.73,0.56 -2.82,0.56zm-3.78 -8.38l6.89 0c-0.03,-1.3 -0.34,-2.29 -0.92,-2.98 -0.58,-0.69 -1.39,-1.03 -2.43,-1.03 -1.07,0 -1.89,0.34 -2.49,1.02 -0.59,0.68 -0.94,1.68 -1.05,2.99z"/>
   <path id="_8_97" class="fil2" d="M617.23 465.28c-1.07,0 -1.89,-0.17 -2.46,-0.51 -0.58,-0.34 -0.97,-0.83 -1.18,-1.47 -0.22,-0.64 -0.33,-1.41 -0.33,-2.31l0 -14.03 2.28 0 0 13.93c0,0.82 0.11,1.45 0.32,1.89 0.21,0.43 0.72,0.65 1.52,0.65l0.61 0 0 1.85 -0.76 0z"/>
   <path id="_9_98" class="fil2" d="M629.4 465.28c-1.07,0 -1.89,-0.17 -2.46,-0.51 -0.57,-0.34 -0.97,-0.83 -1.18,-1.47 -0.22,-0.64 -0.32,-1.41 -0.32,-2.31l0 -14.03 2.27 0 0 13.93c0,0.82 0.11,1.45 0.32,1.89 0.21,0.43 0.72,0.65 1.52,0.65l0.61 0 0 1.85 -0.76 0z"/>
   <path id="_10_99" class="fil2" d="M632.34 465.28l0 -13.66 2.27 0 0 13.66 -2.27 0zm1.15 -16.14c-0.44,0 -0.79,-0.13 -1.04,-0.38 -0.26,-0.25 -0.38,-0.56 -0.38,-0.94 0,-0.38 0.12,-0.7 0.38,-0.95 0.25,-0.25 0.6,-0.37 1.04,-0.37 0.42,0 0.77,0.12 1.03,0.37 0.26,0.25 0.39,0.57 0.39,0.95 0,0.38 -0.13,0.69 -0.39,0.94 -0.26,0.25 -0.61,0.38 -1.03,0.38z"/>
   <path id="_11_100" class="fil2" d="M644.61 465.53c-0.96,0 -1.79,-0.18 -2.47,-0.54 -0.69,-0.35 -1.25,-0.88 -1.68,-1.58l-0.11 1.87 -2.14 0 0 -18.32 2.29 0 0 6.76c0.43,-0.63 0.99,-1.18 1.68,-1.64 0.71,-0.46 1.53,-0.68 2.5,-0.68 1.03,0 1.92,0.26 2.67,0.79 0.75,0.53 1.33,1.31 1.74,2.36 0.4,1.04 0.61,2.35 0.61,3.91 0,1.55 -0.21,2.85 -0.62,3.9 -0.41,1.05 -1,1.84 -1.76,2.37 -0.76,0.54 -1.67,0.8 -2.71,0.8zm-0.44 -1.86c1.08,0 1.89,-0.46 2.41,-1.37 0.52,-0.91 0.78,-2.19 0.78,-3.85 0,-1.69 -0.26,-2.97 -0.77,-3.87 -0.52,-0.9 -1.31,-1.34 -2.35,-1.34 -0.91,0 -1.67,0.27 -2.29,0.81 -0.62,0.54 -1.11,1.17 -1.45,1.87l0 5.34c0.34,0.74 0.82,1.32 1.43,1.76 0.62,0.43 1.36,0.65 2.24,0.65z"/>
   <path id="_12_101" class="fil2" d="M652.67 465.28l0 -13.66 2.14 0 0.08 2.19c0.38,-0.68 0.9,-1.26 1.56,-1.72 0.67,-0.46 1.52,-0.69 2.58,-0.69l0.27 0 0 2.08 -0.32 0c-0.66,0 -1.24,0.09 -1.74,0.27 -0.5,0.18 -0.93,0.43 -1.3,0.74 -0.37,0.32 -0.7,0.68 -1,1.1l0 9.69 -2.27 0z"/>
   <path id="_13_102" class="fil2" d="M666.23 465.53c-1.25,0 -2.31,-0.28 -3.19,-0.84 -0.88,-0.56 -1.56,-1.36 -2.02,-2.42 -0.47,-1.05 -0.7,-2.3 -0.7,-3.76 0,-1.48 0.23,-2.75 0.7,-3.81 0.46,-1.06 1.14,-1.88 2.02,-2.45 0.88,-0.57 1.94,-0.85 3.19,-0.85 1.27,0 2.36,0.28 3.27,0.85 0.9,0.57 1.6,1.39 2.08,2.45 0.48,1.06 0.72,2.33 0.72,3.81 0,1.46 -0.24,2.71 -0.72,3.76 -0.48,1.06 -1.18,1.86 -2.08,2.42 -0.91,0.56 -2,0.84 -3.27,0.84zm0 -1.8c0.92,0 1.64,-0.22 2.18,-0.67 0.54,-0.46 0.93,-1.08 1.18,-1.86 0.23,-0.78 0.35,-1.68 0.35,-2.69 0,-1.02 -0.12,-1.92 -0.35,-2.71 -0.25,-0.79 -0.64,-1.42 -1.18,-1.88 -0.54,-0.46 -1.26,-0.68 -2.18,-0.68 -0.86,0 -1.56,0.22 -2.09,0.68 -0.52,0.46 -0.9,1.09 -1.13,1.88 -0.23,0.79 -0.35,1.7 -0.35,2.72 0,1 0.12,1.9 0.35,2.68 0.23,0.78 0.61,1.4 1.13,1.86 0.53,0.45 1.23,0.67 2.09,0.67z"/>
   <path id="_14_103" class="fil2" d="M685.9 465.53c-1.24,0 -2.31,-0.28 -3.19,-0.84 -0.87,-0.56 -1.55,-1.36 -2.02,-2.42 -0.47,-1.05 -0.7,-2.3 -0.7,-3.76 0,-1.48 0.23,-2.75 0.7,-3.81 0.47,-1.06 1.15,-1.88 2.02,-2.45 0.88,-0.57 1.95,-0.85 3.19,-0.85 1.27,0 2.36,0.28 3.27,0.85 0.9,0.57 1.6,1.39 2.08,2.45 0.48,1.06 0.72,2.33 0.72,3.81 0,1.46 -0.24,2.71 -0.72,3.76 -0.48,1.06 -1.18,1.86 -2.08,2.42 -0.91,0.56 -2,0.84 -3.27,0.84zm0 -1.8c0.92,0 1.65,-0.22 2.19,-0.67 0.53,-0.46 0.93,-1.08 1.17,-1.86 0.23,-0.78 0.35,-1.68 0.35,-2.69 0,-1.02 -0.12,-1.92 -0.35,-2.71 -0.24,-0.79 -0.64,-1.42 -1.17,-1.88 -0.54,-0.46 -1.27,-0.68 -2.19,-0.68 -0.86,0 -1.56,0.22 -2.09,0.68 -0.52,0.46 -0.9,1.09 -1.13,1.88 -0.23,0.79 -0.35,1.7 -0.35,2.72 0,1 0.12,1.9 0.35,2.68 0.23,0.78 0.61,1.4 1.13,1.86 0.53,0.45 1.23,0.67 2.09,0.67z"/>
   <path id="_15_104" class="fil2" d="M700.3 465.28l0 -13.66 2.14 0 0.08 2.19c0.38,-0.68 0.91,-1.26 1.57,-1.72 0.66,-0.46 1.52,-0.69 2.57,-0.69l0.28 0 0 2.08 -0.32 0c-0.66,0 -1.24,0.09 -1.74,0.27 -0.5,0.18 -0.94,0.43 -1.3,0.74 -0.37,0.32 -0.71,0.68 -1,1.1l0 9.69 -2.28 0z"/>
   <path id="_16_105" class="fil2" d="M714.04 465.53c-1.38,0 -2.52,-0.31 -3.42,-0.93 -0.9,-0.62 -1.57,-1.46 -2.01,-2.53 -0.44,-1.07 -0.66,-2.28 -0.66,-3.61 0,-1.39 0.22,-2.62 0.64,-3.68 0.43,-1.06 1.08,-1.89 1.94,-2.49 0.87,-0.6 1.96,-0.89 3.26,-0.89 1.76,0 3.13,0.55 4.12,1.67 0.99,1.12 1.48,2.74 1.48,4.83 0,0.14 0,0.31 -0.01,0.5 0,0.19 -0.01,0.33 -0.03,0.41l-9.11 0c0.01,0.9 0.14,1.73 0.39,2.48 0.26,0.75 0.66,1.35 1.22,1.81 0.56,0.45 1.29,0.68 2.19,0.68 0.97,0 1.72,-0.25 2.26,-0.75 0.55,-0.5 0.83,-1.22 0.85,-2.17l2.25 0c-0.02,0.96 -0.26,1.8 -0.7,2.49 -0.44,0.7 -1.05,1.24 -1.84,1.62 -0.79,0.37 -1.73,0.56 -2.82,0.56zm-3.79 -8.38l6.9 0c-0.03,-1.3 -0.34,-2.29 -0.92,-2.98 -0.58,-0.69 -1.39,-1.03 -2.44,-1.03 -1.06,0 -1.89,0.34 -2.48,1.02 -0.6,0.68 -0.95,1.68 -1.06,2.99z"/>
   <polygon id="_17_106" class="fil2" points="725.35,465.28 720.49,451.62 722.89,451.62 726.61,462.98 730.35,451.62 732.66,451.62 727.86,465.28 "/>
   <path id="_18_107" class="fil2" d="M734.41 465.28l0 -13.66 2.27 0 0 13.66 -2.27 0zm1.14 -16.14c-0.43,0 -0.78,-0.13 -1.03,-0.38 -0.26,-0.25 -0.38,-0.56 -0.38,-0.94 0,-0.38 0.12,-0.7 0.38,-0.95 0.25,-0.25 0.6,-0.37 1.03,-0.37 0.43,0 0.77,0.12 1.03,0.37 0.27,0.25 0.4,0.57 0.4,0.95 0,0.38 -0.13,0.69 -0.4,0.94 -0.26,0.25 -0.6,0.38 -1.03,0.38z"/>
   <path id="_19_108" class="fil2" d="M745.04 465.53c-0.75,0 -1.46,-0.08 -2.13,-0.24 -0.66,-0.17 -1.25,-0.44 -1.76,-0.8 -0.51,-0.37 -0.91,-0.85 -1.19,-1.43 -0.29,-0.58 -0.43,-1.3 -0.43,-2.14l2.19 0c0,1.09 0.33,1.84 0.97,2.28 0.64,0.43 1.45,0.65 2.41,0.65 0.86,0 1.57,-0.18 2.13,-0.52 0.55,-0.35 0.84,-0.91 0.84,-1.7 0,-0.68 -0.26,-1.18 -0.76,-1.5 -0.51,-0.32 -1.39,-0.64 -2.68,-0.97 -1.03,-0.26 -1.9,-0.55 -2.59,-0.89 -0.71,-0.33 -1.23,-0.75 -1.58,-1.27 -0.36,-0.51 -0.53,-1.16 -0.53,-1.94 0,-0.61 0.12,-1.14 0.37,-1.59 0.25,-0.46 0.6,-0.84 1.05,-1.15 0.44,-0.31 0.97,-0.53 1.58,-0.69 0.6,-0.15 1.26,-0.23 1.96,-0.23 0.7,0 1.36,0.08 1.97,0.25 0.61,0.17 1.16,0.43 1.63,0.79 0.47,0.35 0.84,0.81 1.11,1.37 0.27,0.56 0.4,1.23 0.4,2l-2.21 0c0,-0.98 -0.27,-1.67 -0.83,-2.08 -0.56,-0.41 -1.25,-0.62 -2.07,-0.62 -0.81,0 -1.47,0.15 -1.98,0.46 -0.51,0.3 -0.77,0.77 -0.77,1.42 0,0.37 0.11,0.68 0.34,0.93 0.23,0.25 0.61,0.48 1.15,0.69 0.53,0.2 1.25,0.41 2.15,0.64 1,0.24 1.83,0.54 2.5,0.88 0.66,0.33 1.17,0.77 1.51,1.31 0.34,0.54 0.51,1.23 0.51,2.08 0,0.7 -0.13,1.3 -0.4,1.81 -0.26,0.51 -0.63,0.93 -1.11,1.25 -0.47,0.33 -1.03,0.56 -1.67,0.72 -0.64,0.15 -1.33,0.23 -2.08,0.23z"/>
   <path id="_20" class="fil2" d="M757.61 465.28c-1.06,0 -1.88,-0.17 -2.46,-0.53 -0.58,-0.35 -0.97,-0.86 -1.18,-1.52 -0.22,-0.66 -0.32,-1.46 -0.32,-2.39l0 -7.38 -2.21 0 0 -1.84 2.21 0 0 -3.04 2.27 0 0 3.04 3.28 0 0 1.84 -3.28 0 0 7.32c0,0.86 0.11,1.51 0.32,1.97 0.21,0.46 0.72,0.68 1.52,0.68l1.44 0 0 1.85 -1.59 0z"/>
   <path id="_21" class="fil2" d="M764.65 465.53c-0.72,0 -1.37,-0.14 -1.96,-0.43 -0.59,-0.29 -1.07,-0.72 -1.42,-1.3 -0.35,-0.57 -0.53,-1.29 -0.53,-2.14 0,-1.23 0.35,-2.16 1.06,-2.79 0.7,-0.63 1.7,-1.06 2.98,-1.28 1.29,-0.23 2.8,-0.35 4.53,-0.37l0 -1.01c0,-1.2 -0.26,-2.02 -0.78,-2.46 -0.52,-0.44 -1.17,-0.67 -1.95,-0.67 -0.85,0 -1.57,0.24 -2.15,0.71 -0.58,0.47 -0.87,1.22 -0.87,2.26l-2.21 0c0,-1.1 0.23,-2 0.68,-2.68 0.45,-0.69 1.07,-1.19 1.86,-1.5 0.79,-0.32 1.68,-0.47 2.69,-0.47 0.64,0 1.25,0.06 1.84,0.19 0.59,0.13 1.12,0.37 1.59,0.72 0.48,0.34 0.85,0.82 1.12,1.45 0.27,0.62 0.41,1.42 0.41,2.4l0 9.12 -2.1 0 -0.08 -1.93c-0.58,0.68 -1.26,1.21 -2.03,1.6 -0.77,0.39 -1.66,0.58 -2.68,0.58zm0.6 -1.74c0.86,0 1.63,-0.21 2.31,-0.63 0.68,-0.42 1.26,-0.97 1.73,-1.65l0 -2.87c-2.24,0.03 -3.85,0.27 -4.82,0.71 -0.97,0.45 -1.46,1.19 -1.46,2.22 0,0.68 0.19,1.22 0.56,1.62 0.38,0.4 0.94,0.6 1.68,0.6z"/>
   <line class="fil6 str0" x1="522.57" y1="470.73" x2="522.57" y2= "513.96" />
  </g>
 </g>
</svg>
