<?xml version="1.0" encoding="UTF-8"?>
<!DOCTYPE svg PUBLIC "-//W3C//DTD SVG 1.1//EN" "http://www.w3.org/Graphics/SVG/1.1/DTD/svg11.dtd">
<!-- Creator: CorelDRAW -->
<svg xmlns="http://www.w3.org/2000/svg" xml:space="preserve" width="1920px" height="1081px" version="1.1" style="shape-rendering:geometricPrecision; text-rendering:geometricPrecision; image-rendering:optimizeQuality; fill-rule:evenodd; clip-rule:evenodd"
viewBox="0 0 1920 1081.31"
 xmlns:xlink="http://www.w3.org/1999/xlink"
 xmlns:xodm="http://www.corel.com/coreldraw/odm/2003">
 <defs>
  <style type="text/css">
   <![CDATA[
    .str0 {stroke:black;stroke-width:3;stroke-miterlimit:22.9256}
    .str1 {stroke:#042433;stroke-width:3;stroke-miterlimit:22.9256}
    .str3 {stroke:black;stroke-width:1.23;stroke-miterlimit:22.9256}
    .str2 {stroke:black;stroke-width:0.73;stroke-miterlimit:22.9256}
    .fil4 {fill:none}
    .fil5 {fill:none;fill-rule:nonzero}
    .fil6 {fill:black}
    .fil3 {fill:#F2F2F2}
    .fil2 {fill:black;fill-rule:nonzero}
    .fil7 {fill:#7F7F7F;fill-rule:nonzero}
    .fil1 {fill:#F2F2F2;fill-rule:nonzero}
    .fil0 {fill:white;fill-rule:nonzero}
   ]]>
  </style>
   <clipPath id="id0">
    <path d="M53.96 1044.31l31.37 0 0 -31.36 -31.37 0 0 31.36z"/>
   </clipPath>
   <clipPath id="id1">
    <path d="M52.22 142.89l37.47 0 0 -30.94 -37.47 0 0 30.94z"/>
   </clipPath>
   <clipPath id="id2" style="clip-rule:nonzero">
    <path d="M53.96 440.02l31.37 0 0 -30.93 -31.37 0 0 30.93z"/>
   </clipPath>
 </defs>
 <g id="Capa_x0020_1">
  <metadata id="CorelCorpID_0Corel-Layer"/>
  <rect class="fil0 str0" x="1.46" y="1.51" width="1917" height="1078.32"/>
  <rect class="fil1 str0" x="137.83" y="98.66" width="1780.64" height="981.16"/>
  <path class="fil2" d="M54.83 69.69l0 -39.5 12.69 0c3.97,0 7.14,0.8 9.51,2.41 2.37,1.6 3.55,4.03 3.55,7.32 0,2.06 -0.58,3.92 -1.73,5.53 -1.15,1.63 -2.7,2.68 -4.61,3.17 2.74,0.45 4.92,1.54 6.54,3.28 1.63,1.73 2.44,3.87 2.44,6.42 0,2.39 -0.53,4.43 -1.59,6.12 -1.08,1.7 -2.67,3 -4.8,3.9 -2.14,0.9 -4.82,1.35 -8.05,1.35l-13.95 0zm5.29 -4.41l8.54 0c1.68,0 3.24,-0.21 4.64,-0.63 1.41,-0.42 2.54,-1.16 3.4,-2.23 0.85,-1.07 1.27,-2.54 1.27,-4.42 0,-2.28 -0.83,-3.97 -2.49,-5.09 -1.65,-1.12 -3.93,-1.68 -6.82,-1.68l-8.54 0 0 14.05zm0 -18.34l7.37 0c2.54,0 4.49,-0.58 5.83,-1.74 1.33,-1.15 2,-2.72 2,-4.69 0,-1.33 -0.3,-2.43 -0.91,-3.33 -0.6,-0.89 -1.49,-1.55 -2.66,-1.99 -1.18,-0.44 -2.6,-0.65 -4.26,-0.65l-7.37 0 0 12.4z"/>
  <path id="_1" class="fil2" d="M96.29 70.23c-1.55,0 -2.96,-0.31 -4.23,-0.93 -1.28,-0.62 -2.3,-1.55 -3.06,-2.79 -0.76,-1.25 -1.14,-2.79 -1.14,-4.63 0,-2.65 0.76,-4.65 2.27,-6.02 1.52,-1.36 3.67,-2.28 6.45,-2.76 2.77,-0.48 6.03,-0.74 9.75,-0.78l0 -2.2c0,-2.57 -0.56,-4.34 -1.68,-5.29 -1.12,-0.96 -2.51,-1.44 -4.2,-1.44 -1.84,0 -3.38,0.51 -4.63,1.52 -1.26,1.01 -1.89,2.64 -1.89,4.87l-4.75 0c0,-2.37 0.48,-4.31 1.45,-5.78 0.98,-1.48 2.31,-2.57 4.01,-3.24 1.71,-0.67 3.64,-1.01 5.81,-1.01 1.38,0 2.69,0.14 3.96,0.42 1.28,0.28 2.43,0.8 3.44,1.54 1.02,0.75 1.82,1.79 2.4,3.13 0.6,1.34 0.89,3.07 0.89,5.18l0 19.67 -4.52 0 -0.17 -4.16c-1.26,1.46 -2.72,2.6 -4.38,3.44 -1.67,0.84 -3.59,1.26 -5.78,1.26zm1.29 -3.75c1.85,0 3.52,-0.46 4.99,-1.37 1.46,-0.9 2.7,-2.08 3.73,-3.54l0 -6.2c-4.84,0.06 -8.3,0.57 -10.39,1.54 -2.1,0.97 -3.15,2.56 -3.15,4.78 0,1.46 0.4,2.62 1.2,3.49 0.81,0.86 2.02,1.3 3.62,1.3z"/>
  <path id="_2" class="fil2" d="M118.66 69.69l0 -29.46 4.75 0 0.12 4.19c0.84,-1.13 2.05,-2.19 3.61,-3.19 1.57,-0.99 3.53,-1.48 5.87,-1.48 3.06,0 5.24,0.94 6.56,2.84 1.31,1.88 1.96,4.55 1.96,7.97l0 19.13 -4.87 0 0 -18.54c0,-1.41 -0.14,-2.66 -0.4,-3.76 -0.26,-1.11 -0.74,-1.97 -1.43,-2.6 -0.71,-0.62 -1.7,-0.93 -2.99,-0.93 -1.97,0 -3.65,0.5 -5,1.48 -1.36,0.99 -2.46,2.07 -3.28,3.21l0 21.14 -4.9 0z"/>
  <path id="_3" class="fil2" d="M160.55 70.23c-2.51,0 -4.72,-0.56 -6.66,-1.69 -1.94,-1.13 -3.46,-2.83 -4.55,-5.07 -1.1,-2.26 -1.65,-5.05 -1.65,-8.4 0,-3.36 0.54,-6.17 1.62,-8.45 1.08,-2.28 2.58,-3.99 4.5,-5.15 1.93,-1.15 4.17,-1.72 6.74,-1.72 2.15,0 4.09,0.37 5.8,1.12 1.71,0.75 3.08,1.88 4.11,3.38 1.03,1.51 1.58,3.42 1.66,5.72l-4.85 0c-0.14,-1.94 -0.79,-3.47 -1.98,-4.59 -1.18,-1.11 -2.74,-1.66 -4.65,-1.66 -2.61,0 -4.57,0.99 -5.9,2.97 -1.34,2 -2,4.78 -2,8.38 0,2.37 0.29,4.38 0.88,6.05 0.59,1.68 1.47,2.96 2.64,3.83 1.18,0.88 2.64,1.31 4.38,1.31 1.95,0 3.58,-0.56 4.84,-1.68 1.27,-1.13 1.94,-2.79 2,-4.99l4.81 0c-0.04,2.36 -0.58,4.33 -1.62,5.91 -1.05,1.59 -2.46,2.77 -4.2,3.55 -1.75,0.79 -3.73,1.18 -5.92,1.18z"/>
  <path id="_4" class="fil2" d="M190.06 70.23c-2.69,0 -4.98,-0.6 -6.87,-1.81 -1.9,-1.21 -3.36,-2.95 -4.36,-5.22 -1.02,-2.27 -1.52,-4.97 -1.52,-8.12 0,-3.18 0.5,-5.92 1.52,-8.21 1,-2.29 2.46,-4.04 4.36,-5.28 1.89,-1.23 4.18,-1.84 6.87,-1.84 2.74,0 5.08,0.61 7.04,1.84 1.96,1.24 3.45,2.99 4.49,5.28 1.04,2.29 1.56,5.03 1.56,8.21 0,3.15 -0.52,5.85 -1.56,8.12 -1.04,2.27 -2.53,4.01 -4.49,5.22 -1.96,1.21 -4.3,1.81 -7.04,1.81zm0 -3.87c1.97,0 3.55,-0.5 4.71,-1.47 1.16,-0.98 2,-2.31 2.52,-4.01 0.52,-1.68 0.78,-3.62 0.78,-5.8 0,-2.18 -0.26,-4.13 -0.78,-5.84 -0.52,-1.7 -1.36,-3.06 -2.52,-4.05 -1.16,-0.98 -2.74,-1.47 -4.71,-1.47 -1.86,0 -3.36,0.49 -4.5,1.47 -1.13,0.99 -1.95,2.35 -2.44,4.05 -0.51,1.71 -0.76,3.67 -0.76,5.87 0,2.16 0.25,4.09 0.76,5.77 0.49,1.7 1.31,3.03 2.44,4.01 1.14,0.97 2.64,1.47 4.5,1.47z"/>
  <path id="_5" class="fil2" d="M230.71 70.23c-2.23,0 -4.16,-0.57 -5.81,-1.7 -1.64,-1.14 -2.91,-2.83 -3.82,-5.06 -0.9,-2.24 -1.35,-5 -1.35,-8.3 0,-3.4 0.46,-6.24 1.38,-8.53 0.93,-2.28 2.23,-3.99 3.93,-5.16 1.71,-1.15 3.71,-1.73 6.02,-1.73 2.08,0 3.82,0.44 5.25,1.32 1.41,0.88 2.56,2.08 3.44,3.58l0 -14.46 4.79 0 0 39.5 -4.53 0 -0.32 -4.3c-0.92,1.45 -2.12,2.62 -3.61,3.51 -1.49,0.89 -3.27,1.33 -5.37,1.33zm0.86 -4.02c1.97,0 3.61,-0.53 4.94,-1.59 1.32,-1.05 2.35,-2.31 3.09,-3.78l0 -11.52c-0.72,-1.64 -1.71,-2.99 -2.97,-4.01 -1.27,-1.02 -2.83,-1.54 -4.68,-1.54 -2.39,0 -4.18,0.98 -5.37,2.94 -1.21,1.97 -1.8,4.77 -1.8,8.43 0,3.58 0.57,6.32 1.71,8.22 1.16,1.9 2.84,2.85 5.08,2.85z"/>
  <path id="_6" class="fil2" d="M264.03 70.23c-2.97,0 -5.43,-0.67 -7.37,-2 -1.94,-1.34 -3.38,-3.17 -4.33,-5.47 -0.95,-2.31 -1.42,-4.9 -1.42,-7.79 0,-2.99 0.46,-5.64 1.38,-7.92 0.92,-2.29 2.31,-4.07 4.18,-5.37 1.87,-1.29 4.22,-1.93 7.03,-1.93 3.78,0 6.74,1.2 8.87,3.62 2.13,2.41 3.2,5.89 3.2,10.41 0,0.3 -0.01,0.66 -0.02,1.07 0,0.41 -0.03,0.71 -0.07,0.89l-19.64 0c0.02,1.94 0.31,3.72 0.85,5.33 0.55,1.63 1.42,2.93 2.62,3.91 1.21,0.97 2.78,1.47 4.72,1.47 2.1,0 3.72,-0.55 4.88,-1.62 1.18,-1.08 1.79,-2.63 1.84,-4.67l4.85 0c-0.06,2.08 -0.56,3.87 -1.52,5.37 -0.95,1.51 -2.27,2.66 -3.97,3.48 -1.71,0.81 -3.73,1.22 -6.08,1.22zm-8.16 -18.06l14.86 0c-0.06,-2.81 -0.73,-4.95 -1.98,-6.44 -1.25,-1.48 -3,-2.22 -5.25,-2.22 -2.29,0 -4.08,0.73 -5.36,2.2 -1.28,1.48 -2.03,3.63 -2.27,6.46z"/>
  <path id="_7" class="fil2" d="M301.9 69.69c-2.31,0 -4.08,-0.37 -5.31,-1.1 -1.23,-0.73 -2.08,-1.78 -2.55,-3.17 -0.46,-1.38 -0.69,-3.03 -0.69,-4.98l0 -30.25 4.91 0 0 30.02c0,1.79 0.23,3.14 0.68,4.08 0.47,0.94 1.56,1.41 3.28,1.41l1.32 0 0 3.99 -1.64 0z"/>
  <path id="_8" class="fil2" d="M308.24 69.69l0 -29.46 4.9 0 0 29.46 -4.9 0zm2.47 -34.81c-0.94,0 -1.68,-0.27 -2.24,-0.81 -0.55,-0.53 -0.82,-1.21 -0.82,-2.04 0,-0.82 0.27,-1.5 0.82,-2.04 0.56,-0.54 1.3,-0.8 2.24,-0.8 0.92,0 1.66,0.26 2.22,0.8 0.57,0.54 0.86,1.22 0.86,2.04 0,0.83 -0.29,1.51 -0.86,2.04 -0.56,0.54 -1.3,0.81 -2.22,0.81z"/>
  <path id="_9" class="fil2" d="M334.7 70.23c-2.08,0 -3.86,-0.39 -5.33,-1.16 -1.49,-0.77 -2.69,-1.91 -3.63,-3.42l-0.23 4.04 -4.61 0 0 -39.5 4.93 0 0 14.58c0.92,-1.37 2.13,-2.54 3.64,-3.54 1.51,-0.99 3.29,-1.48 5.37,-1.48 2.23,0 4.16,0.57 5.77,1.7 1.61,1.15 2.87,2.84 3.75,5.09 0.87,2.26 1.31,5.07 1.31,8.43 0,3.35 -0.44,6.15 -1.33,8.42 -0.89,2.26 -2.16,3.98 -3.8,5.12 -1.64,1.15 -3.6,1.72 -5.84,1.72zm-0.94 -4.02c2.32,0 4.05,-0.98 5.18,-2.94 1.12,-1.97 1.68,-4.74 1.68,-8.32 0,-3.63 -0.55,-6.4 -1.66,-8.34 -1.12,-1.93 -2.81,-2.89 -5.05,-2.89 -1.97,0 -3.61,0.58 -4.95,1.75 -1.35,1.16 -2.39,2.52 -3.13,4.04l0 11.51c0.74,1.59 1.77,2.85 3.1,3.79 1.32,0.93 2.92,1.4 4.83,1.4z"/>
  <path id="_10" class="fil2" d="M352.07 69.69l0 -29.46 4.61 0 0.17 4.72c0.83,-1.47 1.96,-2.7 3.38,-3.71 1.43,-0.99 3.28,-1.49 5.55,-1.49l0.59 0 0 4.49 -0.68 0c-1.42,0 -2.67,0.2 -3.76,0.58 -1.07,0.39 -2.01,0.92 -2.8,1.6 -0.79,0.69 -1.51,1.48 -2.16,2.38l0 20.89 -4.9 0z"/>
  <path id="_11" class="fil2" d="M381.31 70.23c-2.68,0 -4.98,-0.6 -6.87,-1.81 -1.89,-1.21 -3.36,-2.95 -4.36,-5.22 -1.01,-2.27 -1.51,-4.97 -1.51,-8.12 0,-3.18 0.5,-5.92 1.51,-8.21 1,-2.29 2.47,-4.04 4.36,-5.28 1.89,-1.23 4.19,-1.84 6.87,-1.84 2.74,0 5.09,0.61 7.05,1.84 1.95,1.24 3.45,2.99 4.49,5.28 1.03,2.29 1.55,5.03 1.55,8.21 0,3.15 -0.52,5.85 -1.55,8.12 -1.04,2.27 -2.54,4.01 -4.49,5.22 -1.96,1.21 -4.31,1.81 -7.05,1.81zm0 -3.87c1.98,0 3.55,-0.5 4.71,-1.47 1.17,-0.98 2.01,-2.31 2.53,-4.01 0.51,-1.68 0.77,-3.62 0.77,-5.8 0,-2.18 -0.26,-4.13 -0.77,-5.84 -0.52,-1.7 -1.36,-3.06 -2.53,-4.05 -1.16,-0.98 -2.73,-1.47 -4.71,-1.47 -1.86,0 -3.35,0.49 -4.49,1.47 -1.14,0.99 -1.96,2.35 -2.45,4.05 -0.5,1.71 -0.75,3.67 -0.75,5.87 0,2.16 0.25,4.09 0.75,5.77 0.49,1.7 1.31,3.03 2.45,4.01 1.14,0.97 2.63,1.47 4.49,1.47z"/>
  <path id="_12" class="fil2" d="M410.7 70.23c-1.63,0 -3.16,-0.18 -4.59,-0.53 -1.45,-0.36 -2.71,-0.93 -3.81,-1.72 -1.09,-0.79 -1.96,-1.83 -2.57,-3.08 -0.62,-1.26 -0.92,-2.79 -0.92,-4.61l4.72 0c0,2.34 0.7,3.96 2.09,4.9 1.39,0.93 3.12,1.41 5.2,1.41 1.85,0 3.38,-0.38 4.59,-1.13 1.2,-0.74 1.81,-1.95 1.81,-3.65 0,-1.47 -0.55,-2.54 -1.63,-3.23 -1.1,-0.69 -3.01,-1.39 -5.78,-2.11 -2.22,-0.55 -4.09,-1.18 -5.6,-1.9 -1.51,-0.72 -2.64,-1.63 -3.4,-2.74 -0.77,-1.11 -1.15,-2.51 -1.15,-4.19 0,-1.31 0.26,-2.45 0.8,-3.43 0.55,-0.99 1.3,-1.81 2.27,-2.48 0.96,-0.66 2.1,-1.15 3.41,-1.49 1.29,-0.33 2.71,-0.5 4.24,-0.5 1.5,0 2.91,0.18 4.23,0.55 1.33,0.36 2.5,0.93 3.51,1.69 1.02,0.77 1.82,1.75 2.4,2.96 0.58,1.2 0.87,2.65 0.87,4.31l-4.76 0c0,-2.1 -0.6,-3.6 -1.81,-4.48 -1.2,-0.89 -2.68,-1.33 -4.44,-1.33 -1.77,0 -3.19,0.33 -4.29,0.98 -1.1,0.65 -1.65,1.67 -1.65,3.07 0,0.79 0.24,1.46 0.73,2 0.5,0.55 1.32,1.04 2.47,1.48 1.16,0.44 2.7,0.91 4.64,1.39 2.15,0.53 3.95,1.16 5.39,1.89 1.43,0.73 2.53,1.67 3.26,2.84 0.73,1.15 1.1,2.65 1.1,4.48 0,1.5 -0.28,2.8 -0.85,3.89 -0.57,1.11 -1.37,2.01 -2.4,2.71 -1.02,0.7 -2.22,1.21 -3.61,1.55 -1.38,0.33 -2.87,0.5 -4.47,0.5z"/>
  <path class="fil3 str1" d="M26.73 255.44c0,-5.74 4.65,-10.39 10.39,-10.39l116.47 0c5.73,0 10.38,4.65 10.38,10.39l0 41.53c0,5.74 -4.65,10.39 -10.38,10.39l-116.47 0c-5.74,0 -10.39,-4.65 -10.39,-10.39l0 -41.53z"/>
  <g>
  </g>
  <g style="clip-path:url(#id0)">
   <g id="_2959591607792">
    <path class="fil2" d="M67.92 1029.74l-2.52 -2.55 2.52 -2.55 2.51 2.55c0.53,0.53 1.37,0.52 1.89,-0.01 0.51,-0.53 0.51,-1.38 0,-1.9l-2.52 -2.55 1.58 -1.6 -3.15 -3.19c-2.24,-2.27 -5.74,-2.63 -8.39,-0.87l-1.03 -1.08c-1.33,-1.39 -2.96,-2.43 -4.73,-3.04l-0.12 0 0 2.85c1.09,0.49 2.09,1.19 2.94,2.07l1.06 1.11c-1.76,2.69 -1.41,6.25 0.84,8.53l3.14 3.19 1.57 -1.59 2.52 2.55c0.52,0.52 1.37,0.51 1.89,-0.02 0.51,-0.52 0.51,-1.37 0,-1.9z"/>
    <path class="fil2" d="M85.33 1041.54c-1.37,-0.44 -2.63,-1.2 -3.68,-2.23l-1.21 -1.19c1.74,-2.68 1.38,-6.23 -0.86,-8.5l-3.14 -3.19 -9.44 9.56 3.15 3.19c2.24,2.28 5.76,2.64 8.4,0.86l1.25 1.22c1.51,1.49 3.38,2.54 5.4,3.05l0.13 0 0 -2.77z"/>
   </g>
  </g>
  <polygon class="fil4" points="53.96,1044.31 85.33,1044.31 85.33,1012.95 53.96,1012.95 "/>
  <g>
  </g>
  <g style="clip-path:url(#id1)">
   <g id="_2959591609376">
    <polygon class="fil2" points="70.94,111.97 70.94,111.97 52.85,129.15 54.79,130.78 70.94,115.5 70.94,115.5 87.09,130.78 89.03,129.15 "/>
    <polygon class="fil2" points="58.02,130.14 58.02,142.89 68.36,142.89 68.36,132.15 73.52,132.15 73.52,142.89 83.86,142.89 83.86,130.14 70.94,117.9 "/>
   </g>
  </g>
  <polygon class="fil4" points="52.22,142.89 89.69,142.89 89.69,111.95 52.22,111.95 "/>
  <path class="fil2" d="M84.19 210.6c-2.42,-1.2 -6.06,-4.26 -6.41,-15.61 -0.12,-4.17 -2.73,-5.97 -4.92,-6.74 0.08,-0.27 0.12,-0.56 0.12,-0.85 0,-1.68 -1.38,-3.05 -3.08,-3.05 -1.7,0 -3.08,1.37 -3.08,3.05 0,0.29 0.04,0.58 0.12,0.85 -2.18,0.77 -4.8,2.56 -4.92,6.74 -0.34,11.34 -3.98,14.41 -6.41,15.61 -0.98,0.49 -0.49,1.63 0.09,1.63l10.97 0c0.19,1.76 1.78,3.05 3.57,2.87 1.52,-0.16 2.73,-1.36 2.89,-2.87l10.98 0c0.57,0 1.06,-1.14 0.08,-1.63zm-15.64 -23.18c0,-0.74 0.6,-1.34 1.35,-1.34 0.75,0 1.36,0.6 1.36,1.34 0,0.14 -0.03,0.27 -0.07,0.4 -0.42,-0.08 -0.85,-0.13 -1.29,-0.15l0 0c-0.43,0.02 -0.86,0.07 -1.29,0.15 -0.04,-0.13 -0.06,-0.26 -0.06,-0.4z"/>
  <path class="fil2" d="M86.14 270.34l-1.91 -0.69 0 -3.95 1.91 -0.8 -12.87 -4.72 -15.65 5.45c-1.49,0.72 -1.53,2.72 -1.53,4.35 0,0.54 0.07,1.09 0.18,1.6 -1.24,0.8 -1.28,2.65 -1.28,4.21 0,1.27 0.29,2.43 1.1,3.15 -0.18,0.62 -0.07,1.38 -0.07,2.29 0,1.63 0.43,3.12 1.9,3.63l10.16 4.17 17.98 -7.4 -1.9 -0.69 0 -3.99 1.9 -0.8 -2.92 -1.09 0 -3.48 3 -1.24zm-28.08 -2.17l10.16 3.95 14.59 -5.84 0 3.12 -14.59 6.02 -10.16 -3.99 0 -3.26zm24.68 12.52l-14.59 5.98 -10.2 -3.99 0 -2.83 9.1 3.7 15.72 -6.17 -0.03 3.31zm-1.03 -5.45l-14.58 5.99 -10.16 -3.99 0 -3.27 10.45 4.14 14.33 -5.95 0 3.08 -0.04 0z"/>
  <polygon class="fil2" points="58.16,333.34 60.69,333.34 60.69,364.5 58.16,364.5 "/>
  <path class="fil2" d="M82.21 333.34l-19.83 0 0 31.16 19.83 0c0.93,0 1.69,-0.76 1.69,-1.69l0 -27.78c0,-0.93 -0.76,-1.69 -1.69,-1.69zm-12.62 11.83c0,-1.77 1.44,-3.2 3.21,-3.2 1.77,0 3.21,1.43 3.21,3.2 0,1.77 -1.44,3.2 -3.21,3.2 -1.77,0 -3.21,-1.39 -3.21,-3.2zm9.67 10.49l-12.92 0 0 -3.2c0,-0.51 0.26,-0.97 0.64,-1.31 0.97,-0.67 2.02,-1.22 3.16,-1.52 0.89,-0.25 1.77,-0.37 2.66,-0.42 0.89,0 1.82,0.13 2.66,0.42 1.14,0.3 2.19,0.8 3.17,1.52 0.38,0.3 0.63,0.8 0.63,1.31l0 3.2z"/>
  <g>
  </g>
  <g style="clip-path:url(#id2)">
   <g id="_2959591606400">
    <polygon class="fil2" points="56.64,409.1 53.96,409.1 53.96,440.02 84.96,440.02 84.96,437.29 56.64,437.29 "/>
    <path class="fil5 str2" d="M56.64 409.1l-2.68 0m0 30.92l31 0 0 -2.73 -28.32 0 0 -28.19"/>
    <polygon class="fil2 str2" points="77.65,416.83 80.35,419.51 76.74,423.1 74,420.37 69.43,424.92 66.69,422.19 58.42,430.42 60.34,432.33 66.69,426.01 69.43,428.74 74,424.19 76.74,426.92 82.26,421.42 84.96,424.1 84.96,416.83 "/>
   </g>
  </g>
  <polygon class="fil5" points="53.96,440.02 85.33,440.02 85.33,409.09 53.96,409.09 "/>
  <path class="fil2 str3" d="M79.59 508.44l-6.93 -2.41 -0.04 0 -2.77 -0.97 12.97 -17.26 -3.23 20.64zm-8.66 -1.32l-2.54 2.56 0.69 -3.18 1.85 0.62 0 0zm-3.08 -1.98c-0.08,0.08 -0.11,0.2 -0.15,0.31l-0.12 0.51 -0.77 3.53 -1.85 -5.43 14.4 -13.97 -11.05 14.47 -0.46 0.58zm-11.12 -4.58l22.55 -12.1 -15.43 14.55 -7.12 -2.45zm27.78 -16.14c-0.23,-0.19 -0.57,-0.19 -0.84,-0.04l-29.21 15.64c-0.27,0.16 -0.43,0.43 -0.43,0.74 0,0.31 0.24,0.58 0.5,0.66l8.01 2.75 1 0.35 0.23 0.66 2.39 7.22 0 0.04 0 0.03c0.07,0.24 0.31,0.43 0.57,0.51 0.27,0.08 0.54,0 0.74,-0.19l0.03 -0.04 0.24 -0.24 4.84 -4.81 7.39 2.56c0.23,0.08 0.47,0.04 0.66,-0.07 0.19,-0.12 0.34,-0.31 0.38,-0.55l3.85 -24.44c0.04,-0.35 -0.11,-0.62 -0.35,-0.78z"/>
  <polygon class="fil2" points="1570.05,42.24 1570.05,23.92 1572.55,23.92 1582.61,38.5 1582.61,23.92 1584.92,23.92 1584.92,42.24 1582.42,42.24 1572.37,27.64 1572.37,42.24 "/>
  <path id="_1_2128" class="fil2" d="M1594.05 42.49c-1.25,0 -2.31,-0.27 -3.19,-0.84 -0.88,-0.56 -1.56,-1.36 -2.02,-2.42 -0.47,-1.05 -0.7,-2.3 -0.7,-3.76 0,-1.48 0.23,-2.75 0.7,-3.81 0.46,-1.06 1.14,-1.88 2.02,-2.45 0.88,-0.57 1.94,-0.85 3.19,-0.85 1.27,0 2.35,0.28 3.26,0.85 0.91,0.57 1.6,1.39 2.09,2.45 0.47,1.06 0.72,2.33 0.72,3.81 0,1.46 -0.25,2.71 -0.72,3.76 -0.49,1.06 -1.18,1.86 -2.09,2.42 -0.91,0.57 -1.99,0.84 -3.26,0.84zm0 -1.79c0.91,0 1.64,-0.23 2.18,-0.68 0.54,-0.46 0.93,-1.08 1.17,-1.86 0.24,-0.78 0.36,-1.68 0.36,-2.69 0,-1.01 -0.12,-1.92 -0.36,-2.71 -0.24,-0.79 -0.63,-1.42 -1.17,-1.88 -0.54,-0.45 -1.27,-0.68 -2.18,-0.68 -0.87,0 -1.56,0.23 -2.09,0.68 -0.52,0.46 -0.91,1.09 -1.13,1.88 -0.24,0.79 -0.35,1.7 -0.35,2.72 0,1 0.11,1.9 0.35,2.68 0.22,0.78 0.61,1.4 1.13,1.86 0.53,0.45 1.22,0.68 2.09,0.68z"/>
  <path id="_2_2129" class="fil2" d="M1603.07 42.24l0 -13.66 2.2 0 0.06 1.94c0.38,-0.52 0.92,-1.01 1.62,-1.47 0.7,-0.46 1.57,-0.69 2.61,-0.69 1.46,0 2.49,0.44 3.12,1.33 0.63,0.88 0.94,2.11 0.94,3.68l0 8.87 -2.26 0 0 -8.59c0,-0.66 -0.06,-1.24 -0.17,-1.75 -0.12,-0.51 -0.35,-0.91 -0.68,-1.2 -0.33,-0.29 -0.81,-0.44 -1.45,-0.44 -0.87,0 -1.61,0.24 -2.22,0.69 -0.62,0.46 -1.11,0.96 -1.5,1.49l0 9.8 -2.27 0zm16.53 0l0 -8.59c0,-0.66 -0.06,-1.24 -0.18,-1.75 -0.13,-0.51 -0.35,-0.91 -0.68,-1.2 -0.32,-0.29 -0.8,-0.44 -1.43,-0.44 -0.87,0 -1.62,0.22 -2.24,0.66 -0.63,0.44 -1.13,0.9 -1.5,1.41l-0.34 -1.67c0.5,-0.57 1.12,-1.1 1.88,-1.58 0.75,-0.48 1.66,-0.72 2.72,-0.72 1.42,0 2.46,0.44 3.09,1.33 0.63,0.88 0.95,2.11 0.95,3.68l0 8.87 -2.27 0z"/>
  <path id="_3_2130" class="fil2" d="M1631.77 42.49c-0.96,0 -1.79,-0.18 -2.47,-0.53 -0.69,-0.36 -1.24,-0.89 -1.68,-1.59l-0.11 1.87 -2.14 0 0 -18.32 2.29 0 0 6.77c0.43,-0.64 0.99,-1.18 1.69,-1.64 0.7,-0.46 1.53,-0.69 2.49,-0.69 1.03,0 1.93,0.26 2.68,0.79 0.74,0.53 1.32,1.31 1.73,2.36 0.41,1.04 0.61,2.35 0.61,3.91 0,1.55 -0.2,2.85 -0.62,3.9 -0.41,1.05 -1,1.85 -1.76,2.38 -0.76,0.53 -1.67,0.79 -2.71,0.79zm-0.43 -1.86c1.07,0 1.88,-0.45 2.4,-1.37 0.52,-0.91 0.78,-2.19 0.78,-3.85 0,-1.68 -0.26,-2.97 -0.77,-3.87 -0.52,-0.9 -1.3,-1.34 -2.34,-1.34 -0.91,0 -1.68,0.27 -2.3,0.81 -0.62,0.54 -1.11,1.17 -1.45,1.87l0 5.34c0.34,0.74 0.82,1.32 1.44,1.76 0.61,0.43 1.35,0.65 2.24,0.65z"/>
  <path id="_4_2131" class="fil2" d="M1639.83 42.24l0 -13.66 2.14 0 0.08 2.19c0.38,-0.68 0.9,-1.26 1.56,-1.72 0.67,-0.46 1.52,-0.69 2.58,-0.69l0.27 0 0 2.08 -0.31 0c-0.66,0 -1.24,0.09 -1.75,0.27 -0.49,0.18 -0.93,0.43 -1.3,0.74 -0.36,0.32 -0.7,0.69 -1,1.1l0 9.69 -2.27 0z"/>
  <path id="_5_2132" class="fil2" d="M1653.57 42.49c-1.38,0 -2.52,-0.31 -3.42,-0.92 -0.9,-0.63 -1.57,-1.47 -2.01,-2.54 -0.44,-1.07 -0.66,-2.27 -0.66,-3.61 0,-1.39 0.21,-2.62 0.64,-3.68 0.43,-1.06 1.08,-1.89 1.94,-2.49 0.87,-0.59 1.96,-0.89 3.26,-0.89 1.75,0 3.13,0.56 4.12,1.68 0.99,1.12 1.48,2.73 1.48,4.82 0,0.14 -0.01,0.31 -0.01,0.5 0,0.19 -0.02,0.33 -0.03,0.41l-9.11 0c0.01,0.9 0.14,1.73 0.39,2.48 0.26,0.75 0.66,1.35 1.22,1.81 0.56,0.45 1.29,0.68 2.19,0.68 0.97,0 1.72,-0.25 2.26,-0.75 0.55,-0.5 0.83,-1.22 0.85,-2.17l2.25 0c-0.03,0.97 -0.26,1.8 -0.7,2.5 -0.44,0.69 -1.05,1.23 -1.84,1.61 -0.79,0.37 -1.73,0.56 -2.82,0.56zm-3.79 -8.37l6.89 0c-0.02,-1.31 -0.33,-2.3 -0.91,-2.99 -0.58,-0.69 -1.4,-1.03 -2.44,-1.03 -1.06,0 -1.89,0.34 -2.48,1.02 -0.6,0.69 -0.95,1.69 -1.06,3z"/>
  <path id="_6_2133" class="fil2" d="M1671.73 42.49c-1.04,0 -1.93,-0.26 -2.69,-0.79 -0.77,-0.53 -1.36,-1.31 -1.78,-2.34 -0.41,-1.04 -0.62,-2.32 -0.62,-3.85 0,-1.58 0.21,-2.9 0.64,-3.95 0.43,-1.06 1.03,-1.86 1.82,-2.4 0.79,-0.53 1.72,-0.8 2.79,-0.8 0.97,0 1.77,0.2 2.43,0.61 0.66,0.41 1.19,0.96 1.6,1.66l0 -6.71 2.22 0 0 18.32 -2.1 0 -0.15 -1.99c-0.42,0.67 -0.98,1.21 -1.67,1.63 -0.69,0.41 -1.52,0.61 -2.49,0.61zm0.4 -1.86c0.91,0 1.67,-0.25 2.29,-0.74 0.61,-0.49 1.09,-1.07 1.43,-1.75l0 -5.34c-0.33,-0.77 -0.79,-1.39 -1.38,-1.86 -0.58,-0.48 -1.31,-0.72 -2.17,-0.72 -1.1,0 -1.94,0.46 -2.49,1.37 -0.56,0.91 -0.83,2.21 -0.83,3.91 0,1.66 0.26,2.93 0.79,3.81 0.54,0.88 1.32,1.32 2.36,1.32z"/>
  <path id="_7_2134" class="fil2" d="M1687.18 42.49c-1.38,0 -2.52,-0.31 -3.42,-0.92 -0.89,-0.63 -1.56,-1.47 -2.01,-2.54 -0.44,-1.07 -0.66,-2.27 -0.66,-3.61 0,-1.39 0.22,-2.62 0.65,-3.68 0.42,-1.06 1.07,-1.89 1.93,-2.49 0.87,-0.59 1.96,-0.89 3.27,-0.89 1.75,0 3.12,0.56 4.11,1.68 0.99,1.12 1.48,2.73 1.48,4.82 0,0.14 0,0.31 -0.01,0.5 0,0.19 -0.01,0.33 -0.03,0.41l-9.11 0c0.01,0.9 0.15,1.73 0.4,2.48 0.25,0.75 0.66,1.35 1.21,1.81 0.56,0.45 1.29,0.68 2.19,0.68 0.97,0 1.73,-0.25 2.27,-0.75 0.54,-0.5 0.82,-1.22 0.85,-2.17l2.25 0c-0.03,0.97 -0.26,1.8 -0.71,2.5 -0.44,0.69 -1.05,1.23 -1.84,1.61 -0.79,0.37 -1.73,0.56 -2.82,0.56zm-3.78 -8.37l6.89 0c-0.03,-1.31 -0.34,-2.3 -0.92,-2.99 -0.58,-0.69 -1.39,-1.03 -2.43,-1.03 -1.07,0 -1.9,0.34 -2.49,1.02 -0.59,0.69 -0.94,1.69 -1.05,3z"/>
  <path id="_8_2135" class="fil2" d="M1699.37 42.24c-1.08,0 -1.89,-0.17 -2.47,-0.51 -0.57,-0.34 -0.96,-0.82 -1.18,-1.47 -0.21,-0.64 -0.32,-1.4 -0.32,-2.31l0 -14.03 2.28 0 0 13.93c0,0.82 0.11,1.45 0.32,1.89 0.21,0.44 0.72,0.65 1.52,0.65l0.61 0 0 1.85 -0.76 0z"/>
  <path id="_9_2136" class="fil2" d="M1710.95 42.49c-0.71,0 -1.37,-0.14 -1.96,-0.43 -0.59,-0.29 -1.06,-0.72 -1.41,-1.29 -0.36,-0.58 -0.53,-1.3 -0.53,-2.15 0,-1.23 0.35,-2.16 1.05,-2.79 0.7,-0.63 1.7,-1.06 2.99,-1.28 1.29,-0.23 2.8,-0.35 4.52,-0.36l0 -1.02c0,-1.2 -0.26,-2.01 -0.78,-2.46 -0.52,-0.44 -1.16,-0.67 -1.94,-0.67 -0.86,0 -1.57,0.24 -2.15,0.71 -0.59,0.47 -0.88,1.22 -0.88,2.26l-2.2 0c0,-1.1 0.22,-2 0.67,-2.68 0.45,-0.69 1.07,-1.19 1.86,-1.5 0.79,-0.31 1.69,-0.47 2.7,-0.47 0.63,0 1.24,0.06 1.83,0.19 0.59,0.13 1.13,0.37 1.6,0.72 0.47,0.34 0.84,0.83 1.11,1.45 0.28,0.62 0.41,1.42 0.41,2.4l0 9.12 -2.1 0 -0.07 -1.92c-0.58,0.67 -1.26,1.2 -2.04,1.59 -0.77,0.39 -1.66,0.58 -2.68,0.58zm0.6 -1.74c0.86,0 1.63,-0.21 2.32,-0.63 0.68,-0.42 1.25,-0.97 1.73,-1.65l0 -2.87c-2.25,0.03 -3.85,0.27 -4.82,0.71 -0.97,0.45 -1.46,1.19 -1.46,2.22 0,0.68 0.18,1.22 0.56,1.62 0.37,0.4 0.93,0.6 1.67,0.6z"/>
  <path id="_10_2137" class="fil2" d="M1725.78 42.49c-1.03,0 -1.93,-0.26 -2.69,-0.79 -0.76,-0.53 -1.35,-1.31 -1.77,-2.34 -0.42,-1.04 -0.63,-2.32 -0.63,-3.85 0,-1.58 0.21,-2.9 0.64,-3.95 0.43,-1.06 1.03,-1.86 1.82,-2.4 0.79,-0.53 1.72,-0.8 2.8,-0.8 0.96,0 1.77,0.2 2.43,0.61 0.65,0.41 1.19,0.96 1.59,1.66l0 -6.71 2.23 0 0 18.32 -2.1 0 -0.15 -1.99c-0.43,0.67 -0.99,1.21 -1.68,1.63 -0.69,0.41 -1.52,0.61 -2.49,0.61zm0.4 -1.86c0.91,0 1.68,-0.25 2.29,-0.74 0.61,-0.49 1.09,-1.07 1.44,-1.75l0 -5.34c-0.34,-0.77 -0.8,-1.39 -1.39,-1.86 -0.58,-0.48 -1.31,-0.72 -2.17,-0.72 -1.1,0 -1.93,0.46 -2.49,1.37 -0.55,0.91 -0.83,2.21 -0.83,3.91 0,1.66 0.27,2.93 0.8,3.81 0.53,0.88 1.31,1.32 2.35,1.32z"/>
  <path id="_11_2138" class="fil2" d="M1735.79 42.24l0 -13.66 2.2 0 0.06 1.94c0.38,-0.52 0.92,-1.01 1.62,-1.47 0.7,-0.46 1.57,-0.69 2.61,-0.69 1.46,0 2.49,0.44 3.12,1.33 0.63,0.88 0.94,2.11 0.94,3.68l0 8.87 -2.26 0 0 -8.59c0,-0.66 -0.06,-1.24 -0.18,-1.75 -0.12,-0.51 -0.34,-0.91 -0.67,-1.2 -0.33,-0.29 -0.81,-0.44 -1.45,-0.44 -0.87,0 -1.61,0.24 -2.23,0.69 -0.61,0.46 -1.11,0.96 -1.49,1.49l0 9.8 -2.27 0zm16.52 0l0 -8.59c0,-0.66 -0.06,-1.24 -0.18,-1.75 -0.12,-0.51 -0.35,-0.91 -0.67,-1.2 -0.33,-0.29 -0.8,-0.44 -1.43,-0.44 -0.87,0 -1.62,0.22 -2.25,0.66 -0.62,0.44 -1.12,0.9 -1.49,1.41l-0.35 -1.67c0.5,-0.57 1.13,-1.1 1.88,-1.58 0.76,-0.48 1.66,-0.72 2.73,-0.72 1.42,0 2.45,0.44 3.09,1.33 0.63,0.88 0.95,2.11 0.95,3.68l0 8.87 -2.28 0z"/>
  <path id="_12_2139" class="fil2" d="M1758.09 42.24l0 -13.66 2.27 0 0 13.66 -2.27 0zm1.14 -16.14c-0.43,0 -0.78,-0.13 -1.03,-0.38 -0.26,-0.24 -0.38,-0.56 -0.38,-0.94 0,-0.38 0.12,-0.7 0.38,-0.95 0.25,-0.25 0.6,-0.37 1.03,-0.37 0.43,0 0.78,0.12 1.04,0.37 0.26,0.25 0.39,0.57 0.39,0.95 0,0.38 -0.13,0.7 -0.39,0.94 -0.26,0.25 -0.61,0.38 -1.04,0.38z"/>
  <path id="_13" class="fil2" d="M1763.96 42.24l0 -13.66 2.2 0 0.06 1.94c0.39,-0.52 0.95,-1.01 1.67,-1.47 0.73,-0.46 1.64,-0.69 2.73,-0.69 1.41,0 2.43,0.43 3.03,1.31 0.61,0.88 0.92,2.11 0.92,3.7l0 8.87 -2.26 0 0 -8.59c0,-0.66 -0.07,-1.24 -0.19,-1.75 -0.12,-0.51 -0.34,-0.91 -0.66,-1.2 -0.33,-0.29 -0.79,-0.44 -1.39,-0.44 -0.91,0 -1.69,0.24 -2.32,0.69 -0.63,0.46 -1.14,0.96 -1.52,1.49l0 9.8 -2.27 0z"/>
  <path id="_14" class="fil2" d="M1779.72 42.24c-0.5,0 -0.93,-0.16 -1.26,-0.49 -0.34,-0.33 -0.51,-0.74 -0.51,-1.22 0,-0.5 0.17,-0.91 0.51,-1.23 0.33,-0.33 0.76,-0.49 1.26,-0.49 0.5,0 0.91,0.16 1.24,0.49 0.33,0.32 0.49,0.73 0.49,1.23 0,0.48 -0.16,0.89 -0.49,1.22 -0.33,0.33 -0.74,0.49 -1.24,0.49z"/>
  <path class="fil2" d="M1658.21 78.72c-2.2,0 -4.15,-0.44 -5.82,-1.32 -1.69,-0.87 -3,-2.11 -3.94,-3.72 -0.95,-1.62 -1.43,-3.52 -1.43,-5.72 0,-1.62 0.27,-3.09 0.82,-4.41 0.54,-1.32 1.31,-2.46 2.3,-3.4 0.99,-0.94 2.15,-1.67 3.5,-2.17 1.34,-0.51 2.81,-0.76 4.4,-0.76 1.67,0 3.19,0.26 4.53,0.78 1.34,0.51 2.5,1.24 3.47,2.19 0.96,0.94 1.7,2.05 2.21,3.32 0.52,1.27 0.77,2.66 0.77,4.17 0,1.42 -0.21,2.57 -0.62,3.43 -0.42,0.86 -0.97,1.48 -1.66,1.87 -0.68,0.39 -1.43,0.58 -2.25,0.58 -0.87,0 -1.6,-0.18 -2.18,-0.55 -0.58,-0.36 -0.95,-0.91 -1.13,-1.66 -0.29,0.64 -0.77,1.17 -1.43,1.58 -0.66,0.42 -1.44,0.63 -2.34,0.63 -1.02,0 -1.88,-0.23 -2.59,-0.69 -0.71,-0.46 -1.26,-1.1 -1.64,-1.92 -0.38,-0.82 -0.56,-1.78 -0.56,-2.88 0,-1.09 0.2,-2.05 0.6,-2.87 0.4,-0.82 0.96,-1.45 1.7,-1.9 0.73,-0.45 1.61,-0.67 2.62,-0.67 0.81,0 1.51,0.16 2.1,0.5 0.58,0.34 1,0.73 1.27,1.18l0.09 -1.52 2.06 0 0 7.34c0,0.62 0.14,1.07 0.41,1.33 0.27,0.27 0.67,0.4 1.19,0.4 0.58,0 1.06,-0.18 1.42,-0.53 0.36,-0.35 0.63,-0.84 0.81,-1.46 0.17,-0.63 0.26,-1.35 0.26,-2.16 0,-1.79 -0.39,-3.35 -1.16,-4.67 -0.76,-1.32 -1.83,-2.34 -3.19,-3.08 -1.37,-0.73 -2.96,-1.09 -4.76,-1.09 -1.79,0 -3.37,0.37 -4.75,1.11 -1.37,0.74 -2.45,1.79 -3.23,3.15 -0.77,1.36 -1.16,2.97 -1.16,4.83 0,1.94 0.4,3.59 1.2,4.95 0.8,1.36 1.89,2.39 3.28,3.1 1.39,0.71 2.97,1.06 4.75,1.06 0.9,0 1.78,-0.09 2.65,-0.27 0.87,-0.17 1.67,-0.41 2.42,-0.72l0 1.79c-0.75,0.28 -1.54,0.49 -2.39,0.63 -0.85,0.14 -1.72,0.22 -2.6,0.22zm-0.5 -6.9c0.79,0 1.41,-0.17 1.88,-0.52 0.46,-0.35 0.8,-0.81 1,-1.38 0.21,-0.57 0.32,-1.19 0.32,-1.88 0,-0.65 -0.1,-1.25 -0.31,-1.82 -0.2,-0.56 -0.53,-1.01 -0.98,-1.35 -0.45,-0.34 -1.04,-0.52 -1.77,-0.52 -0.77,0 -1.39,0.18 -1.83,0.52 -0.46,0.34 -0.78,0.79 -0.97,1.35 -0.19,0.57 -0.28,1.17 -0.28,1.82 0,0.68 0.09,1.3 0.28,1.88 0.18,0.57 0.49,1.03 0.92,1.38 0.44,0.35 1.01,0.52 1.74,0.52z"/>
  <path id="_1_2140" class="fil2" d="M1675.99 76.04c-1.43,0 -2.46,-0.44 -3.09,-1.34 -0.63,-0.88 -0.95,-2.11 -0.95,-3.68l0 -8.89 2.29 0 0 8.62c0,0.65 0.06,1.22 0.18,1.71 0.12,0.5 0.36,0.88 0.69,1.16 0.34,0.28 0.82,0.42 1.45,0.42 0.9,0 1.66,-0.21 2.27,-0.64 0.61,-0.42 1.1,-0.91 1.47,-1.45l0 -9.82 2.27 0 0 13.66 -2.19 0 -0.05 -1.93c-0.4,0.52 -0.95,1.02 -1.66,1.48 -0.71,0.47 -1.6,0.7 -2.68,0.7z"/>
  <path id="_2_2141" class="fil2" d="M1690.93 76.04c-0.75,0 -1.46,-0.08 -2.13,-0.24 -0.67,-0.17 -1.25,-0.44 -1.76,-0.8 -0.51,-0.37 -0.91,-0.85 -1.19,-1.43 -0.29,-0.59 -0.43,-1.3 -0.43,-2.14l2.19 0c0,1.09 0.32,1.84 0.96,2.27 0.65,0.44 1.45,0.66 2.42,0.66 0.86,0 1.57,-0.18 2.12,-0.53 0.56,-0.34 0.85,-0.9 0.85,-1.69 0,-0.68 -0.26,-1.18 -0.76,-1.5 -0.51,-0.32 -1.4,-0.64 -2.68,-0.97 -1.03,-0.26 -1.9,-0.55 -2.6,-0.89 -0.7,-0.33 -1.22,-0.75 -1.58,-1.27 -0.35,-0.51 -0.53,-1.16 -0.53,-1.94 0,-0.61 0.12,-1.14 0.38,-1.59 0.25,-0.46 0.6,-0.84 1.05,-1.15 0.44,-0.31 0.97,-0.53 1.58,-0.69 0.6,-0.16 1.26,-0.23 1.96,-0.23 0.7,0 1.35,0.08 1.97,0.25 0.61,0.17 1.15,0.43 1.62,0.79 0.48,0.35 0.85,0.81 1.11,1.37 0.27,0.56 0.41,1.22 0.41,2l-2.21 0c0,-0.98 -0.28,-1.67 -0.83,-2.08 -0.56,-0.42 -1.25,-0.62 -2.07,-0.62 -0.82,0 -1.48,0.15 -1.99,0.46 -0.5,0.3 -0.76,0.77 -0.76,1.42 0,0.36 0.11,0.68 0.34,0.93 0.23,0.25 0.61,0.48 1.14,0.69 0.54,0.2 1.26,0.41 2.15,0.64 1,0.24 1.84,0.54 2.5,0.87 0.67,0.34 1.18,0.78 1.52,1.32 0.33,0.53 0.51,1.23 0.51,2.08 0,0.69 -0.13,1.3 -0.4,1.8 -0.26,0.52 -0.63,0.93 -1.11,1.26 -0.47,0.33 -1.03,0.56 -1.67,0.72 -0.64,0.15 -1.34,0.23 -2.08,0.23z"/>
  <path id="_3_2142" class="fil2" d="M1704.36 76.04c-1.38,0 -2.52,-0.31 -3.42,-0.93 -0.9,-0.62 -1.57,-1.47 -2.01,-2.53 -0.44,-1.07 -0.66,-2.28 -0.66,-3.62 0,-1.38 0.21,-2.61 0.64,-3.67 0.43,-1.06 1.07,-1.89 1.94,-2.49 0.87,-0.6 1.95,-0.89 3.26,-0.89 1.75,0 3.12,0.55 4.11,1.67 0.99,1.12 1.49,2.74 1.49,4.83 0,0.14 -0.01,0.31 -0.01,0.5 0,0.19 -0.02,0.33 -0.04,0.41l-9.11 0c0.01,0.9 0.15,1.73 0.4,2.47 0.26,0.76 0.66,1.36 1.22,1.82 0.56,0.45 1.28,0.68 2.19,0.68 0.97,0 1.72,-0.26 2.26,-0.75 0.54,-0.5 0.83,-1.22 0.85,-2.17l2.25 0c-0.03,0.96 -0.26,1.8 -0.7,2.49 -0.44,0.7 -1.06,1.23 -1.85,1.62 -0.79,0.37 -1.73,0.56 -2.81,0.56zm-3.79 -8.38l6.89 0c-0.03,-1.3 -0.33,-2.29 -0.91,-2.98 -0.59,-0.69 -1.4,-1.03 -2.44,-1.03 -1.06,0 -1.89,0.34 -2.49,1.02 -0.59,0.68 -0.94,1.68 -1.05,2.99z"/>
  <path id="_4_2143" class="fil2" d="M1712.69 75.79l0 -13.66 2.14 0 0.08 2.19c0.38,-0.69 0.9,-1.26 1.56,-1.72 0.67,-0.46 1.52,-0.69 2.58,-0.69l0.27 0 0 2.08 -0.32 0c-0.66,0 -1.24,0.09 -1.74,0.27 -0.5,0.18 -0.93,0.42 -1.3,0.74 -0.37,0.32 -0.7,0.68 -1,1.1l0 9.69 -2.27 0z"/>
  <path id="_5_2144" class="fil2" d="M1721.33 75.79l0 -13.66 2.21 0 0.05 1.94c0.39,-0.52 0.95,-1.02 1.67,-1.48 0.73,-0.46 1.64,-0.68 2.73,-0.68 1.42,0 2.43,0.43 3.04,1.31 0.61,0.87 0.91,2.11 0.91,3.7l0 8.87 -2.26 0 0 -8.6c0,-0.65 -0.07,-1.23 -0.19,-1.74 -0.12,-0.51 -0.34,-0.91 -0.66,-1.21 -0.33,-0.29 -0.79,-0.43 -1.39,-0.43 -0.91,0 -1.69,0.23 -2.31,0.69 -0.64,0.46 -1.14,0.96 -1.52,1.49l0 9.8 -2.28 0z"/>
  <path id="_6_2145" class="fil2" d="M1738.7 76.04c-0.71,0 -1.37,-0.14 -1.96,-0.43 -0.59,-0.29 -1.06,-0.72 -1.41,-1.3 -0.36,-0.57 -0.53,-1.29 -0.53,-2.14 0,-1.23 0.35,-2.16 1.05,-2.79 0.7,-0.63 1.7,-1.06 2.99,-1.28 1.29,-0.23 2.8,-0.35 4.52,-0.37l0 -1.01c0,-1.2 -0.26,-2.02 -0.78,-2.46 -0.52,-0.44 -1.16,-0.67 -1.94,-0.67 -0.86,0 -1.57,0.24 -2.15,0.71 -0.58,0.47 -0.88,1.22 -0.88,2.26l-2.2 0c0,-1.1 0.22,-2 0.67,-2.68 0.45,-0.69 1.07,-1.19 1.86,-1.51 0.79,-0.31 1.69,-0.46 2.7,-0.46 0.63,0 1.24,0.06 1.83,0.19 0.59,0.13 1.13,0.37 1.6,0.72 0.47,0.34 0.84,0.82 1.11,1.45 0.28,0.62 0.41,1.42 0.41,2.4l0 9.12 -2.09 0 -0.08 -1.93c-0.58,0.68 -1.26,1.21 -2.03,1.6 -0.78,0.39 -1.67,0.58 -2.69,0.58zm0.6 -1.74c0.86,0 1.64,-0.21 2.32,-0.63 0.68,-0.42 1.25,-0.97 1.73,-1.65l0 -2.87c-2.25,0.03 -3.85,0.27 -4.82,0.71 -0.97,0.45 -1.46,1.19 -1.46,2.22 0,0.68 0.18,1.22 0.56,1.62 0.37,0.4 0.93,0.6 1.67,0.6z"/>
  <path id="_7_2146" class="fil2" d="M1749.08 75.79l0 -13.66 2.2 0 0.06 1.94c0.38,-0.52 0.92,-1.02 1.62,-1.48 0.7,-0.46 1.57,-0.68 2.61,-0.68 1.46,0 2.49,0.44 3.12,1.32 0.63,0.89 0.94,2.12 0.94,3.69l0 8.87 -2.26 0 0 -8.6c0,-0.65 -0.06,-1.23 -0.17,-1.74 -0.13,-0.51 -0.35,-0.91 -0.68,-1.21 -0.33,-0.29 -0.81,-0.43 -1.45,-0.43 -0.87,0 -1.61,0.23 -2.22,0.69 -0.62,0.46 -1.11,0.96 -1.5,1.49l0 9.8 -2.27 0zm16.53 0l0 -8.6c0,-0.65 -0.06,-1.23 -0.18,-1.74 -0.13,-0.51 -0.35,-0.91 -0.68,-1.21 -0.32,-0.29 -0.8,-0.43 -1.43,-0.43 -0.87,0 -1.62,0.22 -2.24,0.66 -0.63,0.43 -1.13,0.9 -1.5,1.41l-0.34 -1.67c0.5,-0.58 1.12,-1.1 1.88,-1.58 0.75,-0.48 1.66,-0.72 2.72,-0.72 1.42,0 2.46,0.44 3.09,1.32 0.63,0.89 0.95,2.12 0.95,3.69l0 8.87 -2.27 0z"/>
  <path id="_8_2147" class="fil2" d="M1776.83 76.04c-1.38,0 -2.52,-0.31 -3.42,-0.93 -0.9,-0.62 -1.57,-1.47 -2.01,-2.53 -0.44,-1.07 -0.66,-2.28 -0.66,-3.62 0,-1.38 0.22,-2.61 0.64,-3.67 0.43,-1.06 1.08,-1.89 1.94,-2.49 0.87,-0.6 1.96,-0.89 3.26,-0.89 1.76,0 3.13,0.55 4.12,1.67 0.99,1.12 1.48,2.74 1.48,4.83 0,0.14 -0.01,0.31 -0.01,0.5 0,0.19 -0.01,0.33 -0.03,0.41l-9.11 0c0.01,0.9 0.14,1.73 0.39,2.47 0.26,0.76 0.66,1.36 1.22,1.82 0.56,0.45 1.29,0.68 2.19,0.68 0.97,0 1.72,-0.26 2.26,-0.75 0.55,-0.5 0.83,-1.22 0.85,-2.17l2.25 0c-0.02,0.96 -0.26,1.8 -0.7,2.49 -0.44,0.7 -1.05,1.23 -1.84,1.62 -0.79,0.37 -1.73,0.56 -2.82,0.56zm-3.79 -8.38l6.89 0c-0.02,-1.3 -0.33,-2.29 -0.91,-2.98 -0.58,-0.69 -1.39,-1.03 -2.44,-1.03 -1.06,0 -1.89,0.34 -2.48,1.02 -0.6,0.68 -0.95,1.68 -1.06,2.99z"/>
  <path class="fil6 str0" d="M1798.65 28.08c0,-6.25 5.08,-11.32 11.33,-11.32l45.31 0c6.26,0 11.33,5.07 11.33,11.32l0 45.31c0,6.26 -5.07,11.33 -11.33,11.33l-45.31 0c-6.25,0 -11.33,-5.07 -11.33,-11.33l0 -45.31z"/>
  <path class="fil0" d="M1843.75 37.78c0,6.25 -5.07,11.33 -11.33,11.33 -6.26,0 -11.33,-5.08 -11.33,-11.33 0,-6.26 5.07,-11.33 11.33,-11.33 6.26,0 11.33,5.07 11.33,11.33z"/>
  <path class="fil0" d="M1855.07 74.59l0 -11.32c0,-1.7 -0.84,-3.4 -2.26,-4.54 -3.12,-2.54 -7.08,-4.24 -11.05,-5.38 -2.83,-0.85 -5.94,-1.41 -9.34,-1.41 -3.12,0 -6.23,0.56 -9.35,1.41 -3.96,1.14 -7.93,3.12 -11.04,5.38 -1.42,1.14 -2.27,2.84 -2.27,4.54l0 11.32 45.31 0z"/>
  <path class="fil3 str0" d="M473.74 28.08c0,-6.25 5.07,-11.32 11.33,-11.32l999.02 0c6.26,0 11.33,5.07 11.33,11.32l0 45.31c0,6.26 -5.07,11.33 -11.33,11.33l-999.02 0c-6.26,0 -11.33,-5.07 -11.33,-11.33l0 -45.31z"/>
  <path class="fil7" d="M508.74 62.29l0 -23.76 7.63 0c2.39,0 4.3,0.48 5.73,1.44 1.43,0.97 2.15,2.43 2.15,4.41 0,1.24 -0.35,2.36 -1.05,3.33 -0.71,0.97 -1.63,1.61 -2.79,1.9 1.65,0.27 2.96,0.93 3.94,1.97 0.98,1.04 1.47,2.33 1.47,3.86 0,1.45 -0.32,2.67 -0.96,3.69 -0.63,1.02 -1.59,1.8 -2.87,2.34 -1.29,0.54 -2.91,0.82 -4.86,0.82l-8.39 0zm3.18 -2.66l5.15 0c1,0 1.93,-0.12 2.78,-0.38 0.85,-0.25 1.52,-0.7 2.03,-1.34 0.5,-0.64 0.76,-1.53 0.76,-2.66 0,-1.37 -0.5,-2.38 -1.49,-3.06 -0.98,-0.67 -2.34,-1.01 -4.08,-1.01l-5.15 0 0 8.45zm0 -11.03l4.43 0c1.53,0 2.7,-0.35 3.51,-1.04 0.81,-0.7 1.21,-1.64 1.21,-2.83 0,-0.8 -0.19,-1.46 -0.55,-2 -0.37,-0.53 -0.9,-0.93 -1.6,-1.2 -0.7,-0.26 -1.56,-0.39 -2.57,-0.39l-4.43 0 0 7.46z"/>
  <path id="_1_2148" class="fil7" d="M535.78 62.61c-1.99,0 -3.43,-0.57 -4.31,-1.72 -0.88,-1.14 -1.33,-2.72 -1.33,-4.72l0 -11.6 2.97 0 0 11.24c0,0.81 0.09,1.53 0.27,2.17 0.17,0.63 0.5,1.13 1,1.48 0.5,0.36 1.21,0.54 2.14,0.54 1.29,0 2.38,-0.28 3.24,-0.84 0.88,-0.55 1.58,-1.2 2.11,-1.93l0 -12.66 2.96 0 0 17.72 -2.84 0 -0.09 -2.59c-0.55,0.68 -1.33,1.34 -2.34,1.96 -1.01,0.64 -2.27,0.95 -3.78,0.95z"/>
  <path id="_2_2149" class="fil7" d="M556.61 62.61c-0.96,0 -1.88,-0.11 -2.74,-0.32 -0.87,-0.22 -1.63,-0.57 -2.29,-1.04 -0.66,-0.48 -1.17,-1.1 -1.55,-1.86 -0.36,-0.78 -0.55,-1.7 -0.55,-2.79l2.84 0c0,1.4 0.41,2.39 1.25,2.96 0.83,0.57 1.86,0.86 3.11,0.86 1.12,0 2.05,-0.23 2.77,-0.68 0.72,-0.45 1.08,-1.2 1.08,-2.23 0,-0.88 -0.32,-1.52 -0.98,-1.95 -0.65,-0.42 -1.8,-0.83 -3.45,-1.24 -1.34,-0.32 -2.47,-0.7 -3.39,-1.13 -0.92,-0.43 -1.61,-0.98 -2.07,-1.64 -0.45,-0.66 -0.68,-1.49 -0.68,-2.49 0,-0.79 0.16,-1.49 0.48,-2.08 0.32,-0.61 0.78,-1.11 1.36,-1.5 0.59,-0.4 1.27,-0.7 2.06,-0.9 0.79,-0.2 1.64,-0.3 2.56,-0.3 0.91,0 1.76,0.11 2.55,0.32 0.79,0.22 1.5,0.56 2.1,1.02 0.61,0.46 1.08,1.06 1.44,1.78 0.36,0.73 0.53,1.6 0.53,2.62l-2.86 0c0,-1.28 -0.36,-2.19 -1.09,-2.72 -0.74,-0.53 -1.62,-0.8 -2.67,-0.8 -1.06,0 -1.92,0.2 -2.58,0.6 -0.66,0.4 -0.99,1.02 -0.99,1.87 0,0.47 0.15,0.87 0.45,1.2 0.28,0.32 0.78,0.62 1.48,0.88 0.69,0.25 1.63,0.53 2.81,0.82 1.27,0.31 2.35,0.69 3.23,1.13 0.86,0.43 1.52,0.99 1.96,1.68 0.45,0.69 0.66,1.56 0.66,2.63 0,0.91 -0.17,1.71 -0.51,2.38 -0.35,0.68 -0.84,1.23 -1.45,1.66 -0.62,0.43 -1.34,0.75 -2.18,0.95 -0.82,0.21 -1.72,0.31 -2.69,0.31z"/>
  <path id="_3_2150" class="fil7" d="M574.87 62.61c-1.55,0 -2.93,-0.34 -4.13,-1.01 -1.2,-0.67 -2.14,-1.68 -2.82,-3.03 -0.67,-1.36 -1.01,-3.05 -1.01,-5.09 0,-2.04 0.33,-3.74 0.99,-5.1 0.67,-1.37 1.6,-2.39 2.8,-3.07 1.19,-0.69 2.58,-1.03 4.17,-1.03 1.33,0 2.53,0.22 3.59,0.67 1.07,0.45 1.92,1.12 2.55,2.02 0.64,0.9 0.98,2.04 1.01,3.42l-2.91 0c-0.07,-1.16 -0.47,-2.07 -1.2,-2.73 -0.73,-0.67 -1.72,-1 -2.98,-1 -1.68,0 -2.93,0.6 -3.75,1.79 -0.82,1.2 -1.23,2.87 -1.23,5.03 0,1.43 0.18,2.65 0.54,3.65 0.37,1 0.92,1.76 1.66,2.3 0.74,0.53 1.67,0.79 2.78,0.79 1.26,0 2.28,-0.34 3.06,-1.03 0.79,-0.68 1.21,-1.69 1.24,-3.02l2.92 0c-0.04,1.44 -0.38,2.63 -1.02,3.59 -0.64,0.95 -1.51,1.66 -2.59,2.14 -1.09,0.48 -2.32,0.71 -3.67,0.71z"/>
  <path id="_4_2151" class="fil7" d="M591.08 62.61c-0.99,0 -1.89,-0.19 -2.71,-0.58 -0.82,-0.38 -1.47,-0.95 -1.96,-1.7 -0.49,-0.76 -0.73,-1.69 -0.73,-2.8 0,-1.58 0.48,-2.78 1.44,-3.6 0.97,-0.82 2.34,-1.37 4.1,-1.67 1.76,-0.29 3.83,-0.46 6.2,-0.48l0 -1.26c0,-1.55 -0.37,-2.61 -1.1,-3.19 -0.73,-0.58 -1.65,-0.87 -2.77,-0.87 -1.19,0 -2.19,0.32 -3,0.95 -0.82,0.63 -1.22,1.62 -1.22,2.97l-2.86 0c0,-1.45 0.3,-2.63 0.91,-3.52 0.61,-0.9 1.44,-1.55 2.5,-1.96 1.07,-0.42 2.29,-0.62 3.67,-0.62 0.89,0 1.73,0.08 2.54,0.25 0.8,0.17 1.53,0.48 2.17,0.93 0.64,0.44 1.15,1.07 1.52,1.88 0.38,0.81 0.57,1.84 0.57,3.11l0 11.84 -2.76 0 -0.12 -2.61c-0.79,0.88 -1.7,1.59 -2.75,2.13 -1.04,0.54 -2.25,0.8 -3.64,0.8zm0.78 -2.26c1.17,0 2.23,-0.29 3.17,-0.86 0.95,-0.58 1.73,-1.3 2.37,-2.18l0 -3.64c-3.13,0.04 -5.38,0.34 -6.74,0.92 -1.35,0.57 -2.03,1.52 -2.03,2.83 0,0.89 0.27,1.6 0.81,2.14 0.55,0.53 1.35,0.79 2.42,0.79z"/>
  <path id="_5_2152" class="fil7" d="M613.21 68.61l0 -24.04 2.86 0 0.09 2.82c0.61,-0.93 1.4,-1.67 2.37,-2.25 0.97,-0.57 2.1,-0.86 3.38,-0.86 1.41,0 2.64,0.34 3.65,1.02 1.03,0.69 1.82,1.71 2.38,3.06 0.56,1.36 0.84,3.05 0.84,5.07 0,2 -0.3,3.68 -0.89,5.05 -0.6,1.36 -1.43,2.39 -2.52,3.09 -1.08,0.69 -2.35,1.04 -3.81,1.04 -1.23,0 -2.29,-0.25 -3.22,-0.73 -0.91,-0.49 -1.65,-1.16 -2.2,-2.01l0 8.74 -2.93 0zm7.8 -8.42c1.56,0 2.75,-0.58 3.54,-1.75 0.8,-1.17 1.2,-2.84 1.2,-5 0,-2.2 -0.38,-3.87 -1.12,-5.03 -0.74,-1.17 -1.83,-1.75 -3.27,-1.75 -1.26,0 -2.32,0.35 -3.18,1.05 -0.87,0.7 -1.54,1.51 -2.02,2.44l0 6.9c0.47,0.93 1.11,1.69 1.9,2.27 0.8,0.58 1.78,0.87 2.95,0.87z"/>
  <path id="_6_2153" class="fil7" d="M638.74 62.61c-1.99,0 -3.42,-0.57 -4.31,-1.72 -0.88,-1.14 -1.33,-2.72 -1.33,-4.72l0 -11.6 2.98 0 0 11.24c0,0.81 0.08,1.53 0.26,2.17 0.18,0.63 0.51,1.13 1,1.48 0.5,0.36 1.21,0.54 2.14,0.54 1.3,0 2.38,-0.28 3.25,-0.84 0.87,-0.55 1.57,-1.2 2.1,-1.93l0 -12.66 2.97 0 0 17.72 -2.85 0 -0.08 -2.59c-0.56,0.68 -1.34,1.34 -2.35,1.96 -1,0.64 -2.26,0.95 -3.78,0.95z"/>
  <path id="_7_2154" class="fil7" d="M661.83 62.61c-1.26,0 -2.35,-0.25 -3.24,-0.73 -0.9,-0.49 -1.63,-1.16 -2.19,-2.02l-0.16 2.43 -2.75 0 0 -23.76 2.94 0 0 8.8c0.61,-0.91 1.39,-1.64 2.36,-2.2 0.97,-0.57 2.11,-0.85 3.42,-0.85 1.4,0 2.61,0.34 3.63,1.02 1.03,0.69 1.82,1.71 2.38,3.06 0.56,1.36 0.84,3.05 0.84,5.07 0,2.01 -0.3,3.7 -0.89,5.06 -0.6,1.37 -1.44,2.4 -2.52,3.08 -1.08,0.7 -2.35,1.04 -3.82,1.04zm-0.54 -2.42c1.55,0 2.73,-0.58 3.53,-1.75 0.8,-1.17 1.2,-2.83 1.2,-4.97 0,-2.2 -0.37,-3.89 -1.12,-5.06 -0.75,-1.18 -1.85,-1.76 -3.31,-1.76 -1.24,0 -2.28,0.33 -3.14,1.02 -0.85,0.69 -1.52,1.52 -2.02,2.5l0 6.88c0.46,0.91 1.1,1.66 1.89,2.25 0.8,0.59 1.79,0.89 2.97,0.89z"/>
  <path id="_8_2155" class="fil7" d="M678.72 62.29c-1.4,0 -2.48,-0.23 -3.22,-0.67 -0.74,-0.44 -1.24,-1.07 -1.52,-1.9 -0.27,-0.83 -0.4,-1.83 -0.4,-3l0 -18.19 2.93 0 0 18.05c0,1.08 0.14,1.89 0.42,2.46 0.27,0.56 0.93,0.85 1.98,0.85l0.79 0 0 2.4 -0.98 0z"/>
  <path id="_9_2156" class="fil7" d="M683.19 62.29l0 -17.72 2.94 0 0 17.72 -2.94 0zm1.46 -20.94c-0.55,0 -1,-0.16 -1.33,-0.49 -0.34,-0.32 -0.51,-0.73 -0.51,-1.22 0,-0.5 0.17,-0.91 0.51,-1.23 0.33,-0.33 0.78,-0.49 1.33,-0.49 0.56,0 1,0.16 1.35,0.49 0.33,0.32 0.5,0.73 0.5,1.23 0,0.49 -0.17,0.9 -0.5,1.22 -0.35,0.33 -0.79,0.49 -1.35,0.49z"/>
  <path id="_10_2157" class="fil7" d="M698.82 62.61c-1.56,0 -2.94,-0.34 -4.14,-1.01 -1.2,-0.67 -2.14,-1.68 -2.81,-3.03 -0.68,-1.36 -1.02,-3.05 -1.02,-5.09 0,-2.04 0.34,-3.74 1,-5.1 0.66,-1.37 1.6,-2.39 2.79,-3.07 1.19,-0.69 2.58,-1.03 4.18,-1.03 1.33,0 2.52,0.22 3.59,0.67 1.06,0.45 1.91,1.12 2.55,2.02 0.64,0.9 0.97,2.04 1,3.42l-2.91 0c-0.07,-1.16 -0.47,-2.07 -1.2,-2.73 -0.73,-0.67 -1.72,-1 -2.98,-1 -1.68,0 -2.92,0.6 -3.74,1.79 -0.83,1.2 -1.24,2.87 -1.24,5.03 0,1.43 0.18,2.65 0.54,3.65 0.37,1 0.93,1.76 1.67,2.3 0.74,0.53 1.66,0.79 2.77,0.79 1.26,0 2.28,-0.34 3.07,-1.03 0.79,-0.68 1.2,-1.69 1.23,-3.02l2.92 0c-0.04,1.44 -0.37,2.63 -1.02,3.59 -0.64,0.95 -1.5,1.66 -2.59,2.14 -1.09,0.48 -2.31,0.71 -3.66,0.71z"/>
  <path id="_11_2158" class="fil7" d="M715.02 62.61c-0.99,0 -1.89,-0.19 -2.71,-0.58 -0.81,-0.38 -1.47,-0.95 -1.96,-1.7 -0.49,-0.76 -0.73,-1.69 -0.73,-2.8 0,-1.58 0.48,-2.78 1.45,-3.6 0.96,-0.82 2.33,-1.37 4.1,-1.67 1.76,-0.29 3.82,-0.46 6.19,-0.48l0 -1.26c0,-1.55 -0.37,-2.61 -1.09,-3.19 -0.73,-0.58 -1.66,-0.87 -2.78,-0.87 -1.18,0 -2.18,0.32 -3,0.95 -0.81,0.63 -1.22,1.62 -1.22,2.97l-2.86 0c0,-1.45 0.31,-2.63 0.91,-3.52 0.61,-0.9 1.45,-1.55 2.51,-1.96 1.07,-0.42 2.29,-0.62 3.66,-0.62 0.89,0 1.73,0.08 2.54,0.25 0.8,0.17 1.53,0.48 2.17,0.93 0.64,0.44 1.15,1.07 1.52,1.88 0.38,0.81 0.57,1.84 0.57,3.11l0 11.84 -2.75 0 -0.12 -2.61c-0.79,0.88 -1.71,1.59 -2.75,2.13 -1.04,0.54 -2.26,0.8 -3.65,0.8zm0.78 -2.26c1.17,0 2.24,-0.29 3.18,-0.86 0.94,-0.58 1.73,-1.3 2.36,-2.18l0 -3.64c-3.13,0.04 -5.37,0.34 -6.73,0.92 -1.36,0.57 -2.04,1.52 -2.04,2.83 0,0.89 0.27,1.6 0.82,2.14 0.55,0.53 1.35,0.79 2.41,0.79z"/>
  <path id="_12_2159" class="fil7" d="M736.8 62.61c-1.56,0 -2.94,-0.34 -4.14,-1.01 -1.2,-0.67 -2.14,-1.68 -2.81,-3.03 -0.68,-1.36 -1.01,-3.05 -1.01,-5.09 0,-2.04 0.33,-3.74 0.99,-5.1 0.66,-1.37 1.6,-2.39 2.79,-3.07 1.19,-0.69 2.59,-1.03 4.18,-1.03 1.33,0 2.52,0.22 3.59,0.67 1.07,0.45 1.92,1.12 2.55,2.02 0.64,0.9 0.98,2.04 1.01,3.42l-2.92 0c-0.07,-1.16 -0.47,-2.07 -1.19,-2.73 -0.73,-0.67 -1.73,-1 -2.99,-1 -1.67,0 -2.92,0.6 -3.74,1.79 -0.83,1.2 -1.24,2.87 -1.24,5.03 0,1.43 0.18,2.65 0.55,3.65 0.36,1 0.92,1.76 1.66,2.3 0.74,0.53 1.66,0.79 2.77,0.79 1.26,0 2.29,-0.34 3.07,-1.03 0.79,-0.68 1.2,-1.69 1.24,-3.02l2.91 0c-0.03,1.44 -0.37,2.63 -1.02,3.59 -0.64,0.95 -1.5,1.66 -2.59,2.14 -1.09,0.48 -2.31,0.71 -3.66,0.71z"/>
  <path id="_13_2160" class="fil7" d="M748.79 62.29l0 -17.72 2.94 0 0 17.72 -2.94 0zm1.46 -20.94c-0.56,0 -1,-0.16 -1.33,-0.49 -0.34,-0.32 -0.51,-0.73 -0.51,-1.22 0,-0.5 0.17,-0.91 0.51,-1.23 0.33,-0.33 0.77,-0.49 1.33,-0.49 0.55,0 1,0.16 1.34,0.49 0.34,0.32 0.51,0.73 0.51,1.23 0,0.49 -0.17,0.9 -0.51,1.22 -0.34,0.33 -0.79,0.49 -1.34,0.49z"/>
  <path id="_14_2161" class="fil7" d="M764.47 62.61c-1.69,0 -3.13,-0.37 -4.33,-1.1 -1.2,-0.73 -2.12,-1.78 -2.75,-3.14 -0.63,-1.36 -0.94,-2.99 -0.94,-4.86 0,-1.93 0.31,-3.58 0.94,-4.95 0.63,-1.38 1.55,-2.44 2.75,-3.17 1.2,-0.75 2.64,-1.11 4.33,-1.11 1.71,0 3.18,0.36 4.4,1.11 1.22,0.73 2.15,1.79 2.81,3.17 0.65,1.37 0.98,3.02 0.98,4.95 0,1.87 -0.33,3.5 -0.98,4.86 -0.66,1.36 -1.59,2.41 -2.81,3.14 -1.22,0.73 -2.69,1.1 -4.4,1.1zm0 -2.35c1.27,0 2.28,-0.29 3.03,-0.87 0.76,-0.58 1.29,-1.38 1.63,-2.4 0.33,-1.03 0.49,-2.18 0.49,-3.48 0,-1.33 -0.16,-2.51 -0.49,-3.54 -0.34,-1.05 -0.87,-1.86 -1.63,-2.46 -0.75,-0.59 -1.76,-0.88 -3.03,-0.88 -1.24,0 -2.22,0.29 -2.94,0.88 -0.73,0.6 -1.25,1.41 -1.57,2.46 -0.31,1.03 -0.47,2.21 -0.47,3.54 0,1.3 0.16,2.45 0.47,3.48 0.32,1.02 0.84,1.82 1.57,2.4 0.72,0.58 1.7,0.87 2.94,0.87z"/>
  <path id="_15" class="fil7" d="M777.38 62.29l0 -17.72 2.82 0 0.11 2.6c0.53,-0.69 1.29,-1.35 2.27,-1.96 0.99,-0.63 2.26,-0.93 3.8,-0.93 1.88,0 3.26,0.57 4.11,1.72 0.86,1.15 1.29,2.76 1.29,4.84l0 11.45 -2.95 0 0 -11.07c0,-0.87 -0.09,-1.64 -0.26,-2.31 -0.18,-0.67 -0.49,-1.2 -0.95,-1.58 -0.45,-0.39 -1.11,-0.58 -1.96,-0.58 -1.29,0 -2.36,0.3 -3.23,0.91 -0.88,0.6 -1.58,1.26 -2.11,1.98l0 12.65 -2.94 0z"/>
  <path id="_16" class="fil7" d="M804.46 62.61c-1.87,0 -3.4,-0.4 -4.6,-1.2 -1.19,-0.81 -2.08,-1.91 -2.65,-3.3 -0.58,-1.38 -0.87,-2.94 -0.87,-4.68 0,-1.8 0.28,-3.39 0.84,-4.77 0.56,-1.37 1.41,-2.44 2.56,-3.22 1.15,-0.78 2.61,-1.16 4.37,-1.16 2.34,0 4.18,0.72 5.51,2.17 1.33,1.46 2,3.55 2,6.26 0,0.19 -0.01,0.4 -0.02,0.65 -0.01,0.25 -0.03,0.43 -0.06,0.54l-12.25 0c0.01,1.16 0.19,2.23 0.54,3.2 0.35,0.98 0.9,1.76 1.65,2.35 0.75,0.59 1.75,0.88 2.98,0.88 1.32,0 2.35,-0.32 3.09,-0.97 0.75,-0.65 1.13,-1.58 1.17,-2.81l2.91 0c-0.03,1.25 -0.35,2.33 -0.94,3.23 -0.58,0.91 -1.41,1.6 -2.47,2.1 -1.06,0.48 -2.31,0.73 -3.76,0.73zm-5.15 -10.87l9.39 0c-0.03,-1.68 -0.45,-2.97 -1.25,-3.87 -0.8,-0.89 -1.92,-1.33 -3.34,-1.33 -1.44,0 -2.57,0.44 -3.38,1.32 -0.82,0.89 -1.29,2.18 -1.42,3.88z"/>
  <path id="_17" class="fil7" d="M822.28 62.61c-0.97,0 -1.88,-0.11 -2.74,-0.32 -0.87,-0.22 -1.63,-0.57 -2.29,-1.04 -0.66,-0.48 -1.17,-1.1 -1.55,-1.86 -0.37,-0.78 -0.55,-1.7 -0.55,-2.79l2.84 0c0,1.4 0.41,2.39 1.24,2.96 0.84,0.57 1.87,0.86 3.12,0.86 1.12,0 2.04,-0.23 2.77,-0.68 0.72,-0.45 1.08,-1.2 1.08,-2.23 0,-0.88 -0.32,-1.52 -0.98,-1.95 -0.65,-0.42 -1.8,-0.83 -3.45,-1.24 -1.34,-0.32 -2.48,-0.7 -3.39,-1.13 -0.92,-0.43 -1.61,-0.98 -2.07,-1.64 -0.46,-0.66 -0.69,-1.49 -0.69,-2.49 0,-0.79 0.17,-1.49 0.49,-2.08 0.32,-0.61 0.77,-1.11 1.36,-1.5 0.58,-0.4 1.27,-0.7 2.05,-0.9 0.79,-0.2 1.65,-0.3 2.56,-0.3 0.91,0 1.76,0.11 2.56,0.32 0.79,0.22 1.49,0.56 2.1,1.02 0.61,0.46 1.08,1.06 1.44,1.78 0.35,0.73 0.53,1.6 0.53,2.62l-2.86 0c0,-1.28 -0.37,-2.19 -1.1,-2.72 -0.73,-0.53 -1.62,-0.8 -2.67,-0.8 -1.06,0 -1.91,0.2 -2.57,0.6 -0.66,0.4 -0.99,1.02 -0.99,1.87 0,0.47 0.15,0.87 0.44,1.2 0.29,0.32 0.79,0.62 1.49,0.88 0.69,0.25 1.62,0.53 2.8,0.82 1.28,0.31 2.36,0.69 3.23,1.13 0.87,0.43 1.53,0.99 1.97,1.68 0.45,0.69 0.66,1.56 0.66,2.63 0,0.91 -0.17,1.71 -0.52,2.38 -0.35,0.68 -0.83,1.23 -1.44,1.66 -0.62,0.43 -1.35,0.75 -2.18,0.95 -0.82,0.21 -1.72,0.31 -2.69,0.31z"/>
  <path id="_18" class="fil7" d="M841.11 68.61l0 -24.04 2.85 0 0.09 2.82c0.62,-0.93 1.41,-1.67 2.38,-2.25 0.97,-0.57 2.09,-0.86 3.38,-0.86 1.41,0 2.63,0.34 3.65,1.02 1.03,0.69 1.82,1.71 2.38,3.06 0.56,1.36 0.84,3.05 0.84,5.07 0,2 -0.3,3.68 -0.89,5.05 -0.6,1.36 -1.44,2.39 -2.52,3.09 -1.08,0.69 -2.35,1.04 -3.82,1.04 -1.22,0 -2.29,-0.25 -3.21,-0.73 -0.92,-0.49 -1.65,-1.16 -2.21,-2.01l0 8.74 -2.92 0zm7.8 -8.42c1.56,0 2.74,-0.58 3.54,-1.75 0.79,-1.17 1.19,-2.84 1.19,-5 0,-2.2 -0.37,-3.87 -1.11,-5.03 -0.74,-1.17 -1.84,-1.75 -3.27,-1.75 -1.26,0 -2.32,0.35 -3.19,1.05 -0.86,0.7 -1.54,1.51 -2.02,2.44l0 6.9c0.47,0.93 1.11,1.69 1.91,2.27 0.8,0.58 1.78,0.87 2.95,0.87z"/>
  <path id="_19" class="fil7" d="M868.44 62.61c-1.69,0 -3.13,-0.37 -4.33,-1.1 -1.2,-0.73 -2.11,-1.78 -2.75,-3.14 -0.62,-1.36 -0.94,-2.99 -0.94,-4.86 0,-1.93 0.32,-3.58 0.94,-4.95 0.64,-1.38 1.55,-2.44 2.75,-3.17 1.2,-0.75 2.64,-1.11 4.33,-1.11 1.72,0 3.18,0.36 4.4,1.11 1.22,0.73 2.16,1.79 2.81,3.17 0.65,1.37 0.98,3.02 0.98,4.95 0,1.87 -0.33,3.5 -0.98,4.86 -0.65,1.36 -1.59,2.41 -2.81,3.14 -1.22,0.73 -2.68,1.1 -4.4,1.1zm0 -2.35c1.27,0 2.28,-0.29 3.04,-0.87 0.75,-0.58 1.29,-1.38 1.62,-2.4 0.33,-1.03 0.49,-2.18 0.49,-3.48 0,-1.33 -0.16,-2.51 -0.49,-3.54 -0.33,-1.05 -0.87,-1.86 -1.62,-2.46 -0.76,-0.59 -1.77,-0.88 -3.04,-0.88 -1.24,0 -2.22,0.29 -2.94,0.88 -0.73,0.6 -1.25,1.41 -1.56,2.46 -0.32,1.03 -0.48,2.21 -0.48,3.54 0,1.3 0.16,2.45 0.48,3.48 0.31,1.02 0.83,1.82 1.56,2.4 0.72,0.58 1.7,0.87 2.94,0.87z"/>
  <path id="_20" class="fil7" d="M881.35 62.29l0 -17.72 2.77 0 0.1 2.85c0.48,-0.9 1.16,-1.64 2.02,-2.25 0.86,-0.59 1.97,-0.89 3.35,-0.89l0.35 0 0 2.7 -0.4 0c-0.86,0 -1.62,0.12 -2.26,0.35 -0.65,0.23 -1.21,0.55 -1.7,0.96 -0.48,0.41 -0.91,0.89 -1.29,1.43l0 12.57 -2.94 0z"/>
  <path id="_21" class="fil7" d="M906.53 62.29c-1.39,0 -2.45,-0.23 -3.2,-0.69 -0.74,-0.46 -1.25,-1.12 -1.53,-1.97 -0.27,-0.86 -0.41,-1.9 -0.41,-3.1l0 -9.58 -2.88 0 0 -2.38 2.88 0 0 -3.95 2.93 0 0 3.95 4.24 0 0 2.38 -4.24 0 0 9.5c0,1.11 0.14,1.97 0.41,2.56 0.28,0.59 0.94,0.89 1.99,0.89l1.88 0 0 2.39 -2.07 0z"/>
  <path id="_22" class="fil7" d="M912.48 62.29l0 -17.72 2.94 0 0 17.72 -2.94 0zm-0.21 -20.18l3.59 -4.74 3.42 0 -4.73 4.74 -2.28 0z"/>
  <path id="_23" class="fil7" d="M926.76 62.29c-1.39,0 -2.45,-0.23 -3.19,-0.69 -0.74,-0.46 -1.26,-1.12 -1.53,-1.97 -0.28,-0.86 -0.42,-1.9 -0.42,-3.1l0 -9.58 -2.88 0 0 -2.38 2.88 0 0 -3.95 2.93 0 0 3.95 4.24 0 0 2.38 -4.24 0 0 9.5c0,1.11 0.14,1.97 0.41,2.56 0.28,0.59 0.94,0.89 1.99,0.89l1.88 0 0 2.39 -2.07 0z"/>
  <path id="_24" class="fil7" d="M938.16 62.61c-1.99,0 -3.42,-0.57 -4.31,-1.72 -0.88,-1.14 -1.32,-2.72 -1.32,-4.72l0 -11.6 2.97 0 0 11.24c0,0.81 0.08,1.53 0.27,2.17 0.17,0.63 0.5,1.13 1,1.48 0.5,0.36 1.21,0.54 2.14,0.54 1.29,0 2.38,-0.28 3.24,-0.84 0.88,-0.55 1.58,-1.2 2.11,-1.93l0 -12.66 2.96 0 0 17.72 -2.84 0 -0.09 -2.59c-0.55,0.68 -1.33,1.34 -2.34,1.96 -1.01,0.64 -2.27,0.95 -3.79,0.95z"/>
  <path id="_25" class="fil7" d="M957.85 62.29c-1.39,0 -2.47,-0.23 -3.21,-0.67 -0.74,-0.44 -1.25,-1.07 -1.52,-1.9 -0.27,-0.83 -0.4,-1.83 -0.4,-3l0 -18.19 2.93 0 0 18.05c0,1.08 0.14,1.89 0.41,2.46 0.28,0.56 0.94,0.85 1.99,0.85l0.79 0 0 2.4 -0.99 0z"/>
  <path id="_26" class="fil7" d="M969.37 62.61c-1.69,0 -3.13,-0.37 -4.33,-1.1 -1.2,-0.73 -2.11,-1.78 -2.74,-3.14 -0.63,-1.36 -0.94,-2.99 -0.94,-4.86 0,-1.93 0.31,-3.58 0.94,-4.95 0.63,-1.38 1.54,-2.44 2.74,-3.17 1.2,-0.75 2.64,-1.11 4.33,-1.11 1.72,0 3.18,0.36 4.41,1.11 1.21,0.73 2.15,1.79 2.8,3.17 0.66,1.37 0.98,3.02 0.98,4.95 0,1.87 -0.32,3.5 -0.98,4.86 -0.65,1.36 -1.59,2.41 -2.8,3.14 -1.23,0.73 -2.69,1.1 -4.41,1.1zm0 -2.35c1.27,0 2.29,-0.29 3.04,-0.87 0.75,-0.58 1.29,-1.38 1.62,-2.4 0.33,-1.03 0.49,-2.18 0.49,-3.48 0,-1.33 -0.16,-2.51 -0.49,-3.54 -0.33,-1.05 -0.87,-1.86 -1.62,-2.46 -0.75,-0.59 -1.77,-0.88 -3.04,-0.88 -1.23,0 -2.22,0.29 -2.94,0.88 -0.72,0.6 -1.25,1.41 -1.56,2.46 -0.32,1.03 -0.48,2.21 -0.48,3.54 0,1.3 0.16,2.45 0.48,3.48 0.31,1.02 0.84,1.82 1.56,2.4 0.72,0.58 1.71,0.87 2.94,0.87z"/>
  <path id="_27" class="fil7" d="M996.67 62.61c-1.68,0 -3.12,-0.37 -4.32,-1.1 -1.2,-0.73 -2.12,-1.78 -2.75,-3.14 -0.63,-1.36 -0.94,-2.99 -0.94,-4.86 0,-1.93 0.31,-3.58 0.94,-4.95 0.63,-1.38 1.55,-2.44 2.75,-3.17 1.2,-0.75 2.64,-1.11 4.32,-1.11 1.72,0 3.19,0.36 4.41,1.11 1.22,0.73 2.15,1.79 2.8,3.17 0.66,1.37 0.98,3.02 0.98,4.95 0,1.87 -0.32,3.5 -0.98,4.86 -0.65,1.36 -1.58,2.41 -2.8,3.14 -1.22,0.73 -2.69,1.1 -4.41,1.1zm0 -2.35c1.27,0 2.29,-0.29 3.04,-0.87 0.75,-0.58 1.29,-1.38 1.62,-2.4 0.33,-1.03 0.5,-2.18 0.5,-3.48 0,-1.33 -0.17,-2.51 -0.5,-3.54 -0.33,-1.05 -0.87,-1.86 -1.62,-2.46 -0.75,-0.59 -1.77,-0.88 -3.04,-0.88 -1.23,0 -2.21,0.29 -2.94,0.88 -0.72,0.6 -1.25,1.41 -1.56,2.46 -0.32,1.03 -0.47,2.21 -0.47,3.54 0,1.3 0.15,2.45 0.47,3.48 0.31,1.02 0.84,1.82 1.56,2.4 0.73,0.58 1.71,0.87 2.94,0.87z"/>
  <path id="_28" class="fil7" d="M1023.92 62.61c-1.55,0 -2.93,-0.34 -4.13,-1.01 -1.2,-0.67 -2.14,-1.68 -2.82,-3.03 -0.67,-1.36 -1.01,-3.05 -1.01,-5.09 0,-2.04 0.33,-3.74 0.99,-5.1 0.67,-1.37 1.6,-2.39 2.79,-3.07 1.2,-0.69 2.59,-1.03 4.18,-1.03 1.33,0 2.53,0.22 3.59,0.67 1.07,0.45 1.92,1.12 2.55,2.02 0.64,0.9 0.98,2.04 1.01,3.42l-2.91 0c-0.07,-1.16 -0.47,-2.07 -1.2,-2.73 -0.73,-0.67 -1.73,-1 -2.98,-1 -1.68,0 -2.93,0.6 -3.75,1.79 -0.82,1.2 -1.23,2.87 -1.23,5.03 0,1.43 0.18,2.65 0.54,3.65 0.37,1 0.92,1.76 1.66,2.3 0.74,0.53 1.67,0.79 2.78,0.79 1.25,0 2.28,-0.34 3.06,-1.03 0.79,-0.68 1.21,-1.69 1.24,-3.02l2.92 0c-0.04,1.44 -0.38,2.63 -1.02,3.59 -0.64,0.95 -1.51,1.66 -2.59,2.14 -1.1,0.48 -2.32,0.71 -3.67,0.71z"/>
  <path id="_29" class="fil7" d="M1042.95 62.61c-1.68,0 -3.12,-0.37 -4.32,-1.1 -1.2,-0.73 -2.12,-1.78 -2.75,-3.14 -0.63,-1.36 -0.94,-2.99 -0.94,-4.86 0,-1.93 0.31,-3.58 0.94,-4.95 0.63,-1.38 1.55,-2.44 2.75,-3.17 1.2,-0.75 2.64,-1.11 4.32,-1.11 1.72,0 3.19,0.36 4.41,1.11 1.22,0.73 2.15,1.79 2.8,3.17 0.66,1.37 0.98,3.02 0.98,4.95 0,1.87 -0.32,3.5 -0.98,4.86 -0.65,1.36 -1.58,2.41 -2.8,3.14 -1.22,0.73 -2.69,1.1 -4.41,1.1zm0 -2.35c1.28,0 2.29,-0.29 3.04,-0.87 0.76,-0.58 1.29,-1.38 1.62,-2.4 0.33,-1.03 0.5,-2.18 0.5,-3.48 0,-1.33 -0.17,-2.51 -0.5,-3.54 -0.33,-1.05 -0.86,-1.86 -1.62,-2.46 -0.75,-0.59 -1.76,-0.88 -3.04,-0.88 -1.23,0 -2.21,0.29 -2.94,0.88 -0.72,0.6 -1.24,1.41 -1.56,2.46 -0.32,1.03 -0.47,2.21 -0.47,3.54 0,1.3 0.15,2.45 0.47,3.48 0.32,1.02 0.84,1.82 1.56,2.4 0.73,0.58 1.71,0.87 2.94,0.87zm-1.57 -18.08l3.59 -4.74 3.42 0 -4.73 4.74 -2.28 0z"/>
  <path id="_30" class="fil7" d="M1061.74 62.61c-1.4,0 -2.61,-0.34 -3.63,-1.04 -1.03,-0.68 -1.82,-1.72 -2.38,-3.09 -0.56,-1.38 -0.84,-3.08 -0.84,-5.1 0,-2.01 0.3,-3.69 0.9,-5.03 0.59,-1.35 1.42,-2.36 2.51,-3.05 1.08,-0.68 2.36,-1.02 3.83,-1.02 1.23,0 2.29,0.26 3.2,0.8 0.9,0.53 1.64,1.26 2.18,2.18l0 -8.73 2.96 0 0 23.76 -2.79 0 -0.17 -2.51c-0.6,0.84 -1.39,1.52 -2.36,2.05 -0.96,0.52 -2.1,0.78 -3.41,0.78zm0.6 -2.42c1.26,0 2.31,-0.31 3.14,-0.92 0.84,-0.62 1.52,-1.37 2.03,-2.23l0 -6.89c-0.48,-1 -1.11,-1.84 -1.89,-2.49 -0.79,-0.65 -1.77,-0.98 -2.96,-0.98 -1.56,0 -2.75,0.58 -3.54,1.74 -0.8,1.17 -1.19,2.82 -1.19,4.96 0,2.22 0.37,3.9 1.12,5.07 0.75,1.16 1.85,1.74 3.29,1.74z"/>
  <path id="_31" class="fil7" d="M1076.13 62.29l0 -17.72 2.95 0 0 17.72 -2.95 0zm1.47 -20.94c-0.56,0 -1,-0.16 -1.33,-0.49 -0.34,-0.32 -0.51,-0.73 -0.51,-1.22 0,-0.5 0.17,-0.91 0.51,-1.23 0.33,-0.33 0.77,-0.49 1.33,-0.49 0.55,0 1,0.16 1.34,0.49 0.34,0.32 0.51,0.73 0.51,1.23 0,0.49 -0.17,0.9 -0.51,1.22 -0.34,0.33 -0.79,0.49 -1.34,0.49z"/>
  <path id="_32" class="fil7" d="M1090.75 68.94c-1.86,0 -3.34,-0.22 -4.46,-0.65 -1.11,-0.43 -1.91,-1.01 -2.41,-1.73 -0.49,-0.71 -0.74,-1.5 -0.74,-2.33 0,-1.02 0.43,-1.93 1.29,-2.72 0.85,-0.79 2.16,-1.35 3.94,-1.67l0.56 -0.99 2.17 0c2.83,0 4.85,0.38 6.06,1.14 1.22,0.76 1.82,1.94 1.82,3.54 0,1.58 -0.69,2.88 -2.07,3.89 -1.39,1.01 -3.44,1.52 -6.16,1.52zm-0.07 -2.13c2,0 3.41,-0.3 4.23,-0.88 0.82,-0.59 1.23,-1.31 1.23,-2.17 0,-0.52 -0.14,-0.96 -0.41,-1.33 -0.28,-0.37 -0.79,-0.66 -1.54,-0.87 -0.75,-0.2 -1.81,-0.31 -3.19,-0.31l-2.61 0c-0.8,0.21 -1.42,0.56 -1.86,1.06 -0.43,0.5 -0.65,1.08 -0.65,1.74 0,0.72 0.37,1.37 1.11,1.92 0.74,0.56 1.97,0.84 3.69,0.84zm-2.34 -5.72c-1.12,-0.11 -2,-0.35 -2.64,-0.7 -0.65,-0.34 -1.11,-0.73 -1.38,-1.16 -0.26,-0.43 -0.4,-0.84 -0.4,-1.25 0,-0.57 0.23,-1.12 0.7,-1.63 0.46,-0.51 1.22,-0.94 2.28,-1.26l1.47 0.92c-0.62,0.17 -1.12,0.4 -1.49,0.68 -0.36,0.27 -0.54,0.58 -0.54,0.92 0,0.24 0.11,0.45 0.33,0.63 0.21,0.18 0.58,0.33 1.11,0.44 0.52,0.12 1.25,0.17 2.18,0.17l-1.62 2.24zm2.2 -4.55c-1.41,0 -2.61,-0.28 -3.6,-0.84 -0.98,-0.56 -1.72,-1.29 -2.23,-2.19 -0.5,-0.9 -0.75,-1.88 -0.75,-2.93 0,-1.11 0.25,-2.13 0.76,-3.04 0.51,-0.91 1.27,-1.63 2.26,-2.17 1,-0.53 2.21,-0.8 3.65,-0.8 1.47,0 2.7,0.27 3.67,0.8 0.98,0.54 1.71,1.26 2.19,2.17 0.48,0.91 0.72,1.93 0.72,3.04 0,1.07 -0.24,2.06 -0.72,2.97 -0.49,0.9 -1.23,1.62 -2.22,2.17 -0.99,0.54 -2.23,0.82 -3.73,0.82zm-0.02 -2.02c1.13,0 2.07,-0.33 2.8,-0.99 0.74,-0.66 1.1,-1.65 1.1,-2.95 0,-1.37 -0.34,-2.37 -1.04,-3.03 -0.69,-0.66 -1.61,-0.99 -2.75,-0.99 -1.12,0 -2.05,0.34 -2.78,1.01 -0.74,0.68 -1.1,1.67 -1.1,2.99 0,1.33 0.38,2.32 1.13,2.97 0.76,0.67 1.64,0.99 2.64,0.99zm4.51 -8.07l-1.2 -1.11c0.5,-1.11 1.16,-1.85 1.98,-2.26 0.82,-0.39 1.87,-0.61 3.17,-0.65l0 2.49c-0.83,0 -1.58,0.09 -2.27,0.25 -0.69,0.18 -1.25,0.6 -1.68,1.28z"/>
  <path id="_33" class="fil7" d="M1109.06 62.61c-1.68,0 -3.12,-0.37 -4.32,-1.1 -1.2,-0.73 -2.12,-1.78 -2.75,-3.14 -0.63,-1.36 -0.94,-2.99 -0.94,-4.86 0,-1.93 0.31,-3.58 0.94,-4.95 0.63,-1.38 1.55,-2.44 2.75,-3.17 1.2,-0.75 2.64,-1.11 4.32,-1.11 1.72,0 3.19,0.36 4.41,1.11 1.22,0.73 2.15,1.79 2.8,3.17 0.66,1.37 0.98,3.02 0.98,4.95 0,1.87 -0.32,3.5 -0.98,4.86 -0.65,1.36 -1.58,2.41 -2.8,3.14 -1.22,0.73 -2.69,1.1 -4.41,1.1zm0 -2.35c1.28,0 2.29,-0.29 3.04,-0.87 0.75,-0.58 1.29,-1.38 1.62,-2.4 0.33,-1.03 0.5,-2.18 0.5,-3.48 0,-1.33 -0.17,-2.51 -0.5,-3.54 -0.33,-1.05 -0.87,-1.86 -1.62,-2.46 -0.75,-0.59 -1.76,-0.88 -3.04,-0.88 -1.23,0 -2.21,0.29 -2.94,0.88 -0.72,0.6 -1.25,1.41 -1.56,2.46 -0.32,1.03 -0.47,2.21 -0.47,3.54 0,1.3 0.15,2.45 0.47,3.48 0.31,1.02 0.84,1.82 1.56,2.4 0.73,0.58 1.71,0.87 2.94,0.87z"/>
  <path id="_34" class="fil7" d="M1135.2 62.61c-1.4,0 -2.61,-0.34 -3.64,-1.04 -1.02,-0.68 -1.82,-1.72 -2.37,-3.09 -0.56,-1.38 -0.84,-3.08 -0.84,-5.1 0,-2.01 0.3,-3.69 0.89,-5.03 0.59,-1.35 1.43,-2.36 2.52,-3.05 1.08,-0.68 2.36,-1.02 3.83,-1.02 1.22,0 2.29,0.26 3.19,0.8 0.91,0.53 1.64,1.26 2.19,2.18l0 -8.73 2.95 0 0 23.76 -2.79 0 -0.16 -2.51c-0.61,0.84 -1.4,1.52 -2.36,2.05 -0.97,0.52 -2.11,0.78 -3.41,0.78zm0.6 -2.42c1.26,0 2.31,-0.31 3.14,-0.92 0.84,-0.62 1.51,-1.37 2.03,-2.23l0 -6.89c-0.48,-1 -1.11,-1.84 -1.9,-2.49 -0.78,-0.65 -1.76,-0.98 -2.95,-0.98 -1.57,0 -2.75,0.58 -3.55,1.74 -0.79,1.17 -1.18,2.82 -1.18,4.96 0,2.22 0.37,3.9 1.12,5.07 0.75,1.16 1.84,1.74 3.29,1.74z"/>
  <path id="_35" class="fil7" d="M1156.74 62.61c-1.87,0 -3.41,-0.4 -4.6,-1.2 -1.2,-0.81 -2.08,-1.91 -2.66,-3.3 -0.58,-1.38 -0.86,-2.94 -0.86,-4.68 0,-1.8 0.28,-3.39 0.84,-4.77 0.55,-1.37 1.41,-2.44 2.56,-3.22 1.14,-0.78 2.6,-1.16 4.37,-1.16 2.34,0 4.17,0.72 5.51,2.17 1.32,1.46 1.99,3.55 1.99,6.26 0,0.19 -0.01,0.4 -0.02,0.65 -0.01,0.25 -0.03,0.43 -0.05,0.54l-12.25 0c0.01,1.16 0.19,2.23 0.53,3.2 0.35,0.98 0.9,1.76 1.65,2.35 0.76,0.59 1.75,0.88 2.99,0.88 1.32,0 2.35,-0.32 3.09,-0.97 0.74,-0.65 1.13,-1.58 1.16,-2.81l2.92 0c-0.04,1.25 -0.35,2.33 -0.94,3.23 -0.59,0.91 -1.41,1.6 -2.47,2.1 -1.06,0.48 -2.32,0.73 -3.76,0.73zm-5.16 -10.87l9.39 0c-0.03,-1.68 -0.45,-2.97 -1.25,-3.87 -0.8,-0.89 -1.91,-1.33 -3.33,-1.33 -1.44,0 -2.57,0.44 -3.38,1.32 -0.82,0.89 -1.3,2.18 -1.43,3.88z"/>
  <path id="_36" class="fil7" d="M1184.33 62.61c-1.26,0 -2.35,-0.25 -3.24,-0.73 -0.9,-0.49 -1.63,-1.16 -2.19,-2.02l-0.16 2.43 -2.75 0 0 -23.76 2.94 0 0 8.8c0.61,-0.91 1.39,-1.64 2.36,-2.2 0.97,-0.57 2.11,-0.85 3.42,-0.85 1.4,0 2.61,0.34 3.63,1.02 1.03,0.69 1.82,1.71 2.38,3.06 0.56,1.36 0.84,3.05 0.84,5.07 0,2.01 -0.3,3.7 -0.89,5.06 -0.6,1.37 -1.44,2.4 -2.52,3.08 -1.08,0.7 -2.35,1.04 -3.82,1.04zm-0.54 -2.42c1.55,0 2.73,-0.58 3.53,-1.75 0.8,-1.17 1.2,-2.83 1.2,-4.97 0,-2.2 -0.37,-3.89 -1.12,-5.06 -0.75,-1.18 -1.85,-1.76 -3.31,-1.76 -1.24,0 -2.28,0.33 -3.14,1.02 -0.85,0.69 -1.52,1.52 -2.02,2.5l0 6.88c0.46,0.91 1.09,1.66 1.89,2.25 0.8,0.59 1.79,0.89 2.97,0.89z"/>
  <path id="_37" class="fil7" d="M1200.53 62.61c-0.99,0 -1.89,-0.19 -2.71,-0.58 -0.82,-0.38 -1.47,-0.95 -1.96,-1.7 -0.49,-0.76 -0.73,-1.69 -0.73,-2.8 0,-1.58 0.48,-2.78 1.44,-3.6 0.97,-0.82 2.34,-1.37 4.1,-1.67 1.76,-0.29 3.83,-0.46 6.2,-0.48l0 -1.26c0,-1.55 -0.37,-2.61 -1.1,-3.19 -0.73,-0.58 -1.65,-0.87 -2.77,-0.87 -1.19,0 -2.19,0.32 -3,0.95 -0.82,0.63 -1.22,1.62 -1.22,2.97l-2.86 0c0,-1.45 0.31,-2.63 0.91,-3.52 0.61,-0.9 1.44,-1.55 2.51,-1.96 1.06,-0.42 2.29,-0.62 3.66,-0.62 0.89,0 1.73,0.08 2.54,0.25 0.8,0.17 1.53,0.48 2.17,0.93 0.64,0.44 1.15,1.07 1.52,1.88 0.38,0.81 0.57,1.84 0.57,3.11l0 11.84 -2.76 0 -0.12 -2.61c-0.79,0.88 -1.7,1.59 -2.75,2.13 -1.04,0.54 -2.25,0.8 -3.64,0.8zm0.78 -2.26c1.17,0 2.23,-0.29 3.17,-0.86 0.95,-0.58 1.73,-1.3 2.37,-2.18l0 -3.64c-3.13,0.04 -5.38,0.34 -6.74,0.92 -1.35,0.57 -2.03,1.52 -2.03,2.83 0,0.89 0.27,1.6 0.82,2.14 0.54,0.53 1.35,0.79 2.41,0.79z"/>
  <path id="_38" class="fil7" d="M1215.31 62.29l0 -17.72 2.77 0 0.11 2.85c0.48,-0.9 1.15,-1.64 2.01,-2.25 0.86,-0.59 1.98,-0.89 3.36,-0.89l0.35 0 0 2.7 -0.41 0c-0.86,0 -1.61,0.12 -2.26,0.35 -0.64,0.23 -1.21,0.55 -1.69,0.96 -0.48,0.41 -0.92,0.89 -1.29,1.43l0 12.57 -2.95 0z"/>
  <path id="_39" class="fil7" d="M1227.41 62.29l0 -17.72 2.77 0 0.1 2.85c0.49,-0.9 1.16,-1.64 2.02,-2.25 0.86,-0.59 1.97,-0.89 3.35,-0.89l0.35 0 0 2.7 -0.4 0c-0.86,0 -1.62,0.12 -2.26,0.35 -0.65,0.23 -1.21,0.55 -1.69,0.96 -0.49,0.41 -0.92,0.89 -1.29,1.43l0 12.57 -2.95 0z"/>
  <path id="_40" class="fil7" d="M1242.86 62.61c-0.99,0 -1.9,-0.19 -2.72,-0.58 -0.81,-0.38 -1.47,-0.95 -1.96,-1.7 -0.48,-0.76 -0.72,-1.69 -0.72,-2.8 0,-1.58 0.48,-2.78 1.44,-3.6 0.97,-0.82 2.33,-1.37 4.1,-1.67 1.76,-0.29 3.83,-0.46 6.2,-0.48l0 -1.26c0,-1.55 -0.37,-2.61 -1.1,-3.19 -0.73,-0.58 -1.65,-0.87 -2.77,-0.87 -1.19,0 -2.19,0.32 -3,0.95 -0.82,0.63 -1.22,1.62 -1.22,2.97l-2.86 0c0,-1.45 0.3,-2.63 0.91,-3.52 0.6,-0.9 1.44,-1.55 2.5,-1.96 1.07,-0.42 2.29,-0.62 3.67,-0.62 0.88,0 1.73,0.08 2.53,0.25 0.81,0.17 1.53,0.48 2.17,0.93 0.64,0.44 1.15,1.07 1.53,1.88 0.38,0.81 0.57,1.84 0.57,3.11l0 11.84 -2.76 0 -0.12 -2.61c-0.79,0.88 -1.71,1.59 -2.75,2.13 -1.04,0.54 -2.25,0.8 -3.64,0.8zm0.77 -2.26c1.18,0 2.24,-0.29 3.18,-0.86 0.95,-0.58 1.73,-1.3 2.37,-2.18l0 -3.64c-3.14,0.04 -5.38,0.34 -6.74,0.92 -1.36,0.57 -2.04,1.52 -2.04,2.83 0,0.89 0.27,1.6 0.82,2.14 0.55,0.53 1.35,0.79 2.41,0.79z"/>
  <path id="_41" class="fil7" d="M1263.73 62.61c-0.97,0 -1.88,-0.11 -2.75,-0.32 -0.86,-0.22 -1.62,-0.57 -2.29,-1.04 -0.65,-0.48 -1.16,-1.1 -1.54,-1.86 -0.37,-0.78 -0.55,-1.7 -0.55,-2.79l2.84 0c0,1.4 0.41,2.39 1.24,2.96 0.84,0.57 1.87,0.86 3.12,0.86 1.12,0 2.04,-0.23 2.77,-0.68 0.72,-0.45 1.08,-1.2 1.08,-2.23 0,-0.88 -0.32,-1.52 -0.98,-1.95 -0.65,-0.42 -1.8,-0.83 -3.46,-1.24 -1.33,-0.32 -2.47,-0.7 -3.38,-1.13 -0.92,-0.43 -1.61,-0.98 -2.07,-1.64 -0.46,-0.66 -0.69,-1.49 -0.69,-2.49 0,-0.79 0.17,-1.49 0.49,-2.08 0.32,-0.61 0.77,-1.11 1.36,-1.5 0.58,-0.4 1.27,-0.7 2.05,-0.9 0.79,-0.2 1.65,-0.3 2.56,-0.3 0.91,0 1.76,0.11 2.56,0.32 0.79,0.22 1.49,0.56 2.1,1.02 0.61,0.46 1.08,1.06 1.44,1.78 0.35,0.73 0.53,1.6 0.53,2.62l-2.86 0c0,-1.28 -0.37,-2.19 -1.1,-2.72 -0.73,-0.53 -1.62,-0.8 -2.67,-0.8 -1.06,0 -1.91,0.2 -2.58,0.6 -0.65,0.4 -0.98,1.02 -0.98,1.87 0,0.47 0.15,0.87 0.44,1.2 0.29,0.32 0.79,0.62 1.48,0.88 0.7,0.25 1.63,0.53 2.81,0.82 1.28,0.31 2.36,0.69 3.23,1.13 0.87,0.43 1.53,0.99 1.97,1.68 0.44,0.69 0.66,1.56 0.66,2.63 0,0.91 -0.17,1.71 -0.52,2.38 -0.35,0.68 -0.83,1.23 -1.44,1.66 -0.62,0.43 -1.35,0.75 -2.18,0.95 -0.82,0.21 -1.72,0.31 -2.69,0.31z"/>
  <line class="fil5 str0" x1="1433.55" y1="16.76" x2="1433.55" y2= "84.51" />
  <path class="fil2" d="M1482.99 62.99l-6.24 -6.24c-0.85,-0.85 -2,-1.15 -3.1,-0.95l-2.19 -2.19c1.94,-2.5 3.09,-5.69 3.09,-9.09 0,-8.24 -6.74,-14.97 -14.98,-14.97 -8.23,0 -14.97,6.73 -14.97,14.97 0,8.24 6.74,14.98 14.97,14.98 3.4,0 6.54,-1.15 9.09,-3.1l2.19 2.2c-0.19,1.1 0.11,2.25 0.95,3.1l6.24 6.24c0.7,0.69 1.6,1.04 2.5,1.04 0.9,0 1.8,-0.35 2.5,-1.04 1.29,-1.4 1.29,-3.6 -0.05,-4.95zm-23.47 -6.54c-6.58,0 -11.98,-5.39 -11.98,-11.98 0,-6.59 5.4,-11.98 11.98,-11.98 6.59,0 11.98,5.39 11.98,11.98 0,6.59 -5.39,11.98 -11.98,11.98z"/>
  <line class="fil5 str0" x1="636.69" y1="552.21" x2="636.69" y2= "595.44" />
  <path class="fil6 str0" d="M930.77 647.63c0,-4.82 3.9,-8.72 8.72,-8.72l176.88 0c4.82,0 8.72,3.9 8.72,8.72l0 34.85c0,4.81 -3.9,8.71 -8.72,8.71l-176.88 0c-4.82,0 -8.72,-3.9 -8.72,-8.71l0 -34.85z"/>
  <path class="fil0" d="M963.35 676.92c-2.46,0 -4.53,-0.51 -6.21,-1.55 -1.68,-1.04 -2.96,-2.47 -3.82,-4.29 -0.87,-1.83 -1.31,-3.94 -1.31,-6.34 0,-2.41 0.44,-4.52 1.31,-6.36 0.86,-1.84 2.14,-3.27 3.82,-4.31 1.68,-1.04 3.75,-1.56 6.21,-1.56 1.63,0 3.16,0.29 4.6,0.85 1.45,0.56 2.64,1.43 3.6,2.59 0.96,1.16 1.53,2.62 1.69,4.39l-3.19 0c-0.15,-1.19 -0.55,-2.17 -1.2,-2.94 -0.65,-0.78 -1.46,-1.35 -2.41,-1.73 -0.97,-0.37 -1.99,-0.56 -3.09,-0.56 -1.9,0 -3.45,0.44 -4.63,1.31 -1.19,0.87 -2.05,2.03 -2.59,3.48 -0.54,1.44 -0.81,3.06 -0.81,4.84 0,1.76 0.27,3.37 0.81,4.82 0.54,1.45 1.4,2.6 2.59,3.45 1.18,0.86 2.73,1.28 4.63,1.28 1.94,0 3.5,-0.48 4.7,-1.43 1.2,-0.95 1.89,-2.38 2.08,-4.27l3.21 0c-0.18,1.87 -0.73,3.42 -1.64,4.65 -0.9,1.23 -2.08,2.15 -3.51,2.77 -1.43,0.61 -3.05,0.91 -4.84,0.91z"/>
  <path id="_1_2162" class="fil0" d="M985.04 676.92c-1.69,0 -3.13,-0.36 -4.33,-1.09 -1.2,-0.74 -2.12,-1.79 -2.75,-3.15 -0.63,-1.36 -0.94,-2.98 -0.94,-4.86 0,-1.93 0.31,-3.58 0.94,-4.95 0.63,-1.38 1.55,-2.44 2.75,-3.17 1.2,-0.74 2.64,-1.11 4.33,-1.11 1.71,0 3.18,0.37 4.4,1.11 1.22,0.73 2.15,1.79 2.8,3.17 0.66,1.37 0.99,3.02 0.99,4.95 0,1.88 -0.33,3.5 -0.99,4.86 -0.65,1.36 -1.58,2.41 -2.8,3.15 -1.22,0.73 -2.69,1.09 -4.4,1.09zm0 -2.35c1.27,0 2.28,-0.29 3.03,-0.86 0.76,-0.59 1.29,-1.39 1.62,-2.41 0.34,-1.02 0.5,-2.18 0.5,-3.48 0,-1.32 -0.16,-2.5 -0.5,-3.54 -0.33,-1.04 -0.86,-1.86 -1.62,-2.45 -0.75,-0.59 -1.76,-0.89 -3.03,-0.89 -1.24,0 -2.22,0.3 -2.95,0.89 -0.72,0.59 -1.24,1.41 -1.56,2.45 -0.32,1.04 -0.47,2.22 -0.47,3.54 0,1.3 0.15,2.46 0.47,3.48 0.32,1.02 0.84,1.82 1.56,2.41 0.73,0.57 1.71,0.86 2.95,0.86z"/>
  <path id="_2_2163" class="fil0" d="M997.95 676.6l0 -17.72 2.82 0 0.1 2.6c0.53,-0.69 1.29,-1.35 2.28,-1.96 0.99,-0.62 2.26,-0.93 3.8,-0.93 1.88,0 3.25,0.57 4.11,1.72 0.86,1.15 1.29,2.76 1.29,4.84l0 11.45 -2.95 0 0 -11.07c0,-0.87 -0.09,-1.64 -0.26,-2.31 -0.18,-0.67 -0.49,-1.2 -0.95,-1.58 -0.45,-0.39 -1.11,-0.58 -1.96,-0.58 -1.29,0 -2.37,0.3 -3.23,0.91 -0.88,0.6 -1.58,1.27 -2.11,1.98l0 12.65 -2.94 0z"/>
  <path id="_3_2164" class="fil0" d="M1023.62 676.6c-1.39,0 -2.45,-0.23 -3.19,-0.69 -0.75,-0.46 -1.26,-1.11 -1.54,-1.97 -0.27,-0.86 -0.41,-1.89 -0.41,-3.1l0 -9.57 -2.88 0 0 -2.39 2.88 0 0 -3.94 2.93 0 0 3.94 4.24 0 0 2.39 -4.24 0 0 9.49c0,1.11 0.14,1.97 0.41,2.56 0.28,0.6 0.94,0.89 1.99,0.89l1.88 0 0 2.39 -2.07 0z"/>
  <path id="_4_2165" class="fil0" d="M1029.57 676.6l0 -17.72 2.95 0 0 17.72 -2.95 0zm1.46 -20.94c-0.55,0 -1,-0.16 -1.33,-0.49 -0.34,-0.32 -0.51,-0.73 -0.51,-1.22 0,-0.5 0.17,-0.91 0.51,-1.23 0.33,-0.33 0.78,-0.48 1.33,-0.48 0.56,0 1,0.15 1.35,0.48 0.33,0.32 0.5,0.73 0.5,1.23 0,0.49 -0.17,0.9 -0.5,1.22 -0.35,0.33 -0.79,0.49 -1.35,0.49z"/>
  <path id="_5_2166" class="fil0" d="M1038.21 676.6l0 -17.72 2.82 0 0.1 2.6c0.53,-0.69 1.29,-1.35 2.28,-1.96 0.99,-0.62 2.26,-0.93 3.8,-0.93 1.88,0 3.25,0.57 4.11,1.72 0.86,1.15 1.29,2.76 1.29,4.84l0 11.45 -2.95 0 0 -11.07c0,-0.87 -0.09,-1.64 -0.26,-2.31 -0.18,-0.67 -0.49,-1.2 -0.95,-1.58 -0.45,-0.39 -1.11,-0.58 -1.96,-0.58 -1.29,0 -2.37,0.3 -3.23,0.91 -0.88,0.6 -1.58,1.27 -2.11,1.98l0 12.65 -2.94 0z"/>
  <path id="_6_2167" class="fil0" d="M1063.6 676.92c-1.99,0 -3.43,-0.57 -4.31,-1.71 -0.88,-1.14 -1.33,-2.72 -1.33,-4.73l0 -11.6 2.97 0 0 11.25c0,0.8 0.09,1.53 0.27,2.16 0.17,0.64 0.5,1.13 1,1.49 0.5,0.35 1.21,0.53 2.14,0.53 1.29,0 2.38,-0.28 3.25,-0.83 0.87,-0.56 1.57,-1.21 2.1,-1.94l0 -12.66 2.97 0 0 17.72 -2.85 0 -0.08 -2.59c-0.56,0.68 -1.34,1.34 -2.35,1.97 -1,0.63 -2.26,0.94 -3.78,0.94z"/>
  <path id="_7_2168" class="fil0" d="M1082.59 676.92c-0.98,0 -1.89,-0.19 -2.71,-0.58 -0.81,-0.38 -1.47,-0.95 -1.96,-1.7 -0.49,-0.75 -0.73,-1.69 -0.73,-2.8 0,-1.58 0.49,-2.78 1.45,-3.6 0.96,-0.81 2.33,-1.37 4.1,-1.66 1.76,-0.3 3.83,-0.46 6.19,-0.49l0 -1.26c0,-1.55 -0.36,-2.61 -1.09,-3.18 -0.73,-0.58 -1.65,-0.87 -2.78,-0.87 -1.18,0 -2.18,0.31 -3,0.94 -0.81,0.63 -1.21,1.62 -1.21,2.97l-2.87 0c0,-1.45 0.31,-2.62 0.91,-3.52 0.61,-0.9 1.45,-1.55 2.51,-1.96 1.07,-0.42 2.29,-0.62 3.66,-0.62 0.89,0 1.73,0.08 2.54,0.25 0.8,0.17 1.53,0.48 2.17,0.93 0.64,0.45 1.15,1.07 1.53,1.88 0.38,0.81 0.56,1.85 0.56,3.12l0 11.83 -2.75 0 -0.12 -2.61c-0.79,0.88 -1.71,1.6 -2.75,2.13 -1.04,0.54 -2.25,0.8 -3.65,0.8zm0.78 -2.26c1.18,0 2.24,-0.29 3.18,-0.86 0.94,-0.58 1.73,-1.3 2.37,-2.18l0 -3.63c-3.14,0.03 -5.38,0.33 -6.74,0.91 -1.36,0.57 -2.04,1.52 -2.04,2.83 0,0.89 0.27,1.6 0.82,2.14 0.55,0.53 1.35,0.79 2.41,0.79z"/>
  <path id="_8_2169" class="fil0" d="M1097.38 676.6l0 -17.72 2.77 0 0.1 2.86c0.48,-0.9 1.16,-1.65 2.02,-2.25 0.86,-0.6 1.97,-0.9 3.35,-0.9l0.35 0 0 2.7 -0.4 0c-0.86,0 -1.62,0.12 -2.26,0.35 -0.65,0.23 -1.21,0.55 -1.7,0.96 -0.48,0.41 -0.91,0.89 -1.29,1.43l0 12.57 -2.94 0z"/>
  <path class="fil5 str0" d="M617.08 550.18c0,-6.34 5.14,-11.48 11.47,-11.48l799.19 0c6.34,0 11.48,5.14 11.48,11.48l0 45.89c0,6.34 -5.14,11.47 -11.48,11.47l-799.19 0c-6.33,0 -11.47,-5.13 -11.47,-11.47l0 -45.89z"/>
  <rect class="fil1" x="628.19" y="521.93" width="198.24" height="28.76"/>
  <path class="fil2" d="M640.81 545.71c-1.84,0 -3.38,-0.4 -4.64,-1.2 -1.25,-0.8 -2.21,-1.9 -2.85,-3.31 -0.64,-1.41 -0.96,-3.04 -0.96,-4.89 0,-1.85 0.32,-3.48 0.96,-4.9 0.64,-1.42 1.6,-2.52 2.85,-3.32 1.26,-0.8 2.8,-1.2 4.64,-1.2 1.21,0 2.35,0.22 3.42,0.65 1.07,0.43 1.96,1.1 2.68,2 0.72,0.89 1.14,2.02 1.25,3.38l-2.46 0c-0.1,-0.92 -0.39,-1.67 -0.86,-2.27 -0.47,-0.59 -1.06,-1.04 -1.76,-1.33 -0.71,-0.29 -1.46,-0.43 -2.27,-0.43 -1.41,0 -2.55,0.33 -3.42,1.01 -0.87,0.67 -1.51,1.56 -1.91,2.68 -0.4,1.12 -0.6,2.36 -0.6,3.73 0,1.36 0.2,2.6 0.6,3.72 0.4,1.11 1.04,2 1.91,2.66 0.87,0.66 2.01,0.99 3.42,0.99 1.41,0 2.55,-0.37 3.42,-1.1 0.87,-0.74 1.38,-1.84 1.53,-3.3l2.49 0c-0.14,1.44 -0.55,2.64 -1.23,3.59 -0.68,0.95 -1.56,1.66 -2.62,2.13 -1.07,0.47 -2.27,0.71 -3.59,0.71z"/>
  <path id="_1_2170" class="fil2" d="M656.46 545.71c-1.25,0 -2.31,-0.28 -3.19,-0.84 -0.88,-0.57 -1.56,-1.37 -2.02,-2.42 -0.47,-1.05 -0.7,-2.31 -0.7,-3.77 0,-1.48 0.23,-2.74 0.7,-3.8 0.46,-1.07 1.14,-1.88 2.02,-2.45 0.88,-0.58 1.94,-0.86 3.19,-0.86 1.27,0 2.35,0.28 3.26,0.86 0.91,0.57 1.6,1.38 2.09,2.45 0.48,1.06 0.72,2.32 0.72,3.8 0,1.46 -0.24,2.72 -0.72,3.77 -0.49,1.05 -1.18,1.85 -2.09,2.42 -0.91,0.56 -1.99,0.84 -3.26,0.84zm0 -1.8c0.91,0 1.64,-0.23 2.18,-0.68 0.54,-0.45 0.93,-1.07 1.17,-1.86 0.24,-0.78 0.36,-1.68 0.36,-2.69 0,-1.01 -0.12,-1.91 -0.36,-2.71 -0.24,-0.79 -0.63,-1.41 -1.17,-1.88 -0.54,-0.45 -1.27,-0.68 -2.18,-0.68 -0.87,0 -1.56,0.23 -2.09,0.68 -0.52,0.47 -0.91,1.09 -1.13,1.88 -0.24,0.8 -0.35,1.7 -0.35,2.73 0,0.99 0.11,1.89 0.35,2.67 0.22,0.79 0.61,1.41 1.13,1.86 0.53,0.45 1.22,0.68 2.09,0.68zm-1.22 -13.96l2.77 -3.65 2.64 0 -3.65 3.65 -1.76 0z"/>
  <path id="_2_2171" class="fil2" d="M669.93 545.71c-1.03,0 -1.93,-0.27 -2.69,-0.79 -0.76,-0.53 -1.35,-1.31 -1.77,-2.35 -0.42,-1.03 -0.63,-2.32 -0.63,-3.85 0,-1.57 0.22,-2.89 0.64,-3.95 0.43,-1.06 1.03,-1.86 1.82,-2.39 0.79,-0.54 1.72,-0.81 2.8,-0.81 0.96,0 1.77,0.21 2.43,0.61 0.65,0.41 1.19,0.97 1.6,1.66l0 -6.7 2.22 0 0 18.32 -2.1 0 -0.15 -2c-0.43,0.67 -0.99,1.22 -1.67,1.63 -0.7,0.41 -1.52,0.62 -2.5,0.62zm0.4 -1.87c0.92,0 1.68,-0.24 2.29,-0.73 0.61,-0.49 1.09,-1.08 1.44,-1.76l0 -5.34c-0.34,-0.76 -0.8,-1.39 -1.38,-1.86 -0.59,-0.47 -1.31,-0.72 -2.17,-0.72 -1.11,0 -1.94,0.46 -2.49,1.37 -0.56,0.91 -0.84,2.21 -0.84,3.91 0,1.66 0.27,2.93 0.8,3.81 0.53,0.88 1.31,1.32 2.35,1.32z"/>
  <path id="_3_2172" class="fil2" d="M679.94 545.46l0 -13.67 2.27 0 0 13.67 -2.27 0zm1.14 -16.15c-0.43,0 -0.78,-0.12 -1.03,-0.37 -0.26,-0.25 -0.38,-0.57 -0.38,-0.95 0,-0.38 0.12,-0.69 0.38,-0.94 0.25,-0.26 0.6,-0.38 1.03,-0.38 0.43,0 0.78,0.12 1.04,0.38 0.26,0.25 0.39,0.56 0.39,0.94 0,0.38 -0.13,0.7 -0.39,0.95 -0.26,0.25 -0.61,0.37 -1.04,0.37z"/>
  <path id="_4_2173" class="fil2" d="M690.1 550.59c-1.37,0 -2.47,-0.17 -3.3,-0.5 -0.82,-0.33 -1.42,-0.78 -1.79,-1.33 -0.37,-0.56 -0.55,-1.16 -0.55,-1.81 0,-0.78 0.33,-1.48 0.99,-2.09 0.66,-0.61 1.68,-1.04 3.06,-1.29l0.42 -0.76 1.51 0c2.06,0 3.53,0.29 4.42,0.88 0.88,0.59 1.32,1.49 1.32,2.72 0,1.22 -0.51,2.23 -1.55,3.01 -1.03,0.78 -2.55,1.17 -4.53,1.17zm-0.06 -1.65c1.43,0 2.46,-0.22 3.06,-0.68 0.6,-0.45 0.9,-1 0.9,-1.67 0,-0.39 -0.09,-0.74 -0.29,-1.02 -0.2,-0.29 -0.57,-0.51 -1.09,-0.67 -0.53,-0.16 -1.28,-0.24 -2.27,-0.24l-1.83 0c-0.63,0.16 -1.1,0.43 -1.42,0.82 -0.33,0.38 -0.49,0.83 -0.49,1.33 0,0.57 0.26,1.06 0.79,1.49 0.53,0.43 1.41,0.64 2.64,0.64zm-1.56 -4.57c-0.88,-0.03 -1.57,-0.17 -2.07,-0.42 -0.5,-0.24 -0.86,-0.53 -1.06,-0.86 -0.21,-0.33 -0.32,-0.64 -0.32,-0.92 0,-0.42 0.19,-0.83 0.56,-1.25 0.37,-0.42 0.97,-0.76 1.79,-1.01l1.15 0.75c-0.5,0.1 -0.88,0.27 -1.15,0.5 -0.28,0.23 -0.41,0.46 -0.41,0.71 0,0.17 0.08,0.33 0.24,0.47 0.17,0.14 0.44,0.25 0.84,0.33 0.4,0.08 0.95,0.13 1.64,0.14l-1.21 1.56zm1.47 -3.35c-1.04,0 -1.93,-0.21 -2.66,-0.63 -0.72,-0.43 -1.27,-0.99 -1.64,-1.69 -0.37,-0.7 -0.57,-1.46 -0.57,-2.27 0,-0.86 0.2,-1.64 0.57,-2.34 0.38,-0.7 0.93,-1.26 1.65,-1.67 0.72,-0.42 1.61,-0.63 2.66,-0.63 1.08,0 1.98,0.21 2.69,0.63 0.71,0.41 1.25,0.97 1.61,1.67 0.36,0.7 0.53,1.48 0.53,2.34 0,0.83 -0.18,1.59 -0.54,2.29 -0.36,0.7 -0.9,1.25 -1.61,1.68 -0.71,0.41 -1.61,0.62 -2.69,0.62zm0.01 -1.55c0.8,0 1.45,-0.25 1.95,-0.77 0.5,-0.51 0.75,-1.26 0.75,-2.27 0,-1.05 -0.25,-1.83 -0.73,-2.34 -0.49,-0.5 -1.13,-0.76 -1.94,-0.76 -0.81,0 -1.47,0.26 -1.98,0.78 -0.5,0.52 -0.76,1.29 -0.76,2.31 0,1.02 0.27,1.78 0.82,2.29 0.54,0.51 1.17,0.76 1.89,0.76zm3.34 -6.22l-0.91 -0.86c0.33,-0.85 0.81,-1.43 1.43,-1.74 0.62,-0.31 1.41,-0.47 2.36,-0.5l0 1.92c-0.6,0 -1.15,0.06 -1.64,0.19 -0.5,0.14 -0.92,0.46 -1.24,0.99z"/>
  <path id="_5_2174" class="fil2" d="M703.13 545.71c-1.25,0 -2.31,-0.28 -3.19,-0.84 -0.88,-0.57 -1.55,-1.37 -2.02,-2.42 -0.47,-1.05 -0.7,-2.31 -0.7,-3.77 0,-1.48 0.23,-2.74 0.7,-3.8 0.47,-1.07 1.14,-1.88 2.02,-2.45 0.88,-0.58 1.94,-0.86 3.19,-0.86 1.27,0 2.36,0.28 3.27,0.86 0.9,0.57 1.6,1.38 2.08,2.45 0.48,1.06 0.72,2.32 0.72,3.8 0,1.46 -0.24,2.72 -0.72,3.77 -0.48,1.05 -1.18,1.85 -2.08,2.42 -0.91,0.56 -2,0.84 -3.27,0.84zm0 -1.8c0.92,0 1.65,-0.23 2.18,-0.68 0.54,-0.45 0.93,-1.07 1.18,-1.86 0.23,-0.78 0.35,-1.68 0.35,-2.69 0,-1.01 -0.12,-1.91 -0.35,-2.71 -0.25,-0.79 -0.64,-1.41 -1.18,-1.88 -0.53,-0.45 -1.26,-0.68 -2.18,-0.68 -0.86,0 -1.56,0.23 -2.09,0.68 -0.52,0.47 -0.9,1.09 -1.13,1.88 -0.23,0.8 -0.35,1.7 -0.35,2.73 0,0.99 0.12,1.89 0.35,2.67 0.23,0.79 0.61,1.41 1.13,1.86 0.53,0.45 1.23,0.68 2.09,0.68z"/>
  <path id="_6_2175" class="fil2" d="M721.98 545.71c-1.03,0 -1.93,-0.27 -2.69,-0.79 -0.76,-0.53 -1.35,-1.31 -1.77,-2.35 -0.42,-1.03 -0.63,-2.32 -0.63,-3.85 0,-1.57 0.21,-2.89 0.64,-3.95 0.43,-1.06 1.03,-1.86 1.82,-2.39 0.79,-0.54 1.72,-0.81 2.8,-0.81 0.96,0 1.77,0.21 2.43,0.61 0.65,0.41 1.19,0.97 1.6,1.66l0 -6.7 2.22 0 0 18.32 -2.1 0 -0.15 -2c-0.43,0.67 -0.99,1.22 -1.67,1.63 -0.7,0.41 -1.52,0.62 -2.5,0.62zm0.4 -1.87c0.91,0 1.68,-0.24 2.29,-0.73 0.61,-0.49 1.09,-1.08 1.44,-1.76l0 -5.34c-0.34,-0.76 -0.8,-1.39 -1.38,-1.86 -0.59,-0.47 -1.31,-0.72 -2.17,-0.72 -1.11,0 -1.94,0.46 -2.5,1.37 -0.55,0.91 -0.83,2.21 -0.83,3.91 0,1.66 0.27,2.93 0.8,3.81 0.53,0.88 1.31,1.32 2.35,1.32z"/>
  <path id="_7_2176" class="fil2" d="M737.44 545.71c-1.38,0 -2.52,-0.31 -3.42,-0.93 -0.9,-0.62 -1.57,-1.47 -2.01,-2.54 -0.44,-1.07 -0.66,-2.27 -0.66,-3.61 0,-1.39 0.21,-2.62 0.64,-3.68 0.43,-1.05 1.07,-1.88 1.94,-2.48 0.87,-0.6 1.95,-0.9 3.26,-0.9 1.75,0 3.12,0.56 4.11,1.68 0.99,1.12 1.49,2.73 1.49,4.83 0,0.14 -0.01,0.3 -0.01,0.49 0,0.2 -0.02,0.33 -0.04,0.42l-9.11 0c0.01,0.9 0.15,1.72 0.4,2.47 0.26,0.75 0.66,1.36 1.22,1.81 0.56,0.45 1.28,0.68 2.19,0.68 0.97,0 1.72,-0.25 2.26,-0.75 0.54,-0.5 0.83,-1.22 0.85,-2.16l2.25 0c-0.03,0.96 -0.26,1.79 -0.7,2.49 -0.44,0.7 -1.06,1.23 -1.85,1.61 -0.79,0.38 -1.73,0.57 -2.81,0.57zm-3.79 -8.38l6.89 0c-0.03,-1.3 -0.33,-2.3 -0.91,-2.98 -0.59,-0.69 -1.4,-1.04 -2.44,-1.04 -1.06,0 -1.89,0.34 -2.49,1.03 -0.59,0.68 -0.94,1.68 -1.05,2.99z"/>
  <path id="_8_2177" class="fil2" d="M757.55 545.71c-0.97,0 -1.79,-0.18 -2.48,-0.54 -0.68,-0.36 -1.24,-0.89 -1.68,-1.59l-0.11 1.88 -2.13 0 0 -18.32 2.28 0 0 6.76c0.43,-0.64 0.99,-1.18 1.69,-1.64 0.7,-0.46 1.53,-0.69 2.49,-0.69 1.04,0 1.93,0.27 2.68,0.79 0.75,0.53 1.33,1.32 1.74,2.36 0.4,1.05 0.6,2.35 0.6,3.91 0,1.55 -0.2,2.85 -0.61,3.9 -0.42,1.05 -1,1.85 -1.77,2.38 -0.76,0.53 -1.66,0.8 -2.7,0.8zm-0.44 -1.87c1.08,0 1.88,-0.45 2.4,-1.36 0.52,-0.91 0.78,-2.2 0.78,-3.86 0,-1.68 -0.25,-2.97 -0.77,-3.87 -0.52,-0.89 -1.3,-1.34 -2.34,-1.34 -0.91,0 -1.68,0.27 -2.3,0.82 -0.62,0.53 -1.1,1.16 -1.45,1.87l0 5.34c0.35,0.73 0.82,1.32 1.44,1.75 0.61,0.44 1.36,0.65 2.24,0.65z"/>
  <path id="_9_2178" class="fil2" d="M768.74 545.71c-0.72,0 -1.38,-0.15 -1.97,-0.43 -0.59,-0.29 -1.06,-0.72 -1.41,-1.3 -0.36,-0.58 -0.53,-1.29 -0.53,-2.15 0,-1.22 0.35,-2.15 1.05,-2.79 0.7,-0.63 1.7,-1.06 2.99,-1.28 1.29,-0.22 2.8,-0.34 4.52,-0.36l0 -1.02c0,-1.19 -0.26,-2.01 -0.77,-2.45 -0.52,-0.45 -1.17,-0.67 -1.95,-0.67 -0.86,0 -1.57,0.24 -2.15,0.7 -0.58,0.47 -0.88,1.23 -0.88,2.26l-2.2 0c0,-1.1 0.22,-1.99 0.67,-2.68 0.46,-0.69 1.07,-1.19 1.86,-1.5 0.79,-0.31 1.69,-0.47 2.7,-0.47 0.64,0 1.24,0.07 1.83,0.2 0.6,0.13 1.13,0.37 1.6,0.71 0.47,0.35 0.84,0.83 1.11,1.45 0.28,0.63 0.41,1.42 0.41,2.4l0 9.13 -2.09 0 -0.08 -1.93c-0.58,0.67 -1.26,1.2 -2.03,1.59 -0.77,0.39 -1.67,0.59 -2.68,0.59zm0.6 -1.74c0.86,0 1.63,-0.21 2.31,-0.64 0.68,-0.41 1.25,-0.96 1.73,-1.64l0 -2.87c-2.25,0.02 -3.85,0.26 -4.82,0.71 -0.97,0.45 -1.46,1.19 -1.46,2.21 0,0.68 0.19,1.22 0.56,1.63 0.37,0.4 0.93,0.6 1.68,0.6z"/>
  <path id="_10_2179" class="fil2" d="M779.11 545.46l0 -13.67 2.14 0 0.08 2.19c0.38,-0.68 0.91,-1.25 1.57,-1.72 0.66,-0.46 1.52,-0.69 2.57,-0.69l0.27 0 0 2.08 -0.31 0c-0.66,0 -1.24,0.1 -1.74,0.27 -0.5,0.18 -0.94,0.43 -1.31,0.75 -0.36,0.31 -0.7,0.68 -0.99,1.1l0 9.69 -2.28 0z"/>
  <path id="_11_2180" class="fil2" d="M787.76 545.46l0 -13.67 2.13 0 0.08 2.19c0.38,-0.68 0.91,-1.25 1.57,-1.72 0.66,-0.46 1.52,-0.69 2.57,-0.69l0.28 0 0 2.08 -0.32 0c-0.66,0 -1.24,0.1 -1.74,0.27 -0.5,0.18 -0.93,0.43 -1.3,0.75 -0.37,0.31 -0.7,0.68 -1,1.1l0 9.69 -2.27 0z"/>
  <path id="_12_2181" class="fil2" d="M799 545.71c-0.71,0 -1.37,-0.15 -1.96,-0.43 -0.59,-0.29 -1.06,-0.72 -1.42,-1.3 -0.35,-0.58 -0.53,-1.29 -0.53,-2.15 0,-1.22 0.36,-2.15 1.06,-2.79 0.7,-0.63 1.7,-1.06 2.99,-1.28 1.29,-0.22 2.8,-0.34 4.52,-0.36l0 -1.02c0,-1.19 -0.26,-2.01 -0.78,-2.45 -0.52,-0.45 -1.16,-0.67 -1.94,-0.67 -0.86,0 -1.57,0.24 -2.15,0.7 -0.59,0.47 -0.88,1.23 -0.88,2.26l-2.2 0c0,-1.1 0.22,-1.99 0.67,-2.68 0.45,-0.69 1.07,-1.19 1.86,-1.5 0.79,-0.31 1.69,-0.47 2.7,-0.47 0.63,0 1.24,0.07 1.83,0.2 0.59,0.13 1.13,0.37 1.6,0.71 0.47,0.35 0.84,0.83 1.11,1.45 0.28,0.63 0.41,1.42 0.41,2.4l0 9.13 -2.1 0 -0.07 -1.93c-0.59,0.67 -1.26,1.2 -2.04,1.59 -0.77,0.39 -1.66,0.59 -2.68,0.59zm0.6 -1.74c0.86,0 1.63,-0.21 2.32,-0.64 0.68,-0.41 1.25,-0.96 1.73,-1.64l0 -2.87c-2.25,0.02 -3.85,0.26 -4.82,0.71 -0.97,0.45 -1.46,1.19 -1.46,2.21 0,0.68 0.18,1.22 0.56,1.63 0.37,0.4 0.93,0.6 1.67,0.6z"/>
  <path id="_13_2182" class="fil2" d="M814.14 545.71c-0.75,0 -1.46,-0.09 -2.12,-0.25 -0.67,-0.17 -1.26,-0.43 -1.77,-0.8 -0.51,-0.36 -0.91,-0.84 -1.19,-1.42 -0.29,-0.59 -0.43,-1.3 -0.43,-2.14l2.19 0c0,1.08 0.33,1.83 0.97,2.27 0.64,0.43 1.45,0.65 2.41,0.65 0.86,0 1.57,-0.17 2.13,-0.52 0.56,-0.34 0.84,-0.91 0.84,-1.7 0,-0.67 -0.26,-1.17 -0.76,-1.49 -0.5,-0.32 -1.39,-0.65 -2.67,-0.98 -1.04,-0.25 -1.91,-0.55 -2.6,-0.88 -0.7,-0.34 -1.23,-0.76 -1.58,-1.27 -0.36,-0.52 -0.53,-1.17 -0.53,-1.95 0,-0.6 0.12,-1.13 0.37,-1.59 0.25,-0.46 0.6,-0.84 1.05,-1.14 0.45,-0.31 0.98,-0.54 1.58,-0.7 0.6,-0.15 1.26,-0.23 1.97,-0.23 0.69,0 1.35,0.09 1.96,0.26 0.61,0.16 1.16,0.43 1.63,0.78 0.47,0.36 0.84,0.81 1.11,1.37 0.27,0.56 0.4,1.23 0.4,2l-2.2 0c0,-0.97 -0.28,-1.67 -0.84,-2.08 -0.56,-0.41 -1.25,-0.61 -2.06,-0.61 -0.82,0 -1.48,0.15 -1.99,0.45 -0.51,0.3 -0.77,0.78 -0.77,1.42 0,0.37 0.12,0.68 0.34,0.93 0.23,0.26 0.61,0.49 1.15,0.69 0.54,0.21 1.25,0.42 2.15,0.64 1,0.25 1.83,0.54 2.5,0.88 0.66,0.34 1.17,0.78 1.51,1.32 0.34,0.53 0.51,1.23 0.51,2.07 0,0.7 -0.13,1.3 -0.39,1.81 -0.27,0.51 -0.64,0.93 -1.12,1.26 -0.47,0.32 -1.03,0.56 -1.67,0.72 -0.64,0.15 -1.33,0.23 -2.08,0.23z"/>
  <path class="fil2" d="M743.93 492.85c-3.98,0 -7.32,-0.86 -10.04,-2.56 -2.72,-1.7 -4.78,-4.08 -6.16,-7.12 -1.39,-3.04 -2.08,-6.58 -2.08,-10.59 0,-4.03 0.69,-7.57 2.08,-10.63 1.38,-3.05 3.44,-5.43 6.16,-7.13 2.72,-1.71 6.06,-2.56 10.04,-2.56 1.94,0 3.81,0.26 5.6,0.78 1.81,0.51 3.44,1.31 4.89,2.35 1.47,1.05 2.66,2.36 3.59,3.95 0.92,1.58 1.5,3.45 1.72,5.61l-5.35 0c-0.18,-1.51 -0.71,-2.9 -1.58,-4.16 -0.88,-1.26 -2.07,-2.28 -3.57,-3.06 -1.5,-0.77 -3.28,-1.15 -5.36,-1.15 -3.03,0 -5.49,0.71 -7.38,2.15 -1.89,1.45 -3.28,3.37 -4.17,5.78 -0.89,2.4 -1.33,5.1 -1.33,8.07 0,2.96 0.44,5.64 1.33,8.04 0.89,2.4 2.28,4.3 4.19,5.71 1.89,1.4 4.37,2.12 7.42,2.12 2.62,0 4.77,-0.5 6.46,-1.49 1.68,-0.99 2.94,-2.37 3.77,-4.15 0.84,-1.77 1.27,-3.8 1.31,-6.12l-10.96 0 0 -4.37 16.1 0 0 3.08c0,3.43 -0.62,6.45 -1.87,9.08 -1.24,2.62 -3.09,4.67 -5.56,6.15 -2.47,1.47 -5.55,2.22 -9.25,2.22z"/>
  <path id="_1_2183" class="fil2" d="M778.93 492.85c-2.98,0 -5.44,-0.68 -7.38,-2.01 -1.93,-1.34 -3.38,-3.17 -4.33,-5.47 -0.95,-2.3 -1.42,-4.9 -1.42,-7.79 0,-2.99 0.46,-5.64 1.38,-7.92 0.92,-2.29 2.32,-4.07 4.18,-5.36 1.87,-1.3 4.22,-1.94 7.03,-1.94 3.78,0 6.74,1.2 8.87,3.62 2.14,2.41 3.2,5.89 3.2,10.41 0,0.3 -0.01,0.66 -0.02,1.07 0,0.41 -0.03,0.72 -0.07,0.9l-19.64 0c0.02,1.93 0.31,3.71 0.85,5.33 0.55,1.62 1.42,2.92 2.63,3.9 1.2,0.98 2.77,1.47 4.72,1.47 2.09,0 3.71,-0.54 4.88,-1.62 1.17,-1.08 1.78,-2.63 1.83,-4.67l4.85 0c-0.06,2.08 -0.56,3.87 -1.51,5.38 -0.96,1.5 -2.28,2.65 -3.98,3.47 -1.71,0.81 -3.73,1.23 -6.07,1.23zm-8.17 -18.07l14.86 0c-0.06,-2.81 -0.72,-4.95 -1.97,-6.44 -1.26,-1.48 -3.01,-2.22 -5.26,-2.22 -2.29,0 -4.07,0.73 -5.36,2.2 -1.28,1.48 -2.03,3.63 -2.27,6.46z"/>
  <path id="_2_2184" class="fil2" d="M806.87 492.85c-1.62,0 -3.15,-0.18 -4.59,-0.54 -1.44,-0.36 -2.7,-0.93 -3.8,-1.72 -1.1,-0.79 -1.96,-1.82 -2.57,-3.08 -0.62,-1.26 -0.92,-2.79 -0.92,-4.61l4.72 0c0,2.34 0.7,3.96 2.08,4.9 1.4,0.94 3.13,1.41 5.2,1.41 1.86,0 3.39,-0.37 4.59,-1.12 1.21,-0.75 1.82,-1.96 1.82,-3.66 0,-1.46 -0.55,-2.54 -1.64,-3.23 -1.09,-0.69 -3,-1.39 -5.77,-2.1 -2.22,-0.55 -4.1,-1.19 -5.6,-1.91 -1.51,-0.72 -2.65,-1.63 -3.41,-2.74 -0.76,-1.1 -1.14,-2.51 -1.14,-4.19 0,-1.3 0.26,-2.45 0.8,-3.43 0.54,-0.99 1.29,-1.81 2.27,-2.47 0.96,-0.66 2.1,-1.16 3.4,-1.5 1.3,-0.33 2.72,-0.5 4.24,-0.5 1.51,0 2.92,0.18 4.24,0.55 1.32,0.36 2.5,0.94 3.51,1.7 1.02,0.76 1.82,1.74 2.39,2.95 0.58,1.21 0.88,2.65 0.88,4.31l-4.76 0c0,-2.1 -0.61,-3.6 -1.81,-4.48 -1.2,-0.89 -2.68,-1.33 -4.45,-1.33 -1.76,0 -3.18,0.33 -4.29,0.98 -1.09,0.65 -1.64,1.68 -1.64,3.07 0,0.79 0.24,1.46 0.73,2 0.49,0.55 1.31,1.04 2.47,1.49 1.16,0.44 2.7,0.9 4.64,1.38 2.15,0.53 3.94,1.16 5.39,1.89 1.43,0.73 2.52,1.68 3.25,2.84 0.74,1.15 1.11,2.65 1.11,4.48 0,1.5 -0.28,2.8 -0.85,3.9 -0.58,1.1 -1.37,2 -2.4,2.7 -1.02,0.7 -2.22,1.21 -3.61,1.55 -1.38,0.34 -2.87,0.51 -4.48,0.51z"/>
  <path id="_3_2185" class="fil2" d="M833.97 492.3c-2.29,0 -4.06,-0.38 -5.3,-1.14 -1.24,-0.76 -2.1,-1.85 -2.56,-3.27 -0.46,-1.44 -0.68,-3.15 -0.68,-5.16l0 -15.92 -4.76 0 0 -3.97 4.76 0 0 -6.55 4.9 0 0 6.55 7.08 0 0 3.97 -7.08 0 0 15.78c0,1.86 0.23,3.27 0.69,4.25 0.45,0.99 1.55,1.48 3.27,1.48l3.12 0 0 3.98 -3.44 0z"/>
  <path id="_4_2186" class="fil2" d="M842.34 492.3l0 -29.46 4.9 0 0 29.46 -4.9 0zm2.46 -34.81c-0.94,0 -1.68,-0.27 -2.23,-0.81 -0.55,-0.53 -0.82,-1.21 -0.82,-2.03 0,-0.83 0.27,-1.51 0.82,-2.05 0.55,-0.54 1.29,-0.8 2.23,-0.8 0.92,0 1.67,0.26 2.23,0.8 0.57,0.54 0.85,1.22 0.85,2.05 0,0.82 -0.28,1.5 -0.85,2.03 -0.56,0.54 -1.31,0.81 -2.23,0.81z"/>
  <path id="_5_2187" class="fil2" d="M866.36 492.85c-2.69,0 -4.98,-0.61 -6.88,-1.82 -1.89,-1.21 -3.35,-2.94 -4.36,-5.22 -1.01,-2.26 -1.51,-4.97 -1.51,-8.12 0,-3.18 0.5,-5.92 1.51,-8.2 1.01,-2.3 2.47,-4.05 4.36,-5.28 1.9,-1.24 4.19,-1.85 6.88,-1.85 2.73,0 5.08,0.61 7.04,1.85 1.95,1.23 3.45,2.98 4.49,5.28 1.03,2.28 1.55,5.02 1.55,8.2 0,3.15 -0.52,5.86 -1.55,8.12 -1.04,2.28 -2.54,4.01 -4.49,5.22 -1.96,1.21 -4.31,1.82 -7.04,1.82zm0 -3.88c1.97,0 3.54,-0.49 4.71,-1.47 1.16,-0.98 2,-2.31 2.52,-4 0.51,-1.69 0.77,-3.63 0.77,-5.81 0,-2.18 -0.26,-4.12 -0.77,-5.84 -0.52,-1.7 -1.36,-3.05 -2.52,-4.05 -1.17,-0.98 -2.74,-1.47 -4.71,-1.47 -1.87,0 -3.36,0.49 -4.5,1.47 -1.14,1 -1.96,2.35 -2.45,4.05 -0.5,1.72 -0.75,3.67 -0.75,5.87 0,2.16 0.25,4.09 0.75,5.78 0.49,1.69 1.31,3.02 2.45,4 1.14,0.98 2.63,1.47 4.5,1.47zm-2.62 -30.09l5.96 -7.88 5.69 0 -7.86 7.88 -3.79 0z"/>
  <path id="_6_2188" class="fil2" d="M885.82 492.3l0 -29.46 4.75 0 0.12 4.19c0.84,-1.13 2.04,-2.19 3.6,-3.18 1.58,-1 3.53,-1.49 5.88,-1.49 3.05,0 5.24,0.94 6.55,2.84 1.31,1.88 1.96,4.55 1.96,7.97l0 19.13 -4.87 0 0 -18.53c0,-1.42 -0.14,-2.67 -0.4,-3.77 -0.26,-1.1 -0.74,-1.97 -1.43,-2.6 -0.7,-0.62 -1.69,-0.93 -2.99,-0.93 -1.97,0 -3.64,0.5 -5,1.48 -1.36,1 -2.45,2.07 -3.27,3.21l0 21.14 -4.9 0z"/>
  <path id="_7_2189" class="fil2" d="M937.42 492.85c-2.23,0 -4.17,-0.58 -5.81,-1.71 -1.64,-1.14 -2.92,-2.82 -3.82,-5.06 -0.9,-2.23 -1.35,-5 -1.35,-8.3 0,-3.39 0.46,-6.24 1.38,-8.52 0.92,-2.29 2.23,-4 3.93,-5.16 1.7,-1.16 3.71,-1.74 6.02,-1.74 2.08,0 3.82,0.44 5.24,1.33 1.42,0.88 2.57,2.07 3.45,3.57l0 -14.46 4.79 0 0 39.5 -4.53 0 -0.32 -4.29c-0.92,1.44 -2.12,2.61 -3.61,3.5 -1.49,0.89 -3.27,1.34 -5.37,1.34zm0.85 -4.02c1.98,0 3.62,-0.53 4.94,-1.6 1.33,-1.05 2.36,-2.31 3.1,-3.77l0 -11.53c-0.72,-1.64 -1.71,-2.98 -2.97,-4.01 -1.27,-1.02 -2.83,-1.54 -4.68,-1.54 -2.39,0 -4.18,0.98 -5.38,2.95 -1.2,1.96 -1.79,4.77 -1.79,8.42 0,3.58 0.57,6.33 1.71,8.22 1.16,1.91 2.84,2.86 5.07,2.86z"/>
  <path id="_8_2190" class="fil2" d="M970.74 492.85c-2.97,0 -5.43,-0.68 -7.37,-2.01 -1.94,-1.34 -3.38,-3.17 -4.33,-5.47 -0.95,-2.3 -1.43,-4.9 -1.43,-7.79 0,-2.99 0.47,-5.64 1.39,-7.92 0.92,-2.29 2.31,-4.07 4.18,-5.36 1.87,-1.3 4.21,-1.94 7.03,-1.94 3.78,0 6.73,1.2 8.87,3.62 2.13,2.41 3.2,5.89 3.2,10.41 0,0.3 -0.01,0.66 -0.02,1.07 0,0.41 -0.03,0.72 -0.07,0.9l-19.65 0c0.02,1.93 0.32,3.71 0.86,5.33 0.55,1.62 1.42,2.92 2.62,3.9 1.2,0.98 2.78,1.47 4.72,1.47 2.1,0 3.72,-0.54 4.88,-1.62 1.17,-1.08 1.79,-2.63 1.84,-4.67l4.85 0c-0.06,2.08 -0.57,3.87 -1.52,5.38 -0.95,1.5 -2.27,2.65 -3.98,3.47 -1.7,0.81 -3.72,1.23 -6.07,1.23zm-8.17 -18.07l14.87 0c-0.06,-2.81 -0.73,-4.95 -1.98,-6.44 -1.25,-1.48 -3,-2.22 -5.25,-2.22 -2.29,0 -4.08,0.73 -5.36,2.2 -1.28,1.48 -2.03,3.63 -2.28,6.46z"/>
  <path id="_9_2191" class="fil2" d="M1000.3 502.83l0 -39.99 4.87 0 0.03 4.69c0.98,-1.57 2.23,-2.82 3.73,-3.75 1.5,-0.95 3.28,-1.42 5.31,-1.42 2.24,0 4.16,0.57 5.78,1.71 1.64,1.14 2.88,2.83 3.75,5.09 0.87,2.25 1.3,5.07 1.3,8.42 0,3.35 -0.45,6.16 -1.34,8.44 -0.9,2.28 -2.17,3.98 -3.82,5.12 -1.64,1.13 -3.58,1.71 -5.81,1.71 -2.03,0 -3.8,-0.41 -5.27,-1.2 -1.48,-0.79 -2.72,-1.91 -3.72,-3.35l0 14.53 -4.81 0zm12.89 -14c2.3,0 4.03,-0.98 5.15,-2.94 1.12,-1.95 1.68,-4.72 1.68,-8.3 0,-3.62 -0.57,-6.41 -1.71,-8.35 -1.14,-1.95 -2.85,-2.91 -5.09,-2.91 -1.97,0 -3.62,0.57 -4.92,1.72 -1.3,1.15 -2.33,2.51 -3.07,4.07l0 11.49c0.74,1.5 1.78,2.74 3.09,3.73 1.3,0.99 2.94,1.49 4.87,1.49z"/>
  <path id="_10_2192" class="fil2" d="M1039.6 492.85c-3.08,0 -5.31,-0.97 -6.67,-2.89 -1.36,-1.91 -2.04,-4.56 -2.04,-7.94l0 -19.18 4.93 0 0 18.6c0,1.39 0.14,2.62 0.4,3.68 0.26,1.07 0.76,1.9 1.48,2.5 0.72,0.61 1.76,0.91 3.12,0.91 1.95,0 3.58,-0.46 4.9,-1.38 1.31,-0.92 2.36,-1.96 3.16,-3.13l0 -21.18 4.9 0 0 29.46 -4.72 0 -0.12 -4.15c-0.84,1.12 -2.03,2.18 -3.56,3.18 -1.54,1.01 -3.46,1.52 -5.78,1.52z"/>
  <path id="_11_2193" class="fil2" d="M1075.34 492.85c-2.08,0 -3.86,-0.4 -5.33,-1.17 -1.49,-0.77 -2.69,-1.91 -3.63,-3.41l-0.23 4.03 -4.61 0 0 -39.5 4.93 0 0 14.58c0.92,-1.37 2.13,-2.54 3.64,-3.53 1.51,-1 3.29,-1.49 5.37,-1.49 2.23,0 4.16,0.57 5.77,1.71 1.61,1.14 2.87,2.83 3.75,5.09 0.87,2.25 1.31,5.07 1.31,8.42 0,3.35 -0.44,6.16 -1.33,8.42 -0.89,2.27 -2.16,3.98 -3.8,5.12 -1.64,1.15 -3.6,1.73 -5.84,1.73zm-0.94 -4.02c2.32,0 4.05,-0.98 5.18,-2.95 1.12,-1.96 1.68,-4.74 1.68,-8.32 0,-3.62 -0.55,-6.4 -1.66,-8.33 -1.13,-1.94 -2.81,-2.9 -5.05,-2.9 -1.97,0 -3.61,0.58 -4.95,1.75 -1.35,1.17 -2.39,2.52 -3.13,4.04l0 11.52c0.74,1.58 1.77,2.84 3.1,3.78 1.32,0.94 2.92,1.41 4.83,1.41z"/>
  <path id="_12_2194" class="fil2" d="M1101.02 492.3c-2.31,0 -4.08,-0.37 -5.31,-1.1 -1.23,-0.73 -2.08,-1.78 -2.55,-3.16 -0.46,-1.39 -0.69,-3.04 -0.69,-4.98l0 -30.26 4.91 0 0 30.02c0,1.79 0.23,3.14 0.68,4.08 0.47,0.95 1.56,1.42 3.28,1.42l1.32 0 0 3.98 -1.64 0z"/>
  <path id="_13_2195" class="fil2" d="M1107.36 492.3l0 -29.46 4.9 0 0 29.46 -4.9 0zm2.47 -34.81c-0.94,0 -1.68,-0.27 -2.24,-0.81 -0.55,-0.53 -0.82,-1.21 -0.82,-2.03 0,-0.83 0.27,-1.51 0.82,-2.05 0.56,-0.54 1.3,-0.8 2.24,-0.8 0.92,0 1.66,0.26 2.22,0.8 0.57,0.54 0.86,1.22 0.86,2.05 0,0.82 -0.29,1.5 -0.86,2.03 -0.56,0.54 -1.3,0.81 -2.22,0.81z"/>
  <path id="_14_2196" class="fil2" d="M1131.49 492.85c-2.5,0 -4.72,-0.57 -6.66,-1.7 -1.93,-1.13 -3.46,-2.82 -4.55,-5.07 -1.09,-2.25 -1.64,-5.05 -1.64,-8.4 0,-3.35 0.54,-6.17 1.61,-8.44 1.08,-2.29 2.59,-4 4.51,-5.15 1.92,-1.16 4.17,-1.73 6.73,-1.73 2.16,0 4.09,0.37 5.81,1.12 1.71,0.76 3.07,1.88 4.1,3.38 1.04,1.51 1.59,3.42 1.67,5.72l-4.85 0c-0.14,-1.94 -0.79,-3.46 -1.99,-4.59 -1.18,-1.11 -2.73,-1.66 -4.65,-1.66 -2.6,0 -4.57,0.99 -5.9,2.98 -1.33,1.99 -1.99,4.78 -1.99,8.37 0,2.37 0.29,4.38 0.88,6.06 0.58,1.67 1.46,2.95 2.63,3.82 1.19,0.89 2.64,1.32 4.38,1.32 1.96,0 3.58,-0.56 4.84,-1.69 1.28,-1.13 1.95,-2.79 2.01,-4.99l4.81 0c-0.04,2.36 -0.58,4.33 -1.63,5.92 -1.05,1.58 -2.45,2.76 -4.19,3.54 -1.76,0.79 -3.73,1.19 -5.93,1.19z"/>
  <path id="_15_2197" class="fil2" d="M1156.34 492.85c-1.55,0 -2.96,-0.32 -4.23,-0.94 -1.28,-0.62 -2.3,-1.55 -3.06,-2.79 -0.76,-1.24 -1.14,-2.79 -1.14,-4.63 0,-2.65 0.76,-4.65 2.27,-6.01 1.52,-1.37 3.67,-2.29 6.45,-2.77 2.77,-0.48 6.03,-0.74 9.75,-0.78l0 -2.2c0,-2.57 -0.57,-4.34 -1.68,-5.29 -1.12,-0.96 -2.51,-1.44 -4.2,-1.44 -1.84,0 -3.38,0.51 -4.64,1.52 -1.25,1.02 -1.88,2.64 -1.88,4.87l-4.75 0c0,-2.37 0.48,-4.31 1.45,-5.78 0.98,-1.48 2.31,-2.56 4.01,-3.24 1.71,-0.67 3.64,-1.01 5.81,-1.01 1.38,0 2.69,0.14 3.96,0.42 1.27,0.28 2.43,0.8 3.44,1.55 1.02,0.74 1.82,1.78 2.4,3.12 0.6,1.35 0.89,3.07 0.89,5.18l0 19.67 -4.52 0 -0.17 -4.15c-1.26,1.45 -2.72,2.59 -4.38,3.43 -1.67,0.84 -3.59,1.27 -5.78,1.27zm1.29 -3.76c1.85,0 3.52,-0.45 4.99,-1.37 1.46,-0.9 2.7,-2.08 3.73,-3.54l0 -6.2c-4.84,0.06 -8.3,0.58 -10.4,1.54 -2.09,0.97 -3.14,2.56 -3.14,4.78 0,1.46 0.4,2.62 1.2,3.5 0.81,0.86 2.01,1.29 3.62,1.29z"/>
  <path id="_16_2198" class="fil2" d="M1190.19 492.85c-2.51,0 -4.72,-0.57 -6.67,-1.7 -1.93,-1.13 -3.46,-2.82 -4.55,-5.07 -1.09,-2.25 -1.64,-5.05 -1.64,-8.4 0,-3.35 0.54,-6.17 1.61,-8.44 1.08,-2.29 2.59,-4 4.51,-5.15 1.93,-1.16 4.17,-1.73 6.74,-1.73 2.15,0 4.08,0.37 5.8,1.12 1.71,0.76 3.07,1.88 4.11,3.38 1.03,1.51 1.58,3.42 1.66,5.72l-4.85 0c-0.14,-1.94 -0.79,-3.46 -1.99,-4.59 -1.18,-1.11 -2.73,-1.66 -4.64,-1.66 -2.61,0 -4.57,0.99 -5.91,2.98 -1.33,1.99 -1.99,4.78 -1.99,8.37 0,2.37 0.29,4.38 0.88,6.06 0.58,1.67 1.46,2.95 2.64,3.82 1.18,0.89 2.63,1.32 4.38,1.32 1.95,0 3.57,-0.56 4.84,-1.69 1.27,-1.13 1.94,-2.79 2,-4.99l4.81 0c-0.04,2.36 -0.58,4.33 -1.62,5.92 -1.06,1.58 -2.46,2.76 -4.2,3.54 -1.76,0.79 -3.73,1.19 -5.92,1.19z"/>
  <path id="_17_2199" class="fil2" d="M1208.33 492.3l0 -29.46 4.9 0 0 29.46 -4.9 0zm2.47 -34.81c-0.94,0 -1.69,-0.27 -2.24,-0.81 -0.55,-0.53 -0.82,-1.21 -0.82,-2.03 0,-0.83 0.27,-1.51 0.82,-2.05 0.55,-0.54 1.3,-0.8 2.24,-0.8 0.92,0 1.66,0.26 2.22,0.8 0.57,0.54 0.85,1.22 0.85,2.05 0,0.82 -0.28,1.5 -0.85,2.03 -0.56,0.54 -1.3,0.81 -2.22,0.81z"/>
  <path id="_18_2200" class="fil2" d="M1232.35 492.85c-2.68,0 -4.98,-0.61 -6.87,-1.82 -1.9,-1.21 -3.36,-2.94 -4.36,-5.22 -1.01,-2.26 -1.51,-4.97 -1.51,-8.12 0,-3.18 0.5,-5.92 1.51,-8.2 1,-2.3 2.46,-4.05 4.36,-5.28 1.89,-1.24 4.19,-1.85 6.87,-1.85 2.74,0 5.08,0.61 7.05,1.85 1.95,1.23 3.44,2.98 4.49,5.28 1.03,2.28 1.55,5.02 1.55,8.2 0,3.15 -0.52,5.86 -1.55,8.12 -1.05,2.28 -2.54,4.01 -4.49,5.22 -1.97,1.21 -4.31,1.82 -7.05,1.82zm0 -3.88c1.98,0 3.55,-0.49 4.71,-1.47 1.16,-0.98 2.01,-2.31 2.53,-4 0.51,-1.69 0.77,-3.63 0.77,-5.81 0,-2.18 -0.26,-4.12 -0.77,-5.84 -0.52,-1.7 -1.37,-3.05 -2.53,-4.05 -1.16,-0.98 -2.73,-1.47 -4.71,-1.47 -1.86,0 -3.35,0.49 -4.5,1.47 -1.13,1 -1.95,2.35 -2.44,4.05 -0.5,1.72 -0.75,3.67 -0.75,5.87 0,2.16 0.25,4.09 0.75,5.78 0.49,1.69 1.31,3.02 2.44,4 1.15,0.98 2.64,1.47 4.5,1.47z"/>
  <path id="_19_2201" class="fil2" d="M1251.81 492.3l0 -29.46 4.75 0 0.12 4.19c0.84,-1.13 2.05,-2.19 3.61,-3.18 1.57,-1 3.53,-1.49 5.87,-1.49 3.06,0 5.24,0.94 6.56,2.84 1.31,1.88 1.96,4.55 1.96,7.97l0 19.13 -4.87 0 0 -18.53c0,-1.42 -0.14,-2.67 -0.4,-3.77 -0.26,-1.1 -0.74,-1.97 -1.43,-2.6 -0.71,-0.62 -1.7,-0.93 -2.99,-0.93 -1.97,0 -3.65,0.5 -5,1.48 -1.36,1 -2.46,2.07 -3.28,3.21l0 21.14 -4.9 0z"/>
  <path id="_20_2202" class="fil2" d="M1293.97 492.85c-2.98,0 -5.43,-0.68 -7.38,-2.01 -1.93,-1.34 -3.37,-3.17 -4.32,-5.47 -0.96,-2.3 -1.43,-4.9 -1.43,-7.79 0,-2.99 0.46,-5.64 1.39,-7.92 0.92,-2.29 2.31,-4.07 4.17,-5.36 1.88,-1.3 4.22,-1.94 7.04,-1.94 3.78,0 6.73,1.2 8.87,3.62 2.13,2.41 3.19,5.89 3.19,10.41 0,0.3 -0.01,0.66 -0.02,1.07 0,0.41 -0.03,0.72 -0.07,0.9l-19.64 0c0.02,1.93 0.31,3.71 0.85,5.33 0.56,1.62 1.43,2.92 2.63,3.9 1.2,0.98 2.78,1.47 4.72,1.47 2.09,0 3.72,-0.54 4.88,-1.62 1.17,-1.08 1.78,-2.63 1.83,-4.67l4.85 0c-0.06,2.08 -0.56,3.87 -1.51,5.38 -0.95,1.5 -2.27,2.65 -3.98,3.47 -1.7,0.81 -3.73,1.23 -6.07,1.23zm-8.17 -18.07l14.86 0c-0.06,-2.81 -0.72,-4.95 -1.97,-6.44 -1.25,-1.48 -3.01,-2.22 -5.25,-2.22 -2.3,0 -4.08,0.73 -5.36,2.2 -1.29,1.48 -2.04,3.63 -2.28,6.46z"/>
  <path id="_21_2203" class="fil2" d="M1321.92 492.85c-1.63,0 -3.16,-0.18 -4.59,-0.54 -1.45,-0.36 -2.71,-0.93 -3.81,-1.72 -1.09,-0.79 -1.95,-1.82 -2.57,-3.08 -0.62,-1.26 -0.92,-2.79 -0.92,-4.61l4.72 0c0,2.34 0.7,3.96 2.09,4.9 1.39,0.94 3.12,1.41 5.2,1.41 1.85,0 3.38,-0.37 4.59,-1.12 1.2,-0.75 1.81,-1.96 1.81,-3.66 0,-1.46 -0.55,-2.54 -1.63,-3.23 -1.09,-0.69 -3.01,-1.39 -5.77,-2.1 -2.23,-0.55 -4.1,-1.19 -5.61,-1.91 -1.51,-0.72 -2.64,-1.63 -3.4,-2.74 -0.76,-1.1 -1.15,-2.51 -1.15,-4.19 0,-1.3 0.27,-2.45 0.81,-3.43 0.54,-0.99 1.29,-1.81 2.26,-2.47 0.96,-0.66 2.11,-1.16 3.41,-1.5 1.29,-0.33 2.71,-0.5 4.24,-0.5 1.5,0 2.91,0.18 4.24,0.55 1.32,0.36 2.49,0.94 3.5,1.7 1.02,0.76 1.83,1.74 2.4,2.95 0.58,1.21 0.87,2.65 0.87,4.31l-4.76 0c0,-2.1 -0.6,-3.6 -1.8,-4.48 -1.21,-0.89 -2.69,-1.33 -4.45,-1.33 -1.77,0 -3.19,0.33 -4.29,0.98 -1.09,0.65 -1.65,1.68 -1.65,3.07 0,0.79 0.24,1.46 0.74,2 0.49,0.55 1.31,1.04 2.46,1.49 1.16,0.44 2.71,0.9 4.64,1.38 2.16,0.53 3.95,1.16 5.39,1.89 1.43,0.73 2.53,1.68 3.26,2.84 0.73,1.15 1.1,2.65 1.1,4.48 0,1.5 -0.28,2.8 -0.85,3.9 -0.57,1.1 -1.36,2 -2.4,2.7 -1.02,0.7 -2.22,1.21 -3.6,1.55 -1.39,0.34 -2.88,0.51 -4.48,0.51z"/>
  <rect class="fil1" x="138.92" y="232.2" width="30.06" height="84.96"/>
 </g>
</svg>
