<?xml version="1.0" encoding="UTF-8"?>
<!DOCTYPE svg  PUBLIC '-//W3C//DTD SVG 1.1//EN'  'http://www.w3.org/Graphics/SVG/1.1/DTD/svg11.dtd'>
<svg clip-rule="evenodd" fill-rule="evenodd" image-rendering="optimizeQuality" shape-rendering="geometricPrecision" text-rendering="geometricPrecision" version="1.1" viewBox="0 0 1000 407.92" xml:space="preserve" xmlns="http://www.w3.org/2000/svg" xmlns:xlink="http://www.w3.org/1999/xlink">
 <defs>
  <style type="text/css">
   
    .fil2 {fill:none;fill-rule:nonzero}
    .fil3 {fill:black;fill-rule:nonzero}
    .fil4 {fill:#1D435B;fill-rule:nonzero}
    .fil5 {fill:#2A3780;fill-rule:nonzero}
    .fil0 {fill:white;fill-rule:nonzero}
    .fil1 {fill:url(#s);fill-rule:nonzero}
    .fil11 {fill:url(#b);fill-rule:nonzero}
    .fil10 {fill:url(#a);fill-rule:nonzero}
    .fil7 {fill:url(#r);fill-rule:nonzero}
    .fil12 {fill:url(#q);fill-rule:nonzero}
    .fil6 {fill:url(#p);fill-rule:nonzero}
    .fil8 {fill:url(#o);fill-rule:nonzero}
    .fil15 {fill:url(#n);fill-rule:nonzero}
    .fil14 {fill:url(#m);fill-rule:nonzero}
    .fil9 {fill:url(#l);fill-rule:nonzero}
    .fil13 {fill:url(#j);fill-rule:nonzero}
   
  </style>
    <clipPath id="u" clip-rule="nonzero">
     <path d="m18.71 389.24h962.61v-105.26h-962.61v105.26z"/>
    </clipPath>
    <clipPath id="t" clip-rule="nonzero">
     <path d="m873.57 49.09c-112.96 9.85-125.54 168.33-16.79 191.75 28.42 6.13 58.75-1.75 84.37-5.6 1.34-0.21 3.98-0.57 3.98-0.57l-23.86-74.3s-1.39 1.8-2.14 2.69c-4.47 5.33-9.99 10.47-15.4 14.51-14.2 10.6-30.07 11.77-43.33 3.96-23.28-13.61-14.4-41.44 5.85-59.61 17.2-15.43 40.22-23.26 56.33-4.52 1.08 1.26 3.13 4.11 3.13 4.11l19.65-69.71s-7.75-1.48-14.01-2.08c-5.24-0.51-18.78-1.57-34.38-1.57-7.55 0-15.61 0.24-23.39 0.94h-0.01z"/>
    </clipPath>
    <clipPath id="k" clip-rule="nonzero">
     <path d="m874.82 54.63c-56.31 4.92-84.05 47.61-86.58 87.74-2.38 38.21 18.48 81.75 70.5 92.97 21.94 4.72 45.97 0.53 67.18-3.16 0 0 8.34-1.38 12.66-2.08-2.93-9.07-14.73-45.83-18.87-58.71-3.7 3.82-7.68 7.54-11.85 10.65-15.66 11.7-34.17 13.32-49.51 4.33-9.74-5.69-15.44-14.09-16.46-24.28-1.42-14.21 6.77-31.21 21.41-44.35 13.02-11.68 27.14-17.66 39.76-16.84 7.87 0.51 14.81 3.68 20.82 9.17 3.69-13.07 12.71-45.07 15.15-53.67-3.59-0.54-7.43-1.11-7.43-1.11-2.18-0.21-16.61-1.57-33.9-1.57-7.33 0-15.19 0.24-22.84 0.92l-0.04-0.01z"/>
    </clipPath>
    <clipPath id="i" clip-rule="nonzero">
     <path d="m129.73 48.17c-29.19 2.12-51.46 8.43-64.49 26.49-8.26 11.42-12.36 26.55-10.62 45.95 3.53 39.42 28.4 43.29 62.14 47.59 5.23 0.65 10.79 0.85 15.81 1.38 5.18 0.56 7.3 1.63 9.58 4.74 2.47 3.31 1.95 8.7-0.5 11.3-1.49 1.58-3.85 3.31-7.56 4.31-9.39 2.49-25.12 2.51-38.91 1.73-9.46-0.5-22.9-2.14-22.9-2.14l-12.95 47.36s20.27 2.92 37.22 4.62c15.51 1.55 32.03 1.9 54.12 0.28 39.36-2.94 70.75-32.16 62.97-77.87-2.42-14.09-9.1-24.44-18.55-30.92-14.62-10.04-54.93-11-63.02-14.59-3.08-1.37-4.7-1.99-5.82-4.21-1.11-2.21-2.98-6.52 0.8-11.25 1.19-1.49 3.4-2.74 6.67-3.56 9.54-2.4 26.82-1.89 41.54-0.74 10.11 0.79 23.36 2.52 23.36 2.52l12.36-44.18s-12.16-3.22-25.62-5.28c-12.45-1.93-27.89-3.96-43.67-3.96-3.99 0-8 0.15-11.98 0.43h0.02z"/>
    </clipPath>
    <clipPath id="h" clip-rule="nonzero">
     <path d="m130.91 53.74h-0.02c-31.74 2.31-49.8 9.56-60.36 24.2-7.87 10.86-11.08 25.06-9.56 42.15 3.03 34.04 21.72 38.01 57.26 42.53l8.7 0.78 6.98 0.58c5.75 0.62 9.79 1.95 13.52 6.97 3.95 5.29 3.51 13.78-0.96 18.49-2.64 2.79-6.06 4.77-10.17 5.87-10.77 2.87-28.06 2.64-40.66 1.92 0 0-12.34-1.15-18.4-1.72-1.75 6.36-7.76 28.36-10.03 36.64 7.27 1 19.69 2.62 30.69 3.73 16.62 1.66 32.99 1.75 53.13 0.27 19.62-1.48 36.91-10.03 47.43-23.46 9.98-12.79 13.6-29.36 10.44-47.88-2.07-12.11-7.51-21.29-16.2-27.24-8.28-5.69-27.87-8.34-42.17-10.26-10.42-1.42-16.48-2.29-19.93-3.81l-0.45-0.21c-3.17-1.4-6.15-2.71-8.12-6.63-3.15-6.32-2.67-12.12 1.45-17.27 2.04-2.54 5.29-4.38 9.68-5.49 8.58-2.15 23.17-2.44 43.33-0.87 0 0 12.69 1.36 18.81 2.01 1.77-6.3 7.42-26.5 9.52-34.03-4.73-1.09-11.9-2.64-19.53-3.81-12.25-1.9-27.52-3.89-42.89-3.89-3.84 0-7.69 0.13-11.51 0.41l0.02 0.02z"/>
    </clipPath>
    <clipPath id="g" clip-rule="nonzero">
     <path d="m694.74 52.01v184.14h60.37c0-10.26 0.08-173.88 0.08-184.14h-60.44-0.01z"/>
    </clipPath>
    <clipPath id="f" clip-rule="nonzero">
     <path d="m298.42 175.61c-25.57-25.35 15.39-66.7 39.45-70.33 21.8-3.29 38.95 14.89 35.16 36.87-3.02 17.33-25.32 39.14-42.88 42.04-2.94 0.47-5.68 0.7-8.26 0.7-10.23 0-17.73-3.59-23.47-9.28zm24-128.65c-34.67 2.53-64.26 22.47-78.04 46.33-11.27 19.42-18.37 49.83-11.14 78.04 24.31 95.16 174.11 93.89 197.25-3.43 4.42-18.68 3.56-43.08-2.57-60.03-12.96-35.72-44.29-61.32-94.16-61.32-3.67 0-7.45 0.14-11.34 0.42v-0.01z"/>
    </clipPath>
    <clipPath id="e" clip-rule="nonzero">
     <path d="m295.24 179.55c-9.31-9.23-12.06-21.55-7.75-34.74 7.37-22.59 32.64-42.43 50.3-45.1 11.99-1.83 23.55 1.91 31.71 10.24 8.4 8.6 11.99 20.66 9.83 33.15-3.45 19.78-27.44 43.28-47.51 46.59-3.15 0.51-6.18 0.77-9.1 0.77-10.96 0-20.16-3.65-27.48-10.91zm28.36-127.02c-30.72 2.22-59.59 19.31-73.59 43.52-9.43 16.27-17.85 45.37-10.57 73.84 12.62 49.38 57.98 66.53 92.98 66.25 35.53-0.29 81.29-18.69 93.38-69.57 1.76-7.44 2.62-15.8 2.62-24.18 0-11.79-1.7-23.55-5-32.66-13.42-36.98-45.59-57.61-89.11-57.61-3.5 0-7.07 0.14-10.69 0.41h-0.02z"/>
    </clipPath>
    <clipPath id="d" clip-rule="nonzero">
     <path d="m453.52 241.63h61.85v-99.36c3.3 6.47 50.71 99.5 50.71 99.5l83.02-0.14v-195.3h-61.86v103.04c-3.3-6.48-52.44-102.89-52.44-102.89l-81.29-0.17v195.32h0.01z"/>
    </clipPath>
    <clipPath id="c" clip-rule="nonzero">
     <path d="m459.82 234.6 50.64-0.09-0.34-113.82c3.09 6.09 58.92 113.37 58.92 113.37l73.15 0.54v-183.72l-49.1-0.25-0.06 121.07c-3.07-6.09-63.6-121.51-63.6-121.51l-69.62 0.68v183.73h0.01z"/>
    </clipPath>
  <linearGradient id="s" x1="500" x2="500" y1="283.96" y2="388.96" gradientUnits="userSpaceOnUse">
   <stop stop-color="#E21F26" offset="0"/>
   <stop stop-color="#C91D24" offset=".23922"/>
   <stop stop-color="#88171A" offset="1"/>
  </linearGradient>
  <linearGradient id="b" x1="724" x2="724" y1="235.96" y2="51.96" gradientUnits="userSpaceOnUse">
   <stop stop-color="#FDEC0A" offset="0"/>
   <stop stop-color="#FCE20F" offset=".18824"/>
   <stop stop-color="#F9CB16" offset=".54902"/>
   <stop stop-color="#F5A61C" offset="1"/>
  </linearGradient>
  <linearGradient id="a" x1="724" x2="724" y1="45.96" y2="240.96" gradientUnits="userSpaceOnUse">
   <stop stop-color="#FDF168" offset="0"/>
   <stop stop-color="#EDCD52" offset=".30196"/>
   <stop stop-color="#CF822A" offset=".96078"/>
   <stop stop-color="#CD7D29" offset="1"/>
  </linearGradient>
  <linearGradient id="r" x1="862" x2="862" y1="239.96" y2="52.96" gradientUnits="userSpaceOnUse" xlink:href="#b">
  </linearGradient>
  <linearGradient id="q" x1="330" x2="330" y1="45.96" y2="265.96" gradientUnits="userSpaceOnUse" xlink:href="#a">
  </linearGradient>
  <linearGradient id="p" x1="846" x2="846" y1="47.96" y2="246.96" gradientUnits="userSpaceOnUse" xlink:href="#a">
  </linearGradient>
  <linearGradient id="o" x1="137" x2="137" y1="46.96" y2="242.96" gradientUnits="userSpaceOnUse" xlink:href="#a">
  </linearGradient>
  <linearGradient id="n" x1="551" x2="551" y1="233.96" y2="49.96" gradientUnits="userSpaceOnUse" xlink:href="#b">
  </linearGradient>
  <linearGradient id="m" x1="551" x2="551" y1="45.96" y2="240.96" gradientUnits="userSpaceOnUse" xlink:href="#a">
  </linearGradient>
  <linearGradient id="l" x1="135" x2="135" y1="236.96" y2="52.96" gradientUnits="userSpaceOnUse" xlink:href="#b">
  </linearGradient>
  <linearGradient id="j" x1="330" x2="330" y1="235.96" y2="51.96" gradientUnits="userSpaceOnUse" xlink:href="#b">
  </linearGradient>
 </defs>
 
  
  
   <path class="fil0" d="m988.92 266.93c1.33-1.18 2.53-2.54 3.5-4.08 1.87-3 2.85-6.44 2.85-9.92 0-1.91-0.29-3.81-0.89-5.69 0 0-29.58-92.35-32.69-102.03 2.82-9.88 32.04-113.08 32.04-113.08 0.47-1.66 0.71-3.38 0.71-5.09 0-3.53-1.01-7.01-2.93-10.07-2.88-4.48-7.55-7.54-12.82-8.39-1.19-0.18-29.32-4.66-43.81-6.34-5.81-0.65-36.47-3.87-68.09-1.08-23.57 2.05-45.6 9.4-64.73 21.21v-3.69c0-4.95-1.98-9.69-5.48-13.21-3.51-3.49-8.27-5.47-13.21-5.47h-225.3c-1.66 0-3.14 0.54-4.69 0.94-1.79-0.56-3.68-0.94-5.63-0.94h-123.21c-10.34 0-18.7 8.38-18.7 18.68v0.07c-25.47-14.17-56.12-20.57-89.54-18.11-22.73 1.65-44.96 8.79-64.47 20.37-1.92-1.48-4.14-2.59-6.54-3.22l-25.64-6.81c-1.47-0.39-14.88-3.91-30.29-6.28-17.95-2.77-41.66-5.73-65.8-3.92-29.5 2.16-71.73 9.16-97.57 44.99-12.92 17.84-19.48 39.19-19.48 63.49l0.54 11.81c0.01 0.27 0.02 0.5 0.05 0.77 1.83 20.67 8.55 37.82 19.57 51.52-0.06 0.16-0.3 0.95-0.3 0.95-0.09 0.33-20.97 76.63-20.97 76.63-0.45 1.6-0.67 3.26-0.67 4.92 0 3.61 1.04 7.17 3.05 10.26 0.42 0.64 0.98 1.2 1.48 1.77-5.51 3.26-9.26 9.2-9.26 16.07v105.27c0 10.32 8.37 18.69 18.69 18.69h962.63c10.32 0 18.68-8.37 18.68-18.69v-105.27c0-7.62-4.56-14.14-11.08-17.04v0.01z"/>
   
   <g clip-path="url(#u)">
    
     <rect class="fil1" x="18.7" y="283.98" width="962.61" height="105.26"/>
    
   </g>
   <polygon class="fil2" points="18.71 389.24 981.32 389.24 981.32 283.98 18.71 283.98"/>
   <polygon class="fil2" points="18.71 389.24 981.32 389.24 981.32 283.98 18.71 283.98"/>
   <polygon class="fil3" points="87.08 318.39 74.09 318.39 74.09 372.12 52.24 372.12 52.24 318.39 39.32 318.39 39.32 304.95 87.08 304.95"/>
   <polygon class="fil3" points="171.56 372.12 149.71 372.12 149.71 343.91 143.15 343.91 143.15 372.12 121.31 372.12 121.31 304.95 143.15 304.95 143.15 328.96 149.71 328.96 149.71 304.95 171.56 304.95"/>
   <polygon class="fil3" points="246.29 304.95 246.29 318.39 231.7 318.39 231.7 331.13 245.35 331.13 245.35 343.9 231.7 343.9 231.7 358.66 247.73 358.66 247.73 372.12 209.85 372.12 209.85 304.95"/>
   <polygon class="fil3" points="378.37 372.12 356.51 372.12 356.51 343.91 349.98 343.91 349.98 372.12 328.11 372.12 328.11 304.95 349.98 304.95 349.98 328.96 356.51 328.96 356.51 304.95 378.37 304.95"/>
   <polygon class="fil3" points="453.11 304.95 453.11 318.39 438.53 318.39 438.53 331.13 452.17 331.13 452.17 343.9 438.53 343.9 438.53 358.66 454.55 358.66 454.55 372.12 416.66 372.12 416.66 304.95"/>
   <path class="fil3" d="m517.63 317.04c0.86 0.41 1.41 1.03 1.66 1.9 0.23 0.86 0.36 2.8 0.36 5.85v26.09c0 4.49-0.36 7.23-1.08 8.25-0.73 1-2.67 1.52-5.83 1.52v-44.18c2.39 0 4.03 0.19 4.89 0.59v-0.02zm0.82 55.11c5.25 0 9.13-0.24 11.75-0.71 2.6-0.45 4.77-1.24 6.54-2.4 1.76-1.15 3-2.74 3.7-4.77 0.72-2.04 1.07-6.06 1.07-12.09v-23.52c0-6.36-0.24-10.63-0.73-12.8-0.48-2.17-1.69-4.15-3.62-5.91-1.95-1.78-4.78-3.02-8.49-3.82-3.72-0.77-10.86-1.16-21.42-1.16h-16.35v67.18h27.55z"/>
   <path class="fil3" d="m628.07 326.77v2.92h-21.83v-6.1c0-3.85-0.21-6.25-0.63-7.22s-1.41-1.46-2.97-1.46c-1.35 0-2.27 0.41-2.75 1.25-0.49 0.83-0.74 2.97-0.74 6.4v32.24c0 3 0.25 5 0.74 5.95 0.48 0.94 1.45 1.42 2.92 1.42 1.57 0 2.67-0.55 3.23-1.6 0.58-1.1 0.86-3.19 0.86-6.32v-7.96h-4.42v-10.2h25.6v36.06h-13.75l-2.01-4.83c-1.51 2.08-3.38 3.64-5.64 4.67-2.27 1.03-4.96 1.56-8.02 1.56-3.67 0-7.11-0.71-10.31-2.14-3.21-1.41-5.64-3.19-7.29-5.29-1.67-2.11-2.7-4.31-3.12-6.62-0.42-2.3-0.61-5.78-0.61-10.39v-19.97c0-6.41 0.42-11.08 1.28-13.97 0.87-2.91 3.36-5.58 7.45-7.98 4.11-2.42 9.4-3.64 15.91-3.64s11.73 1.06 15.94 3.17c4.22 2.09 6.98 4.59 8.26 7.48 1.27 2.89 1.9 7.1 1.9 12.59v-0.02z"/>
   <polygon class="fil3" points="702.5 304.95 702.5 318.39 687.91 318.39 687.91 331.13 701.57 331.13 701.57 343.9 687.91 343.9 687.91 358.66 703.96 358.66 703.96 372.12 666.06 372.12 666.06 304.95"/>
   <polygon class="fil3" points="790.58 372.12 768.72 372.12 768.72 343.91 762.18 343.91 762.18 372.12 740.33 372.12 740.33 304.95 762.18 304.95 762.18 328.96 768.72 328.96 768.72 304.95 790.58 304.95"/>
   <path class="fil3" d="m855.01 360.58c-0.42 1.06-1.36 1.58-2.86 1.58-1.51 0-2.37-0.45-2.76-1.37-0.41-0.91-0.61-3.32-0.61-7.22v-31.36c0-3.45 0.3-5.54 0.92-6.24 0.6-0.71 1.47-1.06 2.62-1.06 1.34 0 2.22 0.44 2.67 1.31 0.42 0.87 0.64 2.87 0.64 5.99v30.86c0 3.97-0.22 6.48-0.62 7.51zm21.86-42.31c-0.42-2.78-1.72-5.33-3.89-7.68-2.2-2.34-5.05-4.11-8.65-5.28-3.58-1.19-7.61-1.77-12.13-1.77-4.74 0-8.89 0.62-12.44 1.86-3.57 1.25-6.4 3.03-8.49 5.35-2.1 2.33-3.34 4.89-3.75 7.68-0.39 2.82-0.59 7.61-0.59 14.34v11.5c0 6.92 0.2 11.75 0.63 14.52 0.42 2.75 1.71 5.32 3.88 7.68 2.17 2.34 5.08 4.11 8.65 5.29 3.59 1.17 7.63 1.77 12.12 1.77 4.74 0 8.91-0.64 12.46-1.87 3.56-1.25 6.39-3.03 8.49-5.36 2.1-2.32 3.34-4.88 3.74-7.69 0.4-2.79 0.6-7.58 0.6-14.33v-11.5c0-6.91-0.21-11.76-0.62-14.52l-0.01 0.01z"/>
   <path class="fil3" d="m964.06 326.77v2.92h-21.86v-6.1c0-3.85-0.21-6.25-0.62-7.22s-1.39-1.46-2.95-1.46c-1.35 0-2.27 0.41-2.74 1.25-0.5 0.83-0.74 2.97-0.74 6.4v32.24c0 3 0.24 5 0.74 5.95 0.49 0.94 1.44 1.42 2.9 1.42 1.59 0 2.68-0.55 3.24-1.6 0.57-1.1 0.86-3.19 0.86-6.32v-7.96h-4.41v-10.2h25.59v36.06h-13.75l-2.03-4.83c-1.49 2.08-3.38 3.64-5.63 4.67-2.26 1.03-4.94 1.56-8.02 1.56-3.67 0-7.1-0.71-10.3-2.14-3.2-1.41-5.64-3.19-7.3-5.29-1.67-2.11-2.7-4.31-3.11-6.62-0.43-2.3-0.64-5.78-0.64-10.39v-19.97c0-6.41 0.44-11.08 1.3-13.97 0.88-2.91 3.35-5.58 7.46-7.98 4.09-2.42 9.41-3.64 15.91-3.64 6.49 0 11.71 1.06 15.93 3.17 4.22 2.09 6.97 4.59 8.26 7.48 1.27 2.89 1.92 7.1 1.92 12.59l-0.01-0.02z"/>
   <polygon class="fil0" points="83.71 314.54 70.72 314.54 70.72 368.26 48.88 368.26 48.88 314.54 35.96 314.54 35.96 301.09 83.71 301.09"/>
   <polygon class="fil0" points="168.19 368.26 146.35 368.26 146.35 340.05 139.78 340.05 139.78 368.26 117.94 368.26 117.94 301.09 139.78 301.09 139.78 325.11 146.35 325.11 146.35 301.09 168.19 301.09"/>
   <polygon class="fil0" points="242.92 301.09 242.92 314.53 228.33 314.53 228.33 327.28 241.98 327.28 241.98 340.05 228.33 340.05 228.33 354.82 244.36 354.82 244.36 368.26 206.47 368.26 206.47 301.09"/>
   <polygon class="fil0" points="375 368.26 353.15 368.26 353.15 340.05 346.63 340.05 346.63 368.26 324.74 368.26 324.74 301.09 346.63 301.09 346.63 325.11 353.15 325.11 353.15 301.09 375 301.09"/>
   <polygon class="fil0" points="449.74 301.09 449.74 314.53 435.15 314.53 435.15 327.28 448.81 327.28 448.81 340.05 435.15 340.05 435.15 354.82 451.18 354.82 451.18 368.26 413.3 368.26 413.3 301.09"/>
   <path class="fil0" d="m514.25 313.18c0.86 0.41 1.42 1.04 1.65 1.89 0.25 0.88 0.37 2.81 0.37 5.86v26.1c0 4.46-0.37 7.21-1.08 8.22-0.73 1.01-2.67 1.51-5.83 1.51v-44.19c2.4 0 4.03 0.22 4.89 0.62v-0.01zm0.81 55.08c5.25 0 9.14-0.22 11.77-0.67 2.59-0.47 4.76-1.27 6.53-2.42 1.75-1.15 2.99-2.75 3.7-4.78 0.71-2.01 1.07-6.06 1.07-12.09v-23.52c0-6.37-0.25-10.63-0.73-12.8-0.48-2.16-1.69-4.13-3.63-5.9-1.95-1.77-4.78-3.03-8.49-3.83-3.73-0.77-10.86-1.15-21.42-1.15l-16.35-0.01v67.17h27.54 0.01z"/>
   <path class="fil0" d="m624.69 322.92v2.9h-21.84v-6.09c0-3.87-0.21-6.26-0.62-7.22-0.42-0.98-1.41-1.47-2.96-1.47-1.36 0-2.29 0.41-2.76 1.26-0.48 0.82-0.72 2.96-0.72 6.39v32.23c0 3.02 0.24 5.01 0.72 5.96 0.47 0.95 1.46 1.41 2.92 1.41 1.6 0 2.67-0.52 3.24-1.61 0.58-1.07 0.86-3.18 0.86-6.3v-7.96h-4.41v-10.2h25.58v36.05h-13.75l-2.01-4.8c-1.51 2.06-3.38 3.62-5.64 4.66-2.26 1.05-4.95 1.57-8.01 1.57-3.68 0-7.12-0.74-10.32-2.16-3.21-1.42-5.63-3.17-7.28-5.28-1.68-2.1-2.71-4.32-3.13-6.62-0.42-2.31-0.62-5.78-0.62-10.39v-19.96c0-6.42 0.42-11.07 1.28-13.99 0.89-2.9 3.36-5.55 7.46-7.98 4.11-2.43 9.4-3.62 15.91-3.62s11.73 1.06 15.94 3.14c4.22 2.11 6.97 4.6 8.25 7.49 1.28 2.9 1.91 7.09 1.91 12.6v-0.01z"/>
   <polygon class="fil0" points="699.14 301.09 699.14 314.53 684.55 314.53 684.55 327.28 698.2 327.28 698.2 340.05 684.55 340.05 684.55 354.82 700.59 354.82 700.59 368.26 662.69 368.26 662.69 301.09"/>
   <polygon class="fil0" points="787.21 368.26 765.36 368.26 765.36 340.05 758.81 340.05 758.81 368.26 736.96 368.26 736.96 301.09 758.81 301.09 758.81 325.11 765.36 325.11 765.36 301.09 787.21 301.09"/>
   <path class="fil0" d="m851.64 356.74c-0.42 1.04-1.37 1.55-2.86 1.55-1.5 0-2.36-0.44-2.77-1.35-0.39-0.92-0.61-3.33-0.61-7.24v-31.35c0-3.46 0.31-5.54 0.92-6.25 0.6-0.71 1.48-1.05 2.63-1.05 1.34 0 2.23 0.42 2.67 1.31 0.43 0.86 0.65 2.87 0.65 5.99v30.87c0 3.96-0.21 6.45-0.62 7.52h-0.01zm21.86-42.33c-0.42-2.77-1.72-5.33-3.89-7.67-2.19-2.35-5.06-4.13-8.65-5.3-3.58-1.16-7.61-1.75-12.13-1.75-4.74 0-8.89 0.61-12.45 1.86-3.57 1.26-6.39 3.04-8.49 5.36-2.08 2.33-3.34 4.88-3.73 7.7-0.4 2.8-0.59 7.57-0.59 14.32v11.5c0 6.92 0.19 11.76 0.63 14.53 0.4 2.75 1.7 5.31 3.87 7.65 2.18 2.36 5.08 4.14 8.65 5.31 3.59 1.17 7.61 1.77 12.12 1.77 4.73 0 8.9-0.63 12.45-1.88 3.57-1.26 6.41-3.03 8.49-5.34 2.1-2.33 3.34-4.91 3.74-7.69 0.4-2.83 0.6-7.6 0.6-14.34v-11.5c0-6.91-0.2-11.76-0.62-14.51v-0.02z"/>
   <path class="fil0" d="m960.69 322.92v2.9h-21.84v-6.09c0-3.87-0.22-6.26-0.63-7.22-0.42-0.98-1.4-1.47-2.97-1.47-1.35 0-2.27 0.41-2.74 1.26-0.48 0.82-0.74 2.96-0.74 6.39v32.23c0 3.02 0.26 5.01 0.74 5.96 0.47 0.95 1.44 1.41 2.9 1.41 1.6 0 2.67-0.52 3.24-1.61 0.59-1.07 0.87-3.18 0.87-6.3v-7.96h-4.41v-10.2h25.58v36.05h-13.76l-2.01-4.8c-1.51 2.06-3.38 3.62-5.65 4.66-2.26 1.05-4.94 1.57-8.02 1.57-3.66 0-7.09-0.74-10.3-2.16s-5.64-3.17-7.28-5.28c-1.67-2.1-2.72-4.32-3.12-6.62-0.42-2.31-0.63-5.78-0.63-10.39v-19.96c0-6.42 0.44-11.07 1.3-13.99 0.87-2.9 3.35-5.55 7.45-7.98 4.12-2.43 9.41-3.62 15.91-3.62s11.73 1.06 15.95 3.14c4.2 2.11 6.96 4.6 8.25 7.49 1.28 2.9 1.91 7.09 1.91 12.6v-0.01z"/>
   <path class="fil4" d="m941.23 148.38c0.17-0.54 33.36-117.74 33.36-117.74l-27.55-4.06-15.85-2.35c-3.42-0.35-33.92-3.23-62.66-0.7-34.78 3.04-65.21 18.82-86.11 44.38 0-4.5 0.03-47.15 0.03-47.15l-223.25-0.09v23.23c-2.65-5.22-11.74-23.04-11.74-23.04l-122-0.04v39.26c-25.24-28.16-63.35-41.96-107.71-38.69-32.58 2.36-64.05 17.92-85.2 41.67 1.56-5.54 6.81-24.3 6.81-24.3l-24.74-6.55c-1.4-0.39-14-3.64-28.23-5.84-16.94-2.62-39.2-5.41-61.37-3.78-27.77 2.03-62.31 8.07-83.11 36.92-10.45 14.42-15.76 31.94-15.76 52 0 0.05 0.5 10.9 0.5 10.9 1.86 21.11 9.11 36.96 22.01 48.49-0.3 0.94-3.51 11.42-3.51 11.42l-20.54 75.04 28.28 4.08c2.17 0.32 21.54 3.05 38.29 4.75 18.49 1.85 36.52 1.96 58.52 0.34 28.27-2.14 53.58-14.97 69.42-35.23 2.67-3.39 5.19-7.45 7.68-12.16 23.35 30.06 61.43 47.79 102.26 47.44 37.11-0.3 72.9-16.07 96.39-42.15v42.01h112.3v-19.52c2.53 4.98 10.04 19.7 10.04 19.7l234.52-0.04s0.03-35.57 0.03-39.59c16.49 19.03 39.27 32.28 66.29 38.11 27.81 5.98 54.96 1.26 78.91-2.91l47.79-7.24s-33.95-106.06-34.12-106.6l0.02 0.03z"/>
   <path class="fil5" d="m961.98 227.98s-25.12-78.24-25.55-79.53c3.15-10.79 6.33-21.76 6.33-21.76l25.99-92.21-22.29-3.27-15.85-2.36c-3.32-0.31-33.5-3.1-61.57-0.65-43.2 3.76-73.39 25.88-91.2 53.74l0.04-56.49-213.9-0.09v37.99c-5.2-10.2-19.28-37.82-19.28-37.82l-114.46-0.02v47.49c-23.47-33.28-63.43-50.51-112.02-46.96-39.13 2.85-76.16 25.04-94.36 56.54-1.06 1.86-2.11 3.84-3.14 5.9l12.99-46.42-20.17-5.34c-0.54-0.12-13.37-3.51-27.74-5.73-16.67-2.58-38.61-5.33-60.31-3.72-26.75 1.95-59.99 7.68-79.66 34.98-9.87 13.65-14.88 30.21-14.88 49.29 0 3.43 0.16 6.92 0.48 10.51 2.09 23.57 10.86 38.19 22.62 47.63-1.13 3.67-4.31 14.02-4.31 14.02l-19.09 69.81 23.04 3.32c0.84 0.12 20.91 3 38.08 4.73 18.2 1.81 35.99 1.93 57.7 0.32 26.99-2.03 51.05-14.22 66.09-33.45 4.34-5.54 7.84-11.51 10.54-17.83 21.61 32.04 59.46 51.71 103.05 51.35 36.58-0.31 77.1-16.25 101.1-50.36v50.2h102.96v-34.31c4.23 8.32 17.59 34.49 17.59 34.49l226.98-0.02 0.02-48.45c14.76 22.08 38.32 39.8 71.95 47.04 26.92 5.8 53.61 1.16 77.13-2.94l14.62-2.42s27.87-4.04 27.87-4.04l-7.37-23.16h-0.02z"/>
   
   <g clip-path="url(#t)">
    
     <rect class="fil6" x="748.03" y="48.15" width="197.32" height="198.82"/>
    
   </g>
   <path class="fil2" d="m873.57 49.09c-112.96 9.85-125.54 168.33-16.79 191.75 28.42 6.13 58.75-1.75 84.37-5.6 1.34-0.21 3.98-0.57 3.98-0.57l-23.86-74.3s-1.39 1.8-2.14 2.69c-4.47 5.33-9.99 10.47-15.4 14.51-14.2 10.6-30.07 11.77-43.33 3.96-23.28-13.61-14.4-41.44 5.85-59.61 17.2-15.43 40.22-23.26 56.33-4.52 1.08 1.26 3.13 4.11 3.13 4.11l19.65-69.71s-7.75-1.48-14.01-2.08c-5.24-0.51-18.78-1.57-34.38-1.57-7.55 0-15.61 0.24-23.39 0.94h-0.01z"/>
   <path class="fil2" d="m873.57 49.09c-112.96 9.85-125.54 168.33-16.79 191.75 28.42 6.13 58.75-1.75 84.37-5.6 1.34-0.21 3.98-0.57 3.98-0.57l-23.86-74.3s-1.39 1.8-2.14 2.69c-4.47 5.33-9.99 10.47-15.4 14.51-14.2 10.6-30.07 11.77-43.33 3.96-23.28-13.61-14.4-41.44 5.85-59.61 17.2-15.43 40.22-23.26 56.33-4.52 1.08 1.26 3.13 4.11 3.13 4.11l19.65-69.71s-7.75-1.48-14.01-2.08c-5.24-0.51-18.78-1.57-34.38-1.57-7.55 0-15.61 0.24-23.39 0.94"/>
   
   <g clip-path="url(#k)">
    
     <rect class="fil7" x="785.86" y="53.72" width="153.15" height="186.35"/>
    
   </g>
   <path class="fil2" d="m874.82 54.63c-56.31 4.92-84.05 47.61-86.58 87.74-2.38 38.21 18.48 81.75 70.5 92.97 21.94 4.72 45.97 0.53 67.18-3.16 0 0 8.34-1.38 12.66-2.08-2.93-9.07-14.73-45.83-18.87-58.71-3.7 3.82-7.68 7.54-11.85 10.65-15.66 11.7-34.17 13.32-49.51 4.33-9.74-5.69-15.44-14.09-16.46-24.28-1.42-14.21 6.77-31.21 21.41-44.35 13.02-11.68 27.14-17.66 39.76-16.84 7.87 0.51 14.81 3.68 20.82 9.17 3.69-13.07 12.71-45.07 15.15-53.67-3.59-0.54-7.43-1.11-7.43-1.11-2.18-0.21-16.61-1.57-33.9-1.57-7.33 0-15.19 0.24-22.84 0.92l-0.04-0.01z"/>
   <path class="fil2" d="m874.82 54.63c-56.31 4.92-84.05 47.61-86.58 87.74-2.38 38.21 18.48 81.75 70.5 92.97 21.94 4.72 45.97 0.53 67.18-3.16 0 0 8.34-1.38 12.66-2.08-2.93-9.07-14.73-45.83-18.87-58.71-3.7 3.82-7.68 7.54-11.85 10.65-15.66 11.7-34.17 13.32-49.51 4.33-9.74-5.69-15.44-14.09-16.46-24.28-1.42-14.21 6.77-31.21 21.41-44.35 13.02-11.68 27.14-17.66 39.76-16.84 7.87 0.51 14.81 3.68 20.82 9.17 3.69-13.07 12.71-45.07 15.15-53.67-3.59-0.54-7.43-1.11-7.43-1.11-2.18-0.21-16.61-1.57-33.9-1.57-7.33 0-15.19 0.24-22.84 0.92"/>
   
   <g clip-path="url(#i)">
    
     <rect class="fil8" x="52.88" y="47.75" width="168.55" height="195.66"/>
    
   </g>
   <path class="fil2" d="m129.73 48.17c-29.19 2.12-51.46 8.43-64.49 26.49-8.26 11.42-12.36 26.55-10.62 45.95 3.53 39.42 28.4 43.29 62.14 47.59 5.23 0.65 10.79 0.85 15.81 1.38 5.18 0.56 7.3 1.63 9.58 4.74 2.47 3.31 1.95 8.7-0.5 11.3-1.49 1.58-3.85 3.31-7.56 4.31-9.39 2.49-25.12 2.51-38.91 1.73-9.46-0.5-22.9-2.14-22.9-2.14l-12.95 47.36s20.27 2.92 37.22 4.62c15.51 1.55 32.03 1.9 54.12 0.28 39.36-2.94 70.75-32.16 62.97-77.87-2.42-14.09-9.1-24.44-18.55-30.92-14.62-10.04-54.93-11-63.02-14.59-3.08-1.37-4.7-1.99-5.82-4.21-1.11-2.21-2.98-6.52 0.8-11.25 1.19-1.49 3.4-2.74 6.67-3.56 9.54-2.4 26.82-1.89 41.54-0.74 10.11 0.79 23.36 2.52 23.36 2.52l12.36-44.18s-12.16-3.22-25.62-5.28c-12.45-1.93-27.89-3.96-43.67-3.96-3.99 0-8 0.15-11.98 0.43h0.02z"/>
   <path class="fil2" d="m129.73 48.17c-29.19 2.12-51.46 8.43-64.49 26.49-8.26 11.42-12.36 26.55-10.62 45.95 3.53 39.42 28.4 43.29 62.14 47.59 5.23 0.65 10.79 0.85 15.81 1.38 5.18 0.56 7.3 1.63 9.58 4.74 2.47 3.31 1.95 8.7-0.5 11.3-1.49 1.58-3.85 3.31-7.56 4.31-9.39 2.49-25.12 2.51-38.91 1.73-9.46-0.5-22.9-2.14-22.9-2.14l-12.95 47.36s20.27 2.92 37.22 4.62c15.51 1.55 32.03 1.9 54.12 0.28 39.36-2.94 70.75-32.16 62.97-77.87-2.42-14.09-9.1-24.44-18.55-30.92-14.62-10.04-54.93-11-63.02-14.59-3.08-1.37-4.7-1.99-5.82-4.21-1.11-2.21-2.98-6.52 0.8-11.25 1.19-1.49 3.4-2.74 6.67-3.56 9.54-2.4 26.82-1.89 41.54-0.74 10.11 0.79 23.36 2.52 23.36 2.52l12.36-44.18s-12.16-3.22-25.62-5.28c-12.45-1.93-27.89-3.96-43.67-3.96-3.99 0-8 0.15-11.98 0.43"/>
   
   <g clip-path="url(#h)">
    
     <rect class="fil9" x="59.45" y="53.33" width="152.59" height="184.3"/>
    
   </g>
   <path class="fil2" d="m130.91 53.74h-0.02c-31.74 2.31-49.8 9.56-60.36 24.2-7.87 10.86-11.08 25.06-9.56 42.15 3.03 34.04 21.72 38.01 57.26 42.53l8.7 0.78 6.98 0.58c5.75 0.62 9.79 1.95 13.52 6.97 3.95 5.29 3.51 13.78-0.96 18.49-2.64 2.79-6.06 4.77-10.17 5.87-10.77 2.87-28.06 2.64-40.66 1.92 0 0-12.34-1.15-18.4-1.72-1.75 6.36-7.76 28.36-10.03 36.64 7.27 1 19.69 2.62 30.69 3.73 16.62 1.66 32.99 1.75 53.13 0.27 19.62-1.48 36.91-10.03 47.43-23.46 9.98-12.79 13.6-29.36 10.44-47.88-2.07-12.11-7.51-21.29-16.2-27.24-8.28-5.69-27.87-8.34-42.17-10.26-10.42-1.42-16.48-2.29-19.93-3.81l-0.45-0.21c-3.17-1.4-6.15-2.71-8.12-6.63-3.15-6.32-2.67-12.12 1.45-17.27 2.04-2.54 5.29-4.38 9.68-5.49 8.58-2.15 23.17-2.44 43.33-0.87 0 0 12.69 1.36 18.81 2.01 1.77-6.3 7.42-26.5 9.52-34.03-4.73-1.09-11.9-2.64-19.53-3.81-12.25-1.9-27.52-3.89-42.89-3.89-3.84 0-7.69 0.13-11.51 0.41l0.02 0.02z"/>
   <path class="fil2" d="m130.91 53.74h-0.02c-31.74 2.31-49.8 9.56-60.36 24.2-7.87 10.86-11.08 25.06-9.56 42.15 3.03 34.04 21.72 38.01 57.26 42.53l8.7 0.78 6.98 0.58c5.75 0.62 9.79 1.95 13.52 6.97 3.95 5.29 3.51 13.78-0.96 18.49-2.64 2.79-6.06 4.77-10.17 5.87-10.77 2.87-28.06 2.64-40.66 1.92 0 0-12.34-1.15-18.4-1.72-1.75 6.36-7.76 28.36-10.03 36.64 7.27 1 19.69 2.62 30.69 3.73 16.62 1.66 32.99 1.75 53.13 0.27 19.62-1.48 36.91-10.03 47.43-23.46 9.98-12.79 13.6-29.36 10.44-47.88-2.07-12.11-7.51-21.29-16.2-27.24-8.28-5.69-27.87-8.34-42.17-10.26-10.42-1.42-16.48-2.29-19.93-3.81l-0.45-0.21c-3.17-1.4-6.15-2.71-8.12-6.63-3.15-6.32-2.67-12.12 1.45-17.27 2.04-2.54 5.29-4.38 9.68-5.49 8.58-2.15 23.17-2.44 43.33-0.87 0 0 12.69 1.36 18.81 2.01 1.77-6.3 7.42-26.5 9.52-34.03-4.73-1.09-11.9-2.64-19.53-3.81-12.25-1.9-27.52-3.89-42.89-3.89-3.84 0-7.69 0.13-11.51 0.41"/>
   <rect class="fil10" x="688.37" y="46.41" width="71.65" height="195.35"/>
   
   <g clip-path="url(#g)">
    
     <rect class="fil11" x="694.74" y="52.01" width="60.43" height="184.16"/>
    
   </g>
   <path class="fil2" d="m694.74 52.01v184.14h60.37c0-10.26 0.08-173.88 0.08-184.14h-60.44-0.01z"/>
   <path class="fil2" d="m694.74 52.01v184.14h60.37c0-10.26 0.08-173.88 0.08-184.14h-60.44-0.01z"/>
   
   <g clip-path="url(#f)">
    
     <rect class="fil12" x="226.01" y="46.54" width="208.89" height="219.94"/>
    
   </g>
   <path class="fil2" d="m298.42 175.61c-25.57-25.35 15.39-66.7 39.45-70.33 21.8-3.29 38.95 14.89 35.16 36.87-3.02 17.33-25.32 39.14-42.88 42.04-2.94 0.47-5.68 0.7-8.26 0.7-10.23 0-17.73-3.59-23.47-9.28zm24-128.65c-34.67 2.53-64.26 22.47-78.04 46.33-11.27 19.42-18.37 49.83-11.14 78.04 24.31 95.16 174.11 93.89 197.25-3.43 4.42-18.68 3.56-43.08-2.57-60.03-12.96-35.72-44.29-61.32-94.16-61.32-3.67 0-7.45 0.14-11.34 0.42v-0.01z"/>
   <path class="fil2" d="m298.42 175.61c-25.57-25.35 15.39-66.7 39.45-70.33 21.8-3.29 38.95 14.89 35.16 36.87-3.02 17.33-25.32 39.14-42.88 42.04-2.94 0.47-5.68 0.7-8.26 0.7-10.23 0-17.73-3.59-23.47-9.28m24-128.65c-34.67 2.53-64.26 22.47-78.04 46.33-11.27 19.42-18.37 49.83-11.14 78.04 24.31 95.16 174.11 93.89 197.25-3.43 4.42-18.68 3.56-43.08-2.57-60.03-12.96-35.72-44.29-61.32-94.16-61.32-3.67 0-7.45 0.14-11.34 0.42"/>
   
   <g clip-path="url(#e)">
    
     <rect class="fil13" x="232.15" y="52.12" width="196.26" height="184.3"/>
    
   </g>
   <path class="fil2" d="m295.24 179.55c-9.31-9.23-12.06-21.55-7.75-34.74 7.37-22.59 32.64-42.43 50.3-45.1 11.99-1.83 23.55 1.91 31.71 10.24 8.4 8.6 11.99 20.66 9.83 33.15-3.45 19.78-27.44 43.28-47.51 46.59-3.15 0.51-6.18 0.77-9.1 0.77-10.96 0-20.16-3.65-27.48-10.91zm28.36-127.02c-30.72 2.22-59.59 19.31-73.59 43.52-9.43 16.27-17.85 45.37-10.57 73.84 12.62 49.38 57.98 66.53 92.98 66.25 35.53-0.29 81.29-18.69 93.38-69.57 1.76-7.44 2.62-15.8 2.62-24.18 0-11.79-1.7-23.55-5-32.66-13.42-36.98-45.59-57.61-89.11-57.61-3.5 0-7.07 0.14-10.69 0.41h-0.02z"/>
   <path class="fil2" d="m295.24 179.55c-9.31-9.23-12.06-21.55-7.75-34.74 7.37-22.59 32.64-42.43 50.3-45.1 11.99-1.83 23.55 1.91 31.71 10.24 8.4 8.6 11.99 20.66 9.83 33.15-3.45 19.78-27.44 43.28-47.51 46.59-3.15 0.51-6.18 0.77-9.1 0.77-10.96 0-20.16-3.65-27.48-10.91m28.36-127.02c-30.72 2.22-59.59 19.31-73.59 43.52-9.43 16.27-17.85 45.37-10.57 73.84 12.62 49.38 57.98 66.53 92.98 66.25 35.53-0.29 81.29-18.69 93.38-69.57 1.76-7.44 2.62-15.8 2.62-24.18 0-11.79-1.7-23.55-5-32.66-13.42-36.98-45.59-57.61-89.11-57.61-3.5 0-7.07 0.14-10.69 0.41"/>
   
   <g clip-path="url(#d)">
    
     <rect class="fil14" x="453.52" y="46.31" width="195.58" height="195.47"/>
    
   </g>
   <path class="fil2" d="m453.52 241.63h61.85v-99.36c3.3 6.47 50.71 99.5 50.71 99.5l83.02-0.14v-195.3h-61.86v103.04c-3.3-6.48-52.44-102.89-52.44-102.89l-81.29-0.17v195.32h0.01z"/>
   <path class="fil2" d="m453.52 241.63h61.85v-99.36c3.3 6.47 50.71 99.5 50.71 99.5l83.02-0.14v-195.3h-61.86v103.04c-3.3-6.48-52.44-102.89-52.44-102.89l-81.29-0.17v195.32h0.01z"/>
   
   <g clip-path="url(#c)">
    
     <rect class="fil15" x="459.82" y="50.87" width="182.38" height="183.87"/>
    
   </g>
   <path class="fil2" d="m459.82 234.6 50.64-0.09-0.34-113.82c3.09 6.09 58.92 113.37 58.92 113.37l73.15 0.54v-183.72l-49.1-0.25-0.06 121.07c-3.07-6.09-63.6-121.51-63.6-121.51l-69.62 0.68v183.73h0.01z"/>
   <path class="fil2" d="m459.82 234.6 50.64-0.09-0.34-113.82c3.09 6.09 58.92 113.37 58.92 113.37l73.15 0.54v-183.72l-49.1-0.25-0.06 121.07c-3.07-6.09-63.6-121.51-63.6-121.51l-69.62 0.68v183.73h0.01z"/>
  
 
</svg>
