<?xml version="1.0" encoding="UTF-8"?>
<!DOCTYPE svg  PUBLIC '-//W3C//DTD SVG 1.1//EN'  'http://www.w3.org/Graphics/SVG/1.1/DTD/svg11.dtd'>
<svg clip-rule="evenodd" fill-rule="evenodd" image-rendering="optimizeQuality" shape-rendering="geometricPrecision" text-rendering="geometricPrecision" version="1.1" viewBox="0 0 1000 412.28" xml:space="preserve" xmlns="http://www.w3.org/2000/svg" xmlns:xlink="http://www.w3.org/1999/xlink">
 <defs>
  <style type="text/css">
   
    .fil5 {fill:#020716;fill-rule:nonzero}
    .fil1 {fill:#0C1A6F;fill-rule:nonzero}
    .fil4 {fill:#0E3192;fill-rule:nonzero}
    .fil2 {fill:maroon;fill-rule:nonzero}
    .fil0 {fill:white;fill-rule:nonzero}
    .fil8 {fill:url(#a);fill-rule:nonzero}
    .fil3 {fill:url(#l);fill-rule:nonzero}
    .fil13 {fill:url(#b);fill-rule:nonzero}
    .fil12 {fill:url(#i);fill-rule:nonzero}
    .fil16 {fill:url(#h);fill-rule:nonzero}
    .fil10 {fill:url(#g);fill-rule:nonzero}
    .fil15 {fill:url(#f);fill-rule:nonzero}
    .fil11 {fill:url(#e);fill-rule:nonzero}
    .fil9 {fill:url(#d);fill-rule:nonzero}
    .fil14 {fill:url(#c);fill-rule:nonzero}
    .fil6 {fill:url(#k);fill-rule:nonzero}
    .fil7 {fill:url(#j);fill-rule:nonzero}
   
  </style>
  <linearGradient id="a" x1="369.61" x2="337.82" y1="142.09" y2="251.07" gradientUnits="userSpaceOnUse">
   <stop stop-color="#FFFF4D" offset="0"/>
   <stop stop-color="#EFD03A" offset=".32941"/>
   <stop stop-color="#CB660F" offset="1"/>
  </linearGradient>
  <linearGradient id="l" x1="744" x2="744" y1="289.14" y2="104.14" gradientUnits="userSpaceOnUse">
   <stop stop-color="#f30" offset="0"/>
   <stop stop-color="#F62A02" offset=".27059"/>
   <stop stop-color="#DE1206" offset=".72157"/>
   <stop stop-color="#CB000A" offset="1"/>
  </linearGradient>
  <linearGradient id="b" x1="337.87" x2="368.61" y1="248.02" y2="145" gradientUnits="userSpaceOnUse">
   <stop stop-color="#ff0" offset="0"/>
   <stop stop-color="#f90" offset="1"/>
  </linearGradient>
  <linearGradient id="i" x1="462" x2="497" y1="248.14" y2="142.14" gradientUnits="userSpaceOnUse" xlink:href="#b">
  </linearGradient>
  <linearGradient id="h" x1="227" x2="255" y1="246.65" y2="143.64" gradientUnits="userSpaceOnUse" xlink:href="#b">
  </linearGradient>
  <linearGradient id="g" x1="255.91" x2="227.04" y1="140.66" y2="250.62" gradientUnits="userSpaceOnUse" xlink:href="#a">
  </linearGradient>
  <linearGradient id="f" x1="359.9" x2="347.34" y1="172.81" y2="217.35" gradientUnits="userSpaceOnUse" xlink:href="#a">
  </linearGradient>
  <linearGradient id="e" x1="658.71" x2="685.58" y1="246.72" y2="143.76" gradientUnits="userSpaceOnUse" xlink:href="#b">
  </linearGradient>
  <linearGradient id="d" x1="588.88" x2="569.96" y1="139.14" y2="251.14" gradientUnits="userSpaceOnUse" xlink:href="#a">
  </linearGradient>
  <linearGradient id="c" x1="571" x2="588" y1="248.14" y2="142.14" gradientUnits="userSpaceOnUse" xlink:href="#b">
  </linearGradient>
  <linearGradient id="k" x1="686.63" x2="658.81" y1="139.81" y2="249.66" gradientUnits="userSpaceOnUse" xlink:href="#a">
  </linearGradient>
  <linearGradient id="j" x1="497.88" x2="461.96" y1="139.14" y2="251.14" gradientUnits="userSpaceOnUse" xlink:href="#a">
  </linearGradient>
 </defs>
 
  
  
   <path class="fil0" d="m805.64 197.6c6.32-5.04 106.89-85.25 108.23-86.32 2.98-1.1 46.29-19.42 86.13-36.32h-373.13s13.44 25.58 27.78 52.87c-5.07 2.31-10.01 5.03-14.73 8.2 0.16-0.62 1.16-4.39 1.16-4.39l-4.25-12.65h-139.25s-0.03 0.1-0.03 0.1c-0.02 0-37.55-0.07-59.2-0.11-2.65-4.68-5.86-9.12-9.74-13.21-26.57-28.06-60.46-36.94-87.62-38.88 3.48-0.49 7.09-0.85 10.82-1.01 42.33-1.93 64.98 19.88 65.21 20.1 2.1 2.08 5.41 2.29 7.76 0.5 2.35-1.8 3.03-5.03 1.59-7.6-1.64-2.91-41.16-71.47-138.86-78.29-51.18-3.57-98.61 9.15-140.97 37.82-35.53 24.06-51.69 49.55-57.49 60.62-3.73-2.08-9.5-5.95-16.55-12.99-12.19-12.19-23.98-22.58-34.36-16.09-4.92 3.07-6.45 12.37-6.45 22.6 0 14.19 2.94 30.16 3.84 33.76 3.29 13.18 8.58 30.16 10.81 37.21-3.21 3.72-7.98 10.8-8.88 21.13-0.13 1.42-0.19 2.84-0.19 4.28 0 15.9 7.05 32.51 10.3 39.37-0.77 1.36-1.54 2.98-2.19 5.2-0.59 2.04-0.84 4.06-0.94 5.63-2.84 2.78-9.39 8.99-18.24 15.88-5.26 4.08-10.37 7-14.49 9.35-6.76 3.87-11.64 6.65-11.71 12.22v0.09c0 7.84 13.01 15.14 29.07 16.29 9.65 0.7 17.21-0.38 20.88-1.05 3.38 1.88 10.46 5.49 17.72 7.15 7.04 1.63 13.82 1.7 17.32 1.62 2.23 1.62 5.48 3.17 9.73 4.62-4.87 2.4-9.29 4.79-11.76 7.79-1.89 2.3-2.87 4.98-2.87 7.66 0 1.75 0.42 3.5 1.25 5.17 2.86 5.68 10.31 9.37 18.1 8.97 13.11-0.65 25.75-11.8 30.7-16.71 5.99 0.49 19.95 0.98 34.13-3.28 13.26-3.98 23.58-9.72 33.44-18.6 6.24-5.6 10.87-11.54 14.18-16.61 4.9 0.21 9.65 0.29 14.06 0.23 2.03 3.02 3.97 7.07 5.55 12.48 1.41 4.81 2.04 9.47 2.04 13.94 0 28.24-25.08 49.1-37.16 57.5-35.97 25.03-85.77 36.39-86.28 36.5-2.72 0.61-4.62 3.03-4.62 5.79 0 0.16 0 0.32 0.02 0.49 0.25 2.95 2.63 5.27 5.59 5.42 2.04 0.11 50.6 2.5 106.52-10.54 74.86-17.45 126.29-54.59 148.74-107.41 3.32-7.8 5.5-15.31 6.81-22.54 2.48-1.05 4.97-2.23 7.47-3.52-7.81 30.19-28.17 56-28.51 56.43-0.87 1.09-1.3 2.4-1.3 3.7 0 1.48 0.55 2.95 1.63 4.09 2.04 2.15 5.36 2.46 7.76 0.72 1.74-1.25 28.97-21.17 52.14-53.11l50.56 0.04v-0.01c3.97 0 79.43 0.05 117.48 0.08-25.63 20.84-45.7 37.16-45.7 37.16h405.19c-32.2-11.96-85.5-31.49-93.55-34.11-2-4.21-37.1-77.91-40.69-85.42z"/>
   <path class="fil1" d="m551.37 311.2h8.67 162.52l-10.9-5.8s-16.29-8.59-22.27-11.74c5.59-4.33 26.43-20.46 30.86-23.88 2.9 5.58 21.5 41.42 21.5 41.42h164.11s-60.56-22.87-63.77-23.3c-1.37-2.86-41.83-87.85-43.81-92.01 3.66-2.92 111.32-88.79 112.6-89.81 1.66-0.24 60.38-25.19 60.38-25.19h-150.98s-39.55 32.15-44.79 36.39c-2.22-4.43-7.49-14.95-9.41-18.78 4.78-2.12 26.48-11.71 26.48-11.71l11.08-5.9h-166.96s57 108.47 59.25 112.76c-3.79 3.09-144.56 117.55-144.56 117.55z"/>
   <path class="fil0" d="m585.35 297.92c31.06-25.25 126.79-103.1 126.79-103.1s-39.08-74.42-52.3-99.58h84.58c3 5.99 21.96 43.81 21.96 43.81s46.37-37.7 53.88-43.81h83.61c-31.5 25.14-125.62 100.2-125.62 100.2s36.81 77.29 48.8 102.48h-76.65c-3.12-6.03-25.05-48.31-25.05-48.31s-54.81 42.44-62.41 48.31h-77.59z"/>
   <path class="fil2" d="m661.03 293.49h0.7s61.93-47.95 65.59-50.79c2.09 4.01 26.36 50.79 26.36 50.79h66.29s-45.84-96.26-47.2-99.11c2.49-2 118-94.12 118-94.12h-68.44s-53.45 43.45-57.16 46.46c-2.07-4.15-23.26-46.46-23.26-46.46h-73.86s48.96 93.2 50.47 96.08c-2.55 2.07-119.48 97.15-119.48 97.15h5.79 56.2z"/>
   <path class="fil3" d="m610.7 289.37c8.29-6.73 113.12-91.97 113.12-91.97s-45.92-87.4-48.89-93.04h64.52c1.09 2.16 24.43 48.78 24.43 48.78s58.89-47.87 60-48.78h55.24c-8.46 6.75-111.37 88.83-111.37 88.83s43.17 90.67 45.8 96.18h-57.29c-1.1-2.12-27.47-52.94-27.47-52.94s-67.29 52.11-68.38 52.94h-49.71z"/>
   <path class="fil4" d="m5.92 276.65c-0.03 3.1 9.02 9.37 23.57 10.4 12.44 0.89 21.48-1.38 21.48-1.38s9.01 5.55 18.03 7.62c9 2.08 18.01 1.39 18.01 1.39s1.34 2.64 12.13 5.89 15.59 1.04 15.59 1.04-5.02 2.82-11.09 5.89c-6.05 3.08-13.51 6.2-16.11 9.36-4.85 5.89 2.61 12.58 11.61 12.12 13.86-0.68 28.77-16.97 28.77-16.97s17.33 2.42 34.65-2.78c13.44-4.03 22.74-9.71 31.18-17.32 13.87-12.47 19.41-27.03 19.41-27.03s16.42-0.22 24.03 25.86c9.11 31.2-10.18 59.03-37.42 77.97-37.41 26.01-88.37 37.42-88.37 37.42s196.49 10.39 249.5-114.35c28.84-67.84-30.14-113.31-30.14-113.31s20.12-2.59 44.7 27.04c40.55 48.85-18.72 122.66-18.72 122.66s63.41-45.74 79.02-110.19c9.54-39.47 13.35-81.94-11.44-108.12-49.95-52.75-128.91-34.3-128.91-34.3s23.93-14.13 56.14-15.59c45.74-2.08 69.65 21.82 69.65 21.82s-38.47-68.61-134.1-75.28c-61.79-4.31-107.11 16.43-137.23 36.82-45.05 30.49-58 63.53-58 63.53s-9.7-2.77-23.56-16.64c-13.86-13.86-21.49-18.71-27.03-15.24s-4.15 33.26 0 49.9c4.16 16.63 11.78 40.2 11.78 40.2s-8.55 6.96-9.7 20.09c-1.73 19.76 11.09 43.66 11.09 43.66s-2 1.6-3.38 6.33c-0.91 3.12-0.78 6.5-0.78 6.5s-7.98 8.31-20.45 18.02c-12.46 9.7-23.86 13.03-23.91 16.97z"/>
   <path class="fil0" d="m126.89 284.9c0.57-3.13 2.73-7.9 6.85-12.36 5.63-6.11 7.47-8.06 9.09-14.13 0.92-3.38 0.03-7.78-1.66-8.77-3.83-2.27-12.36-4.24-17.8-7.26-9.43-5.26-14.89-9.03-18.64-14.11-4.83-6.56-5.11-13.95 0.41-14.64 6.6-0.83 21.62 10.41 26.93 13.84-0.63-2.87-3.3-8.31-4.24-9.52-15.35-19.7-37.57-41.96-52.11-34.78-3.98 1.97-7.7 5.74-8.8 9.8-7.63 27.36 24.23 54.98 38.3 65.22 3.45 2.5 9.4 6.93 11.38 8.2 6.33 4.04 10.24 10.24 5.71 16.63l4.58 1.88z"/>
   <path class="fil0" d="m96.45 287.59c-0.58 1.06-2.74 0.96-15.15-3.41-2.39 0.16 0.41 3.72 3.35 6.02 2.92 2.29 7.63 5.45 10.82 6.87 8.02 3.58 13.71 3.79 15.92 3.7 3.06-0.12 7.41-2.98 5.72-2.98-1.14-0.01-5.7-1.05-8.55-1.9-1.7-0.51-6.21-2.32-8.68-4.57-1.65-1.52-3.43-3.73-3.43-3.73z"/>
   <path class="fil0" d="m745.16 148.2c0-6.26-2.56-13.69-3.08-14.72-2.41-4.79-7.55-8.22-14.46-9.64-4.65-0.95-26.93-3.5-42.29-2.18-17.25 1.48-34.13 8.54-49.18 20.08 1.04-3.95 2.64-10.04 2.64-10.04l-3.58-10.68-136.22 0.01s-0.02 0.08-0.02 0.1c-0.68 0-74.15-0.13-74.15-0.13l-0.29 1.09s-0.03 0.14-0.09 0.36h-0.18l-0.48 1.82s-2.48 9.41-4.21 15.97c-12.03-13.88-31.73-20.62-56.05-18.86-13.69 0.98-28.42 5.86-41.8 13.61-0.09-1.09-0.28-3.21-0.28-3.21l-18.74-4.86c-0.06-0.01-14.27-3.1-14.27-3.1-10.82-1.67-22.51-3.08-35.13-2.18-17.74 1.27-38.16 4.89-55.13 22.11-4.21 4.26-7.92 9.33-11.01 14.93-3.17 5.61-5.7 11.77-7.4 18.24 0 0.05-1.34 6.09-1.34 6.09-0.62 3.5-0.92 6.74-0.92 9.72 0 5.36 1.1 10.22 3.18 14.51 0.05 0.17 1.05 3.31 1.55 4.87-0.92 1.72-25.65 47.51-25.65 47.51l0.02 0.02c0 0.01-0.02 0.03-0.02 0.03l6.77 10.93 1.2 0.47c0.9 0.35 4.99 1.67 19.72 4.02 15.07 2.38 36.58 3.44 50.04 2.46 17.1-1.24 34.17-8.9 46.83-21.03 0 0 2.07-2.35 3.45-3.93 0.53 0.74 1.06 1.46 1.62 2.15 13.09 17.07 34.84 23.23 50.38 23.11 6.2-0.07 27.53-1.57 50.85-16.21-0.76 2.9-1.43 5.44-1.43 5.44l3.11 9.26h0.14l0.5 1.47h19.01l51.28 0.04c0-0.02 139.04 0.07 139.04 0.07h1.12s5.07-19.26 6.44-24.39c1.52 2.35 3.25 4.49 5.15 6.5 7 7.86 16.39 13.34 28.32 16.06 15.68 3.57 32.05 0.86 46.49-1.54 0.03 0 3.45-0.57 3.45-0.57l15.03-2.29 12.87-2-0.1-19.57c-0.42-13.36-0.94-28.85-2.07-44.07v-0.04c0.35-0.69 6.17-12.02 6.17-12.02-0.01 0.04 13.52-24.49 13.52-24.49l1.69-3.06s-0.1 0.03-0.11 0.03c1.49-2.46 3.56-6.1 6.91-12.07 0.8-1.71 1.19-3.76 1.19-6.2z"/>
   <path class="fil5" d="m738.76 135.22c-1.86-3.71-6.05-6.4-11.78-7.58-4.52-0.93-26.2-3.39-41.17-2.11-20.7 1.79-40.41 11.17-56.2 26.34 2.65-10.06 5.28-20.03 5.28-20.03l-2.32-6.93h-130.43s-1.15 4.33-2.08 7.85c-0.12-0.5-0.2-0.82-0.2-0.82h-0.67c-0.78-3.28-1.64-6.93-1.64-6.93l-69.58-0.13-0.48 1.82s-3.8 14.38-5.9 22.37c-10.17-17.1-30.73-25.76-57.63-23.81-15.62 1.11-31.73 7-45.44 16.06l-0.55-6.47-16.08-4.16c-0.37-0.09-14.11-3.07-14.11-3.07-10.46-1.62-21.81-2.98-34.04-2.1-17.01 1.22-36.58 4.65-52.64 20.95-7.88 7.98-13.98 19.01-17.15 31.07-0.03 0.1-1.32 6-1.32 6-0.58 3.27-0.86 6.34-0.86 9.2 0 5.33 1.07 9.92 3.09 13.92 0.41 2.03 1.03 3.94 1.83 5.73-4.52 8.35-25.46 47.15-25.46 47.15l4.89 7.92c0.37 0.15 3.96 1.43 18.92 3.81 14.8 2.34 35.94 3.38 49.15 2.41 16.21-1.17 32.4-8.44 44.43-19.95 2.1-2 4.23-4.62 6.38-7.6 10.91 20.56 34.19 27.99 51.72 27.84 15.25-0.13 37.85-6.1 57.49-21.42-1.96 7.4-3.83 14.46-3.83 14.46l2.32 6.92 65.64 0.04s0.82-3.07 0.94-3.53c0.1 0.44 0.86 3.52 0.86 3.52l137.24 0.09s5.46-20.67 8.13-30.76c4.47 11.8 14.28 24.14 35.63 29.04 14.93 3.39 30.92 0.73 45.02-1.6 0.14-0.02 3.43-0.57 3.43-0.57 0.1-0.03 15.07-2.3 15.07-2.3 0.02 0 9.56-1.48 9.56-1.48l-0.08-16.23c-0.41-13.24-0.93-28.59-2.05-43.81 0 0-0.05-0.59-0.08-1.13 0.56-1.09 6.66-12.98 6.66-12.98 0.01 0 13.59-24.6 13.59-24.6-0.02 0.04-0.02 0.04 8.49-15.12 2.21-4.79-1.37-16.08-1.99-17.29z"/>
   <path class="fil1" d="m423.54 159.2c1.61-0.47 2.98-1.83 3.39-3.4 0 0 5.58-21.14 6.59-24.91 6.11 0.01 56.22 0.11 60.06 0.12 0.72 3.04 3.5 14.68 3.5 14.68 0.34 1.47 1.8 2.23 3.48 1.85 1.69-0.37 3.2-1.79 3.63-3.43 0 0 2.32-8.79 3.47-13.19h118.36c-1.56 5.9-9.85 37.31-9.85 37.31-0.44 1.67 0.35 3.11 1.88 3.45 1.54 0.35 3.41-0.48 4.5-1.99 15.84-22.13 39.12-36.05 63.9-38.17 14.45-1.24 35.7 1.23 39.51 2.01 4.38 0.89 7.48 2.85 8.5 5.36 0.57 1.43 0.46 3-0.36 4.79 0.03-0.11 0.08-0.16 0.15-0.25l-8.58 15.23c-4.58 8-9.32 16.26-13.64 24.72l-6.95 13.55c-0.33 0.66-0.5 1.43-0.45 2.07l0.12 1.75c1.12 15.19 1.63 30.43 2.03 43.53 0-0.07 0.02 6.08 0.05 10.26-1.7 0.26-3.42 0.54-3.42 0.54 0.02 0-7.55 1.13-7.55 1.13l-5.22 0.8c-1.08 0.16-2.03 0.36-2.91 0.62 0.18-0.05 0.32-0.21 0.49-0.24l-3.28 0.55c-13.6 2.27-29.01 4.82-42.87 1.67-19.28-4.41-30.83-15.75-34.37-33.69-0.29-1.52-1.74-2.34-3.45-1.97-1.71 0.36-3.26 1.79-3.69 3.45 0 0-7.39 28-8.92 33.8h-62.36c0.02-0.08-59.54-0.12-59.54-0.12s-3.48 0.01-5.86 0.04c-0.66-2.64-2.21-9.01-2.21-9.01-0.36-1.46-1.8-2.21-3.48-1.83-1.7 0.39-3.2 1.8-3.62 3.44 0 0-1.1 4.17-1.96 7.41-6.07-0.01-44-0.05-44-0.05h-9.54c1.47-5.56 7.29-27.53 7.29-27.53 0.41-1.55-0.24-2.93-1.62-3.38s-3.14 0.13-4.35 1.43c-20.06 21.58-47.03 29.38-64.04 29.53-16.95 0.13-39.91-7.23-48.87-28.41-0.45-1.09-1.57-1.66-2.92-1.51-1.31 0.14-2.66 0.98-3.45 2.2-2.73 4.08-5.2 7.18-7.62 9.49-10.81 10.34-25.4 16.89-40.05 17.96-12.88 0.93-33.44-0.09-47.84-2.37-7.77-1.23-12.25-2.14-14.81-2.73 3.25-6.02 23.75-44.02 23.75-44.02 0.18-0.33 0.31-0.64 0.39-0.95 0.27-1.02 0.1-2-0.49-2.68-5.07-5.78-6.64-13.74-4.78-24.32 0.03-0.1 1.27-5.74 1.27-5.74 2.85-10.77 8.29-20.68 15.29-27.76 14.32-14.54 32.34-17.66 48.1-18.78 11.65-0.84 22.6 0.49 32.69 2.06 2.89 0.44 7.47 1.43 13.62 2.96 0 0 5.85 1.51 9.71 2.5-0.38 0.68-9.57 17.61-9.57 17.61-0.91 1.68-0.56 3.46 0.83 4.18 1.4 0.72 3.44 0.17 4.78-1.29 14.6-15.93 36.89-26.75 58.14-28.28 27.78-1.99 47.47 7.44 55.42 26.57 0.55 1.27 2.01 1.83 3.6 1.38zm288.51 39.29c0.02 0 0.01 0.02 0.01 0.02s-0.01-0.03-0.01-0.02z"/>
   <path class="fil6" d="m699.98 246.17c-0.41-13.67-0.91-28.26-2-43.09-0.07-0.78-0.57-1.35-1.34-1.48-0.79-0.12-1.68 0.2-2.35 0.85-4.03 3.92-8.02 7.2-11.5 9.49-6.44 4.18-17.24 5.78-22.49 1.39-4.85-4.08-3.73-9.67-1.92-13.65 4.53-10.05 17.73-20.62 28.81-23.07 4.95-1.09 11.53-0.98 14.85 5.78 0.33 0.68 1.11 1.01 1.99 0.83 0.89-0.17 1.71-0.81 2.13-1.64 4.42-8.62 9.25-17.05 13.93-25.2l6.7-11.78c0.32-0.58 0.42-1.22 0.25-1.74-0.18-0.54-0.58-0.9-1.15-1.04-13.93-3.44-25.11-4.28-39.95-3.02-32.16 2.75-55.05 25.08-65.15 48.03-1.02 2.33-1.91 4.67-2.67 6.99-7.88 24.16-2.24 51.66 28.19 58.6 12.55 2.86 27.18 0.42 40.09-1.72l11.02-1.71c0.65-0.1 1.32-0.47 1.8-1.01 0.48-0.53 0.77-1.19 0.76-1.81z"/>
   <path class="fil7" d="m551.56 140.43c0.32-1.22-0.42-2.21-1.64-2.21h-33.88c-1.09 0-2.2 0.78-2.65 1.82-0.06 0.13-0.1 0.26-0.13 0.39 0 0-9.58 36.24-13.06 49.43-2.92-12.26-12.03-50.34-12.03-50.34-0.18-0.75-0.82-1.22-1.64-1.22l-44.65-0.08c-0.59 0-1.22 0.23-1.74 0.64-0.53 0.42-0.9 0.98-1.06 1.57l-9.54 36.14-13.15 49.66-6.71 25.29c-0.17 0.58-0.07 1.15 0.24 1.56 0.3 0.42 0.79 0.65 1.39 0.65l34.47 0.02c0.59 0 1.22-0.22 1.73-0.64 0.41-0.32 0.73-0.73 0.93-1.18 0.06-0.12 0.09-0.24 0.13-0.37 0 0 8.05-30.48 11.36-43.06 4.32 17.86 10.77 43.73 10.84 44.03 0.19 0.74 0.83 1.2 1.65 1.2l47 0.03c0.59 0 1.21-0.24 1.74-0.65 0.53-0.42 0.91-0.97 1.06-1.55l29.34-111.13z"/>
   <path class="fil8" d="m363.91 138.54c-19.97 1.43-40.99 11.99-53.54 26.91-8.6 10.19-18.69 28.44-18.83 46.33-0.12 13.25 4.75 24.21 14.07 31.7 8.38 6.74 20.25 10.4 33.39 10.28 24.09-0.2 55.17-13.88 70.28-43.99 0.51-1.04 1.01-2.09 1.48-3.17 4.73-10.77 7.25-23.42 6.37-32.46-2.45-24.9-21.83-37.88-53.22-35.6z"/>
   <path class="fil9" d="m616.96 140.43c0.32-1.22-0.41-2.21-1.63-2.21h-39.77c-0.59 0-1.21 0.23-1.72 0.64-0.53 0.42-0.92 0.98-1.07 1.57l-29.36 111.22c-0.15 0.59-0.06 1.15 0.25 1.56 0.3 0.42 0.8 0.64 1.38 0.64h39.77c1.23 0 2.47-0.98 2.79-2.2l29.36-111.22z"/>
   <path class="fil10" d="m278.86 187.84c-4.18-3.76-13.59-5.03-21.91-6.13-4.9-0.67-12.3-1.66-13.06-3.03 0.34-2.61 0.79-4.16 1.17-5.04 0.23-0.51 0.45-0.83 0.61-0.99 2.5-2.76 22.71-2.29 37.52 0 1.08 0.15 2.32-0.54 2.89-1.63 4.13-7.8 8.38-15.61 12.98-23.84 0.18-0.21 0.34-0.46 0.45-0.7 0.01-0.03 0.05-0.09 0.06-0.13 0.5-1.12 0.07-2.23-0.96-2.54-0.04 0-0.59-0.13-0.59-0.13-6.06-1.51-10.48-2.48-13.13-2.89-9.66-1.47-20.08-2.74-30.85-1.96-13.91 0.99-29.72 3.63-41.54 15.61-6.85 6.95-11.89 17.35-13.82 28.54-4.22 24.03 11.87 26.14 28.91 28.39l3.72 0.34c3.64 0.23 6.77 0.46 8.31 2.53 0.56 0.77-0.81 2.68-1.63 3.49-3.66 3.52-24.04 3.01-36.45 1.09-1.07-0.15-2.3 0.53-2.88 1.62-1.79 3.32-13.86 26.28-14.06 26.99-0.33 1.12 0.21 2.08 1.26 2.24l0.55 0.1c5.48 0.91 9.13 1.51 13.83 1.91l0.69 0.04c11.19 0.89 22.74 1.82 35.16 0.91 12.44-0.91 24.75-6.38 33.79-15 8.84-8.46 14.1-19.25 15.23-31.22 0.75-7.89-1.35-14.14-6.25-18.57z"/>
   <path class="fil11" d="m647.48 249.36c-28.71-6.56-34.06-32.55-26.6-55.38 7.79-23.89 30.69-49.27 64.25-52.14 14.34-1.22 24.79-0.46 38.12 2.76-0.88 1.56-6.19 10.87-6.19 10.87-4.4 7.69-8.92 15.64-13.14 23.78-3.3-5.31-9.2-7.41-16.92-5.7-12.2 2.71-26.75 14.39-31.79 25.51-3.12 6.91-2.25 12.86 2.38 16.78 6.26 5.23 18.58 3.44 26.19-1.52 3.32-2.16 7.05-5.26 10.82-8.8 1.01 14.11 1.52 28.23 1.87 40.52-1.74 0.27-10.08 1.56-10.08 1.56-12.62 2.11-26.93 4.48-38.91 1.76z"/>
   <path class="fil12" d="m547.95 141.26c-0.46 1.74-28.4 107.63-28.86 109.36-1.68 0-44.55-0.03-45.57-0.03-0.22-0.95-12.71-51.85-12.71-51.85-0.09-0.35-0.45-0.55-0.86-0.45-0.44 0.1-0.81 0.44-0.92 0.85 0 0-13.13 49.78-13.58 51.48-1.63 0-31.06-0.03-32.71-0.03 0.44-1.64 19.63-74.07 19.63-74.07s8.85-33.56 9.3-35.26c1.68 0.01 42.18 0.09 43.22 0.09 0.23 0.96 13.9 58.19 13.9 58.19 0.08 0.37 0.45 0.55 0.86 0.47 0.43-0.11 0.8-0.46 0.91-0.87 0 0 14.82-56.15 15.27-57.88h32.12z"/>
   <path class="fil13" d="m294.46 210.96c0.14-16.97 9.73-34.32 17.92-44.02 11.82-14.06 31.71-24.01 50.66-25.35 29.87-2.18 48.33 10.06 50.63 33.55 0.94 9.29-2.16 23.22-7.49 33.87-15.27 30.43-45.46 41.44-66.66 41.62-20.94 0.17-45.3-10.11-45.06-39.67z"/>
   <path class="fil14" d="m613.35 141.26c-0.44 1.74-28.42 107.73-28.88 109.45h-38c0.46-1.72 28.42-107.71 28.88-109.45h38z"/>
   <path class="fil15" d="m363.51 172.48c-9.61 1.41-26.26 12.3-33.31 24.25-4.01 6.76-4.27 12.82-0.77 17.51 3.54 4.78 9.29 6.46 17.57 5.17 10.94-1.73 27.29-14.46 31.83-24.78 2.8-6.39 2.6-12.56-0.53-16.94-3.02-4.22-8.42-6.12-14.79-5.21z"/>
   <path class="fil16" d="m239.7 219.56c1.59-1.59 4.14-5.19 2.42-7.55-2.16-2.91-6.18-3.18-10.06-3.44l-3.53-0.32c-17.18-2.26-30.74-4.05-26.95-25.61 1.78-10.28 6.51-20.17 12.68-26.43 8.6-8.72 20.24-13.01 38.93-14.34 10.48-0.75 20.69 0.49 30.18 1.94 2.5 0.38 6.74 1.31 12.5 2.75-0.87 1.62-11.68 21.51-12.42 22.88-5.03-0.71-34.69-4.57-40.18 1.45-1.85 1.98-2.53 5.61-2.9 8.54 0.1 3.29 6.73 4.18 15.12 5.3 7.94 1.06 16.94 2.26 20.62 5.57 4.34 3.94 6.21 9.51 5.55 16.59-1.05 11.09-5.87 21.04-13.99 28.79-8.31 7.95-19.71 12.98-31.25 13.83-12.16 0.87-23.59-0.04-34.64-0.92l-0.75-0.07c-4.48-0.35-8.06-0.93-13.23-1.8 1.9-3.67 9.05-17.47 12.98-24.77 4.77 0.63 32.32 3.95 38.92-2.39z"/>
   <path class="fil1" d="m332.2 212.07c-2.88-3.87-2.65-8.71 0.69-14.36 6.34-10.76 21.77-20.92 30.29-22.14 5.34-0.78 9.85 0.79 12.35 4.31 2.61 3.64 2.75 8.83 0.39 14.23-3.9 8.91-19.13 20.77-28.61 22.25-7.18 1.14-12.12-0.27-15.11-4.29z"/>
  
 
</svg>
