<?xml version="1.0" encoding="UTF-8"?>
<svg id="Capa_1" data-name="Capa 1" xmlns="http://www.w3.org/2000/svg" viewBox="0 0 1849.11 1077.73">
  <defs>
    <style>
      .white {
        fill: #fff;
      }
    </style>
  </defs>
  <path class="white" d="M574.27,484.63c-14.79,0-29.22,.05-43.64-.03-5.94-.03-13.26,1.69-17.41-1.13-3.94-2.68-4.61-10.22-6.62-15.66-29.47-79.64-58.92-159.28-88.39-238.92-.49-1.32-1.08-2.59-2.53-3.71V484.29h-71.24V30.19c1.73-.1,3.33-.26,4.93-.26,17.12-.02,34.24,.1,51.36-.1,3.58-.04,5.12,1.08,6.31,4.48,31.36,89.17,62.85,178.31,94.31,267.44,.47,1.34,.98,2.67,2.29,3.83V30.34h70.63V484.63Z"/>
  <path class="white" d="M1296.99,484.28V30.2c1.7-.1,3.3-.26,4.89-.27,17.12-.02,34.24,.09,51.36-.09,3.54-.04,5.13,.98,6.34,4.44,31.17,88.71,62.47,177.38,93.76,266.05,.64,1.81,1.38,3.59,2.82,5.25V30.35h70.64V484.63c-1.74,0-3.49,0-5.23,0-16.95,0-33.91-.17-50.86,.12-4.28,.08-5.97-1.47-7.36-5.24-30.62-83.1-61.35-166.16-92.06-249.22-.66-1.79-1.44-3.54-3.04-5.13V484.28h-71.25Z"/>
  <path class="white" d="M1014.43,257.32c0-41.37-.08-82.73,.04-124.1,.05-15.34,1.85-30.47,7.32-44.97,10.36-27.44,29.87-45.7,57.37-54.84,34.77-11.56,70.05-11.76,104.65,.35,38.21,13.37,58.13,41.84,62.76,81.46,.92,7.89,1.04,15.9,1.04,23.86,.07,80.9,.06,161.81,.03,242.71,0,17.25-2.37,34.1-9.47,50-10.02,22.47-26.57,38.7-49.4,47.34-39.65,15.01-79.76,15.29-118.88-1.64-31.34-13.56-48.26-39.02-53.51-72.3-1.44-9.13-1.84-18.51-1.88-27.78-.2-40.04-.08-80.07-.08-120.11Zm79.13-.03c0,37.06-.03,74.12,.04,111.17,0,4.64,.09,9.35,.9,13.89,3.89,21.8,21.77,33.15,45,28.83,15.3-2.84,24.99-11.84,28.05-26.58,.94-4.51,1.26-9.23,1.26-13.85,.07-75.78,.05-151.56,.05-227.34,0-1.83-.02-3.66-.13-5.48-1.32-20.83-12.89-32.89-33.62-35.08-21.22-2.24-36.97,9.04-40.62,29.36-.79,4.38-.88,8.92-.89,13.39-.07,37.22-.04,74.45-.04,111.67Z"/>
  <path class="white" d="M1806.22,174.13h-79.96c0-10.27,.13-20.35-.05-30.43-.09-5.29-.14-10.7-1.21-15.84-2.7-12.97-12.19-21.86-24.08-23.37-15.41-1.95-28.15,3.5-33.98,16.06-2.92,6.29-4.94,13.65-4.96,20.53-.34,79.27-.25,158.55-.19,237.82,.01,17.61,11.33,29.61,30.17,31.33,6.15,.56,12.69-.1,18.7-1.59,13.48-3.33,22.45-14.27,22.72-28.1,.43-21.92,.12-43.86,.12-66.3h-37.61v-74.77h114.15v5.23c0,45.04,.17,90.08-.08,135.12-.11,19.62-3.73,38.67-12.8,56.32-13.98,27.21-36.63,43.35-66.08,49.9-26.58,5.91-53.28,5.45-79.27-2.93-38.25-12.33-60.08-39.34-66.91-78.58-1.47-8.46-2-17.17-2.02-25.77-.15-80.44-.16-160.88-.04-241.31,.03-18.95,3.48-37.34,11.51-54.65,13.27-28.6,35.77-46.16,66.11-53.49,25.49-6.16,51.19-6.05,76.31,1.77,37.35,11.62,58.57,38.07,66.25,75.7,2.08,10.18,2.62,20.73,3.07,31.15,.51,11.91,.12,23.87,.12,36.2Z"/>
  <path class="white" d="M822.27,352.75c0,6.92-.11,14.19,.04,21.45,.09,4.3,.07,8.7,.99,12.87,3.94,18.02,19.53,28.39,38.96,26.26,20.24-2.21,31.28-14.32,31.46-34.75,.12-13.63-.1-27.26,.06-40.88,.14-11.59-4.45-20.85-12.9-28.53-11.61-10.55-25.98-16.51-39.39-24.09-17.17-9.7-34.92-18.67-50.98-30-29.12-20.53-44.01-49.79-45.16-85.27-.63-19.53-.59-39.31,1.79-58.66,5.49-44.57,36.72-75.93,80.96-83.33,24.89-4.16,49.75-4.2,73.88,3.98,38.49,13.05,59.44,41.11,65.13,80.49,2.38,16.48,2,33.37,2.93,51.01h-78.46c0-1.32,.04-3.23,0-5.14-.27-10.12,.3-20.35-1.04-30.32-2.33-17.21-15.91-27.76-33.3-27.06-3.31,.13-6.65,.5-9.88,1.2-14.11,3.07-23.16,12.47-24.18,27.29-.93,13.56-.68,27.25,0,40.84,.6,12.14,7.65,21.35,17.39,27.74,10.93,7.17,22.62,13.18,34.06,19.55,14.79,8.24,29.92,15.88,44.44,24.57,33.67,20.16,51.73,49.93,52.31,89.38,.32,22.07,.71,44.27-1.17,66.22-4.32,50.48-39.77,85.49-90.13,90.84-22.18,2.36-44.19,1.86-65.59-5.07-37.83-12.24-60.31-38.56-67.05-77.31-2.99-17.19-2.52-34.97-3.68-53.31h78.52Z"/>
  <path class="white" d="M310.67,484.77h-77.22c-2.06-10.36-4.12-20.73-6.17-31.09-2.34-11.88-4.74-23.75-6.96-35.65-.51-2.76-1.57-3.91-4.54-3.9-27.26,.1-54.52,.1-81.78,0-3.14-.01-4.19,1.05-4.78,4.12-4.03,21.02-8.25,42.01-12.6,62.97-.29,1.42-2.15,3.58-3.29,3.59-24.42,.13-48.84,0-73.27-.09-.15,0-.3-.13-1.06-.49C75.12,332.92,111.26,181.51,147.4,30.11h54.74c36.13,151.35,72.24,302.63,108.53,454.66Zm-105.64-143.76c-9.98-50.6-19.88-100.79-29.78-150.98-.32-.02-.64-.04-.95-.06-9.91,50.21-19.82,100.41-29.81,151.04h60.55Z"/>
  <path class="white" d="M701.58,484.63h-77.48V30.24h77.48V484.63Z"/>
  <path class="white" d="M1401.27,737v306.7c-4.89,0-9.65,0-14.4,0-7.48,0-14.97-.23-22.44,.1-3.7,.17-5.1-1.3-6.29-4.54-20.12-54.63-40.35-109.22-60.56-163.81-.74-2-1.52-3.98-3.31-5.9v173.9h-47.99v-306.45h41.23c21.62,61.28,43.28,122.69,64.94,184.09,.33-.03,.65-.07,.98-.1v-183.99h47.84Z"/>
  <path class="white" d="M1596.27,890.4c0,27.91,.02,55.82,0,83.73-.01,11.21-1.42,22.21-5.85,32.6-7.89,18.49-22.01,30.15-40.98,35.76-21.37,6.33-43,6.41-64.31-.22-27.93-8.7-44.75-31.15-45.94-60.36-.12-2.82-.17-5.65-.17-8.47,0-56.15-.04-112.31,0-168.46,.03-38.44,20.34-63.08,58.09-69.78,17.34-3.08,34.73-2.46,51.8,2.51,27.66,8.06,45.91,30.07,46.71,59.01,.87,31.2,.2,62.45,.2,93.67,.15,0,.3,0,.45,0Zm-53.37-.46c0-26.42,.04-52.85-.02-79.27-.03-12.25-6.68-21.49-17.24-23.84-16.68-3.71-32.29,3.07-33.26,23.72-.09,1.82-.17,3.65-.17,5.48,0,49.36-.02,98.72,.03,148.08,0,3.64,.22,7.33,.84,10.91,1.36,7.82,5.33,13.87,12.86,17.14,19.13,8.29,36.94-3.23,36.96-23.93,.02-26.09,0-52.18,0-78.28Z"/>
  <path class="white" d="M849.86,826.86h-52.2c0-1.9,.04-3.82,0-5.74-.15-5.8,.04-11.64-.61-17.39-.94-8.36-5.15-14.89-13.37-17.63-8.98-2.98-17.79-2.14-25.46,3.94-4.55,3.61-6.62,8.81-6.82,14.45-.3,8.62-.35,17.27,0,25.89,.4,9.46,5.91,16.28,13.58,20.87,11.23,6.72,22.98,12.58,34.41,18.98,7.52,4.21,15.17,8.3,22.25,13.18,17.21,11.86,27.61,28.21,29.2,49.22,1.48,19.53,2.4,39.19-1.05,58.61-5.33,30.06-26.55,50.18-56.92,54.49-14.25,2.02-28.48,1.86-42.54-1.69-29.51-7.44-48.76-29.8-51.1-60.13-.74-9.54-.11-19.19-.11-29.29h51.67c0,4.46-.38,9.09,.1,13.63,.55,5.2,.92,10.75,3.04,15.4,4.41,9.68,16.1,13.82,28.32,11.11,9.73-2.16,16.36-10.19,16.64-20.91,.28-10.63,.22-21.27,.03-31.89-.12-6.89-3.15-12.93-8.69-16.66-9.6-6.45-19.8-12-29.71-18-11.48-6.94-23.51-13.16-34.23-21.13-15.13-11.26-23.92-27-26.39-45.8-2.23-17.02-2.46-34.18,.44-51.12,5.14-29.99,26.54-50.16,56.94-54.44,13.93-1.96,27.84-1.97,41.58,1.39,27.36,6.71,45.85,27.2,49.78,55.17,.71,5.08,1.03,10.24,1.18,15.37,.2,6.44,.05,12.88,.05,20.13Z"/>
  <path class="white" d="M885.15,736.74h5.24c25.92,0,51.84-.27,77.75,.16,8.21,.14,16.64,1.25,24.54,3.46,26.91,7.54,43.53,28.94,44.39,57.57,.66,21.9,.68,43.86,.03,65.76-.94,31.92-21.59,54.68-53.1,59.45-6.38,.96-12.87,1.33-19.33,1.51-8.79,.25-17.59,.06-26.97,.06v118.84h-52.56v-306.81Zm52.58,137.61c7.59,0,14.86,0,22.14,0,15.94,0,23.72-7.04,24.25-22.97,.45-13.59,.22-27.22-.02-40.82-.06-3.58-.85-7.3-2.05-10.68-2.24-6.29-6.54-11.49-13.36-12-10.18-.77-20.46-.2-30.96-.2v86.67Z"/>
  <path class="white" d="M675.72,737.06v51h-83.51v77.31h72.78v51.2h-72.64v75.94h83.38v51.05h-136v-306.5h136Z"/>
  <path class="white" d="M1113.21,736.74c11.67,0,22.8,.13,33.91-.08,3.44-.06,3.52,2,4.08,4.32,11.15,46.78,22.35,93.55,33.53,140.32,12.53,52.42,25.04,104.84,37.55,157.26,.38,1.6,.63,3.24,.99,5.1h-51.99c-3.12-15.69-6.25-31.41-9.49-47.65h-6.88c-16.45,0-32.9,.07-49.35-.07-3.06-.03-4.24,.8-4.83,3.96-2.66,14.51-5.66,28.95-8.59,43.67h-52.2c24.42-102.3,48.79-204.37,73.25-306.82Zm18.97,109l-.97,.05c-6.6,33.53-13.2,67.05-19.84,100.77h40.73c-6.7-33.92-13.31-67.37-19.92-100.83Z"/>
  <path class="white" d="M139.27,1043.65h-52.1c2.27-9.7,4.44-19.16,6.69-28.61,21.83-91.33,43.7-182.64,65.41-273.99,.83-3.51,2.14-4.45,5.59-4.38,10.62,.23,21.26,.08,32.49,.08,24.41,102.25,48.8,204.43,73.27,306.94h-52.19c-3.15-15.83-6.28-31.55-9.44-47.44h-60.28c-3.15,15.81-6.28,31.53-9.44,47.41Zm19.18-96.99h40.78c-6.71-34.01-13.34-67.62-19.97-101.24-.27-.01-.54-.02-.81-.03-6.64,33.63-13.28,67.26-19.99,101.27Z"/>
  <path class="white" d="M345.58,993.22h79.72v50.34h-131.83v-306.49h52.11v256.16Z"/>
  <path class="white" d="M1629.87,736.93h52.14v256.1h79.47v50.67h-131.6v-306.77Z"/>
  <path class="white" d="M1308.63,713.71h-41.82c-.5-15.33-.85-30.58,6.35-44.7,7.65-15,23.8-20.84,42.49-15.47,4.91,1.41,9.55,3.75,14.31,5.65,1.85,.74,3.66,1.61,5.56,2.17,8.58,2.56,12.76-.49,12.88-9.32,.02-1.14,0-2.28,0-3.74h42.72c.5,13.06,.38,25.95-3.21,38.51-6.5,22.7-24.87,32.11-47.3,24.33-3.27-1.13-6.3-2.95-9.48-4.33-3.48-1.51-6.93-3.27-10.57-4.24-8.07-2.15-10.89,.08-11.56,8.49-.06,.81-.22,1.6-.37,2.64Z"/>
</svg>