<svg width="1410" xmlns:ev="http://www.w3.org/2001/xml-events" height="1321" xmlns="http://www.w3.org/2000/svg" xmlns:xlink="http://www.w3.org/1999/xlink" viewBox="0 0 1410 1321"><defs/><g id="page1" transform="translate(5.5,5.5)"><rect y="0" width="1400" height="1311" fill="none" x="0"/><g id="shape1" transform="translate(460.500000,2.000000)"><path stroke="#0873ff" d="M11.0,.0L469.0,.0C475.1,.0,480.0,4.9,480.0,11.0L480.0,34.0C480.0,40.1,475.1,45.0,469.0,45.0L11.0,45.0C4.9,45.0,.0,40.1,.0,34.0L.0,11.0C.0,4.9,4.9,.0,11.0,.0z" fill="#0873ff" stroke-width="2.666670083999634" fill-rule="nonzero"/><text xml:space="preserve" style="fill:#ffffff;font-family:Segoe UI;font-size:14.00pt;font-weight:bold"><tspan y="29.2" x="22.4">Conceptos básicos de la Teoría General de Sistemas</tspan></text></g><g id="shape2" transform="translate(179.750000,98.500000)"><path stroke="#0873ff" d="M11.0,.0L66.5,.0C72.6,.0,77.5,4.9,77.5,11.0L77.5,25.0C77.5,31.1,72.6,36.0,66.5,36.0L11.0,36.0C4.9,36.0,.0,31.1,.0,25.0L.0,11.0C.0,4.9,4.9,.0,11.0,.0z" fill="#0873ff" stroke-width="2.666670083999634" fill-rule="nonzero"/><text xml:space="preserve" style="fill:#ffffff;font-family:Segoe UI;font-size:12.00pt;font-weight:bold"><tspan y="25.1" x="9.2">Sistema</tspan></text></g><g id="shape3" transform="translate(63.000000,162.250000)"><path stroke="#0873ff" d="M11.0,.0L300.0,.0C306.1,.0,311.0,4.9,311.0,11.0L311.0,110.0C311.0,116.1,306.1,121.0,300.0,121.0L11.0,121.0C4.9,121.0,.0,116.1,.0,110.0L.0,11.0C.0,4.9,4.9,.0,11.0,.0z" fill="#ffffff" stroke-width="2.666670083999634" fill-rule="nonzero"/><text xml:space="preserve" style="fill:#0873ff;font-family:Segoe UI;font-size:12.00pt"><tspan y="21.6" x="11.9">Es el conjunto de elementos que guardan </tspan><tspan y="44.0" x="33.9">estrechas relaciones entre sí, que lo </tspan><tspan y="66.4" x="14.3">mantienen unido de modo más o menos </tspan><tspan y="88.8" x="20.3">estable y cuyo comportamiento global </tspan><tspan y="111.2" x="81.9">persigue un objetivo.</tspan></text></g><g id="shape4" transform="translate(63.000000,311.000000)"><path stroke="#0873ff" d="M11.0,.0L300.0,.0C306.1,.0,311.0,4.9,311.0,11.0L311.0,24.0C311.0,30.1,306.1,35.0,300.0,35.0L11.0,35.0C4.9,35.0,.0,30.1,.0,24.0L.0,11.0C.0,4.9,4.9,.0,11.0,.0z" fill="#ffffff" stroke-width="2.666670083999634" fill-rule="nonzero"/><text xml:space="preserve" style="fill:#0873ff;font-family:Segoe UI;font-size:12.00pt"><tspan y="21.6" x="14.7">Se clasifican en distintos tipos según su...</tspan></text></g><g id="shape5" transform="translate(57.000000,398.000000)"><path stroke="#0873ff" d="M11.0,.0L54.0,.0C60.1,.0,65.0,4.9,65.0,11.0L65.0,25.0C65.0,31.1,60.1,36.0,54.0,36.0L11.0,36.0C4.9,36.0,.0,31.1,.0,25.0L.0,11.0C.0,4.9,4.9,.0,11.0,.0z" fill="#0873ff" stroke-width="2.666670083999634" fill-rule="nonzero"/><text xml:space="preserve" style="fill:#ffffff;font-family:Segoe UI;font-size:12.00pt;font-weight:bold"><tspan y="25.1" x="6.9">Origen</tspan></text></g><g id="shape6" transform="translate(3.000000,462.000000)"><path stroke="#0873ff" d="M11.0,.0L162.0,.0C168.1,.0,173.0,4.9,173.0,11.0L173.0,130.0C173.0,136.1,168.1,141.0,162.0,141.0L11.0,141.0C4.9,141.0,.0,136.1,.0,130.0L.0,11.0C.0,4.9,4.9,.0,11.0,.0z" fill="#ffffff" stroke-width="2.666670083999634" fill-rule="nonzero"/><text xml:space="preserve" style="fill:#0873ff;font-family:Segoe UI;font-size:12.00pt"><tspan y="21.6" x="3.2">• Naturales</tspan><tspan y="44.0" x="3.2">• Artificiales</tspan><tspan y="66.4" x="3.2">• De Procedimientos</tspan><tspan y="88.8" x="3.2">• Sociales</tspan><tspan y="111.2" x="3.2">• Conceptuales</tspan><tspan y="133.6" x="3.2">• Mixtos</tspan></text></g><g id="shape7" transform="translate(334.000000,398.000000)"><path stroke="#0873ff" d="M11.0,.0L104.0,.0C110.1,.0,115.0,4.9,115.0,11.0L115.0,25.0C115.0,31.1,110.1,36.0,104.0,36.0L11.0,36.0C4.9,36.0,.0,31.1,.0,25.0L.0,11.0C.0,4.9,4.9,.0,11.0,.0z" fill="#0873ff" stroke-width="2.666670083999634" fill-rule="nonzero"/><text xml:space="preserve" style="fill:#ffffff;font-family:Segoe UI;font-size:12.00pt;font-weight:bold"><tspan y="25.1" x="9.5">Probabilidad</tspan></text></g><g id="shape8" transform="translate(327.000000,462.000000)"><path stroke="#0873ff" d="M11.0,.0L118.0,.0C124.1,.0,129.0,4.9,129.0,11.0L129.0,41.0C129.0,47.1,124.1,52.0,118.0,52.0L11.0,52.0C4.9,52.0,.0,47.1,.0,41.0L.0,11.0C.0,4.9,4.9,.0,11.0,.0z" fill="#ffffff" stroke-width="2.666670083999634" fill-rule="nonzero"/><text xml:space="preserve" style="fill:#0873ff;font-family:Segoe UI;font-size:12.00pt"><tspan y="21.6" x="3.2">• Determinísticos</tspan><tspan y="44.0" x="3.2">• Probabilísticos</tspan></text></g><g id="shape9" transform="translate(218.500000,134.500000)"><path stroke="#0873ff" d="M.0,.0L.0,18.0" stroke-width="2.666670083999634" fill="none"/><path stroke="#0873ff" d="M4.9,18.0L.0,27.8L-4.9,18.0L4.9,18.0" stroke-linecap="round" stroke-width="1" fill="#0873ff"/></g><g id="shape10" transform="translate(218.500000,283.250000)"><path stroke="#0873ff" d="M.0,.0L.0,18.0" stroke-width="2.666670083999634" fill="none"/><path stroke="#0873ff" d="M4.9,18.0L.0,27.8L-4.9,18.0L4.9,18.0" stroke-linecap="round" stroke-width="1" fill="#0873ff"/></g><path stroke="#0873ff" d="M.0,.0L-0.0,24.0" stroke-width="2.666670083999634" fill="none" id="shape11" transform="translate(218.500000,346.000000)"/><g id="shape12" transform="translate(90.000000,370.000000)"><path stroke="#0873ff" d="M.0,.0L-0.0,18.2" stroke-width="2.666670083999634" fill="none"/><path stroke="#0873ff" d="M4.9,18.2L-0.0,28.0L-4.9,18.2L4.9,18.2" stroke-linecap="round" stroke-width="1" fill="#0873ff"/></g><g id="shape13" transform="translate(391.869000,370.000000)"><path stroke="#0873ff" d="M.0,.0L-0.0,18.5" stroke-width="2.666670083999634" fill="none"/><path stroke="#0873ff" d="M4.9,18.5L-0.0,28.3L-4.9,18.5L4.9,18.5" stroke-linecap="round" stroke-width="1" fill="#0873ff"/></g><path stroke="#0873ff" d="M.0,.0L459.0,.0" stroke-width="2.666670083999634" fill="none" id="shape14" transform="translate(88.000000,370.000000)"/><g id="shape15" transform="translate(89.500000,434.000000)"><path stroke="#0873ff" d="M.0,.0L.0,18.2" stroke-width="2.666670083999634" fill="none"/><path stroke="#0873ff" d="M4.9,18.2L.0,28.0L-4.9,18.2L4.9,18.2" stroke-linecap="round" stroke-width="1" fill="#0873ff"/></g><g id="shape16" transform="translate(547.021000,368.000000)"><path stroke="#0873ff" d="M.0,.0L-0.0,20.2" stroke-width="2.666670083999634" fill="none"/><path stroke="#0873ff" d="M4.9,20.2L-0.0,30.0L-4.9,20.2L4.9,20.2" stroke-linecap="round" stroke-width="1" fill="#0873ff"/></g><g id="shape17" transform="translate(391.500000,434.000000)"><path stroke="#0873ff" d="M.0,.0L.0,18.2" stroke-width="2.666670083999634" fill="none"/><path stroke="#0873ff" d="M4.9,18.2L.0,28.0L-4.9,18.2L4.9,18.2" stroke-linecap="round" stroke-width="1" fill="#0873ff"/></g><g id="shape18" transform="translate(465.875000,98.500000)"><path stroke="#0873ff" d="M11.0,.0L68.8,.0C74.8,.0,79.8,4.9,79.8,11.0L79.8,25.0C79.8,31.1,74.8,36.0,68.8,36.0L11.0,36.0C4.9,36.0,.0,31.1,.0,25.0L.0,11.0C.0,4.9,4.9,.0,11.0,.0z" fill="#0873ff" stroke-width="2.666670083999634" fill-rule="nonzero"/><text xml:space="preserve" style="fill:#ffffff;font-family:Segoe UI;font-size:12.00pt;font-weight:bold"><tspan y="25.1" x="7.9">Atributo</tspan></text></g><g id="shape19" transform="translate(401.500000,162.250000)"><path stroke="#0873ff" d="M11.0,.0L197.5,.0C203.6,.0,208.5,4.9,208.5,11.0L208.5,109.8C208.5,115.8,203.6,120.8,197.5,120.8L11.0,120.8C4.9,120.8,.0,115.8,.0,109.8L.0,11.0C.0,4.9,4.9,.0,11.0,.0z" fill="#ffffff" stroke-width="2.666670083999634" fill-rule="nonzero"/><text xml:space="preserve" style="fill:#0873ff;font-family:Segoe UI;font-size:12.00pt"><tspan y="21.6" x="23.1">Son las características y </tspan><tspan y="44.0" x="7.5">propiedades estructurales o </tspan><tspan y="66.4" x="6.3">funcionales que caracterizan </tspan><tspan y="88.8" x="4.3">las partes o componentes de </tspan><tspan y="111.2" x="65.8">un sistema.</tspan></text></g><g id="shape20" transform="translate(505.750000,134.500000)"><path stroke="#0873ff" d="M.0,.0L.0,18.0" stroke-width="2.666670083999634" fill="none"/><path stroke="#0873ff" d="M4.9,18.0L.0,27.8L-4.9,18.0L4.9,18.0" stroke-linecap="round" stroke-width="1" fill="#0873ff"/></g><g id="shape21" transform="translate(251.498000,370.000000)"><path stroke="#0873ff" d="M.0,.0L.0,18.2" stroke-width="2.666670083999634" fill="none"/><path stroke="#0873ff" d="M4.9,18.2L.0,28.0L-4.9,18.2L4.9,18.2" stroke-linecap="round" stroke-width="1" fill="#0873ff"/></g><g id="shape22" transform="translate(500.500000,398.000000)"><path stroke="#0873ff" d="M11.0,.0L82.0,.0C88.1,.0,93.0,4.9,93.0,11.0L93.0,25.0C93.0,31.1,88.1,36.0,82.0,36.0L11.0,36.0C4.9,36.0,.0,31.1,.0,25.0L.0,11.0C.0,4.9,4.9,.0,11.0,.0z" fill="#0873ff" stroke-width="2.666670083999634" fill-rule="nonzero"/><text xml:space="preserve" style="fill:#ffffff;font-family:Segoe UI;font-size:12.00pt;font-weight:bold"><tspan y="25.1" x="9.7">Ambiente</tspan></text></g><g id="shape23" transform="translate(484.000000,462.000000)"><path stroke="#0873ff" d="M11.0,.0L115.0,.0C121.1,.0,126.0,4.9,126.0,11.0L126.0,84.5C126.0,90.6,121.1,95.5,115.0,95.5L11.0,95.5C4.9,95.5,.0,90.6,.0,84.5L.0,11.0C.0,4.9,4.9,.0,11.0,.0z" fill="#ffffff" stroke-width="2.666670083999634" fill-rule="nonzero"/><text xml:space="preserve" style="fill:#0873ff;font-family:Segoe UI;font-size:12.00pt"><tspan y="21.6" x="3.2">• Abiertos</tspan><tspan y="44.0" x="3.2">• Cibernéticos</tspan><tspan y="66.4" x="3.2">• Triviales</tspan><tspan y="88.8" x="3.2">• Cerrados</tspan></text></g><g id="shape24" transform="translate(547.000000,434.000000)"><path stroke="#0873ff" d="M.0,.0L.0,18.2" stroke-width="2.666670083999634" fill="none"/><path stroke="#0873ff" d="M4.9,18.2L.0,28.0L-4.9,18.2L4.9,18.2" stroke-linecap="round" stroke-width="1" fill="#0873ff"/></g><g id="shape25" transform="translate(204.000000,398.000000)"><path stroke="#0873ff" d="M11.0,.0L84.0,.0C90.1,.0,95.0,4.9,95.0,11.0L95.0,25.0C95.0,31.1,90.1,36.0,84.0,36.0L11.0,36.0C4.9,36.0,.0,31.1,.0,25.0L.0,11.0C.0,4.9,4.9,.0,11.0,.0z" fill="#0873ff" stroke-width="2.666670083999634" fill-rule="nonzero"/><text xml:space="preserve" style="fill:#ffffff;font-family:Segoe UI;font-size:12.00pt;font-weight:bold"><tspan y="25.1" x="6.3">Entitividad</tspan></text></g><g id="shape26" transform="translate(204.000000,457.500000)"><path stroke="#0873ff" d="M11.0,.0L84.0,.0C90.1,.0,95.0,4.9,95.0,11.0L95.0,62.5C95.0,68.6,90.1,73.5,84.0,73.5L11.0,73.5C4.9,73.5,.0,68.6,.0,62.5L.0,11.0C.0,4.9,4.9,.0,11.0,.0z" fill="#ffffff" stroke-width="2.666670083999634" fill-rule="nonzero"/><text xml:space="preserve" style="fill:#0873ff;font-family:Segoe UI;font-size:12.00pt"><tspan y="21.6" x="3.2">• Reales</tspan><tspan y="44.0" x="3.2">• Ideales</tspan><tspan y="66.4" x="3.2">• Modelos</tspan></text></g><g id="shape27" transform="translate(251.500000,434.000000)"><path stroke="#0873ff" d="M.0,.0L.0,13.7" stroke-width="2.666670083999634" fill="none"/><path stroke="#0873ff" d="M4.9,13.7L.0,23.5L-4.9,13.7L4.9,13.7" stroke-linecap="round" stroke-width="1" fill="#0873ff"/></g><g id="shape28" transform="translate(669.937500,98.500000)"><path stroke="#0873ff" d="M11.0,.0L82.9,.0C88.9,.0,93.9,4.9,93.9,11.0L93.9,25.0C93.9,31.1,88.9,36.0,82.9,36.0L11.0,36.0C4.9,36.0,.0,31.1,.0,25.0L.0,11.0C.0,4.9,4.9,.0,11.0,.0z" fill="#0873ff" stroke-width="2.666670083999634" fill-rule="nonzero"/><text xml:space="preserve" style="fill:#ffffff;font-family:Segoe UI;font-size:12.00pt;font-weight:bold"><tspan y="25.1" x="10.1">Ambiente</tspan></text></g><g id="shape29" transform="translate(637.750000,162.500000)"><path stroke="#0873ff" d="M11.0,.0L147.3,.0C153.3,.0,158.3,4.9,158.3,11.0L158.3,109.8C158.3,115.8,153.3,120.8,147.3,120.8L11.0,120.8C4.9,120.8,.0,115.8,.0,109.8L.0,11.0C.0,4.9,4.9,.0,11.0,.0z" fill="#ffffff" stroke-width="2.666670083999634" fill-rule="nonzero"/><text xml:space="preserve" style="fill:#0873ff;font-family:Segoe UI;font-size:12.00pt"><tspan y="21.6" x="7.9">Es el área de sucesos </tspan><tspan y="44.0" x="16.3">y condiciones que </tspan><tspan y="66.4" x="21.9">influyen sobre el </tspan><tspan y="88.8" x="9.1">comportamiento de </tspan><tspan y="111.2" x="40.7">un sistema.</tspan></text></g><g id="shape30" transform="translate(716.875000,134.500000)"><path stroke="#0873ff" d="M.0,.0L.0,18.2" stroke-width="2.666670083999634" fill="none"/><path stroke="#0873ff" d="M4.9,18.2L.0,28.0L-4.9,18.2L4.9,18.2" stroke-linecap="round" stroke-width="1" fill="#0873ff"/></g><g id="shape31" transform="translate(637.750000,311.000000)"><path stroke="#0873ff" d="M11.0,.0L147.3,.0C153.3,.0,158.3,4.9,158.3,11.0L158.3,155.0C158.3,161.1,153.3,166.0,147.3,166.0L11.0,166.0C4.9,166.0,.0,161.1,.0,155.0L.0,11.0C.0,4.9,4.9,.0,11.0,.0z" fill="#ffffff" stroke-width="2.666670083999634" fill-rule="nonzero"/><text xml:space="preserve" style="fill:#0873ff;font-family:Segoe UI;font-size:12.00pt"><tspan y="21.6" x="5.9">Un sistema no puede </tspan><tspan y="44.0" x="25.1">igualarse con el </tspan><tspan y="66.4" x="9.5">ambiente sin perder </tspan><tspan y="88.8" x="15.9">su identidad, pero </tspan><tspan y="111.2" x="23.9">puede absorber </tspan><tspan y="133.6" x="27.5">selectivamente </tspan><tspan y="156.0" x="20.3">aspectos de este.</tspan></text></g><g id="shape32" transform="translate(716.875000,283.250000)"><path stroke="#0873ff" d="M.0,.0L.0,18.0" stroke-width="2.666670083999634" fill="none"/><path stroke="#0873ff" d="M4.9,18.0L.0,27.8L-4.9,18.0L4.9,18.0" stroke-linecap="round" stroke-width="1" fill="#0873ff"/></g><g id="shape33" transform="translate(855.187500,98.500000)"><path stroke="#0873ff" d="M11.0,.0L71.6,.0C77.7,.0,82.6,4.9,82.6,11.0L82.6,25.0C82.6,31.1,77.7,36.0,71.6,36.0L11.0,36.0C4.9,36.0,.0,31.1,.0,25.0L.0,11.0C.0,4.9,4.9,.0,11.0,.0z" fill="#0873ff" stroke-width="2.666670083999634" fill-rule="nonzero"/><text xml:space="preserve" style="fill:#ffffff;font-family:Segoe UI;font-size:12.00pt;font-weight:bold"><tspan y="25.1" x="5.7">Elemento</tspan></text></g><g id="shape34" transform="translate(823.000000,162.250000)"><path stroke="#0873ff" d="M11.0,.0L136.0,.0C142.1,.0,147.0,4.9,147.0,11.0L147.0,109.8C147.0,115.8,142.1,120.8,136.0,120.8L11.0,120.8C4.9,120.8,.0,115.8,.0,109.8L.0,11.0C.0,4.9,4.9,.0,11.0,.0z" fill="#ffffff" stroke-width="2.666670083999634" fill-rule="nonzero"/><text xml:space="preserve" style="fill:#0873ff;font-family:Segoe UI;font-size:12.00pt"><tspan y="21.6" x="20.7">Es cada parte o </tspan><tspan y="44.0" x="13.9">componente que </tspan><tspan y="66.4" x="22.3">constituyen un </tspan><tspan y="88.8" x="5.9">sistema. Pueden ser </tspan><tspan y="111.2" x="5.5">objetos o procesos.</tspan></text></g><g id="shape35" transform="translate(896.500000,134.500000)"><path stroke="#0873ff" d="M.0,.0L.0,18.0" stroke-width="2.666670083999634" fill="none"/><path stroke="#0873ff" d="M4.9,18.0L.0,27.8L-4.9,18.0L4.9,18.0" stroke-linecap="round" stroke-width="1" fill="#0873ff"/></g><g id="shape36" transform="translate(716.875000,477.000000)"><path stroke="#0873ff" d="M.0,.0L.0,33.0L-96.2,33.0" stroke-width="2.666670083999634" fill="none"/><path stroke="#0873ff" d="M-96.2,37.9L-106.0,33.0L-96.2,28.1L-96.2,37.9" stroke-linecap="round" stroke-width="1" fill="#0873ff"/></g><g id="shape37" transform="translate(1026.093700,98.500000)"><path stroke="#0873ff" d="M11.0,.0L91.8,.0C97.9,.0,102.8,4.9,102.8,11.0L102.8,25.0C102.8,31.1,97.9,36.0,91.8,36.0L11.0,36.0C4.9,36.0,.0,31.1,.0,25.0L.0,11.0C.0,4.9,4.9,.0,11.0,.0z" fill="#0873ff" stroke-width="2.666670083999634" fill-rule="nonzero"/><text xml:space="preserve" style="fill:#ffffff;font-family:Segoe UI;font-size:12.00pt;font-weight:bold"><tspan y="25.1" x="8.6">Cibernética</tspan></text></g><g id="shape38" transform="translate(998.000000,162.500000)"><path stroke="#0873ff" d="M11.0,.0L148.0,.0C154.1,.0,159.0,4.9,159.0,11.0L159.0,109.8C159.0,115.8,154.1,120.8,148.0,120.8L11.0,120.8C4.9,120.8,.0,115.8,.0,109.8L.0,11.0C.0,4.9,4.9,.0,11.0,.0z" fill="#ffffff" stroke-width="2.666670083999634" fill-rule="nonzero"/><text xml:space="preserve" style="fill:#0873ff;font-family:Segoe UI;font-size:12.00pt"><tspan y="21.6" x="9.1">Abarca el ámbito de </tspan><tspan y="44.0" x="25.5">los procesos de </tspan><tspan y="66.4" x="37.5">control y de </tspan><tspan y="88.8" x="8.3">comunicación de los </tspan><tspan y="111.2" x="5.9">sistemas a través de...</tspan></text></g><g id="shape39" transform="translate(1077.500000,134.500000)"><path stroke="#0873ff" d="M.0,.0L.0,18.2" stroke-width="2.666670083999634" fill="none"/><path stroke="#0873ff" d="M4.9,18.2L.0,28.0L-4.9,18.2L4.9,18.2" stroke-linecap="round" stroke-width="1" fill="#0873ff"/></g><path stroke="#0873ff" d="M.0,.0L.0,24.8" stroke-width="2.666670083999634" fill="none" id="shape40" transform="translate(1077.500000,283.250000)"/><path stroke="#0873ff" d="M.0,.0L280.0,.0" stroke-width="2.666670083999634" fill="none" id="shape41" transform="translate(944.000000,308.000000)"/><g id="shape42" transform="translate(865.875000,337.000000)"><path stroke="#0873ff" d="M11.0,.0L147.3,.0C153.3,.0,158.3,4.9,158.3,11.0L158.3,25.0C158.3,31.1,153.3,36.0,147.3,36.0L11.0,36.0C4.9,36.0,.0,31.1,.0,25.0L.0,11.0C.0,4.9,4.9,.0,11.0,.0z" fill="#0873ff" stroke-width="2.666670083999634" fill-rule="nonzero"/><text xml:space="preserve" style="fill:#ffffff;font-family:Segoe UI;font-size:12.00pt;font-weight:bold"><tspan y="25.1" x="9.1">Retroalimentación</tspan></text></g><g id="shape43" transform="translate(823.000000,401.250000)"><path stroke="#0873ff" d="M11.0,.0L233.0,.0C239.1,.0,244.0,4.9,244.0,11.0L244.0,108.8C244.0,114.8,239.1,119.8,233.0,119.8L11.0,119.8C4.9,119.8,.0,114.8,.0,108.8L.0,11.0C.0,4.9,4.9,.0,11.0,.0z" fill="#ffffff" stroke-width="2.666670083999634" fill-rule="nonzero"/><text xml:space="preserve" style="fill:#0873ff;font-family:Segoe UI;font-size:12.00pt"><tspan y="21.6" x="10.4">Son los procesos con los que un </tspan><tspan y="44.0" x="42.8">sistema abierto recoge </tspan><tspan y="66.4" x="8.4">información sobre sus efectos en </tspan><tspan y="88.8" x="10.0">el medio, información que actúa </tspan><tspan y="111.2" x="18.0">sobre las decisiones sucesivas.</tspan></text></g><g id="shape44" transform="translate(945.000000,373.000000)"><path stroke="#0873ff" d="M.0,.0L.0,18.5" stroke-width="2.666670083999634" fill="none"/><path stroke="#0873ff" d="M4.9,18.5L.0,28.3L-4.9,18.5L4.9,18.5" stroke-linecap="round" stroke-width="1" fill="#0873ff"/></g><g id="shape45" transform="translate(1168.375000,337.000000)"><path stroke="#0873ff" d="M11.0,.0L96.3,.0C102.3,.0,107.3,4.9,107.3,11.0L107.3,25.0C107.3,31.1,102.3,36.0,96.3,36.0L11.0,36.0C4.9,36.0,.0,31.1,.0,25.0L.0,11.0C.0,4.9,4.9,.0,11.0,.0z" fill="#0873ff" stroke-width="2.666670083999634" fill-rule="nonzero"/><text xml:space="preserve" style="fill:#ffffff;font-family:Segoe UI;font-size:12.00pt;font-weight:bold"><tspan y="25.1" x="5.6">Homeostasis</tspan></text></g><g id="shape46" transform="translate(1095.000000,400.750000)"><path stroke="#0873ff" d="M11.0,.0L243.0,.0C249.1,.0,254.0,4.9,254.0,11.0L254.0,129.3C254.0,135.3,249.1,140.3,243.0,140.3L11.0,140.3C4.9,140.3,.0,135.3,.0,129.3L.0,11.0C.0,4.9,4.9,.0,11.0,.0z" fill="#ffffff" stroke-width="2.666670083999634" fill-rule="nonzero"/><text xml:space="preserve" style="fill:#0873ff;font-family:Segoe UI;font-size:12.00pt"><tspan y="21.6" x="29.0">Opera ante variaciones en el </tspan><tspan y="44.0" x="29.4">ambiente, corresponde a las </tspan><tspan y="66.4" x="31.8">compensaciones internas al</tspan><tspan y="88.8" x="5.0">sistema que sustituyen, bloquean o </tspan><tspan y="111.2" x="5.8">complementan estos cambios para </tspan><tspan y="133.6" x="19.8">mantener invariante al sistema.</tspan></text></g><g id="shape47" transform="translate(1222.000000,373.000000)"><path stroke="#0873ff" d="M.0,.0L.0,18.0" stroke-width="2.666670083999634" fill="none"/><path stroke="#0873ff" d="M4.9,18.0L.0,27.8L-4.9,18.0L4.9,18.0" stroke-linecap="round" stroke-width="1" fill="#0873ff"/></g><g id="shape48" transform="translate(1223.070000,307.980000)"><path stroke="#0873ff" d="M.0,.0L.1,20.2" stroke-width="2.666670083999634" fill="none"/><path stroke="#0873ff" d="M5.0,20.2L.1,30.0L-4.8,20.2L5.0,20.2" stroke-linecap="round" stroke-width="1" fill="#0873ff"/></g><path stroke="#0873ff" d="M.0,.0L.0,24.0" stroke-width="2.666670083999634" fill="none" id="shape49" transform="translate(945.500000,521.000000)"/><path stroke="#0873ff" d="M.0,.0L406.0,.0" stroke-width="2.666670083999634" fill="none" id="shape50" transform="translate(668.000000,545.000000)"/><g id="shape51" transform="translate(1074.070000,543.980000)"><path stroke="#0873ff" d="M.0,.0L.1,20.2" stroke-width="2.666670083999634" fill="none"/><path stroke="#0873ff" d="M5.0,20.2L.1,30.0L-4.8,20.2L5.0,20.2" stroke-linecap="round" stroke-width="1" fill="#0873ff"/></g><g id="shape52" transform="translate(627.062200,572.250000)"><path stroke="#0873ff" d="M11.0,.0L71.9,.0C78.0,.0,82.9,4.9,82.9,11.0L82.9,25.0C82.9,31.1,78.0,36.0,71.9,36.0L11.0,36.0C4.9,36.0,.0,31.1,.0,25.0L.0,11.0C.0,4.9,4.9,.0,11.0,.0z" fill="#0873ff" stroke-width="2.666670083999634" fill-rule="nonzero"/><text xml:space="preserve" style="fill:#ffffff;font-family:Segoe UI;font-size:12.00pt;font-weight:bold"><tspan y="25.1" x="7.1">Negativa</tspan></text></g><g id="shape53" transform="translate(513.000000,636.750000)"><path stroke="#0873ff" d="M11.0,.0L300.1,.0C306.2,.0,311.1,4.9,311.1,11.0L311.1,43.3C311.1,49.3,306.2,54.3,300.1,54.3L11.0,54.3C4.9,54.3,.0,49.3,.0,43.3L.0,11.0C.0,4.9,4.9,.0,11.0,.0z" fill="#ffffff" stroke-width="2.666670083999634" fill-rule="nonzero"/><text xml:space="preserve" style="fill:#0873ff;font-family:Segoe UI;font-size:12.00pt"><tspan y="21.6" x="6.4">Cuando prima el control. Regula y controla </tspan><tspan y="44.0" x="13.6">los procesos con el fin de autorregularse.</tspan></text></g><g id="shape54" transform="translate(668.531000,608.250000)"><path stroke="#0873ff" d="M.0,.0L.0,18.7" stroke-width="2.666670083999634" fill="none"/><path stroke="#0873ff" d="M4.9,18.7L.0,28.5L-4.9,18.7L4.9,18.7" stroke-linecap="round" stroke-width="1" fill="#0873ff"/></g><g id="shape55" transform="translate(1031.931200,572.250000)"><path stroke="#0873ff" d="M11.0,.0L71.9,.0C78.0,.0,82.9,4.9,82.9,11.0L82.9,25.0C82.9,31.1,78.0,36.0,71.9,36.0L11.0,36.0C4.9,36.0,.0,31.1,.0,25.0L.0,11.0C.0,4.9,4.9,.0,11.0,.0z" fill="#0873ff" stroke-width="2.666670083999634" fill-rule="nonzero"/><text xml:space="preserve" style="fill:#ffffff;font-family:Segoe UI;font-size:12.00pt;font-weight:bold"><tspan y="25.1" x="11.9">Positiva</tspan></text></g><g id="shape56" transform="translate(852.758000,636.750000)"><path stroke="#0873ff" d="M11.0,.0L429.2,.0C435.3,.0,440.2,4.9,440.2,11.0L440.2,43.3C440.2,49.3,435.3,54.3,429.2,54.3L11.0,54.3C4.9,54.3,.0,49.3,.0,43.3L.0,11.0C.0,4.9,4.9,.0,11.0,.0z" fill="#ffffff" stroke-width="2.666670083999634" fill-rule="nonzero"/><text xml:space="preserve" style="fill:#0873ff;font-family:Segoe UI;font-size:12.00pt"><tspan y="21.6" x="9.7">Cuando prima la amplificación de las desviaciones. Amplifica</tspan><tspan y="44.0" x="45.3">y refuerza las variaciones con el fin de evolucionar.</tspan></text></g><g id="shape57" transform="translate(1073.400000,608.250000)"><path stroke="#0873ff" d="M.0,.0L-0.3,18.7" stroke-width="2.666670083999634" fill="none"/><path stroke="#0873ff" d="M4.6,18.8L-0.5,28.5L-5.2,18.6L4.6,18.8" stroke-linecap="round" stroke-width="1" fill="#0873ff"/></g><g id="shape58" transform="translate(1240.942500,98.500000)"><path stroke="#0873ff" d="M11.0,.0L64.9,.0C70.9,.0,75.9,4.9,75.9,11.0L75.9,25.0C75.9,31.1,70.9,36.0,64.9,36.0L11.0,36.0C4.9,36.0,.0,31.1,.0,25.0L.0,11.0C.0,4.9,4.9,.0,11.0,.0z" fill="#0873ff" stroke-width="2.666670083999634" fill-rule="nonzero"/><text xml:space="preserve" style="fill:#ffffff;font-family:Segoe UI;font-size:12.00pt;font-weight:bold"><tspan y="25.1" x="7.1">Sinergia</tspan></text></g><g id="shape59" transform="translate(1184.757500,162.500000)"><path stroke="#0873ff" d="M11.0,.0L181.2,.0C187.3,.0,192.2,4.9,192.2,11.0L192.2,109.8C192.2,115.8,187.3,120.8,181.2,120.8L11.0,120.8C4.9,120.8,.0,115.8,.0,109.8L.0,11.0C.0,4.9,4.9,.0,11.0,.0z" fill="#ffffff" stroke-width="2.666670083999634" fill-rule="nonzero"/><text xml:space="preserve" style="fill:#0873ff;font-family:Segoe UI;font-size:12.00pt"><tspan y="21.6" x="24.1">Es el funcionamiento </tspan><tspan y="44.0" x="6.5">conjunto de las partes del </tspan><tspan y="66.4" x="7.7">sistema que no puede ser </tspan><tspan y="88.8" x="24.1">provocado de forma </tspan><tspan y="111.2" x="28.5">individual por ellas.</tspan></text></g><g id="shape60" transform="translate(1278.880000,134.500000)"><path stroke="#0873ff" d="M.0,.0L1.3,18.2" stroke-width="2.666670083999634" fill="none"/><path stroke="#0873ff" d="M6.2,17.9L2.0,28.0L-3.6,18.6L6.2,17.9" stroke-linecap="round" stroke-width="1" fill="#0873ff"/></g><path stroke="#0873ff" d="M.0,.0L-0.0,24.0" stroke-width="2.666670083999634" fill="none" id="shape61" transform="translate(700.002000,47.000000)"/><path stroke="#0873ff" d="M.0,.0L1182.0,.0" stroke-width="2.666670083999634" fill="none" id="shape62" transform="translate(217.000000,70.000000)"/><g id="shape63" transform="translate(111.203500,742.750000)"><path stroke="#0873ff" d="M11.0,.0L64.9,.0C70.9,.0,75.9,4.9,75.9,11.0L75.9,25.0C75.9,31.1,70.9,36.0,64.9,36.0L11.0,36.0C4.9,36.0,.0,31.1,.0,25.0L.0,11.0C.0,4.9,4.9,.0,11.0,.0z" fill="#0873ff" stroke-width="2.666670083999634" fill-rule="nonzero"/><text xml:space="preserve" style="fill:#ffffff;font-family:Segoe UI;font-size:12.00pt;font-weight:bold"><tspan y="25.1" x="5.9">Entropía</tspan></text></g><g id="shape64" transform="translate(37.844000,806.500000)"><path stroke="#0873ff" d="M11.0,.0L211.6,.0C217.7,.0,222.6,4.9,222.6,11.0L222.6,82.3C222.6,88.3,217.7,93.3,211.6,93.3L11.0,93.3C4.9,93.3,.0,88.3,.0,82.3L.0,11.0C.0,4.9,4.9,.0,11.0,.0z" fill="#ffffff" stroke-width="2.666670083999634" fill-rule="nonzero"/><text xml:space="preserve" style="fill:#0873ff;font-family:Segoe UI;font-size:12.00pt"><tspan y="21.6" x="38.1">Todos los sistemas se </tspan><tspan y="44.0" x="7.7">desorganizarán con el tiempo </tspan><tspan y="66.4" x="9.3">hasta, al final, homogenizarse </tspan><tspan y="88.8" x="54.1">con el ambiente.</tspan></text></g><g id="shape65" transform="translate(149.141000,778.750000)"><path stroke="#0873ff" d="M.0,.0L.0,18.0" stroke-width="2.666670083999634" fill="none"/><path stroke="#0873ff" d="M4.9,18.0L.0,27.8L-4.9,18.0L4.9,18.0" stroke-linecap="round" stroke-width="1" fill="#0873ff"/></g><g id="shape66" transform="translate(89.141000,926.750000)"><path stroke="#0873ff" d="M11.0,.0L109.0,.0C115.1,.0,120.0,4.9,120.0,11.0L120.0,25.0C120.0,31.1,115.1,36.0,109.0,36.0L11.0,36.0C4.9,36.0,.0,31.1,.0,25.0L.0,11.0C.0,4.9,4.9,.0,11.0,.0z" fill="#0873ff" stroke-width="2.666670083999634" fill-rule="nonzero"/><text xml:space="preserve" style="fill:#ffffff;font-family:Segoe UI;font-size:12.00pt;font-weight:bold"><tspan y="25.1" x="7.6">Neguentropía</tspan></text></g><g id="shape67" transform="translate(37.844000,989.255000)"><path stroke="#0873ff" d="M11.0,.0L211.6,.0C217.7,.0,222.6,4.9,222.6,11.0L222.6,81.8C222.6,87.8,217.7,92.8,211.6,92.8L11.0,92.8C4.9,92.8,.0,87.8,.0,81.8L.0,11.0C.0,4.9,4.9,.0,11.0,.0z" fill="#ffffff" stroke-width="2.666670083999634" fill-rule="nonzero"/><text xml:space="preserve" style="fill:#0873ff;font-family:Segoe UI;font-size:12.00pt"><tspan y="21.6" x="13.7">De forma temporal, algunos </tspan><tspan y="44.0" x="33.3">sistemas revierten esta </tspan><tspan y="66.4" x="8.5">tendencia al importar energía </tspan><tspan y="88.8" x="64.1">del ambiente.</tspan></text></g><g id="shape68" transform="translate(149.141000,962.750000)"><path stroke="#0873ff" d="M.0,.0L.0,16.7" stroke-width="2.666670083999634" fill="none"/><path stroke="#0873ff" d="M4.9,16.7L.0,26.5L-4.9,16.7L4.9,16.7" stroke-linecap="round" stroke-width="1" fill="#0873ff"/></g><g id="shape69" transform="translate(149.141000,899.750000)"><path stroke="#0873ff" d="M.0,.0L.0,17.2" stroke-width="2.666670083999634" fill="none"/><path stroke="#0873ff" d="M4.9,17.2L.0,27.0L-4.9,17.2L4.9,17.2" stroke-linecap="round" stroke-width="1" fill="#0873ff"/></g><g id="shape70" transform="translate(302.828000,742.750000)"><path stroke="#0873ff" d="M11.0,.0L117.3,.0C123.3,.0,128.3,4.9,128.3,11.0L128.3,25.0C128.3,31.1,123.3,36.0,117.3,36.0L11.0,36.0C4.9,36.0,.0,31.1,.0,25.0L.0,11.0C.0,4.9,4.9,.0,11.0,.0z" fill="#0873ff" stroke-width="2.666670083999634" fill-rule="nonzero"/><text xml:space="preserve" style="fill:#ffffff;font-family:Segoe UI;font-size:12.00pt;font-weight:bold"><tspan y="25.1" x="18.1">Información</tspan></text></g><g id="shape71" transform="translate(288.187500,806.500000)"><path stroke="#0873ff" d="M11.0,.0L146.5,.0C152.6,.0,157.5,4.9,157.5,11.0L157.5,264.5C157.5,270.6,152.6,275.5,146.5,275.5L11.0,275.5C4.9,275.5,.0,270.6,.0,264.5L.0,11.0C.0,4.9,4.9,.0,11.0,.0z" fill="#ffffff" stroke-width="2.666670083999634" fill-rule="nonzero"/><text xml:space="preserve" style="fill:#0873ff;font-family:Segoe UI;font-size:12.00pt"><tspan y="21.6" x="28.0">La cantidad de </tspan><tspan y="44.0" x="21.6">información que </tspan><tspan y="66.4" x="22.0">permanece en el </tspan><tspan y="88.8" x="10.4">sistema es igual a la </tspan><tspan y="111.2" x="21.6">información que </tspan><tspan y="133.6" x="20.0">existe más la que </tspan><tspan y="156.0" x="30.0">entra; hay una </tspan><tspan y="178.4" x="4.0">agregación neta en la </tspan><tspan y="200.8" x="14.4">entrada, y la salida </tspan><tspan y="223.2" x="34.4">no elimina la </tspan><tspan y="245.6" x="24.0">información del </tspan><tspan y="268.0" x="51.2">sistema.</tspan></text></g><g id="shape72" transform="translate(366.953000,778.750000)"><path stroke="#0873ff" d="M.0,.0L.0,18.0" stroke-width="2.666670083999634" fill="none"/><path stroke="#0873ff" d="M4.9,18.0L.0,27.8L-4.9,18.0L4.9,18.0" stroke-linecap="round" stroke-width="1" fill="#0873ff"/></g><g id="shape73" transform="translate(754.156500,742.750000)"><path stroke="#0873ff" d="M11.0,.0L67.6,.0C73.7,.0,78.6,4.9,78.6,11.0L78.6,25.0C78.6,31.1,73.7,36.0,67.6,36.0L11.0,36.0C4.9,36.0,.0,31.1,.0,25.0L.0,11.0C.0,4.9,4.9,.0,11.0,.0z" fill="#0873ff" stroke-width="2.666670083999634" fill-rule="nonzero"/><text xml:space="preserve" style="fill:#ffffff;font-family:Segoe UI;font-size:12.00pt;font-weight:bold"><tspan y="25.1" x="6.9">Relación</tspan></text></g><g id="shape74" transform="translate(668.719000,806.500000)"><path stroke="#0873ff" d="M11.0,.0L238.5,.0C244.6,.0,249.5,4.9,249.5,11.0L249.5,110.0C249.5,116.1,244.6,121.0,238.5,121.0L11.0,121.0C4.9,121.0,.0,116.1,.0,110.0L.0,11.0C.0,4.9,4.9,.0,11.0,.0z" fill="#ffffff" stroke-width="2.666670083999634" fill-rule="nonzero"/><text xml:space="preserve" style="fill:#0873ff;font-family:Segoe UI;font-size:12.00pt"><tspan y="21.6" x="7.2">Las relaciones entre los elementos </tspan><tspan y="44.0" x="25.1">de un sistema, su ambiente y</tspan><tspan y="66.4" x="19.6">entre sistemas distintos, hacen</tspan><tspan y="88.8" x="16.8">que el funcionamiento de todo </tspan><tspan y="111.2" x="49.1">sistema sea complejo.</tspan></text></g><g id="shape75" transform="translate(793.469000,778.750000)"><path stroke="#0873ff" d="M.0,.0L.0,18.0" stroke-width="2.666670083999634" fill="none"/><path stroke="#0873ff" d="M4.9,18.0L.0,27.8L-4.9,18.0L4.9,18.0" stroke-linecap="round" stroke-width="1" fill="#0873ff"/></g><g id="shape76" transform="translate(517.656500,742.750000)"><path stroke="#0873ff" d="M11.0,.0L67.6,.0C73.7,.0,78.6,4.9,78.6,11.0L78.6,25.0C78.6,31.1,73.7,36.0,67.6,36.0L11.0,36.0C4.9,36.0,.0,31.1,.0,25.0L.0,11.0C.0,4.9,4.9,.0,11.0,.0z" fill="#0873ff" stroke-width="2.666670083999634" fill-rule="nonzero"/><text xml:space="preserve" style="fill:#ffffff;font-family:Segoe UI;font-size:12.00pt;font-weight:bold"><tspan y="25.1" x="7.3">Frontera</tspan></text></g><g id="shape77" transform="translate(473.469000,806.500000)"><path stroke="#0873ff" d="M11.0,.0L156.0,.0C162.1,.0,167.0,4.9,167.0,11.0L167.0,110.0C167.0,116.1,162.1,121.0,156.0,121.0L11.0,121.0C4.9,121.0,.0,116.1,.0,110.0L.0,11.0C.0,4.9,4.9,.0,11.0,.0z" fill="#ffffff" stroke-width="2.666670083999634" fill-rule="nonzero"/><text xml:space="preserve" style="fill:#0873ff;font-family:Segoe UI;font-size:12.00pt"><tspan y="21.6" x="18.7">Es el límite entre el </tspan><tspan y="44.0" x="10.3">sistema y su entorno; </tspan><tspan y="66.4" x="37.9">define lo que </tspan><tspan y="88.8" x="19.1">pertenece y lo que </tspan><tspan y="111.2" x="40.3">queda fuera.</tspan></text></g><g id="shape78" transform="translate(556.969000,778.750000)"><path stroke="#0873ff" d="M.0,.0L.0,18.0" stroke-width="2.666670083999634" fill="none"/><path stroke="#0873ff" d="M4.9,18.0L.0,27.8L-4.9,18.0L4.9,18.0" stroke-linecap="round" stroke-width="1" fill="#0873ff"/></g><path stroke="#0873ff" d="M.0,.0L-0.0,25.8" stroke-width="2.666670083999634" fill="none" id="shape79" transform="translate(556.969000,927.500000)"/><g id="shape80" transform="translate(540.399000,953.250000)"><path stroke="#0873ff" d="M.0,.0L.0,18.2" stroke-width="2.666670083999634" fill="none"/><path stroke="#0873ff" d="M4.9,18.2L.0,28.0L-4.9,18.2L4.9,18.2" stroke-linecap="round" stroke-width="1" fill="#0873ff"/></g><path stroke="#0873ff" d="M.0,.0L166.1,.0" stroke-width="2.666670083999634" fill="none" id="shape81" transform="translate(539.399000,953.250000)"/><g id="shape82" transform="translate(704.469000,952.230000)"><path stroke="#0873ff" d="M.0,.0L.1,20.2" stroke-width="2.666670083999634" fill="none"/><path stroke="#0873ff" d="M5.0,20.2L.1,30.0L-4.8,20.2L5.0,20.2" stroke-linecap="round" stroke-width="1" fill="#0873ff"/></g><g id="shape83" transform="translate(511.656700,981.250000)"><path stroke="#0873ff" d="M11.0,.0L46.8,.0C52.9,.0,57.8,4.9,57.8,11.0L57.8,25.0C57.8,31.1,52.9,36.0,46.8,36.0L11.0,36.0C4.9,36.0,.0,31.1,.0,25.0L.0,11.0C.0,4.9,4.9,.0,11.0,.0z" fill="#0873ff" stroke-width="2.666670083999634" fill-rule="nonzero"/><text xml:space="preserve" style="fill:#ffffff;font-family:Segoe UI;font-size:12.00pt;font-weight:bold"><tspan y="25.1" x="8.1">Física</tspan></text></g><g id="shape84" transform="translate(473.469000,1045.005000)"><path stroke="#0873ff" d="M11.0,.0L124.0,.0C130.1,.0,135.0,4.9,135.0,11.0L135.0,63.3C135.0,69.3,130.1,74.3,124.0,74.3L11.0,74.3C4.9,74.3,.0,69.3,.0,63.3L.0,11.0C.0,4.9,4.9,.0,11.0,.0z" fill="#ffffff" stroke-width="2.666670083999634" fill-rule="nonzero"/><text xml:space="preserve" style="fill:#0873ff;font-family:Segoe UI;font-size:12.00pt"><tspan y="21.6" x="15.5">Es una frontera </tspan><tspan y="44.0" x="30.3">geográfica </tspan><tspan y="66.4" x="28.7">delimitada.</tspan></text></g><g id="shape85" transform="translate(540.563000,1017.250000)"><path stroke="#0873ff" d="M.0,.0L.3,18.0" stroke-width="2.666670083999634" fill="none"/><path stroke="#0873ff" d="M5.2,17.9L.4,27.8L-4.6,18.0L5.2,17.9" stroke-linecap="round" stroke-width="1" fill="#0873ff"/></g><g id="shape86" transform="translate(660.652800,981.250000)"><path stroke="#0873ff" d="M11.0,.0L76.8,.0C82.9,.0,87.8,4.9,87.8,11.0L87.8,25.0C87.8,31.1,82.9,36.0,76.8,36.0L11.0,36.0C4.9,36.0,.0,31.1,.0,25.0L.0,11.0C.0,4.9,4.9,.0,11.0,.0z" fill="#0873ff" stroke-width="2.666670083999634" fill-rule="nonzero"/><text xml:space="preserve" style="fill:#ffffff;font-family:Segoe UI;font-size:12.00pt;font-weight:bold"><tspan y="25.1" x="7.5">Funcional</tspan></text></g><g id="shape87" transform="translate(636.469000,1045.005000)"><path stroke="#0873ff" d="M11.0,.0L124.0,.0C130.1,.0,135.0,4.9,135.0,11.0L135.0,63.3C135.0,69.3,130.1,74.3,124.0,74.3L11.0,74.3C4.9,74.3,.0,69.3,.0,63.3L.0,11.0C.0,4.9,4.9,.0,11.0,.0z" fill="#ffffff" stroke-width="2.666670083999634" fill-rule="nonzero"/><text xml:space="preserve" style="fill:#0873ff;font-family:Segoe UI;font-size:12.00pt"><tspan y="21.6" x="45.5">Es una </tspan><tspan y="44.0" x="16.3">articulación de </tspan><tspan y="66.4" x="45.1">tareas.</tspan></text></g><g id="shape88" transform="translate(704.561000,1017.250000)"><path stroke="#0873ff" d="M.0,.0L-0.4,18.0" stroke-width="2.666670083999634" fill="none"/><path stroke="#0873ff" d="M4.5,18.1L-0.6,27.8L-5.3,17.8L4.5,18.1" stroke-linecap="round" stroke-width="1" fill="#0873ff"/></g><g id="shape89" transform="translate(1027.157500,742.750000)"><path stroke="#0873ff" d="M11.0,.0L67.6,.0C73.7,.0,78.6,4.9,78.6,11.0L78.6,25.0C78.6,31.1,73.7,36.0,67.6,36.0L11.0,36.0C4.9,36.0,.0,31.1,.0,25.0L.0,11.0C.0,4.9,4.9,.0,11.0,.0z" fill="#0873ff" stroke-width="2.666670083999634" fill-rule="nonzero"/><text xml:space="preserve" style="fill:#ffffff;font-family:Segoe UI;font-size:12.00pt;font-weight:bold"><tspan y="25.1" x="9.3">Entorno</tspan></text></g><g id="shape90" transform="translate(945.720000,806.500000)"><path stroke="#0873ff" d="M11.0,.0L230.5,.0C236.6,.0,241.5,4.9,241.5,11.0L241.5,110.0C241.5,116.1,236.6,121.0,230.5,121.0L11.0,121.0C4.9,121.0,.0,116.1,.0,110.0L.0,11.0C.0,4.9,4.9,.0,11.0,.0z" fill="#ffffff" stroke-width="2.666670083999634" fill-rule="nonzero"/><text xml:space="preserve" style="fill:#0873ff;font-family:Segoe UI;font-size:12.00pt"><tspan y="21.6" x="8.0">Es el conjunto de cosas, sistemas </tspan><tspan y="44.0" x="31.9">y fenómenos exteriores al</tspan><tspan y="66.4" x="23.6">sistema pero que lo afectan. </tspan><tspan y="88.8" x="26.4">Condiciona al sistema y sus</tspan><tspan y="111.2" x="4.3">cambios los afectan mutuamente.</tspan></text></g><g id="shape91" transform="translate(1066.470000,778.750000)"><path stroke="#0873ff" d="M.0,.0L.0,18.0" stroke-width="2.666670083999634" fill="none"/><path stroke="#0873ff" d="M4.9,18.0L.0,27.8L-4.9,18.0L4.9,18.0" stroke-linecap="round" stroke-width="1" fill="#0873ff"/></g><path stroke="#0873ff" d="M.0,.0L-0.0,25.8" stroke-width="2.666670083999634" fill="none" id="shape92" transform="translate(1066.470000,927.500000)"/><g id="shape93" transform="translate(934.647000,953.250000)"><path stroke="#0873ff" d="M.0,.0L.0,18.2" stroke-width="2.666670083999634" fill="none"/><path stroke="#0873ff" d="M4.9,18.2L.0,28.0L-4.9,18.2L4.9,18.2" stroke-linecap="round" stroke-width="1" fill="#0873ff"/></g><path stroke="#0873ff" d="M.0,.0L176.6,.0" stroke-width="2.666670083999634" fill="none" id="shape94" transform="translate(933.647000,953.250000)"/><g id="shape95" transform="translate(1109.220000,952.230000)"><path stroke="#0873ff" d="M.0,.0L.1,20.2" stroke-width="2.666670083999634" fill="none"/><path stroke="#0873ff" d="M5.0,20.2L.1,30.0L-4.8,20.2L5.0,20.2" stroke-linecap="round" stroke-width="1" fill="#0873ff"/></g><g id="shape96" transform="translate(905.900800,981.250000)"><path stroke="#0873ff" d="M11.0,.0L48.3,.0C54.4,.0,59.3,4.9,59.3,11.0L59.3,25.0C59.3,31.1,54.4,36.0,48.3,36.0L11.0,36.0C4.9,36.0,.0,31.1,.0,25.0L.0,11.0C.0,4.9,4.9,.0,11.0,.0z" fill="#0873ff" stroke-width="2.666670083999634" fill-rule="nonzero"/><text xml:space="preserve" style="fill:#ffffff;font-family:Segoe UI;font-size:12.00pt;font-weight:bold"><tspan y="25.1" x="5.3">Activo</tspan></text></g><g id="shape97" transform="translate(867.717000,1045.005000)"><path stroke="#0873ff" d="M11.0,.0L124.0,.0C130.1,.0,135.0,4.9,135.0,11.0L135.0,63.3C135.0,69.3,130.1,74.3,124.0,74.3L11.0,74.3C4.9,74.3,.0,69.3,.0,63.3L.0,11.0C.0,4.9,4.9,.0,11.0,.0z" fill="#ffffff" stroke-width="2.666670083999634" fill-rule="nonzero"/><text xml:space="preserve" style="fill:#0873ff;font-family:Segoe UI;font-size:12.00pt"><tspan y="21.6" x="9.5">Afecta al sistema </tspan><tspan y="44.0" x="8.7">por medio de las </tspan><tspan y="66.4" x="35.9">entradas.</tspan></text></g><g id="shape98" transform="translate(935.559000,1017.250000)"><path stroke="#0873ff" d="M.0,.0L-0.2,18.0" stroke-width="2.666670083999634" fill="none"/><path stroke="#0873ff" d="M4.7,18.0L-0.3,27.8L-5.1,17.9L4.7,18.0" stroke-linecap="round" stroke-width="1" fill="#0873ff"/></g><g id="shape99" transform="translate(1079.651800,981.250000)"><path stroke="#0873ff" d="M11.0,.0L48.3,.0C54.4,.0,59.3,4.9,59.3,11.0L59.3,25.0C59.3,31.1,54.4,36.0,48.3,36.0L11.0,36.0C4.9,36.0,.0,31.1,.0,25.0L.0,11.0C.0,4.9,4.9,.0,11.0,.0z" fill="#0873ff" stroke-width="2.666670083999634" fill-rule="nonzero"/><text xml:space="preserve" style="fill:#ffffff;font-family:Segoe UI;font-size:12.00pt;font-weight:bold"><tspan y="25.1" x="5.3">Pasivo</tspan></text></g><g id="shape100" transform="translate(1031.220000,1045.005000)"><path stroke="#0873ff" d="M11.0,.0L145.0,.0C151.1,.0,156.0,4.9,156.0,11.0L156.0,63.3C156.0,69.3,151.1,74.3,145.0,74.3L11.0,74.3C4.9,74.3,.0,69.3,.0,63.3L.0,11.0C.0,4.9,4.9,.0,11.0,.0z" fill="#ffffff" stroke-width="2.666670083999634" fill-rule="nonzero"/><text xml:space="preserve" style="fill:#0873ff;font-family:Segoe UI;font-size:12.00pt"><tspan y="21.6" x="12.4">Recibe las acciones </tspan><tspan y="44.0" x="24.8">del sistema por </tspan><tspan y="66.4" x="6.8">medio de las salidas.</tspan></text></g><g id="shape101" transform="translate(1109.310000,1017.250000)"><path stroke="#0873ff" d="M.0,.0L-0.1,18.0" stroke-width="2.666670083999634" fill="none"/><path stroke="#0873ff" d="M4.8,18.0L-0.1,27.8L-5.0,17.9L4.8,18.0" stroke-linecap="round" stroke-width="1" fill="#0873ff"/></g><g id="shape102" transform="translate(1230.105000,742.750000)"><path stroke="#0873ff" d="M11.0,.0L117.3,.0C123.3,.0,128.3,4.9,128.3,11.0L128.3,25.0C128.3,31.1,123.3,36.0,117.3,36.0L11.0,36.0C4.9,36.0,.0,31.1,.0,25.0L.0,11.0C.0,4.9,4.9,.0,11.0,.0z" fill="#0873ff" stroke-width="2.666670083999634" fill-rule="nonzero"/><text xml:space="preserve" style="fill:#ffffff;font-family:Segoe UI;font-size:12.00pt;font-weight:bold"><tspan y="25.1" x="14.1">Organización</tspan></text></g><g id="shape103" transform="translate(1215.462200,806.500000)"><path stroke="#0873ff" d="M11.0,.0L150.5,.0C156.6,.0,161.5,4.9,161.5,11.0L161.5,289.5C161.5,295.6,156.6,300.5,150.5,300.5L11.0,300.5C4.9,300.5,.0,295.6,.0,289.5L.0,11.0C.0,4.9,4.9,.0,11.0,.0z" fill="#ffffff" stroke-width="2.666670083999634" fill-rule="nonzero"/><text xml:space="preserve" style="fill:#0873ff;font-family:Segoe UI;font-size:12.00pt"><tspan y="21.6" x="4.0">Se refiere al patrón de </tspan><tspan y="44.0" x="7.2">relaciones que define </tspan><tspan y="66.4" x="10.0">la variabilidad de un </tspan><tspan y="88.8" x="6.0">sistema determinado. </tspan><tspan y="111.2" x="24.0">Es la disposición </tspan><tspan y="133.6" x="24.4">relacional de los </tspan><tspan y="156.0" x="18.0">componentes que </tspan><tspan y="178.4" x="35.2">configuran la </tspan><tspan y="200.8" x="3.6">estructura del sistema, </tspan><tspan y="223.2" x="19.2">a través de la cual </tspan><tspan y="245.6" x="11.6">fluye la dinámica de </tspan><tspan y="268.0" x="6.8">este hacia el logro de </tspan><tspan y="290.4" x="34.0">sus objetivos.</tspan></text></g><g id="shape104" transform="translate(1294.230000,778.750000)"><path stroke="#0873ff" d="M.0,.0L1.3,18.0" stroke-width="2.666670083999634" fill="none"/><path stroke="#0873ff" d="M6.2,17.6L2.0,27.8L-3.6,18.3L6.2,17.6" stroke-linecap="round" stroke-width="1" fill="#0873ff"/></g><g id="shape105" transform="translate(218.410000,68.480000)"><path stroke="#0873ff" d="M.0,.0L.1,20.2" stroke-width="2.666670083999634" fill="none"/><path stroke="#0873ff" d="M5.0,20.2L.1,30.0L-4.8,20.2L5.0,20.2" stroke-linecap="round" stroke-width="1" fill="#0873ff"/></g><g id="shape106" transform="translate(505.751000,70.000000)"><path stroke="#0873ff" d="M.0,.0L-0.0,18.7" stroke-width="2.666670083999634" fill="none"/><path stroke="#0873ff" d="M4.9,18.7L-0.0,28.5L-4.9,18.7L4.9,18.7" stroke-linecap="round" stroke-width="1" fill="#0873ff"/></g><g id="shape107" transform="translate(716.880000,70.000000)"><path stroke="#0873ff" d="M.0,.0L-0.0,18.7" stroke-width="2.666670083999634" fill="none"/><path stroke="#0873ff" d="M4.9,18.7L-0.0,28.5L-4.9,18.7L4.9,18.7" stroke-linecap="round" stroke-width="1" fill="#0873ff"/></g><g id="shape108" transform="translate(896.496000,70.000000)"><path stroke="#0873ff" d="M.0,.0L.0,18.7" stroke-width="2.666670083999634" fill="none"/><path stroke="#0873ff" d="M4.9,18.7L.0,28.5L-4.9,18.7L4.9,18.7" stroke-linecap="round" stroke-width="1" fill="#0873ff"/></g><g id="shape109" transform="translate(1077.500000,70.000000)"><path stroke="#0873ff" d="M.0,.0L.0,18.7" stroke-width="2.666670083999634" fill="none"/><path stroke="#0873ff" d="M4.9,18.7L.0,28.5L-4.9,18.7L4.9,18.7" stroke-linecap="round" stroke-width="1" fill="#0873ff"/></g><g id="shape110" transform="translate(1278.870000,70.000000)"><path stroke="#0873ff" d="M.0,.0L.0,18.7" stroke-width="2.666670083999634" fill="none"/><path stroke="#0873ff" d="M4.9,18.7L.0,28.5L-4.9,18.7L4.9,18.7" stroke-linecap="round" stroke-width="1" fill="#0873ff"/></g><path stroke="#0873ff" d="M.0,.0L1249.9,.0" stroke-width="2.666670083999634" fill="none" id="shape111" transform="translate(149.067000,715.000000)"/><path stroke="#0873ff" d="M.0,.0L-0.0,645.0" stroke-width="2.666670083999634" fill="none" id="shape112" transform="translate(1398.000000,70.000000)"/><g id="shape113" transform="translate(149.051000,713.730000)"><path stroke="#0873ff" d="M.0,.0L.1,20.2" stroke-width="2.666670083999634" fill="none"/><path stroke="#0873ff" d="M5.0,20.2L.1,30.0L-4.8,20.2L5.0,20.2" stroke-linecap="round" stroke-width="1" fill="#0873ff"/></g><g id="shape114" transform="translate(366.955000,715.000000)"><path stroke="#0873ff" d="M.0,.0L-0.0,18.0" stroke-width="2.666670083999634" fill="none"/><path stroke="#0873ff" d="M4.9,18.0L-0.0,27.8L-4.9,18.0L4.9,18.0" stroke-linecap="round" stroke-width="1" fill="#0873ff"/></g><g id="shape115" transform="translate(556.969000,715.000000)"><path stroke="#0873ff" d="M.0,.0L-0.0,18.0" stroke-width="2.666670083999634" fill="none"/><path stroke="#0873ff" d="M4.9,18.0L-0.0,27.8L-4.9,18.0L4.9,18.0" stroke-linecap="round" stroke-width="1" fill="#0873ff"/></g><g id="shape116" transform="translate(793.468000,715.000000)"><path stroke="#0873ff" d="M.0,.0L.0,18.0" stroke-width="2.666670083999634" fill="none"/><path stroke="#0873ff" d="M4.9,18.0L.0,27.8L-4.9,18.0L4.9,18.0" stroke-linecap="round" stroke-width="1" fill="#0873ff"/></g><g id="shape117" transform="translate(1066.470000,715.000000)"><path stroke="#0873ff" d="M.0,.0L.0,18.0" stroke-width="2.666670083999634" fill="none"/><path stroke="#0873ff" d="M4.9,18.0L.0,27.8L-4.9,18.0L4.9,18.0" stroke-linecap="round" stroke-width="1" fill="#0873ff"/></g><g id="shape118" transform="translate(1294.240000,715.000000)"><path stroke="#0873ff" d="M.0,.0L-0.0,18.0" stroke-width="2.666670083999634" fill="none"/><path stroke="#0873ff" d="M4.9,18.0L-0.0,27.8L-4.9,18.0L4.9,18.0" stroke-linecap="round" stroke-width="1" fill="#0873ff"/></g><g id="shape119" transform="translate(1.470000,1152.000000)"><path stroke="#0873ff" d="M11.0,.0L285.5,.0C291.6,.0,296.5,4.9,296.5,11.0L296.5,43.0C296.5,49.1,291.6,54.0,285.5,54.0L11.0,54.0C4.9,54.0,.0,49.1,.0,43.0L.0,11.0C.0,4.9,4.9,.0,11.0,.0z" fill="#0873ff" stroke-width="2.666670083999634" fill-rule="nonzero"/><text xml:space="preserve" style="fill:#ffffff;font-family:Segoe UI;font-size:12.00pt"><tspan y="21.6" x="3.5">Realización:</tspan><tspan y="44.0" x="3.5">   Dager Asleth Salazar Sosa (204016_62)</tspan></text></g><g id="shape120" transform="translate(325.470000,1147.000000)"><path stroke="#0873ff" d="M11.0,.0L884.5,.0C890.6,.0,895.5,4.9,895.5,11.0L895.5,152.0C895.5,158.1,890.6,163.0,884.5,163.0L11.0,163.0C4.9,163.0,.0,158.1,.0,152.0L.0,11.0C.0,4.9,4.9,.0,11.0,.0z" fill="#0873ff" stroke-width="2.666670083999634" fill-rule="nonzero"/><text xml:space="preserve" style="fill:#ffffff;font-family:Segoe UI;font-size:12.00pt"><tspan y="21.6" x="3.5">Bibliografía:</tspan><tspan y="44.0" x="3.5">   Arnold, M. (1998). Introducción a los Conceptos Básicos de la Teoría General de Sistemas. Cinta de Moebio. Revista de </tspan><tspan y="66.4" x="3.5">                   Epistemología de Ciencias Sociales, (3), 40-49, https://reistas.uchile.cl/index.php/CDM/article/view/26455/27748</tspan><tspan y="88.8" x="3.5">   Zapata Domínguez, Á. (2009). Teoría General de Sistemas. En Gutiérrez, A.(Eds.), Teorías contemporáneas de la organización </tspan><tspan y="111.2" x="3.5">                   y del management. Ecoe Ediciones.</tspan><tspan y="133.6" x="3.5">   Estrada, E.L. (1996). La Teoría general de sistemas: Conceptos Básicos. En García Paredes, H (Eds). Teoría general de sistemas 	</tspan><tspan y="156.0" x="3.5">                   aplicada a la solución integral de problemas. Universidad del valle.</tspan></text></g><g id="shape121" transform="translate(668.441000,544.230000)"><path stroke="#0873ff" d="M.0,.0L.1,20.2" stroke-width="2.666670083999634" fill="none"/><path stroke="#0873ff" d="M5.0,20.2L.1,30.0L-4.8,20.2L5.0,20.2" stroke-linecap="round" stroke-width="1" fill="#0873ff"/></g><g id="shape122" transform="translate(944.910000,307.980000)"><path stroke="#0873ff" d="M.0,.0L.1,20.2" stroke-width="2.666670083999634" fill="none"/><path stroke="#0873ff" d="M5.0,20.2L.1,30.0L-4.8,20.2L5.0,20.2" stroke-linecap="round" stroke-width="1" fill="#0873ff"/></g></g></svg>