<svg xmlns="http://www.w3.org/2000/svg" width="2396" xmlns:xlink="http://www.w3.org/1999/xlink" viewBox="0 0 2396 961" xmlns:ev="http://www.w3.org/2001/xml-events" height="961"><defs/><g transform="translate(5.5,5.5)" id="page1"><rect y="0" x="0" width="2386" height="951" fill="none"/><g transform="translate(2.520000,894.000550)" id="shape1"><path d="M310.2,48.3L310.2,7.0C310.2,3.1,307.1,.0,303.2,.0L7.0,.0C3.1,.0,.0,3.1,.0,7.0L.0,48.3C.0,52.2,3.1,55.3,7.0,55.3L303.2,55.3C307.1,55.3,310.2,52.2,310.2,48.3z" stroke="#000000" stroke-width="2.666670083999634" fill="none"/><text style="fill:#000000;font-family:Arial Narrow;font-size:14.00pt" xml:space="preserve"><tspan y="20.0" x="3.3">Realización:</tspan><tspan y="41.6" x="3.3">   Dager Asleth Salazar Sosa (204041_77)</tspan></text></g><g transform="translate(1142.376500,0.874150)" id="shape2"><path d="M4.0,.0L97.7,.0C99.9,.0,101.7,1.8,101.7,4.0L101.7,55.7C101.7,57.9,99.9,59.7,97.7,59.7L4.0,59.7C1.8,59.7,.0,57.9,.0,55.7L.0,4.0C.0,1.8,1.8,.0,4.0,.0z" stroke="#000000" stroke-width="2.666670083999634" fill="none"/><text style="fill:#000000;font-family:Arial Narrow;font-size:14.00pt" xml:space="preserve"><tspan y="33.8" x="23.8">D: Jhon</tspan></text></g><path transform="translate(1486.09,90.54)" stroke-linecap="round" d="M-292.9,-30.0L-292.9,-7.3C-292.9,-5.6,-291.5,-4.3,-289.9,-4.3L289.9,-4.3C291.5,-4.3,292.9,-3.0,292.9,-1.3L292.9,30.0" stroke="#000000" stroke-width="2.666670083999634" id="shape3" fill="none"/><path transform="translate(900.33,90.54)" stroke-linecap="round" d="M292.9,-30.0L292.9,-7.3C292.9,-5.6,291.5,-4.3,289.9,-4.3L-289.9,-4.3C-291.5,-4.3,-292.9,-3.0,-292.9,-1.3L-292.9,30.0" stroke="#000000" stroke-width="2.666670083999634" id="shape4" fill="none"/><path transform="translate(391.08,188.71)" stroke-linecap="round" d="M216.4,-22.5L216.4,-4.3C216.4,-2.6,215.0,-1.3,213.4,-1.3L-213.4,-1.3C-215.0,-1.3,-216.4,.0,-216.4,1.7L-216.4,22.5" stroke="#000000" stroke-width="2.666670083999634" id="shape5" fill="none"/><path transform="translate(535.33,188.71)" stroke-linecap="round" d="M72.1,-22.5L72.1,-4.3C72.1,-2.6,70.8,-1.3,69.1,-1.3L-69.1,-1.3C-70.8,-1.3,-72.1,.0,-72.1,1.7L-72.1,22.5" stroke="#000000" stroke-width="2.666670083999634" id="shape6" fill="none"/><path transform="translate(679.58,188.71)" stroke-linecap="round" d="M-72.1,-22.5L-72.1,-4.3C-72.1,-2.6,-70.8,-1.3,-69.1,-1.3L69.1,-1.3C70.8,-1.3,72.1,.0,72.1,1.7L72.1,22.5" stroke="#000000" stroke-width="2.666670083999634" id="shape7" fill="none"/><path transform="translate(823.83,188.71)" stroke-linecap="round" d="M-216.4,-22.5L-216.4,-4.3C-216.4,-2.6,-215.0,-1.3,-213.4,-1.3L213.4,-1.3C215.0,-1.3,216.4,.0,216.4,1.7L216.4,22.5" stroke="#000000" stroke-width="2.666670083999634" id="shape8" fill="none"/><path transform="translate(1562.59,188.71)" stroke-linecap="round" d="M216.4,-22.5L216.4,-4.3C216.4,-2.6,215.0,-1.3,213.4,-1.3L-213.4,-1.3C-215.0,-1.3,-216.4,.0,-216.4,1.7L-216.4,22.5" stroke="#000000" stroke-width="2.666670083999634" id="shape9" fill="none"/><path transform="translate(1706.84,188.71)" stroke-linecap="round" d="M72.1,-22.5L72.1,-4.3C72.1,-2.6,70.8,-1.3,69.1,-1.3L-69.1,-1.3C-70.8,-1.3,-72.1,.0,-72.1,1.7L-72.1,22.5" stroke="#000000" stroke-width="2.666670083999634" id="shape10" fill="none"/><path transform="translate(1851.09,188.71)" stroke-linecap="round" d="M-72.1,-22.5L-72.1,-4.3C-72.1,-2.6,-70.8,-1.3,-69.1,-1.3L69.1,-1.3C70.8,-1.3,72.1,.0,72.1,1.7L72.1,22.5" stroke="#000000" stroke-width="2.666670083999634" id="shape11" fill="none"/><path transform="translate(1995.34,188.71)" stroke-linecap="round" d="M-216.4,-22.5L-216.4,-4.3C-216.4,-2.6,-215.0,-1.3,-213.4,-1.3L213.4,-1.3C215.0,-1.3,216.4,.0,216.4,1.7L216.4,22.5" stroke="#000000" stroke-width="2.666670083999634" id="shape12" fill="none"/><path transform="translate(1562.58,443.50)" stroke-linecap="round" d="M216.4,-22.5L216.4,-4.3C216.4,-2.6,215.0,-1.3,213.4,-1.3L-213.4,-1.3C-215.0,-1.3,-216.4,.0,-216.4,1.7L-216.4,22.5" stroke="#000000" stroke-width="2.666670083999634" id="shape13" fill="none"/><path transform="translate(1706.83,443.50)" stroke-linecap="round" d="M72.1,-22.5L72.1,-4.3C72.1,-2.6,70.8,-1.3,69.1,-1.3L-69.1,-1.3C-70.8,-1.3,-72.1,.0,-72.1,1.7L-72.1,22.5" stroke="#000000" stroke-width="2.666670083999634" id="shape14" fill="none"/><path transform="translate(1851.09,443.50)" stroke-linecap="round" d="M-72.1,-22.5L-72.1,-4.3C-72.1,-2.6,-70.8,-1.3,-69.1,-1.3L69.1,-1.3C70.8,-1.3,72.1,.0,72.1,1.7L72.1,22.5" stroke="#000000" stroke-width="2.666670083999634" id="shape15" fill="none"/><path transform="translate(1995.34,443.50)" stroke-linecap="round" d="M-216.4,-22.5L-216.4,-4.3C-216.4,-2.6,-215.0,-1.3,-213.4,-1.3L213.4,-1.3C215.0,-1.3,216.4,.0,216.4,1.7L216.4,22.5" stroke="#000000" stroke-width="2.666670083999634" id="shape16" fill="none"/><path transform="translate(391.08,443.50)" stroke-linecap="round" d="M216.4,-22.5L216.4,-4.3C216.4,-2.6,215.0,-1.3,213.4,-1.3L-213.4,-1.3C-215.0,-1.3,-216.4,.0,-216.4,1.7L-216.4,22.5" stroke="#000000" stroke-width="2.666670083999634" id="shape17" fill="none"/><path transform="translate(535.33,443.50)" stroke-linecap="round" d="M72.1,-22.5L72.1,-4.3C72.1,-2.6,70.8,-1.3,69.1,-1.3L-69.1,-1.3C-70.8,-1.3,-72.1,.0,-72.1,1.7L-72.1,22.5" stroke="#000000" stroke-width="2.666670083999634" id="shape18" fill="none"/><path transform="translate(679.58,443.50)" stroke-linecap="round" d="M-72.1,-22.5L-72.1,-4.3C-72.1,-2.6,-70.8,-1.3,-69.1,-1.3L69.1,-1.3C70.8,-1.3,72.1,.0,72.1,1.7L72.1,22.5" stroke="#000000" stroke-width="2.666670083999634" id="shape19" fill="none"/><path transform="translate(823.83,443.50)" stroke-linecap="round" d="M-216.4,-22.5L-216.4,-4.3C-216.4,-2.6,-215.0,-1.3,-213.4,-1.3L213.4,-1.3C215.0,-1.3,216.4,.0,216.4,1.7L216.4,22.5" stroke="#000000" stroke-width="2.666670083999634" id="shape20" fill="none"/><path transform="translate(391.08,709.50)" stroke-linecap="round" d="M216.4,-22.5L216.4,-4.3C216.4,-2.6,215.0,-1.3,213.4,-1.3L-213.4,-1.3C-215.0,-1.3,-216.4,.0,-216.4,1.7L-216.4,22.5" stroke="#000000" stroke-width="2.666670083999634" id="shape21" fill="none"/><path transform="translate(535.33,709.50)" stroke-linecap="round" d="M72.1,-22.5L72.1,-4.3C72.1,-2.6,70.8,-1.3,69.1,-1.3L-69.1,-1.3C-70.8,-1.3,-72.1,.0,-72.1,1.7L-72.1,22.5" stroke="#000000" stroke-width="2.666670083999634" id="shape22" fill="none"/><path transform="translate(679.58,709.50)" stroke-linecap="round" d="M-72.1,-22.5L-72.1,-4.3C-72.1,-2.6,-70.8,-1.3,-69.1,-1.3L69.1,-1.3C70.8,-1.3,72.1,.0,72.1,1.7L72.1,22.5" stroke="#000000" stroke-width="2.666670083999634" id="shape23" fill="none"/><path transform="translate(823.83,709.50)" stroke-linecap="round" d="M-216.4,-22.5L-216.4,-4.3C-216.4,-2.6,-215.0,-1.3,-213.4,-1.3L213.4,-1.3C215.0,-1.3,216.4,.0,216.4,1.7L216.4,22.5" stroke="#000000" stroke-width="2.666670083999634" id="shape24" fill="none"/><path transform="translate(126.63,269.37)" stroke-linecap="round" d="M48.1,-22.5L48.1,-4.3C48.1,-2.6,46.7,-1.3,45.1,-1.3L-45.1,-1.3C-46.7,-1.3,-48.1,.0,-48.1,1.7L-48.1,22.5" stroke="#000000" stroke-width="2.666670083999634" id="shape25" fill="none"/><path transform="translate(174.71,269.37)" stroke-linecap="round" d="M.0,-22.5L.0,-1.3C.0,-1.3,.0,-1.3,.0,-1.3L.0,22.5" stroke="#000000" stroke-width="2.666670083999634" id="shape26" fill="none"/><path transform="translate(222.79,269.37)" stroke-linecap="round" d="M-48.1,-22.5L-48.1,-4.3C-48.1,-2.6,-46.7,-1.3,-45.1,-1.3L45.1,-1.3C46.7,-1.3,48.1,.0,48.1,1.7L48.1,22.5" stroke="#000000" stroke-width="2.666670083999634" id="shape27" fill="none"/><path transform="translate(415.13,269.37)" stroke-linecap="round" d="M48.1,-22.5L48.1,-4.3C48.1,-2.6,46.7,-1.3,45.1,-1.3L-45.1,-1.3C-46.7,-1.3,-48.1,.0,-48.1,1.7L-48.1,22.5" stroke="#000000" stroke-width="2.666670083999634" id="shape28" fill="none"/><path transform="translate(463.21,269.37)" stroke-linecap="round" d="M.0,-22.5L.0,-1.3C.0,-1.3,.0,-1.3,.0,-1.3L.0,22.5" stroke="#000000" stroke-width="2.666670083999634" id="shape29" fill="none"/><path transform="translate(511.29,269.37)" stroke-linecap="round" d="M-48.1,-22.5L-48.1,-4.3C-48.1,-2.6,-46.7,-1.3,-45.1,-1.3L45.1,-1.3C46.7,-1.3,48.1,.0,48.1,1.7L48.1,22.5" stroke="#000000" stroke-width="2.666670083999634" id="shape30" fill="none"/><path transform="translate(703.63,269.37)" stroke-linecap="round" d="M48.1,-22.5L48.1,-4.3C48.1,-2.6,46.7,-1.3,45.1,-1.3L-45.1,-1.3C-46.7,-1.3,-48.1,.0,-48.1,1.7L-48.1,22.5" stroke="#000000" stroke-width="2.666670083999634" id="shape31" fill="none"/><path transform="translate(751.71,269.37)" stroke-linecap="round" d="M.0,-22.5L.0,-1.3C.0,-1.3,.0,-1.3,.0,-1.3L.0,22.5" stroke="#000000" stroke-width="2.666670083999634" id="shape32" fill="none"/><path transform="translate(799.79,269.37)" stroke-linecap="round" d="M-48.1,-22.5L-48.1,-4.3C-48.1,-2.6,-46.7,-1.3,-45.1,-1.3L45.1,-1.3C46.7,-1.3,48.1,.0,48.1,1.7L48.1,22.5" stroke="#000000" stroke-width="2.666670083999634" id="shape33" fill="none"/><path transform="translate(992.13,269.37)" stroke-linecap="round" d="M48.1,-22.5L48.1,-4.3C48.1,-2.6,46.7,-1.3,45.1,-1.3L-45.1,-1.3C-46.7,-1.3,-48.1,.0,-48.1,1.7L-48.1,22.5" stroke="#000000" stroke-width="2.666670083999634" id="shape34" fill="none"/><path transform="translate(1040.21,269.37)" stroke-linecap="round" d="M.0,-22.5L.0,-1.3C.0,-1.3,.0,-1.3,.0,-1.3L.0,22.5" stroke="#000000" stroke-width="2.666670083999634" id="shape35" fill="none"/><path transform="translate(1088.29,269.37)" stroke-linecap="round" d="M-48.1,-22.5L-48.1,-4.3C-48.1,-2.6,-46.7,-1.3,-45.1,-1.3L45.1,-1.3C46.7,-1.3,48.1,.0,48.1,1.7L48.1,22.5" stroke="#000000" stroke-width="2.666670083999634" id="shape36" fill="none"/><path transform="translate(1298.13,269.37)" stroke-linecap="round" d="M48.1,-22.5L48.1,-4.3C48.1,-2.6,46.7,-1.3,45.1,-1.3L-45.1,-1.3C-46.7,-1.3,-48.1,.0,-48.1,1.7L-48.1,22.5" stroke="#000000" stroke-width="2.666670083999634" id="shape37" fill="none"/><path transform="translate(1346.21,269.37)" stroke-linecap="round" d="M.0,-22.5L.0,-1.3C.0,-1.3,.0,-1.3,.0,-1.3L.0,22.5" stroke="#000000" stroke-width="2.666670083999634" id="shape38" fill="none"/><path transform="translate(1394.29,269.37)" stroke-linecap="round" d="M-48.1,-22.5L-48.1,-4.3C-48.1,-2.6,-46.7,-1.3,-45.1,-1.3L45.1,-1.3C46.7,-1.3,48.1,.0,48.1,1.7L48.1,22.5" stroke="#000000" stroke-width="2.666670083999634" id="shape39" fill="none"/><path transform="translate(1586.63,269.37)" stroke-linecap="round" d="M48.1,-22.5L48.1,-4.3C48.1,-2.6,46.7,-1.3,45.1,-1.3L-45.1,-1.3C-46.7,-1.3,-48.1,.0,-48.1,1.7L-48.1,22.5" stroke="#000000" stroke-width="2.666670083999634" id="shape40" fill="none"/><path transform="translate(1634.71,269.37)" stroke-linecap="round" d="M.0,-22.5L.0,-1.3C.0,-1.3,.0,-1.3,.0,-1.3L.0,22.5" stroke="#000000" stroke-width="2.666670083999634" id="shape41" fill="none"/><path transform="translate(1682.79,269.37)" stroke-linecap="round" d="M-48.1,-22.5L-48.1,-4.3C-48.1,-2.6,-46.7,-1.3,-45.1,-1.3L45.1,-1.3C46.7,-1.3,48.1,.0,48.1,1.7L48.1,22.5" stroke="#000000" stroke-width="2.666670083999634" id="shape42" fill="none"/><path transform="translate(1875.13,269.37)" stroke-linecap="round" d="M48.1,-22.5L48.1,-4.3C48.1,-2.6,46.7,-1.3,45.1,-1.3L-45.1,-1.3C-46.7,-1.3,-48.1,.0,-48.1,1.7L-48.1,22.5" stroke="#000000" stroke-width="2.666670083999634" id="shape43" fill="none"/><path transform="translate(1923.21,269.37)" stroke-linecap="round" d="M.0,-22.5L.0,-1.3C.0,-1.3,.0,-1.3,.0,-1.3L.0,22.5" stroke="#000000" stroke-width="2.666670083999634" id="shape44" fill="none"/><path transform="translate(1971.29,269.37)" stroke-linecap="round" d="M-48.1,-22.5L-48.1,-4.3C-48.1,-2.6,-46.7,-1.3,-45.1,-1.3L45.1,-1.3C46.7,-1.3,48.1,.0,48.1,1.7L48.1,22.5" stroke="#000000" stroke-width="2.666670083999634" id="shape45" fill="none"/><path transform="translate(2163.63,269.37)" stroke-linecap="round" d="M48.1,-22.5L48.1,-4.3C48.1,-2.6,46.7,-1.3,45.1,-1.3L-45.1,-1.3C-46.7,-1.3,-48.1,.0,-48.1,1.7L-48.1,22.5" stroke="#000000" stroke-width="2.666670083999634" id="shape46" fill="none"/><path transform="translate(2211.71,269.37)" stroke-linecap="round" d="M.0,-22.5L-0.0,-1.3C-0.0,-1.3,-0.0,-1.3,-0.0,-1.3L-0.0,22.5" stroke="#000000" stroke-width="2.666670083999634" id="shape47" fill="none"/><path transform="translate(2259.79,269.37)" stroke-linecap="round" d="M-48.1,-22.5L-48.1,-4.3C-48.1,-2.6,-46.7,-1.3,-45.1,-1.3L45.1,-1.3C46.7,-1.3,48.1,.0,48.1,1.7L48.1,22.5" stroke="#000000" stroke-width="2.666670083999634" id="shape48" fill="none"/><path transform="translate(1298.13,524.17)" stroke-linecap="round" d="M48.1,-22.5L48.1,-4.3C48.1,-2.6,46.7,-1.3,45.1,-1.3L-45.1,-1.3C-46.7,-1.3,-48.1,.0,-48.1,1.7L-48.1,22.5" stroke="#000000" stroke-width="2.666670083999634" id="shape49" fill="none"/><path transform="translate(1346.21,524.17)" stroke-linecap="round" d="M.0,-22.5L.0,-1.3C.0,-1.3,.0,-1.3,.0,-1.3L.0,22.5" stroke="#000000" stroke-width="2.666670083999634" id="shape50" fill="none"/><path transform="translate(1394.29,524.17)" stroke-linecap="round" d="M-48.1,-22.5L-48.1,-4.3C-48.1,-2.6,-46.7,-1.3,-45.1,-1.3L45.1,-1.3C46.7,-1.3,48.1,.0,48.1,1.7L48.1,22.5" stroke="#000000" stroke-width="2.666670083999634" id="shape51" fill="none"/><path transform="translate(1586.63,524.17)" stroke-linecap="round" d="M48.1,-22.5L48.1,-4.3C48.1,-2.6,46.7,-1.3,45.1,-1.3L-45.1,-1.3C-46.7,-1.3,-48.1,.0,-48.1,1.7L-48.1,22.5" stroke="#000000" stroke-width="2.666670083999634" id="shape52" fill="none"/><path transform="translate(1634.71,524.17)" stroke-linecap="round" d="M.0,-22.5L.0,-1.3C.0,-1.3,.0,-1.3,.0,-1.3L.0,22.5" stroke="#000000" stroke-width="2.666670083999634" id="shape53" fill="none"/><path transform="translate(1682.79,524.17)" stroke-linecap="round" d="M-48.1,-22.5L-48.1,-4.3C-48.1,-2.6,-46.7,-1.3,-45.1,-1.3L45.1,-1.3C46.7,-1.3,48.1,.0,48.1,1.7L48.1,22.5" stroke="#000000" stroke-width="2.666670083999634" id="shape54" fill="none"/><path transform="translate(1875.13,524.17)" stroke-linecap="round" d="M48.1,-22.5L48.1,-4.3C48.1,-2.6,46.7,-1.3,45.1,-1.3L-45.1,-1.3C-46.7,-1.3,-48.1,.0,-48.1,1.7L-48.1,22.5" stroke="#000000" stroke-width="2.666670083999634" id="shape55" fill="none"/><path transform="translate(1923.21,524.17)" stroke-linecap="round" d="M.0,-22.5L.0,-1.3C.0,-1.3,.0,-1.3,.0,-1.3L.0,22.5" stroke="#000000" stroke-width="2.666670083999634" id="shape56" fill="none"/><path transform="translate(1971.29,524.17)" stroke-linecap="round" d="M-48.1,-22.5L-48.1,-4.3C-48.1,-2.6,-46.7,-1.3,-45.1,-1.3L45.1,-1.3C46.7,-1.3,48.1,.0,48.1,1.7L48.1,22.5" stroke="#000000" stroke-width="2.666670083999634" id="shape57" fill="none"/><path transform="translate(2163.63,524.17)" stroke-linecap="round" d="M48.1,-22.5L48.1,-4.3C48.1,-2.6,46.7,-1.3,45.1,-1.3L-45.1,-1.3C-46.7,-1.3,-48.1,.0,-48.1,1.7L-48.1,22.5" stroke="#000000" stroke-width="2.666670083999634" id="shape58" fill="none"/><path transform="translate(2211.71,524.17)" stroke-linecap="round" d="M.0,-22.5L-0.0,-1.3C-0.0,-1.3,-0.0,-1.3,-0.0,-1.3L-0.0,22.5" stroke="#000000" stroke-width="2.666670083999634" id="shape59" fill="none"/><path transform="translate(2259.79,524.17)" stroke-linecap="round" d="M-48.1,-22.5L-48.1,-4.3C-48.1,-2.6,-46.7,-1.3,-45.1,-1.3L45.1,-1.3C46.7,-1.3,48.1,.0,48.1,1.7L48.1,22.5" stroke="#000000" stroke-width="2.666670083999634" id="shape60" fill="none"/><path transform="translate(126.62,524.17)" stroke-linecap="round" d="M48.1,-22.5L48.1,-4.3C48.1,-2.6,46.7,-1.3,45.1,-1.3L-45.1,-1.3C-46.7,-1.3,-48.1,.0,-48.1,1.7L-48.1,22.5" stroke="#000000" stroke-width="2.666670083999634" id="shape61" fill="none"/><path transform="translate(174.71,524.17)" stroke-linecap="round" d="M.0,-22.5L.0,-1.3C.0,-1.3,.0,-1.3,.0,-1.3L.0,22.5" stroke="#000000" stroke-width="2.666670083999634" id="shape62" fill="none"/><path transform="translate(222.79,524.17)" stroke-linecap="round" d="M-48.1,-22.5L-48.1,-4.3C-48.1,-2.6,-46.7,-1.3,-45.1,-1.3L45.1,-1.3C46.7,-1.3,48.1,.0,48.1,1.7L48.1,22.5" stroke="#000000" stroke-width="2.666670083999634" id="shape63" fill="none"/><path transform="translate(415.12,524.17)" stroke-linecap="round" d="M48.1,-22.5L48.1,-4.3C48.1,-2.6,46.7,-1.3,45.1,-1.3L-45.1,-1.3C-46.7,-1.3,-48.1,.0,-48.1,1.7L-48.1,22.5" stroke="#000000" stroke-width="2.666670083999634" id="shape64" fill="none"/><path transform="translate(463.21,524.17)" stroke-linecap="round" d="M.0,-22.5L.0,-1.3C.0,-1.3,.0,-1.3,.0,-1.3L.0,22.5" stroke="#000000" stroke-width="2.666670083999634" id="shape65" fill="none"/><path transform="translate(511.29,524.17)" stroke-linecap="round" d="M-48.1,-22.5L-48.1,-4.3C-48.1,-2.6,-46.7,-1.3,-45.1,-1.3L45.1,-1.3C46.7,-1.3,48.1,.0,48.1,1.7L48.1,22.5" stroke="#000000" stroke-width="2.666670083999634" id="shape66" fill="none"/><path transform="translate(703.62,524.17)" stroke-linecap="round" d="M48.1,-22.5L48.1,-4.3C48.1,-2.6,46.7,-1.3,45.1,-1.3L-45.1,-1.3C-46.7,-1.3,-48.1,.0,-48.1,1.7L-48.1,22.5" stroke="#000000" stroke-width="2.666670083999634" id="shape67" fill="none"/><path transform="translate(751.71,524.17)" stroke-linecap="round" d="M.0,-22.5L.0,-1.3C.0,-1.3,.0,-1.3,.0,-1.3L.0,22.5" stroke="#000000" stroke-width="2.666670083999634" id="shape68" fill="none"/><path transform="translate(799.79,524.17)" stroke-linecap="round" d="M-48.1,-22.5L-48.1,-4.3C-48.1,-2.6,-46.7,-1.3,-45.1,-1.3L45.1,-1.3C46.7,-1.3,48.1,.0,48.1,1.7L48.1,22.5" stroke="#000000" stroke-width="2.666670083999634" id="shape69" fill="none"/><path transform="translate(992.12,524.17)" stroke-linecap="round" d="M48.1,-22.5L48.1,-4.3C48.1,-2.6,46.7,-1.3,45.1,-1.3L-45.1,-1.3C-46.7,-1.3,-48.1,.0,-48.1,1.7L-48.1,22.5" stroke="#000000" stroke-width="2.666670083999634" id="shape70" fill="none"/><path transform="translate(1040.21,524.17)" stroke-linecap="round" d="M.0,-22.5L.0,-1.3C.0,-1.3,.0,-1.3,.0,-1.3L.0,22.5" stroke="#000000" stroke-width="2.666670083999634" id="shape71" fill="none"/><path transform="translate(1088.29,524.17)" stroke-linecap="round" d="M-48.1,-22.5L-48.1,-4.3C-48.1,-2.6,-46.7,-1.3,-45.1,-1.3L45.1,-1.3C46.7,-1.3,48.1,.0,48.1,1.7L48.1,22.5" stroke="#000000" stroke-width="2.666670083999634" id="shape72" fill="none"/><path transform="translate(126.62,790.17)" stroke-linecap="round" d="M48.1,-22.5L48.1,-4.3C48.1,-2.6,46.7,-1.3,45.1,-1.3L-45.1,-1.3C-46.7,-1.3,-48.1,.0,-48.1,1.7L-48.1,22.5" stroke="#000000" stroke-width="2.666670083999634" id="shape73" fill="none"/><path transform="translate(174.71,790.17)" stroke-linecap="round" d="M.0,-22.5L.0,-1.3C.0,-1.3,.0,-1.3,.0,-1.3L.0,22.5" stroke="#000000" stroke-width="2.666670083999634" id="shape74" fill="none"/><path transform="translate(222.79,790.17)" stroke-linecap="round" d="M-48.1,-22.5L-48.1,-4.3C-48.1,-2.6,-46.7,-1.3,-45.1,-1.3L45.1,-1.3C46.7,-1.3,48.1,.0,48.1,1.7L48.1,22.5" stroke="#000000" stroke-width="2.666670083999634" id="shape75" fill="none"/><path transform="translate(415.12,790.17)" stroke-linecap="round" d="M48.1,-22.5L48.1,-4.3C48.1,-2.6,46.7,-1.3,45.1,-1.3L-45.1,-1.3C-46.7,-1.3,-48.1,.0,-48.1,1.7L-48.1,22.5" stroke="#000000" stroke-width="2.666670083999634" id="shape76" fill="none"/><path transform="translate(463.21,790.17)" stroke-linecap="round" d="M.0,-22.5L.0,-1.3C.0,-1.3,.0,-1.3,.0,-1.3L.0,22.5" stroke="#000000" stroke-width="2.666670083999634" id="shape77" fill="none"/><path transform="translate(511.29,790.17)" stroke-linecap="round" d="M-48.1,-22.5L-48.1,-4.3C-48.1,-2.6,-46.7,-1.3,-45.1,-1.3L45.1,-1.3C46.7,-1.3,48.1,.0,48.1,1.7L48.1,22.5" stroke="#000000" stroke-width="2.666670083999634" id="shape78" fill="none"/><path transform="translate(703.62,790.17)" stroke-linecap="round" d="M48.1,-22.5L48.1,-4.3C48.1,-2.6,46.7,-1.3,45.1,-1.3L-45.1,-1.3C-46.7,-1.3,-48.1,.0,-48.1,1.7L-48.1,22.5" stroke="#000000" stroke-width="2.666670083999634" id="shape79" fill="none"/><path transform="translate(751.71,790.17)" stroke-linecap="round" d="M.0,-22.5L.0,-1.3C.0,-1.3,.0,-1.3,.0,-1.3L.0,22.5" stroke="#000000" stroke-width="2.666670083999634" id="shape80" fill="none"/><path transform="translate(799.79,790.17)" stroke-linecap="round" d="M-48.1,-22.5L-48.1,-4.3C-48.1,-2.6,-46.7,-1.3,-45.1,-1.3L45.1,-1.3C46.7,-1.3,48.1,.0,48.1,1.7L48.1,22.5" stroke="#000000" stroke-width="2.666670083999634" id="shape81" fill="none"/><path transform="translate(992.12,790.17)" stroke-linecap="round" d="M48.1,-22.5L48.1,-4.3C48.1,-2.6,46.7,-1.3,45.1,-1.3L-45.1,-1.3C-46.7,-1.3,-48.1,.0,-48.1,1.7L-48.1,22.5" stroke="#000000" stroke-width="2.666670083999634" id="shape82" fill="none"/><path transform="translate(1040.21,790.17)" stroke-linecap="round" d="M.0,-22.5L.0,-1.3C.0,-1.3,.0,-1.3,.0,-1.3L.0,22.5" stroke="#000000" stroke-width="2.666670083999634" id="shape83" fill="none"/><path transform="translate(1088.29,790.17)" stroke-linecap="round" d="M-48.1,-22.5L-48.1,-4.3C-48.1,-2.6,-46.7,-1.3,-45.1,-1.3L45.1,-1.3C46.7,-1.3,48.1,.0,48.1,1.7L48.1,22.5" stroke="#000000" stroke-width="2.666670083999634" id="shape84" fill="none"/><g transform="translate(1735.626850,120.540850)" id="shape85"><path d="M4.0,.0L82.7,.0C84.9,.0,86.7,1.8,86.7,4.0L86.7,41.7C86.7,43.9,84.9,45.7,82.7,45.7L4.0,45.7C1.8,45.7,.0,43.9,.0,41.7L.0,4.0C.0,1.8,1.8,.0,4.0,.0z" stroke="#000000" stroke-width="2.666670083999634" fill="none"/><text style="fill:#000000;font-family:Arial Narrow;font-size:14.00pt" xml:space="preserve"><tspan y="26.8" x="21.8">Shirt 2</tspan></text></g><g transform="translate(1735.626650,375.333650)" id="shape86"><path d="M4.0,.0L82.7,.0C84.9,.0,86.7,1.8,86.7,4.0L86.7,41.7C86.7,43.9,84.9,45.7,82.7,45.7L4.0,45.7C1.8,45.7,.0,43.9,.0,41.7L.0,4.0C.0,1.8,1.8,.0,4.0,.0z" stroke="#000000" stroke-width="2.666670083999634" fill="none"/><text style="fill:#000000;font-family:Arial Narrow;font-size:14.00pt" xml:space="preserve"><tspan y="26.8" x="21.8">Shirt 3</tspan></text></g><g transform="translate(564.124650,375.333650)" id="shape87"><path d="M4.0,.0L82.7,.0C84.9,.0,86.7,1.8,86.7,4.0L86.7,41.7C86.7,43.9,84.9,45.7,82.7,45.7L4.0,45.7C1.8,45.7,.0,43.9,.0,41.7L.0,4.0C.0,1.8,1.8,.0,4.0,.0z" stroke="#000000" stroke-width="2.666670083999634" fill="none"/><text style="fill:#000000;font-family:Arial Narrow;font-size:14.00pt" xml:space="preserve"><tspan y="26.8" x="21.8">Shirt 4</tspan></text></g><g transform="translate(564.124650,641.333650)" id="shape88"><path d="M4.0,.0L82.7,.0C84.9,.0,86.7,1.8,86.7,4.0L86.7,41.7C86.7,43.9,84.9,45.7,82.7,45.7L4.0,45.7C1.8,45.7,.0,43.9,.0,41.7L.0,4.0C.0,1.8,1.8,.0,4.0,.0z" stroke="#000000" stroke-width="2.666670083999634" fill="none"/><text style="fill:#000000;font-family:Arial Narrow;font-size:14.00pt" xml:space="preserve"><tspan y="26.8" x="21.8">Shirt 5</tspan></text></g><g transform="translate(564.126450,120.540850)" id="shape89"><path d="M4.0,.0L82.7,.0C84.9,.0,86.7,1.8,86.7,4.0L86.7,41.7C86.7,43.9,84.9,45.7,82.7,45.7L4.0,45.7C1.8,45.7,.0,43.9,.0,41.7L.0,4.0C.0,1.8,1.8,.0,4.0,.0z" stroke="#000000" stroke-width="2.666670083999634" fill="none"/><text style="fill:#000000;font-family:Arial Narrow;font-size:14.00pt" xml:space="preserve"><tspan y="26.8" x="21.8">Shirt 1</tspan></text></g><g transform="translate(124.376150,211.207550)" id="shape90"><path d="M4.0,.0L96.7,.0C98.9,.0,100.7,1.8,100.7,4.0L100.7,31.7C100.7,33.9,98.9,35.7,96.7,35.7L4.0,35.7C1.8,35.7,.0,33.9,.0,31.7L.0,4.0C.0,1.8,1.8,.0,4.0,.0z" stroke="#000000" stroke-width="2.666670083999634" fill="none"/><text style="fill:#000000;font-family:Arial Narrow;font-size:14.00pt" xml:space="preserve"><tspan y="21.8" x="12.8">Trousers 1</tspan></text></g><g transform="translate(412.876250,211.207550)" id="shape91"><path d="M4.0,.0L96.7,.0C98.9,.0,100.7,1.8,100.7,4.0L100.7,31.7C100.7,33.9,98.9,35.7,96.7,35.7L4.0,35.7C1.8,35.7,.0,33.9,.0,31.7L.0,4.0C.0,1.8,1.8,.0,4.0,.0z" stroke="#000000" stroke-width="2.666670083999634" fill="none"/><text style="fill:#000000;font-family:Arial Narrow;font-size:14.00pt" xml:space="preserve"><tspan y="21.8" x="12.8">Trousers 2</tspan></text></g><g transform="translate(701.376350,211.207550)" id="shape92"><path d="M4.0,.0L96.7,.0C98.9,.0,100.7,1.8,100.7,4.0L100.7,31.7C100.7,33.9,98.9,35.7,96.7,35.7L4.0,35.7C1.8,35.7,.0,33.9,.0,31.7L.0,4.0C.0,1.8,1.8,.0,4.0,.0z" stroke="#000000" stroke-width="2.666670083999634" fill="none"/><text style="fill:#000000;font-family:Arial Narrow;font-size:14.00pt" xml:space="preserve"><tspan y="21.8" x="12.8">Trousers 3</tspan></text></g><g transform="translate(989.876450,211.207550)" id="shape93"><path d="M4.0,.0L96.7,.0C98.9,.0,100.7,1.8,100.7,4.0L100.7,31.7C100.7,33.9,98.9,35.7,96.7,35.7L4.0,35.7C1.8,35.7,.0,33.9,.0,31.7L.0,4.0C.0,1.8,1.8,.0,4.0,.0z" stroke="#000000" stroke-width="2.666670083999634" fill="none"/><text style="fill:#000000;font-family:Arial Narrow;font-size:14.00pt" xml:space="preserve"><tspan y="21.8" x="12.8">Trousers 4</tspan></text></g><g transform="translate(1295.876550,211.207550)" id="shape94"><path d="M4.0,.0L96.7,.0C98.9,.0,100.7,1.8,100.7,4.0L100.7,31.7C100.7,33.9,98.9,35.7,96.7,35.7L4.0,35.7C1.8,35.7,.0,33.9,.0,31.7L.0,4.0C.0,1.8,1.8,.0,4.0,.0z" stroke="#000000" stroke-width="2.666670083999634" fill="none"/><text style="fill:#000000;font-family:Arial Narrow;font-size:14.00pt" xml:space="preserve"><tspan y="21.8" x="12.8">Trousers 1</tspan></text></g><g transform="translate(1584.376650,211.207550)" id="shape95"><path d="M4.0,.0L96.7,.0C98.9,.0,100.7,1.8,100.7,4.0L100.7,31.7C100.7,33.9,98.9,35.7,96.7,35.7L4.0,35.7C1.8,35.7,.0,33.9,.0,31.7L.0,4.0C.0,1.8,1.8,.0,4.0,.0z" stroke="#000000" stroke-width="2.666670083999634" fill="none"/><text style="fill:#000000;font-family:Arial Narrow;font-size:14.00pt" xml:space="preserve"><tspan y="21.8" x="12.8">Trousers 2</tspan></text></g><g transform="translate(1872.876750,211.207550)" id="shape96"><path d="M4.0,.0L96.7,.0C98.9,.0,100.7,1.8,100.7,4.0L100.7,31.7C100.7,33.9,98.9,35.7,96.7,35.7L4.0,35.7C1.8,35.7,.0,33.9,.0,31.7L.0,4.0C.0,1.8,1.8,.0,4.0,.0z" stroke="#000000" stroke-width="2.666670083999634" fill="none"/><text style="fill:#000000;font-family:Arial Narrow;font-size:14.00pt" xml:space="preserve"><tspan y="21.8" x="12.8">Trousers 3</tspan></text></g><g transform="translate(2161.376850,211.207550)" id="shape97"><path d="M4.0,.0L96.7,.0C98.9,.0,100.7,1.8,100.7,4.0L100.7,31.7C100.7,33.9,98.9,35.7,96.7,35.7L4.0,35.7C1.8,35.7,.0,33.9,.0,31.7L.0,4.0C.0,1.8,1.8,.0,4.0,.0z" stroke="#000000" stroke-width="2.666670083999634" fill="none"/><text style="fill:#000000;font-family:Arial Narrow;font-size:14.00pt" xml:space="preserve"><tspan y="21.8" x="12.8">Trousers 4</tspan></text></g><g transform="translate(1295.876350,466.000350)" id="shape98"><path d="M4.0,.0L96.7,.0C98.9,.0,100.7,1.8,100.7,4.0L100.7,31.7C100.7,33.9,98.9,35.7,96.7,35.7L4.0,35.7C1.8,35.7,.0,33.9,.0,31.7L.0,4.0C.0,1.8,1.8,.0,4.0,.0z" stroke="#000000" stroke-width="2.666670083999634" fill="none"/><text style="fill:#000000;font-family:Arial Narrow;font-size:14.00pt" xml:space="preserve"><tspan y="21.8" x="12.8">Trousers 1</tspan></text></g><g transform="translate(1584.376450,466.000350)" id="shape99"><path d="M4.0,.0L96.7,.0C98.9,.0,100.7,1.8,100.7,4.0L100.7,31.7C100.7,33.9,98.9,35.7,96.7,35.7L4.0,35.7C1.8,35.7,.0,33.9,.0,31.7L.0,4.0C.0,1.8,1.8,.0,4.0,.0z" stroke="#000000" stroke-width="2.666670083999634" fill="none"/><text style="fill:#000000;font-family:Arial Narrow;font-size:14.00pt" xml:space="preserve"><tspan y="21.8" x="12.8">Trousers 2</tspan></text></g><g transform="translate(1872.876550,466.000350)" id="shape100"><path d="M4.0,.0L96.7,.0C98.9,.0,100.7,1.8,100.7,4.0L100.7,31.7C100.7,33.9,98.9,35.7,96.7,35.7L4.0,35.7C1.8,35.7,.0,33.9,.0,31.7L.0,4.0C.0,1.8,1.8,.0,4.0,.0z" stroke="#000000" stroke-width="2.666670083999634" fill="none"/><text style="fill:#000000;font-family:Arial Narrow;font-size:14.00pt" xml:space="preserve"><tspan y="21.8" x="12.8">Trousers 3</tspan></text></g><g transform="translate(2161.376650,466.000350)" id="shape101"><path d="M4.0,.0L96.7,.0C98.9,.0,100.7,1.8,100.7,4.0L100.7,31.7C100.7,33.9,98.9,35.7,96.7,35.7L4.0,35.7C1.8,35.7,.0,33.9,.0,31.7L.0,4.0C.0,1.8,1.8,.0,4.0,.0z" stroke="#000000" stroke-width="2.666670083999634" fill="none"/><text style="fill:#000000;font-family:Arial Narrow;font-size:14.00pt" xml:space="preserve"><tspan y="21.8" x="12.8">Trousers 4</tspan></text></g><g transform="translate(124.374350,466.000350)" id="shape102"><path d="M4.0,.0L96.7,.0C98.9,.0,100.7,1.8,100.7,4.0L100.7,31.7C100.7,33.9,98.9,35.7,96.7,35.7L4.0,35.7C1.8,35.7,.0,33.9,.0,31.7L.0,4.0C.0,1.8,1.8,.0,4.0,.0z" stroke="#000000" stroke-width="2.666670083999634" fill="none"/><text style="fill:#000000;font-family:Arial Narrow;font-size:14.00pt" xml:space="preserve"><tspan y="21.8" x="12.8">Trousers 1</tspan></text></g><g transform="translate(412.874450,466.000350)" id="shape103"><path d="M4.0,.0L96.7,.0C98.9,.0,100.7,1.8,100.7,4.0L100.7,31.7C100.7,33.9,98.9,35.7,96.7,35.7L4.0,35.7C1.8,35.7,.0,33.9,.0,31.7L.0,4.0C.0,1.8,1.8,.0,4.0,.0z" stroke="#000000" stroke-width="2.666670083999634" fill="none"/><text style="fill:#000000;font-family:Arial Narrow;font-size:14.00pt" xml:space="preserve"><tspan y="21.8" x="12.8">Trousers 2</tspan></text></g><g transform="translate(701.374550,466.000350)" id="shape104"><path d="M4.0,.0L96.7,.0C98.9,.0,100.7,1.8,100.7,4.0L100.7,31.7C100.7,33.9,98.9,35.7,96.7,35.7L4.0,35.7C1.8,35.7,.0,33.9,.0,31.7L.0,4.0C.0,1.8,1.8,.0,4.0,.0z" stroke="#000000" stroke-width="2.666670083999634" fill="none"/><text style="fill:#000000;font-family:Arial Narrow;font-size:14.00pt" xml:space="preserve"><tspan y="21.8" x="12.8">Trousers 3</tspan></text></g><g transform="translate(989.874650,466.000350)" id="shape105"><path d="M4.0,.0L96.7,.0C98.9,.0,100.7,1.8,100.7,4.0L100.7,31.7C100.7,33.9,98.9,35.7,96.7,35.7L4.0,35.7C1.8,35.7,.0,33.9,.0,31.7L.0,4.0C.0,1.8,1.8,.0,4.0,.0z" stroke="#000000" stroke-width="2.666670083999634" fill="none"/><text style="fill:#000000;font-family:Arial Narrow;font-size:14.00pt" xml:space="preserve"><tspan y="21.8" x="12.8">Trousers 4</tspan></text></g><g transform="translate(124.374350,732.000350)" id="shape106"><path d="M4.0,.0L96.7,.0C98.9,.0,100.7,1.8,100.7,4.0L100.7,31.7C100.7,33.9,98.9,35.7,96.7,35.7L4.0,35.7C1.8,35.7,.0,33.9,.0,31.7L.0,4.0C.0,1.8,1.8,.0,4.0,.0z" stroke="#000000" stroke-width="2.666670083999634" fill="none"/><text style="fill:#000000;font-family:Arial Narrow;font-size:14.00pt" xml:space="preserve"><tspan y="21.8" x="12.8">Trousers 1</tspan></text></g><g transform="translate(412.874450,732.000350)" id="shape107"><path d="M4.0,.0L96.7,.0C98.9,.0,100.7,1.8,100.7,4.0L100.7,31.7C100.7,33.9,98.9,35.7,96.7,35.7L4.0,35.7C1.8,35.7,.0,33.9,.0,31.7L.0,4.0C.0,1.8,1.8,.0,4.0,.0z" stroke="#000000" stroke-width="2.666670083999634" fill="none"/><text style="fill:#000000;font-family:Arial Narrow;font-size:14.00pt" xml:space="preserve"><tspan y="21.8" x="12.8">Trousers 2</tspan></text></g><g transform="translate(701.374550,732.000350)" id="shape108"><path d="M4.0,.0L96.7,.0C98.9,.0,100.7,1.8,100.7,4.0L100.7,31.7C100.7,33.9,98.9,35.7,96.7,35.7L4.0,35.7C1.8,35.7,.0,33.9,.0,31.7L.0,4.0C.0,1.8,1.8,.0,4.0,.0z" stroke="#000000" stroke-width="2.666670083999634" fill="none"/><text style="fill:#000000;font-family:Arial Narrow;font-size:14.00pt" xml:space="preserve"><tspan y="21.8" x="12.8">Trousers 3</tspan></text></g><g transform="translate(989.874650,732.000350)" id="shape109"><path d="M4.0,.0L96.7,.0C98.9,.0,100.7,1.8,100.7,4.0L100.7,31.7C100.7,33.9,98.9,35.7,96.7,35.7L4.0,35.7C1.8,35.7,.0,33.9,.0,31.7L.0,4.0C.0,1.8,1.8,.0,4.0,.0z" stroke="#000000" stroke-width="2.666670083999634" fill="none"/><text style="fill:#000000;font-family:Arial Narrow;font-size:14.00pt" xml:space="preserve"><tspan y="21.8" x="12.8">Trousers 4</tspan></text></g><g transform="translate(36.709600,291.874250)" id="shape110"><path d="M4.0,.0L79.7,.0C81.9,.0,83.7,1.8,83.7,4.0L83.7,31.7C83.7,33.9,81.9,35.7,79.7,35.7L4.0,35.7C1.8,35.7,.0,33.9,.0,31.7L.0,4.0C.0,1.8,1.8,.0,4.0,.0z" stroke="#000000" stroke-width="2.666670083999634" fill="none"/><text style="fill:#000000;font-family:Arial Narrow;font-size:14.00pt" xml:space="preserve"><tspan y="21.8" x="12.8">Shoes 1</tspan></text></g><g transform="translate(132.876300,291.874250)" id="shape111"><path d="M4.0,.0L79.7,.0C81.9,.0,83.7,1.8,83.7,4.0L83.7,31.7C83.7,33.9,81.9,35.7,79.7,35.7L4.0,35.7C1.8,35.7,.0,33.9,.0,31.7L.0,4.0C.0,1.8,1.8,.0,4.0,.0z" stroke="#000000" stroke-width="2.666670083999634" fill="none"/><text style="fill:#000000;font-family:Arial Narrow;font-size:14.00pt" xml:space="preserve"><tspan y="21.8" x="12.8">Shoes 2</tspan></text></g><g transform="translate(229.043000,291.874250)" id="shape112"><path d="M4.0,.0L79.7,.0C81.9,.0,83.7,1.8,83.7,4.0L83.7,31.7C83.7,33.9,81.9,35.7,79.7,35.7L4.0,35.7C1.8,35.7,.0,33.9,.0,31.7L.0,4.0C.0,1.8,1.8,.0,4.0,.0z" stroke="#000000" stroke-width="2.666670083999634" fill="none"/><text style="fill:#000000;font-family:Arial Narrow;font-size:14.00pt" xml:space="preserve"><tspan y="21.8" x="12.8">Shoes 3</tspan></text></g><g transform="translate(325.209700,291.874250)" id="shape113"><path d="M4.0,.0L79.7,.0C81.9,.0,83.7,1.8,83.7,4.0L83.7,31.7C83.7,33.9,81.9,35.7,79.7,35.7L4.0,35.7C1.8,35.7,.0,33.9,.0,31.7L.0,4.0C.0,1.8,1.8,.0,4.0,.0z" stroke="#000000" stroke-width="2.666670083999634" fill="none"/><text style="fill:#000000;font-family:Arial Narrow;font-size:14.00pt" xml:space="preserve"><tspan y="21.8" x="12.8">Shoes 1</tspan></text></g><g transform="translate(421.376400,291.874250)" id="shape114"><path d="M4.0,.0L79.7,.0C81.9,.0,83.7,1.8,83.7,4.0L83.7,31.7C83.7,33.9,81.9,35.7,79.7,35.7L4.0,35.7C1.8,35.7,.0,33.9,.0,31.7L.0,4.0C.0,1.8,1.8,.0,4.0,.0z" stroke="#000000" stroke-width="2.666670083999634" fill="none"/><text style="fill:#000000;font-family:Arial Narrow;font-size:14.00pt" xml:space="preserve"><tspan y="21.8" x="12.8">Shoes 2</tspan></text></g><g transform="translate(517.543100,291.874250)" id="shape115"><path d="M4.0,.0L79.7,.0C81.9,.0,83.7,1.8,83.7,4.0L83.7,31.7C83.7,33.9,81.9,35.7,79.7,35.7L4.0,35.7C1.8,35.7,.0,33.9,.0,31.7L.0,4.0C.0,1.8,1.8,.0,4.0,.0z" stroke="#000000" stroke-width="2.666670083999634" fill="none"/><text style="fill:#000000;font-family:Arial Narrow;font-size:14.00pt" xml:space="preserve"><tspan y="21.8" x="12.8">Shoes 3</tspan></text></g><g transform="translate(613.709800,291.874250)" id="shape116"><path d="M4.0,.0L79.7,.0C81.9,.0,83.7,1.8,83.7,4.0L83.7,31.7C83.7,33.9,81.9,35.7,79.7,35.7L4.0,35.7C1.8,35.7,.0,33.9,.0,31.7L.0,4.0C.0,1.8,1.8,.0,4.0,.0z" stroke="#000000" stroke-width="2.666670083999634" fill="none"/><text style="fill:#000000;font-family:Arial Narrow;font-size:14.00pt" xml:space="preserve"><tspan y="21.8" x="12.8">Shoes 1</tspan></text></g><g transform="translate(709.876500,291.874250)" id="shape117"><path d="M4.0,.0L79.7,.0C81.9,.0,83.7,1.8,83.7,4.0L83.7,31.7C83.7,33.9,81.9,35.7,79.7,35.7L4.0,35.7C1.8,35.7,.0,33.9,.0,31.7L.0,4.0C.0,1.8,1.8,.0,4.0,.0z" stroke="#000000" stroke-width="2.666670083999634" fill="none"/><text style="fill:#000000;font-family:Arial Narrow;font-size:14.00pt" xml:space="preserve"><tspan y="21.8" x="12.8">Shoes 2</tspan></text></g><g transform="translate(806.043200,291.874250)" id="shape118"><path d="M4.0,.0L79.7,.0C81.9,.0,83.7,1.8,83.7,4.0L83.7,31.7C83.7,33.9,81.9,35.7,79.7,35.7L4.0,35.7C1.8,35.7,.0,33.9,.0,31.7L.0,4.0C.0,1.8,1.8,.0,4.0,.0z" stroke="#000000" stroke-width="2.666670083999634" fill="none"/><text style="fill:#000000;font-family:Arial Narrow;font-size:14.00pt" xml:space="preserve"><tspan y="21.8" x="12.8">Shoes 3</tspan></text></g><g transform="translate(902.209900,291.874250)" id="shape119"><path d="M4.0,.0L79.7,.0C81.9,.0,83.7,1.8,83.7,4.0L83.7,31.7C83.7,33.9,81.9,35.7,79.7,35.7L4.0,35.7C1.8,35.7,.0,33.9,.0,31.7L.0,4.0C.0,1.8,1.8,.0,4.0,.0z" stroke="#000000" stroke-width="2.666670083999634" fill="none"/><text style="fill:#000000;font-family:Arial Narrow;font-size:14.00pt" xml:space="preserve"><tspan y="21.8" x="12.8">Shoes 1</tspan></text></g><g transform="translate(998.376600,291.874250)" id="shape120"><path d="M4.0,.0L79.7,.0C81.9,.0,83.7,1.8,83.7,4.0L83.7,31.7C83.7,33.9,81.9,35.7,79.7,35.7L4.0,35.7C1.8,35.7,.0,33.9,.0,31.7L.0,4.0C.0,1.8,1.8,.0,4.0,.0z" stroke="#000000" stroke-width="2.666670083999634" fill="none"/><text style="fill:#000000;font-family:Arial Narrow;font-size:14.00pt" xml:space="preserve"><tspan y="21.8" x="12.8">Shoes 2</tspan></text></g><g transform="translate(1094.543300,291.874250)" id="shape121"><path d="M4.0,.0L79.7,.0C81.9,.0,83.7,1.8,83.7,4.0L83.7,31.7C83.7,33.9,81.9,35.7,79.7,35.7L4.0,35.7C1.8,35.7,.0,33.9,.0,31.7L.0,4.0C.0,1.8,1.8,.0,4.0,.0z" stroke="#000000" stroke-width="2.666670083999634" fill="none"/><text style="fill:#000000;font-family:Arial Narrow;font-size:14.00pt" xml:space="preserve"><tspan y="21.8" x="12.8">Shoes 3</tspan></text></g><g transform="translate(1208.210000,291.874250)" id="shape122"><path d="M4.0,.0L79.7,.0C81.9,.0,83.7,1.8,83.7,4.0L83.7,31.7C83.7,33.9,81.9,35.7,79.7,35.7L4.0,35.7C1.8,35.7,.0,33.9,.0,31.7L.0,4.0C.0,1.8,1.8,.0,4.0,.0z" stroke="#000000" stroke-width="2.666670083999634" fill="none"/><text style="fill:#000000;font-family:Arial Narrow;font-size:14.00pt" xml:space="preserve"><tspan y="21.8" x="12.8">Shoes 1</tspan></text></g><g transform="translate(1304.376700,291.874250)" id="shape123"><path d="M4.0,.0L79.7,.0C81.9,.0,83.7,1.8,83.7,4.0L83.7,31.7C83.7,33.9,81.9,35.7,79.7,35.7L4.0,35.7C1.8,35.7,.0,33.9,.0,31.7L.0,4.0C.0,1.8,1.8,.0,4.0,.0z" stroke="#000000" stroke-width="2.666670083999634" fill="none"/><text style="fill:#000000;font-family:Arial Narrow;font-size:14.00pt" xml:space="preserve"><tspan y="21.8" x="12.8">Shoes 2</tspan></text></g><g transform="translate(1400.543400,291.874250)" id="shape124"><path d="M4.0,.0L79.7,.0C81.9,.0,83.7,1.8,83.7,4.0L83.7,31.7C83.7,33.9,81.9,35.7,79.7,35.7L4.0,35.7C1.8,35.7,.0,33.9,.0,31.7L.0,4.0C.0,1.8,1.8,.0,4.0,.0z" stroke="#000000" stroke-width="2.666670083999634" fill="none"/><text style="fill:#000000;font-family:Arial Narrow;font-size:14.00pt" xml:space="preserve"><tspan y="21.8" x="12.8">Shoes 3</tspan></text></g><g transform="translate(1496.710100,291.874250)" id="shape125"><path d="M4.0,.0L79.7,.0C81.9,.0,83.7,1.8,83.7,4.0L83.7,31.7C83.7,33.9,81.9,35.7,79.7,35.7L4.0,35.7C1.8,35.7,.0,33.9,.0,31.7L.0,4.0C.0,1.8,1.8,.0,4.0,.0z" stroke="#000000" stroke-width="2.666670083999634" fill="none"/><text style="fill:#000000;font-family:Arial Narrow;font-size:14.00pt" xml:space="preserve"><tspan y="21.8" x="12.8">Shoes 1</tspan></text></g><g transform="translate(1592.876800,291.874250)" id="shape126"><path d="M4.0,.0L79.7,.0C81.9,.0,83.7,1.8,83.7,4.0L83.7,31.7C83.7,33.9,81.9,35.7,79.7,35.7L4.0,35.7C1.8,35.7,.0,33.9,.0,31.7L.0,4.0C.0,1.8,1.8,.0,4.0,.0z" stroke="#000000" stroke-width="2.666670083999634" fill="none"/><text style="fill:#000000;font-family:Arial Narrow;font-size:14.00pt" xml:space="preserve"><tspan y="21.8" x="12.8">Shoes 2</tspan></text></g><g transform="translate(1689.043500,291.874250)" id="shape127"><path d="M4.0,.0L79.7,.0C81.9,.0,83.7,1.8,83.7,4.0L83.7,31.7C83.7,33.9,81.9,35.7,79.7,35.7L4.0,35.7C1.8,35.7,.0,33.9,.0,31.7L.0,4.0C.0,1.8,1.8,.0,4.0,.0z" stroke="#000000" stroke-width="2.666670083999634" fill="none"/><text style="fill:#000000;font-family:Arial Narrow;font-size:14.00pt" xml:space="preserve"><tspan y="21.8" x="12.8">Shoes 3</tspan></text></g><g transform="translate(1785.210200,291.874250)" id="shape128"><path d="M4.0,.0L79.7,.0C81.9,.0,83.7,1.8,83.7,4.0L83.7,31.7C83.7,33.9,81.9,35.7,79.7,35.7L4.0,35.7C1.8,35.7,.0,33.9,.0,31.7L.0,4.0C.0,1.8,1.8,.0,4.0,.0z" stroke="#000000" stroke-width="2.666670083999634" fill="none"/><text style="fill:#000000;font-family:Arial Narrow;font-size:14.00pt" xml:space="preserve"><tspan y="21.8" x="12.8">Shoes 1</tspan></text></g><g transform="translate(1881.376900,291.874250)" id="shape129"><path d="M4.0,.0L79.7,.0C81.9,.0,83.7,1.8,83.7,4.0L83.7,31.7C83.7,33.9,81.9,35.7,79.7,35.7L4.0,35.7C1.8,35.7,.0,33.9,.0,31.7L.0,4.0C.0,1.8,1.8,.0,4.0,.0z" stroke="#000000" stroke-width="2.666670083999634" fill="none"/><text style="fill:#000000;font-family:Arial Narrow;font-size:14.00pt" xml:space="preserve"><tspan y="21.8" x="12.8">Shoes 2</tspan></text></g><g transform="translate(1977.543600,291.874250)" id="shape130"><path d="M4.0,.0L79.7,.0C81.9,.0,83.7,1.8,83.7,4.0L83.7,31.7C83.7,33.9,81.9,35.7,79.7,35.7L4.0,35.7C1.8,35.7,.0,33.9,.0,31.7L.0,4.0C.0,1.8,1.8,.0,4.0,.0z" stroke="#000000" stroke-width="2.666670083999634" fill="none"/><text style="fill:#000000;font-family:Arial Narrow;font-size:14.00pt" xml:space="preserve"><tspan y="21.8" x="12.8">Shoes 3</tspan></text></g><g transform="translate(2073.710300,291.874250)" id="shape131"><path d="M4.0,.0L79.7,.0C81.9,.0,83.7,1.8,83.7,4.0L83.7,31.7C83.7,33.9,81.9,35.7,79.7,35.7L4.0,35.7C1.8,35.7,.0,33.9,.0,31.7L.0,4.0C.0,1.8,1.8,.0,4.0,.0z" stroke="#000000" stroke-width="2.666670083999634" fill="none"/><text style="fill:#000000;font-family:Arial Narrow;font-size:14.00pt" xml:space="preserve"><tspan y="21.8" x="12.8">Shoes 1</tspan></text></g><g transform="translate(2169.877000,291.874250)" id="shape132"><path d="M4.0,.0L79.7,.0C81.9,.0,83.7,1.8,83.7,4.0L83.7,31.7C83.7,33.9,81.9,35.7,79.7,35.7L4.0,35.7C1.8,35.7,.0,33.9,.0,31.7L.0,4.0C.0,1.8,1.8,.0,4.0,.0z" stroke="#000000" stroke-width="2.666670083999634" fill="none"/><text style="fill:#000000;font-family:Arial Narrow;font-size:14.00pt" xml:space="preserve"><tspan y="21.8" x="12.8">Shoes 2</tspan></text></g><g transform="translate(2266.043700,291.874250)" id="shape133"><path d="M4.0,.0L79.7,.0C81.9,.0,83.7,1.8,83.7,4.0L83.7,31.7C83.7,33.9,81.9,35.7,79.7,35.7L4.0,35.7C1.8,35.7,.0,33.9,.0,31.7L.0,4.0C.0,1.8,1.8,.0,4.0,.0z" stroke="#000000" stroke-width="2.666670083999634" fill="none"/><text style="fill:#000000;font-family:Arial Narrow;font-size:14.00pt" xml:space="preserve"><tspan y="21.8" x="12.8">Shoes 3</tspan></text></g><g transform="translate(1208.209800,546.667050)" id="shape134"><path d="M4.0,.0L79.7,.0C81.9,.0,83.7,1.8,83.7,4.0L83.7,31.7C83.7,33.9,81.9,35.7,79.7,35.7L4.0,35.7C1.8,35.7,.0,33.9,.0,31.7L.0,4.0C.0,1.8,1.8,.0,4.0,.0z" stroke="#000000" stroke-width="2.666670083999634" fill="none"/><text style="fill:#000000;font-family:Arial Narrow;font-size:14.00pt" xml:space="preserve"><tspan y="21.8" x="12.8">Shoes 1</tspan></text></g><g transform="translate(1304.376500,546.667050)" id="shape135"><path d="M4.0,.0L79.7,.0C81.9,.0,83.7,1.8,83.7,4.0L83.7,31.7C83.7,33.9,81.9,35.7,79.7,35.7L4.0,35.7C1.8,35.7,.0,33.9,.0,31.7L.0,4.0C.0,1.8,1.8,.0,4.0,.0z" stroke="#000000" stroke-width="2.666670083999634" fill="none"/><text style="fill:#000000;font-family:Arial Narrow;font-size:14.00pt" xml:space="preserve"><tspan y="21.8" x="12.8">Shoes 2</tspan></text></g><g transform="translate(1400.543200,546.667050)" id="shape136"><path d="M4.0,.0L79.7,.0C81.9,.0,83.7,1.8,83.7,4.0L83.7,31.7C83.7,33.9,81.9,35.7,79.7,35.7L4.0,35.7C1.8,35.7,.0,33.9,.0,31.7L.0,4.0C.0,1.8,1.8,.0,4.0,.0z" stroke="#000000" stroke-width="2.666670083999634" fill="none"/><text style="fill:#000000;font-family:Arial Narrow;font-size:14.00pt" xml:space="preserve"><tspan y="21.8" x="12.8">Shoes 3</tspan></text></g><g transform="translate(1496.709900,546.667050)" id="shape137"><path d="M4.0,.0L79.7,.0C81.9,.0,83.7,1.8,83.7,4.0L83.7,31.7C83.7,33.9,81.9,35.7,79.7,35.7L4.0,35.7C1.8,35.7,.0,33.9,.0,31.7L.0,4.0C.0,1.8,1.8,.0,4.0,.0z" stroke="#000000" stroke-width="2.666670083999634" fill="none"/><text style="fill:#000000;font-family:Arial Narrow;font-size:14.00pt" xml:space="preserve"><tspan y="21.8" x="12.8">Shoes 1</tspan></text></g><g transform="translate(1592.876600,546.667050)" id="shape138"><path d="M4.0,.0L79.7,.0C81.9,.0,83.7,1.8,83.7,4.0L83.7,31.7C83.7,33.9,81.9,35.7,79.7,35.7L4.0,35.7C1.8,35.7,.0,33.9,.0,31.7L.0,4.0C.0,1.8,1.8,.0,4.0,.0z" stroke="#000000" stroke-width="2.666670083999634" fill="none"/><text style="fill:#000000;font-family:Arial Narrow;font-size:14.00pt" xml:space="preserve"><tspan y="21.8" x="12.8">Shoes 2</tspan></text></g><g transform="translate(1689.043300,546.667050)" id="shape139"><path d="M4.0,.0L79.7,.0C81.9,.0,83.7,1.8,83.7,4.0L83.7,31.7C83.7,33.9,81.9,35.7,79.7,35.7L4.0,35.7C1.8,35.7,.0,33.9,.0,31.7L.0,4.0C.0,1.8,1.8,.0,4.0,.0z" stroke="#000000" stroke-width="2.666670083999634" fill="none"/><text style="fill:#000000;font-family:Arial Narrow;font-size:14.00pt" xml:space="preserve"><tspan y="21.8" x="12.8">Shoes 3</tspan></text></g><g transform="translate(1785.210000,546.667050)" id="shape140"><path d="M4.0,.0L79.7,.0C81.9,.0,83.7,1.8,83.7,4.0L83.7,31.7C83.7,33.9,81.9,35.7,79.7,35.7L4.0,35.7C1.8,35.7,.0,33.9,.0,31.7L.0,4.0C.0,1.8,1.8,.0,4.0,.0z" stroke="#000000" stroke-width="2.666670083999634" fill="none"/><text style="fill:#000000;font-family:Arial Narrow;font-size:14.00pt" xml:space="preserve"><tspan y="21.8" x="12.8">Shoes 1</tspan></text></g><g transform="translate(1881.376700,546.667050)" id="shape141"><path d="M4.0,.0L79.7,.0C81.9,.0,83.7,1.8,83.7,4.0L83.7,31.7C83.7,33.9,81.9,35.7,79.7,35.7L4.0,35.7C1.8,35.7,.0,33.9,.0,31.7L.0,4.0C.0,1.8,1.8,.0,4.0,.0z" stroke="#000000" stroke-width="2.666670083999634" fill="none"/><text style="fill:#000000;font-family:Arial Narrow;font-size:14.00pt" xml:space="preserve"><tspan y="21.8" x="12.8">Shoes 2</tspan></text></g><g transform="translate(1977.543400,546.667050)" id="shape142"><path d="M4.0,.0L79.7,.0C81.9,.0,83.7,1.8,83.7,4.0L83.7,31.7C83.7,33.9,81.9,35.7,79.7,35.7L4.0,35.7C1.8,35.7,.0,33.9,.0,31.7L.0,4.0C.0,1.8,1.8,.0,4.0,.0z" stroke="#000000" stroke-width="2.666670083999634" fill="none"/><text style="fill:#000000;font-family:Arial Narrow;font-size:14.00pt" xml:space="preserve"><tspan y="21.8" x="12.8">Shoes 3</tspan></text></g><g transform="translate(2073.710100,546.667050)" id="shape143"><path d="M4.0,.0L79.7,.0C81.9,.0,83.7,1.8,83.7,4.0L83.7,31.7C83.7,33.9,81.9,35.7,79.7,35.7L4.0,35.7C1.8,35.7,.0,33.9,.0,31.7L.0,4.0C.0,1.8,1.8,.0,4.0,.0z" stroke="#000000" stroke-width="2.666670083999634" fill="none"/><text style="fill:#000000;font-family:Arial Narrow;font-size:14.00pt" xml:space="preserve"><tspan y="21.8" x="12.8">Shoes 1</tspan></text></g><g transform="translate(2169.876800,546.667050)" id="shape144"><path d="M4.0,.0L79.7,.0C81.9,.0,83.7,1.8,83.7,4.0L83.7,31.7C83.7,33.9,81.9,35.7,79.7,35.7L4.0,35.7C1.8,35.7,.0,33.9,.0,31.7L.0,4.0C.0,1.8,1.8,.0,4.0,.0z" stroke="#000000" stroke-width="2.666670083999634" fill="none"/><text style="fill:#000000;font-family:Arial Narrow;font-size:14.00pt" xml:space="preserve"><tspan y="21.8" x="12.8">Shoes 2</tspan></text></g><g transform="translate(2266.043500,546.667050)" id="shape145"><path d="M4.0,.0L79.7,.0C81.9,.0,83.7,1.8,83.7,4.0L83.7,31.7C83.7,33.9,81.9,35.7,79.7,35.7L4.0,35.7C1.8,35.7,.0,33.9,.0,31.7L.0,4.0C.0,1.8,1.8,.0,4.0,.0z" stroke="#000000" stroke-width="2.666670083999634" fill="none"/><text style="fill:#000000;font-family:Arial Narrow;font-size:14.00pt" xml:space="preserve"><tspan y="21.8" x="12.8">Shoes 3</tspan></text></g><g transform="translate(36.707800,546.667050)" id="shape146"><path d="M4.0,.0L79.7,.0C81.9,.0,83.7,1.8,83.7,4.0L83.7,31.7C83.7,33.9,81.9,35.7,79.7,35.7L4.0,35.7C1.8,35.7,.0,33.9,.0,31.7L.0,4.0C.0,1.8,1.8,.0,4.0,.0z" stroke="#000000" stroke-width="2.666670083999634" fill="none"/><text style="fill:#000000;font-family:Arial Narrow;font-size:14.00pt" xml:space="preserve"><tspan y="21.8" x="12.8">Shoes 1</tspan></text></g><g transform="translate(132.874500,546.667050)" id="shape147"><path d="M4.0,.0L79.7,.0C81.9,.0,83.7,1.8,83.7,4.0L83.7,31.7C83.7,33.9,81.9,35.7,79.7,35.7L4.0,35.7C1.8,35.7,.0,33.9,.0,31.7L.0,4.0C.0,1.8,1.8,.0,4.0,.0z" stroke="#000000" stroke-width="2.666670083999634" fill="none"/><text style="fill:#000000;font-family:Arial Narrow;font-size:14.00pt" xml:space="preserve"><tspan y="21.8" x="12.8">Shoes 2</tspan></text></g><g transform="translate(229.041200,546.667050)" id="shape148"><path d="M4.0,.0L79.7,.0C81.9,.0,83.7,1.8,83.7,4.0L83.7,31.7C83.7,33.9,81.9,35.7,79.7,35.7L4.0,35.7C1.8,35.7,.0,33.9,.0,31.7L.0,4.0C.0,1.8,1.8,.0,4.0,.0z" stroke="#000000" stroke-width="2.666670083999634" fill="none"/><text style="fill:#000000;font-family:Arial Narrow;font-size:14.00pt" xml:space="preserve"><tspan y="21.8" x="12.8">Shoes 3</tspan></text></g><g transform="translate(325.207900,546.667050)" id="shape149"><path d="M4.0,.0L79.7,.0C81.9,.0,83.7,1.8,83.7,4.0L83.7,31.7C83.7,33.9,81.9,35.7,79.7,35.7L4.0,35.7C1.8,35.7,.0,33.9,.0,31.7L.0,4.0C.0,1.8,1.8,.0,4.0,.0z" stroke="#000000" stroke-width="2.666670083999634" fill="none"/><text style="fill:#000000;font-family:Arial Narrow;font-size:14.00pt" xml:space="preserve"><tspan y="21.8" x="12.8">Shoes 1</tspan></text></g><g transform="translate(421.374600,546.667050)" id="shape150"><path d="M4.0,.0L79.7,.0C81.9,.0,83.7,1.8,83.7,4.0L83.7,31.7C83.7,33.9,81.9,35.7,79.7,35.7L4.0,35.7C1.8,35.7,.0,33.9,.0,31.7L.0,4.0C.0,1.8,1.8,.0,4.0,.0z" stroke="#000000" stroke-width="2.666670083999634" fill="none"/><text style="fill:#000000;font-family:Arial Narrow;font-size:14.00pt" xml:space="preserve"><tspan y="21.8" x="12.8">Shoes 2</tspan></text></g><g transform="translate(517.541300,546.667050)" id="shape151"><path d="M4.0,.0L79.7,.0C81.9,.0,83.7,1.8,83.7,4.0L83.7,31.7C83.7,33.9,81.9,35.7,79.7,35.7L4.0,35.7C1.8,35.7,.0,33.9,.0,31.7L.0,4.0C.0,1.8,1.8,.0,4.0,.0z" stroke="#000000" stroke-width="2.666670083999634" fill="none"/><text style="fill:#000000;font-family:Arial Narrow;font-size:14.00pt" xml:space="preserve"><tspan y="21.8" x="12.8">Shoes 3</tspan></text></g><g transform="translate(613.708000,546.667050)" id="shape152"><path d="M4.0,.0L79.7,.0C81.9,.0,83.7,1.8,83.7,4.0L83.7,31.7C83.7,33.9,81.9,35.7,79.7,35.7L4.0,35.7C1.8,35.7,.0,33.9,.0,31.7L.0,4.0C.0,1.8,1.8,.0,4.0,.0z" stroke="#000000" stroke-width="2.666670083999634" fill="none"/><text style="fill:#000000;font-family:Arial Narrow;font-size:14.00pt" xml:space="preserve"><tspan y="21.8" x="12.8">Shoes 1</tspan></text></g><g transform="translate(709.874700,546.667050)" id="shape153"><path d="M4.0,.0L79.7,.0C81.9,.0,83.7,1.8,83.7,4.0L83.7,31.7C83.7,33.9,81.9,35.7,79.7,35.7L4.0,35.7C1.8,35.7,.0,33.9,.0,31.7L.0,4.0C.0,1.8,1.8,.0,4.0,.0z" stroke="#000000" stroke-width="2.666670083999634" fill="none"/><text style="fill:#000000;font-family:Arial Narrow;font-size:14.00pt" xml:space="preserve"><tspan y="21.8" x="12.8">Shoes 2</tspan></text></g><g transform="translate(806.041400,546.667050)" id="shape154"><path d="M4.0,.0L79.7,.0C81.9,.0,83.7,1.8,83.7,4.0L83.7,31.7C83.7,33.9,81.9,35.7,79.7,35.7L4.0,35.7C1.8,35.7,.0,33.9,.0,31.7L.0,4.0C.0,1.8,1.8,.0,4.0,.0z" stroke="#000000" stroke-width="2.666670083999634" fill="none"/><text style="fill:#000000;font-family:Arial Narrow;font-size:14.00pt" xml:space="preserve"><tspan y="21.8" x="12.8">Shoes 3</tspan></text></g><g transform="translate(902.208100,546.667050)" id="shape155"><path d="M4.0,.0L79.7,.0C81.9,.0,83.7,1.8,83.7,4.0L83.7,31.7C83.7,33.9,81.9,35.7,79.7,35.7L4.0,35.7C1.8,35.7,.0,33.9,.0,31.7L.0,4.0C.0,1.8,1.8,.0,4.0,.0z" stroke="#000000" stroke-width="2.666670083999634" fill="none"/><text style="fill:#000000;font-family:Arial Narrow;font-size:14.00pt" xml:space="preserve"><tspan y="21.8" x="12.8">Shoes 1</tspan></text></g><g transform="translate(998.374800,546.667050)" id="shape156"><path d="M4.0,.0L79.7,.0C81.9,.0,83.7,1.8,83.7,4.0L83.7,31.7C83.7,33.9,81.9,35.7,79.7,35.7L4.0,35.7C1.8,35.7,.0,33.9,.0,31.7L.0,4.0C.0,1.8,1.8,.0,4.0,.0z" stroke="#000000" stroke-width="2.666670083999634" fill="none"/><text style="fill:#000000;font-family:Arial Narrow;font-size:14.00pt" xml:space="preserve"><tspan y="21.8" x="12.8">Shoes 2</tspan></text></g><g transform="translate(1094.541500,546.667050)" id="shape157"><path d="M4.0,.0L79.7,.0C81.9,.0,83.7,1.8,83.7,4.0L83.7,31.7C83.7,33.9,81.9,35.7,79.7,35.7L4.0,35.7C1.8,35.7,.0,33.9,.0,31.7L.0,4.0C.0,1.8,1.8,.0,4.0,.0z" stroke="#000000" stroke-width="2.666670083999634" fill="none"/><text style="fill:#000000;font-family:Arial Narrow;font-size:14.00pt" xml:space="preserve"><tspan y="21.8" x="12.8">Shoes 3</tspan></text></g><g transform="translate(36.707800,812.667050)" id="shape158"><path d="M4.0,.0L79.7,.0C81.9,.0,83.7,1.8,83.7,4.0L83.7,31.7C83.7,33.9,81.9,35.7,79.7,35.7L4.0,35.7C1.8,35.7,.0,33.9,.0,31.7L.0,4.0C.0,1.8,1.8,.0,4.0,.0z" stroke="#000000" stroke-width="2.666670083999634" fill="none"/><text style="fill:#000000;font-family:Arial Narrow;font-size:14.00pt" xml:space="preserve"><tspan y="21.8" x="12.8">Shoes 1</tspan></text></g><g transform="translate(132.874500,812.667050)" id="shape159"><path d="M4.0,.0L79.7,.0C81.9,.0,83.7,1.8,83.7,4.0L83.7,31.7C83.7,33.9,81.9,35.7,79.7,35.7L4.0,35.7C1.8,35.7,.0,33.9,.0,31.7L.0,4.0C.0,1.8,1.8,.0,4.0,.0z" stroke="#000000" stroke-width="2.666670083999634" fill="none"/><text style="fill:#000000;font-family:Arial Narrow;font-size:14.00pt" xml:space="preserve"><tspan y="21.8" x="12.8">Shoes 2</tspan></text></g><g transform="translate(229.041200,812.667050)" id="shape160"><path d="M4.0,.0L79.7,.0C81.9,.0,83.7,1.8,83.7,4.0L83.7,31.7C83.7,33.9,81.9,35.7,79.7,35.7L4.0,35.7C1.8,35.7,.0,33.9,.0,31.7L.0,4.0C.0,1.8,1.8,.0,4.0,.0z" stroke="#000000" stroke-width="2.666670083999634" fill="none"/><text style="fill:#000000;font-family:Arial Narrow;font-size:14.00pt" xml:space="preserve"><tspan y="21.8" x="12.8">Shoes 3</tspan></text></g><g transform="translate(325.207900,812.667050)" id="shape161"><path d="M4.0,.0L79.7,.0C81.9,.0,83.7,1.8,83.7,4.0L83.7,31.7C83.7,33.9,81.9,35.7,79.7,35.7L4.0,35.7C1.8,35.7,.0,33.9,.0,31.7L.0,4.0C.0,1.8,1.8,.0,4.0,.0z" stroke="#000000" stroke-width="2.666670083999634" fill="none"/><text style="fill:#000000;font-family:Arial Narrow;font-size:14.00pt" xml:space="preserve"><tspan y="21.8" x="12.8">Shoes 1</tspan></text></g><g transform="translate(421.374600,812.667050)" id="shape162"><path d="M4.0,.0L79.7,.0C81.9,.0,83.7,1.8,83.7,4.0L83.7,31.7C83.7,33.9,81.9,35.7,79.7,35.7L4.0,35.7C1.8,35.7,.0,33.9,.0,31.7L.0,4.0C.0,1.8,1.8,.0,4.0,.0z" stroke="#000000" stroke-width="2.666670083999634" fill="none"/><text style="fill:#000000;font-family:Arial Narrow;font-size:14.00pt" xml:space="preserve"><tspan y="21.8" x="12.8">Shoes 2</tspan></text></g><g transform="translate(517.541300,812.667050)" id="shape163"><path d="M4.0,.0L79.7,.0C81.9,.0,83.7,1.8,83.7,4.0L83.7,31.7C83.7,33.9,81.9,35.7,79.7,35.7L4.0,35.7C1.8,35.7,.0,33.9,.0,31.7L.0,4.0C.0,1.8,1.8,.0,4.0,.0z" stroke="#000000" stroke-width="2.666670083999634" fill="none"/><text style="fill:#000000;font-family:Arial Narrow;font-size:14.00pt" xml:space="preserve"><tspan y="21.8" x="12.8">Shoes 3</tspan></text></g><g transform="translate(613.708000,812.667050)" id="shape164"><path d="M4.0,.0L79.7,.0C81.9,.0,83.7,1.8,83.7,4.0L83.7,31.7C83.7,33.9,81.9,35.7,79.7,35.7L4.0,35.7C1.8,35.7,.0,33.9,.0,31.7L.0,4.0C.0,1.8,1.8,.0,4.0,.0z" stroke="#000000" stroke-width="2.666670083999634" fill="none"/><text style="fill:#000000;font-family:Arial Narrow;font-size:14.00pt" xml:space="preserve"><tspan y="21.8" x="12.8">Shoes 1</tspan></text></g><g transform="translate(709.874700,812.667050)" id="shape165"><path d="M4.0,.0L79.7,.0C81.9,.0,83.7,1.8,83.7,4.0L83.7,31.7C83.7,33.9,81.9,35.7,79.7,35.7L4.0,35.7C1.8,35.7,.0,33.9,.0,31.7L.0,4.0C.0,1.8,1.8,.0,4.0,.0z" stroke="#000000" stroke-width="2.666670083999634" fill="none"/><text style="fill:#000000;font-family:Arial Narrow;font-size:14.00pt" xml:space="preserve"><tspan y="21.8" x="12.8">Shoes 2</tspan></text></g><g transform="translate(806.041400,812.667050)" id="shape166"><path d="M4.0,.0L79.7,.0C81.9,.0,83.7,1.8,83.7,4.0L83.7,31.7C83.7,33.9,81.9,35.7,79.7,35.7L4.0,35.7C1.8,35.7,.0,33.9,.0,31.7L.0,4.0C.0,1.8,1.8,.0,4.0,.0z" stroke="#000000" stroke-width="2.666670083999634" fill="none"/><text style="fill:#000000;font-family:Arial Narrow;font-size:14.00pt" xml:space="preserve"><tspan y="21.8" x="12.8">Shoes 3</tspan></text></g><g transform="translate(902.208100,812.667050)" id="shape167"><path d="M4.0,.0L79.7,.0C81.9,.0,83.7,1.8,83.7,4.0L83.7,31.7C83.7,33.9,81.9,35.7,79.7,35.7L4.0,35.7C1.8,35.7,.0,33.9,.0,31.7L.0,4.0C.0,1.8,1.8,.0,4.0,.0z" stroke="#000000" stroke-width="2.666670083999634" fill="none"/><text style="fill:#000000;font-family:Arial Narrow;font-size:14.00pt" xml:space="preserve"><tspan y="21.8" x="12.8">Shoes 1</tspan></text></g><g transform="translate(998.374800,812.667050)" id="shape168"><path d="M4.0,.0L79.7,.0C81.9,.0,83.7,1.8,83.7,4.0L83.7,31.7C83.7,33.9,81.9,35.7,79.7,35.7L4.0,35.7C1.8,35.7,.0,33.9,.0,31.7L.0,4.0C.0,1.8,1.8,.0,4.0,.0z" stroke="#000000" stroke-width="2.666670083999634" fill="none"/><text style="fill:#000000;font-family:Arial Narrow;font-size:14.00pt" xml:space="preserve"><tspan y="21.8" x="12.8">Shoes 2</tspan></text></g><g transform="translate(1094.541500,812.667050)" id="shape169"><path d="M4.0,.0L79.7,.0C81.9,.0,83.7,1.8,83.7,4.0L83.7,31.7C83.7,33.9,81.9,35.7,79.7,35.7L4.0,35.7C1.8,35.7,.0,33.9,.0,31.7L.0,4.0C.0,1.8,1.8,.0,4.0,.0z" stroke="#000000" stroke-width="2.666670083999634" fill="none"/><text style="fill:#000000;font-family:Arial Narrow;font-size:14.00pt" xml:space="preserve"><tspan y="21.8" x="12.8">Shoes 3</tspan></text></g><path transform="translate(1775.959000,86.240900)" d="M.0,.0L607.6,.0" stroke="#000000" stroke-width="2.666670083999634" id="shape170" fill="none"/><path transform="matrix(0.000000,1.000000,-1.000000,0.000000,2383.520000,86.174000)" d="M.0,.0L265.3,.0" stroke="#000000" stroke-width="2.666670083999634" id="shape171" fill="none"/><path transform="matrix(-1.000000,0.000000,0.000000,-1.000000,2384.180000,351.000000)" d="M.0,.0L2382.7,.0" stroke="#000000" stroke-width="2.666670083999634" id="shape172" fill="none"/><path transform="matrix(0.000000,1.000000,-1.000000,0.000000,1.944880,350.621000)" d="M.0,.0L266.8,.0" stroke="#000000" stroke-width="2.666670083999634" id="shape173" fill="none"/><path transform="matrix(-1.000000,0.000000,0.000000,-1.000000,607.520000,616.380000)" d="M.0,.0L606.0,.0" stroke="#000000" stroke-width="2.666670083999634" id="shape174" fill="none"/><path transform="translate(607.000000,616.000000)" d="M.0,.0L.0,25.0" stroke="#000000" stroke-width="2.666670083999634" id="shape175" fill="none"/><path transform="translate(1779.000000,350.000000)" d="M.0,.0L.0,25.0" stroke="#000000" stroke-width="2.666670083999634" id="shape176" fill="none"/><path transform="translate(607.000000,350.000000)" d="M.0,.0L.0,25.0" stroke="#000000" stroke-width="2.666670083999634" id="shape177" fill="none"/></g></svg>