<?xml version="1.0" encoding="UTF-8"?>
<!DOCTYPE svg  PUBLIC '-//W3C//DTD SVG 1.1//EN'  'http://www.w3.org/Graphics/SVG/1.1/DTD/svg11.dtd'>
<svg clip-rule="evenodd" fill-rule="evenodd" image-rendering="optimizeQuality" shape-rendering="geometricPrecision" text-rendering="geometricPrecision" version="1.1" viewBox="0 0 1000 1000" xml:space="preserve" xmlns="http://www.w3.org/2000/svg">
 <defs>
  <style type="text/css">
   <![CDATA[
    .fil1 {fill:#02CAFD}
    .fil0 {fill:#232F3F}
   ]]>
  </style>
 </defs>
 
  
  <circle class="fil0" cx="500" cy="500" r="500"/>
  
   <path class="fil1" d="m319.35 302.02c-0.04-8.58 2.02-12.15-7-12.56-25.36-1.15-18.97-2.71-18.97 52.76 0 9.38-2 47.07 1.09 52.15 4.5 3.31 18.82 2.13 25.13 0.82 2.04-8.62 0.76-36.77 0.76-47.41 0-12.93-2.51-34.42 11.96-35.27 16.27-0.95 13.17 20.89 13.16 34.16 0 53.67-4.44 49.21 13.41 49.23 1.88 0 5.06 0.19 6.75 0.07 4.75-0.34 2.58 0.71 5.41-1.72 3.09-4.9 1.24-37.89 1.24-46.47 0-12.88-2.77-33.92 12.36-35.08 17.1-1.31 12.53 20.51 12.54 35.08 0.01 9.25-1.31 41.56 0.98 47.27 5.74 1.6 21.08 2.71 24.87-0.93 2.82-3.19 1.56-81.44 0.29-86.59-5.06-20.53-28.46-24.85-42.6-15.67-7.07 4.61-5.87 6.59-10.73 12.42-6.85-7.98-8.17-15.86-23.3-16.93-6.45-0.46-11.75 1.1-16.54 3.97-5.48 3.28-4.35 3.64-7.16 7.16l-3.65 3.54z"/>
   <path class="fil1" d="m237.24 635.56c0.02-11.11 0-22.23 0-33.34 0-21.5-2.6-23 6.27-27.69 17.72-9.38 36.5-7.33 45.12 9.16 7.4 14.15 5.17 44.04-4.45 54.91-12.99 14.69-41.14 5.57-46.94-3.04zm-0.11 17.02c6.93 1.97 10.03 8.98 27.32 10.47 10.53 0.9 21.54-1.48 28.57-6.73 28.74-21.45 29.02-83.98-3.73-99.98-27.47-13.43-49.16 7.17-53.55 9.02-1.3-4.28-0.75-8.4-4.78-9.64-3.74-1.15-10.54-0.58-13.21 0.87-3.72 4.26-1.79 27.51-1.79 35.63 0 17-1.86 107.13 1.48 110.37 3.53 2.36 13.59 1.79 18.3 0.78 3.13-7.01 1.58-39.95 1.39-50.79z"/>
   <path class="fil1" d="m355.85 578.74c10.16-6.37 24.45-13.63 39.43-7.33 29.56 12.44 22.47 106.6-39.39 65.08l-0.04-57.75zm0.12 73.55c9.08 3.55 10.55 8.72 25.42 10.53 61.37 7.47 65.25-87.43 27.6-106.17-27.8-13.84-50.69 7.17-54.55 8.44-1.65-4.69 0.61-7.95-4.55-9.38-3.79-1.06-10.5-0.7-13.12 1-2.04 1.74-1.86 2.76-1.87 7.66-0.06 22.56-1.37 136.11 1.77 138.71 4.32 1.72 14.54 1.61 18.06-0.39 3.27-7.21 0.86-39.49 1.24-50.4z"/>
   <path class="fil1" d="m243.65 345.02c-0.09 9.97 0.6 18.94-4.86 25.98-14.89 19.18-32.36-5.36-19.49-19.5 4.94-5.43 14.24-7.31 24.35-6.48zm-30.2-22.95c3.92-6.55 4.86-15.39 17.66-14.87 5.42 0.22 9.06 2.95 10.86 6.35 0.94 1.77 1.46 4.06 1.71 6.41l-0.27 6.57c-0.06 0.33-0.22 0.72-0.28 0.98-0.07 0.26-0.19 0.66-0.33 0.97-16.03 3.88-25.8 0.69-40.32 9.55-9.98 6.09-17.35 17.43-15.65 34.24 0.76 7.58 3.7 12.28 7.5 16.76 8.51 10.06 26.44 10.01 38.21 5.68 7.66-2.83 10.08-7.68 15.24-10.28 4.96 4.4 5.44 8.41 12.22 12.21 4.23-0.74 18.14-11.74 19.23-15.09 1.13-3.49-3.6-7.44-5.07-10.17-9.05-16.78 6.09-59.35-11.95-75.81-12.16-11.1-39.35-11.77-55.45-3.22-7.2 3.82-12.34 10.07-15.65 18.78-3.18 8.35-1.33 8.95 5.82 9.81 5.55 0.67 10.75 1.17 16.52 1.13z"/>
   <path class="fil1" d="m497.6 344.42c4.4 27.54-14.67 39.64-24.36 30.13-6.48-6.37-4.2-17.96 1.02-23.6 5.01-5.42 13.94-6.17 23.34-6.53zm-52.8-24.76 22.86 2.8c4.13-7.84 5.3-15.85 17.9-15.25 11.01 0.54 13.95 10.2 12.04 21.61-30.29 1.89-60.74 8.78-56.48 43.38 3.19 25.93 28.12 29.18 45.74 22.38 6.82-2.63 9.87-7.77 15.72-10.43 2.06 4.31 7.65 10.13 11.86 12.56 3.18 0.49 17.73-13.37 17.8-13.48 3.56-5.83-5.86-11.4-6.91-22.11-1.64-16.74 3.49-46.26-3.74-59.36-6.91-12.5-28.04-18.07-46.44-14.33-15.07 3.06-33.32 15.12-30.35 32.23z"/>
   <path class="fil1" d="m759.28 306.35-1.01-15.18c-0.68-0.17-1.08-0.69-1.23-0.44l-3.66-1.16c-4.46-0.58-16.06-1.51-18.77 1.84-1.92 3.14-2.06 99.2-0.08 102.81 2.8 2.38 0.79 1.37 5.39 1.74 2.73 0.21 17.93 0.28 19.34-1.18 2.69-6.01 0.97-37.54 0.96-47-0.02-14.49-0.64-33.93 13.26-35.35 15.75-1.62 13.08 20.75 13.08 34.24 0 9.63-1.78 41.89 0.91 48.03 2.55 1.33 21.06 2.57 24.28 0.46 4.11-2.68 1.78-18.83 1.78-24.05 0-17.24 0.44-35.07-0.32-52.24-0.72-16.12-6.38-27.7-21.19-30.86-18.95-4.04-26.34 6.21-32.74 18.34z"/>
   <path class="fil1" d="m673.04 308.3c15.94-3.11 16.92 18.05 17.44 31.7 0.53 14.19-0.16 34.52-13.32 37.21-14.9 3.06-17.06-19.11-17.22-31.64-0.2-15.2-1.01-34.53 13.1-37.27zm-8.94-19.23c-13.87 4.21-21.25 10.15-26.75 22.65-5.7 12.93-8.04 27.6-5.62 43.4 10.34 67.7 97.91 53.65 86.41-24.5-3.75-25.52-23.14-50.92-54.04-41.55z"/>
   <path class="fil1" d="m275.88 408.33c-3.32 3.5 6.25 9.81 9.2 12.15 4.34 3.43 9.63 7.1 13.99 10.44 73.74 56.49 195.75 57.83 268.58 8.93 5.78-3.88 13.8-8.47 9.14-13.23-3.64-3.71-14.66 2.01-18.85 3.61-85.86 32.78-184.63 26.66-265.48-16.02-2.54-1.34-5.23-2.34-8.1-4.07-7.5-4.53-6.31-4.1-8.48-1.81z"/>
   <path class="fil1" d="m631.14 612.22c-1.45-21.51 5.31-40.54 24.54-42.79 23.33-2.73 32.58 12.25 33.59 33.89 1.03 22.2-3.94 41.54-24.76 43.61-24.16 2.39-31.97-13.73-33.37-34.71zm-20.65 5.56c2.47 23.24 14.52 39.39 34.93 44.54 39.68 10.02 70.39-17.6 64.89-62.99-2.22-18.3-6.48-26.53-17.04-35.95-24.6-21.91-90.32-16.67-82.78 54.4z"/>
   <path class="fil1" d="m175.29 616.73 0.02 20.7c-8.01 5.02-12.73 8.73-24.59 10.11-11.13 1.29-19.21-2.74-20.44-13.31-2.74-23.64 27.6-23.69 45.01-17.5zm19.18 43.28c1.71-6.27 1.09-65.5 0.64-76.63-1.97-49.39-73.64-26.62-77.16-23.19-2.33 2.26-3.89 13.04 1.04 13.92 1.66 0.3 12.23-2.68 15.26-3.24 43.88-8.01 40.86 7.58 41.1 31.25-6.37 0.16-14.59-2.68-23.09-2.77-56.77-0.57-52.97 57.46-17.63 63.76 20.2 3.6 32.34-7.42 40.93-11.72 3.64 4.62-0.51 8.08 5.71 9.35 3.18 0.64 10.71-0.09 13.2-0.73z"/>
   <path class="fil1" d="m820.39 598.58c-0.41-17.1 8.9-29.03 25.11-30.16 19.22-1.35 29.45 10.85 25.58 30.36l-50.69-0.2zm-0.09 14.18c8.49 0.16 65.12 1.43 67.91-1.19 4.04-3.79 2.5-24.3 1.18-29.98-8-34.44-46.87-34.1-67.06-22.57-6.46 3.68-12.64 11.1-16.21 18.18-10.89 21.6-9.59 60.7 13.04 78.03 20.82 15.94 64.48 6.71 68.37 0.16 1.57-2.65 1.96-11.63-1.26-12.86-5.18-1.99-64.4 24.73-65.97-29.77z"/>
   <path class="fil1" d="m549.64 289.76c-1.17 4.83-1.89 15.67 0.38 20.24 5.41 2.38 27.08 0.73 34.69 0.94l-31.61 46.59c-9.74 12.59-8.1 14.58-8.1 31.36 0 8.51 10.07 1.85 14.21 0.28 32.96-12.48 57.17 6.15 61.07 3.41 2.33-2.79 1.68-10.84 1.54-15.96-0.19-7-1.75-7.49-7.39-9.86-9.87-4.15-18.9-5.4-31.17-5.7 1.19-3.35 2.78-4.89 4.57-7.67l15.51-22.23c13.73-20.51 16.86-18.53 16.85-34.49 0-10.64-6.98-7.37-16.86-7.37-10.96 0-45.24-0.58-53.69 0.46z"/>
   <path class="fil1" d="m445.7 643.56c-2.29 4.25-1.42 12.01 2.11 14.19 9.25 5.71 34.8 7.87 47.84 4.54 25.41-6.49 30.81-31.57 21.25-45.91-10.34-15.52-40.06-16.46-48.7-26.8-3.09-3.69-3.44-10.4-0.96-14.55 7.87-13.12 39.75-1.39 47.2-2.96 1.46-3.39 1.38-8.88-0.01-11.83-5.84-10.53-71.36-17.8-68.35 25.28 2.54 36.4 62.42 24.54 55 51.97-5.84 21.58-50.16 2.51-55.38 6.07z"/>
   <path class="fil1" d="m529.17 559.14c-1.19 3.36-1.16 8.25-0.06 12.2l17.86 0.6c3.32 20.39-3.1 52.7 2.02 72.6 6.13 23.86 41.52 19.31 51.17 13.22l-0.54-12.97c-17.22-3.91-31.18 12.75-31.15-20.34 0.02-17.63-0.2-35.35 0.08-52.96 7.06 0.42 24.81 1.11 30.08-0.63 1.4-3.94 1.78-11.42-0.74-14.34-5.62-2.71-21.7-1.19-29.06-0.93-0.82-8.25 1.06-22.39-1.25-28.7-20.8-7.16-17.25 8.6-18.59 22.07-1.31 13.19-9.73 5.44-19.82 10.18z"/>
   <path class="fil1" d="m753.1 583.33c20.15-16.74 34.93-5.67 38.69-11.59 2.18-3.44 0.86-12.78-0.38-15.34-5.1-3.85-17.66-1.01-23.45 1.65-6.87 3.15-10.75 8.99-16.45 11.69-0.98-5.55-0.36-10.33-3.39-13.44-3.51-1.29-11.52-1.69-14.6 0.53-2.48 2.94-1.7 7.32-1.64 12.05 0.14 14.3-1.39 88.92 1.45 91.2 4.36 1.52 14.73 1.12 18.7-0.19 3.34-10.86-0.56-59.71 1.07-76.56z"/>
   <path class="fil1" d="m545.15 414.89c5.42 1.38 16.17-0.93 22.59-1.23 4.12-0.18 9.11-0.32 13.2 0.06 1.42 0.14 4.01 0.54 5.33 1.02 15.57 5.72-6.79 36.27-5.04 47.03 14.26-0.29 30.41-43.04 25.53-55.4-4.8-12.13-62.01-4.58-61.61 8.52z"/>
  
 
</svg>
