<?xml version="1.0" encoding="UTF-8"?>
<!DOCTYPE svg  PUBLIC '-//W3C//DTD SVG 1.1//EN'  'http://www.w3.org/Graphics/SVG/1.1/DTD/svg11.dtd'>
<svg clip-rule="evenodd" fill-rule="evenodd" image-rendering="optimizeQuality" shape-rendering="geometricPrecision" text-rendering="geometricPrecision" version="1.1" viewBox="0 0 1000 1000" xml:space="preserve" xmlns="http://www.w3.org/2000/svg">
 <defs>
  <style type="text/css">
   
    .fil1 {fill:white}
    .fil0 {fill:url(#a)}
   
  </style>
  <linearGradient id="a" x1="500" x2="500" y1="994.44" y2="19.44" gradientUnits="userSpaceOnUse">
   <stop stop-color="#FA233B" offset="0"/>
   <stop stop-color="#FB5C74" offset="1"/>
  </linearGradient>
 </defs>
 
  
  <circle class="fil0" cx="500" cy="500" r="500"/>
  <path class="fil1" d="m706.96 152.83c-2.41 0.23-23.89 4.03-26.47 4.56l-297.25 59.96-0.11 0.03c-7.75 1.64-13.84 4.39-18.53 8.33-5.67 4.75-8.81 11.47-10 19.31-0.25 1.67-0.67 5.05-0.67 10.05v371.95c0 8.7-0.69 17.14-6.58 24.33-5.89 7.2-13.17 9.36-21.7 11.09-6.47 1.3-12.95 2.61-19.42 3.91-24.56 4.95-40.53 8.31-55 13.92-13.84 5.36-24.2 12.19-32.45 20.86-16.36 17.13-23 40.38-20.72 62.15 1.94 18.59 10.3 36.36 24.66 49.5 9.7 8.89 21.81 15.64 36.09 18.5 14.81 2.97 30.59 1.94 53.64-2.73 12.28-2.47 23.78-6.33 34.73-12.8 10.83-6.39 20.11-14.91 27.36-25.3 7.28-10.42 11.98-22 14.56-34.3 2.67-12.7 3.31-24.17 3.31-36.83v-322.6c0-17.27 4.89-21.83 18.83-25.22 0 0 247.08-49.82 258.61-52.07 16.08-3.09 23.67 1.5 23.67 18.35v220.23c0 8.72-0.08 17.55-6.03 24.77-5.89 7.19-13.17 9.36-21.69 11.08-6.48 1.31-12.95 2.61-19.42 3.92-24.56 4.94-40.54 8.3-55.01 13.91-13.83 5.36-24.2 12.2-32.45 20.86-16.36 17.14-23.58 40.38-21.3 62.16 1.94 18.58 10.89 36.36 25.25 49.49 9.69 8.89 21.81 15.45 36.09 18.34 14.8 2.97 30.58 1.91 53.64-2.73 12.28-2.47 23.78-6.16 34.72-12.63 10.84-6.39 20.12-14.92 27.37-25.31 7.28-10.41 11.97-21.99 14.55-34.3 2.67-12.69 2.78-24.16 2.78-36.83v-471.63c0.06-17.11-8.97-27.66-25.06-26.28z"/>
 
</svg>
