<?xml version="1.0" encoding="UTF-8"?>
<!DOCTYPE svg  PUBLIC '-//W3C//DTD SVG 1.1//EN'  'http://www.w3.org/Graphics/SVG/1.1/DTD/svg11.dtd'>
<svg clip-rule="evenodd" fill-rule="evenodd" image-rendering="optimizeQuality" shape-rendering="geometricPrecision" text-rendering="geometricPrecision" version="1.1" viewBox="0 0 1000 1000" xml:space="preserve" xmlns="http://www.w3.org/2000/svg">
 <defs>
  <style type="text/css">
   
    .fil1 {fill:white;fill-rule:nonzero}
    .fil0 {fill:url(#a)}
   
  </style>
  <linearGradient id="a" x1="500" x2="500" y2="1e3" gradientUnits="userSpaceOnUse">
   <stop stop-color="#0ED4FC" offset="0"/>
   <stop stop-color="#0C57EF" offset="1"/>
  </linearGradient>
 </defs>
 
  
  <circle class="fil0" cx="500" cy="500" r="500"/>
  <path class="fil1" d="m495.69 229.78 20.25-34.99c12.5-21.87 40.37-29.25 62.24-16.75s29.25 40.37 16.75 62.24l-195.1 337.71h141.1c45.75 0 71.37 53.74 51.5 90.99h-413.7c-25.25 0-45.5-20.25-45.5-45.5 0-25.24 20.25-45.49 45.5-45.49h115.98l148.49-257.34-46.37-80.49c-12.5-21.87-5.13-49.5 16.75-62.24 21.87-12.5 49.49-5.13 62.24 16.74l19.87 35.12zm-175.48 486.07-43.74 75.86c-12.5 21.88-40.37 29.25-62.25 16.75-21.87-12.5-29.24-40.37-16.74-62.24l32.49-56.24c36.75-11.38 66.62-2.63 90.24 25.87zm376.7-137.61h118.37c25.24 0 45.49 20.25 45.49 45.49 0 25.25-20.25 45.5-45.49 45.5h-65.75l44.37 76.99c12.5 21.87 5.13 49.49-16.74 62.24-21.88 12.5-49.5 5.13-62.25-16.75-74.74-129.6-130.86-226.59-168.1-291.21-38.12-65.74-10.88-131.73 16-154.1 29.87 51.24 74.49 128.6 134.1 231.84z"/>
 
</svg>
