<?xml version="1.0" encoding="UTF-8"?>
<!DOCTYPE svg  PUBLIC '-//W3C//DTD SVG 1.1//EN'  'http://www.w3.org/Graphics/SVG/1.1/DTD/svg11.dtd'>
<svg clip-rule="evenodd" fill-rule="evenodd" image-rendering="optimizeQuality" shape-rendering="geometricPrecision" text-rendering="geometricPrecision" version="1.1" viewBox="0 0 1000 1000" xml:space="preserve" xmlns="http://www.w3.org/2000/svg">
 <defs>
  <style type="text/css">
   
    .fil1 {fill:black}
    .fil2 {fill:#40AB5D}
    .fil0 {fill:white}
    .fil5 {fill:url(#i)}
    .fil9 {fill:url(#h)}
    .fil3 {fill:url(#g)}
    .fil8 {fill:url(#f)}
    .fil4 {fill:url(#e)}
    .fil7 {fill:url(#d)}
    .fil11 {fill:url(#c)}
    .fil6 {fill:url(#b)}
    .fil10 {fill:url(#a)}
   
  </style>
  <linearGradient id="i" x1="226.86" x2="348.43" y1="551.88" y2="551.88" gradientUnits="userSpaceOnUse">
   <stop stop-color="#f90" offset="0"/>
   <stop stop-color="#FF8000" offset="1"/>
  </linearGradient>
  <linearGradient id="h" x1="501.98" x2="633.42" y1="465.95" y2="449.79" gradientUnits="userSpaceOnUse">
   <stop stop-color="#CC1953" offset="0"/>
   <stop stop-color="#241284" offset="1"/>
  </linearGradient>
  <linearGradient id="g" x1="707.73" x2="707.73" y1="397.75" y2="329.97" gradientUnits="userSpaceOnUse">
   <stop stop-color="#358C7B" offset="0"/>
   <stop stop-color="#33A65E" offset=".54902"/>
   <stop stop-color="#33A65E" offset="1"/>
  </linearGradient>
  <linearGradient id="f" x1="649.84" x2="765.62" y1="551.88" y2="551.88" gradientUnits="userSpaceOnUse">
   <stop stop-color="#232E91" offset="0"/>
   <stop stop-color="#2C439B" offset=".36863"/>
   <stop stop-color="#3559A6" offset="1"/>
  </linearGradient>
  <linearGradient id="e" x1="642.4" x2="773.06" y1="469.57" y2="446.18" gradientUnits="userSpaceOnUse">
   <stop stop-color="#232F90" offset="0"/>
   <stop stop-color="#2C5394" offset=".4"/>
   <stop stop-color="#357899" offset="1"/>
  </linearGradient>
  <linearGradient id="d" x1="515.26" x2="620.15" y1="551.88" y2="551.88" gradientUnits="userSpaceOnUse">
   <stop stop-color="#CC1953" offset="0"/>
   <stop stop-color="#78166B" offset=".63137"/>
   <stop stop-color="#241284" offset="1"/>
  </linearGradient>
  <linearGradient id="c" x1="377.16" x2="478.2" y1="316" y2="411.72" gradientUnits="userSpaceOnUse">
   <stop stop-color="#FFD100" offset="0"/>
   <stop stop-color="#FD5A22" offset="1"/>
  </linearGradient>
  <linearGradient id="b" x1="341.21" x2="514.14" y1="547.2" y2="556.56" gradientUnits="userSpaceOnUse">
   <stop stop-color="#FF8000" offset="0"/>
   <stop stop-color="#CC1953" offset="1"/>
  </linearGradient>
  <linearGradient id="a" x1="361.23" x2="494.12" y1="431.3" y2="484.45" gradientUnits="userSpaceOnUse">
   <stop stop-color="#fc0" offset="0"/>
   <stop stop-color="#CE1938" offset="1"/>
  </linearGradient>
 </defs>
 
  
  <circle class="fil0" cx="500" cy="500" r="500"/>
  
   <path class="fil1" d="m275.93 690.05c13.31 0 23.88 11.7 23.88 25.07 0 8.85-1.05 15.1-6.86 21.41-1.44 1.56-5.08 4.2-7.23 5.1-6.63 2.79-14.14 2.94-20.55-0.23-1.44-0.71-2.79-1.35-4.04-2.33-1.28-1.02-2.25-1.71-3.3-3.07-3.36-4.37-5.06-7.21-5.98-13.13-0.71-4.55-0.77-7.51 0.07-11.84 2.35-12.07 10.43-20.98 24.01-20.98zm23.09-7.17-4.87-5.08c-6.21-6.16-16.17-7.66-25.39-7.66-7.09 0-12.47 1.76-17.69 3.81-15.46 6.07-24.91 23.92-24.91 40.38 0 16.67 1.82 24.14 11.48 36.28 2.18 2.74 9.12 7.49 12.34 8.76 10.2 4.02 12.68 3.92 23.56 3.92 8.9 0 15.71-2.78 21.9-7.56 2.05-1.59 3.1-3.25 4.77-5.18v12.74h24.29v-136.54c0-0.91-0.28-1.19-1.2-1.19-28.26 0-24.29-1.89-24.28 5.97v51.35z"/>
   <path class="fil1" d="m374.27 688.85c5.99 0 11.54-0.05 16.42 4.28 2.96 2.62 4.68 6.18 4.68 11.64h-39.42c2.05-8.78 9.86-15.92 18.32-15.92zm-43.4 24.28v5.97c0 19.31 12.1 34.98 29.01 41.05 18.77 6.75 44.31 4.44 56.82-12.15 2.13-2.83 5.26-8.01 6.14-11.78l-15.87-6.43c-1.44-0.57-3.86-1.78-5.63-1.93-1.92 8.22-8.63 15.53-18.71 15.53-6.17 0-7.99 0.34-13.89-2.04-2.6-1.05-5.93-3.32-7.62-5.52-3.08-4.01-5.17-7.96-5.17-13.94h62.51c3.29-14.14 0.58-32.06-10.87-41.68-17.7-14.88-50.88-13.51-65.92 5.11-6.23 7.72-10.8 16.92-10.8 27.81z"/>
   <path class="fil1" d="m448.32 704.77c0.31-3.72 3.79-9.04 6.19-10.92 6.46-5.09 8.98-5 16.9-5 4.73 0 10.5 2.68 12.59 5.33 1.85 2.35 3.97 6.7 3.68 9.46-0.17 1.65-1.52 1.18-3.52 1.15-11.88-0.2-23.93-0.02-35.84-0.02zm-25.48 11.55c0 23.5 14.71 42.41 38.16 46.23 13.97 2.28 28.22 0.98 38.92-6.18 5.27-3.53 9.65-8.29 12.51-13.77 1.1-2.13 1.75-4.25 2.78-6.38l-21.5-8.36c-1.56 3.24-2.11 7.18-6.27 10.85-7.93 6.99-24.16 6.13-32.45-1.2-4-3.53-6.67-8.85-6.67-15.62h61.31c2.53 0 2.39-10.39 2.39-12.74 0-9.13-3.17-19.25-9.06-25.57-4.62-4.98-7.93-7.7-14.87-10.21-12.17-4.39-27.46-4.6-39.24 0.88-15.83 7.38-26.01 22.33-26.01 42.07z"/>
   <path class="fil1" d="m645.4 688.85h4.38c7.87 0 15.92 5.81 15.92 13.54v2.38h-39.01c0.12-5.62 6.09-11.89 11.54-14.33 1.88-0.84 4.44-1.59 7.17-1.59zm-44.2 27.07c0 48.8 53.82 56.03 77.09 40.45 3.53-2.37 6.53-5.13 9.03-8.49 4.34-5.83 3.71-6.36 6.25-11.66l-21.5-8.36c-0.45 0.93-0.62 1.84-1.07 2.91-0.47 1.13-0.89 1.82-1.44 2.94-2.79 5.62-9.25 9.68-16.2 9.68-7.4 0-14.27-0.32-20.02-5.87-4.11-3.97-6.65-8.56-6.65-15.63h61.31c2.37 0 2.39-9.94 2.39-11.94 0-16.44-8.55-31.49-23.94-36.58-14.37-4.75-29.22-4.72-42.69 2.6-13.44 7.31-22.56 22.3-22.56 39.95z"/>
   <path class="fil1" d="m517.59 692.04h48.58c-1.17 1.74-4.38 4.57-6.07 6.27l-37.83 37.41c-0.59 0.6-0.97 1.04-1.61 1.58-0.8 0.67-0.97 0.66-1.78 1.4-0.76 0.71-2.88 2.4-2.88 3.49v20.3c0 0.92 0.28 1.2 1.2 1.2h81.22c0.91 0 1.19-0.28 1.19-1.2v-21.89h-51.76c2.48-3.7 9.19-9 12.65-12.43l31.84-31.46c1.13-1.12 6.08-5.31 6.08-6.66v-18.71c0-0.92-0.28-1.2-1.2-1.2h-79.63v21.9z"/>
   <path class="fil1" d="m699.15 671.34v91.15c0 0.92 0.27 1.2 1.19 1.2h23.09c1.98 0 1.2-5.71 1.2-9.56 0-9.98-0.65-49.91 0.48-55.24 3.19-14.93 23.8-12.93 23.8 3.89v2.39h23.49c1.7 0 1.2-1.53 1.2-5.17 0-17.83-10-29.86-26.68-29.86-5.58 0-10.16 1.58-13.77 3.74-5.4 3.23-6.66 7.26-8.52 9.4v-13.14h-24.29c-0.92 0-1.19 0.28-1.19 1.2z"/>
  
  <polygon class="fil2" points="649.84 303.74 765.62 303.74 765.62 235.96 649.84 235.96"/>
  <polygon class="fil3" points="649.84 397.75 765.62 397.75 765.62 329.97 649.84 329.97"/>
  <polygon class="fil4" points="649.84 491.77 765.62 491.77 765.62 423.98 649.84 423.98"/>
  <polygon class="fil5" points="229.76 585.78 345.54 585.78 345.54 517.99 229.76 517.99"/>
  <polygon class="fil6" points="369.78 585.78 485.57 585.78 485.57 517.99 369.78 517.99"/>
  <polygon class="fil7" points="509.81 585.78 625.59 585.78 625.59 517.99 509.81 517.99"/>
  <polygon class="fil8" points="649.84 585.78 765.62 585.78 765.62 517.99 649.84 517.99"/>
  <polygon class="fil9" points="509.81 491.77 625.59 491.77 625.59 423.98 509.81 423.98"/>
  <polygon class="fil10" points="369.78 491.77 485.57 491.77 485.57 423.98 369.78 423.98"/>
  <polygon class="fil11" points="369.78 397.75 485.57 397.75 485.57 329.97 369.78 329.97"/>
 
</svg>
