<?xml version="1.0" encoding="UTF-8"?>
<!DOCTYPE svg  PUBLIC '-//W3C//DTD SVG 1.1//EN'  'http://www.w3.org/Graphics/SVG/1.1/DTD/svg11.dtd'>
<svg clip-rule="evenodd" fill-rule="evenodd" image-rendering="optimizeQuality" shape-rendering="geometricPrecision" text-rendering="geometricPrecision" version="1.1" viewBox="0 0 1000 1000" xml:space="preserve" xmlns="http://www.w3.org/2000/svg">
 <defs>
  <style type="text/css">
   <![CDATA[
    .fil0 {fill:#223154}
    .fil1 {fill:#F01A30;fill-rule:nonzero}
    .fil2 {fill:white;fill-rule:nonzero}
   ]]>
  </style>
 </defs>
 
  
  <circle class="fil0" cx="500" cy="500" r="500"/>
  
   <path class="fil1" d="m703.25 599.88h2.2c33.1 0 59.99 26.89 59.99 59.99s-26.89 59.99-59.99 59.99h-2.2c-33.1 0-59.99-26.89-59.99-59.99s26.76-59.99 59.99-59.99z"/>
   <path class="fil2" d="m626.58 407.49c-10.22-28.57-24.7-53.01-43.19-73.05-18.61-20.04-40.85-35.68-66.97-46.8-25.99-11.12-54.82-16.68-86.5-16.68h-195.36v458.08h188.38c29.09 0 55.08-3.49 78.09-10.6 23.02-7.11 43.58-17.46 61.55-31.03 25.6-19.65 45.25-45.12 58.96-76.54 13.7-31.42 20.55-67.36 20.55-107.96-0.13-35.04-5.17-66.85-15.51-95.42zm-277.2 195.49v-205.96l177.77 103.04-177.77 102.92z"/>
  
 
</svg>
