<?xml version="1.0" encoding="UTF-8"?>
<!DOCTYPE svg  PUBLIC '-//W3C//DTD SVG 1.1//EN'  'http://www.w3.org/Graphics/SVG/1.1/DTD/svg11.dtd'>
<svg clip-rule="evenodd" fill-rule="evenodd" image-rendering="optimizeQuality" shape-rendering="geometricPrecision" text-rendering="geometricPrecision" version="1.1" viewBox="0 0 1000 1000" xml:space="preserve" xmlns="http://www.w3.org/2000/svg">
 <defs>
  <style type="text/css">
   <![CDATA[
    .fil2 {fill:#3D3831}
    .fil1 {fill:#68625B}
    .fil3 {fill:#FEFEFC}
    .fil0 {fill:white}
   ]]>
  </style>
 </defs>
 
  
  <circle class="fil0" cx="500" cy="500" r="500"/>
  <path class="fil1" d="m297.06 222.79v550.58c0 24.64 11.27 35.85 35.85 35.85h334.18c13 0 24.73-3.88 30.05-12.21 5.6-8.78 5.81-23.82 5.8-37.73v-516c0-32.55-0.15-53.78-33.29-53.78h-339.3c-22.56 0-33.29 10.73-33.29 33.29z"/>
  <path class="fil2" d="m297.06 222.79v345.71c0 18.78 190.53 92.19 204.86 92.19 14.89 0 201.02-68.18 201.02-106.27v-325.23c0-25.93-7.21-39.69-33.29-39.69h-339.3c-22.56 0-33.29 10.73-33.29 33.29z"/>
  
   <path class="fil3" d="m563.38 280.41c0 20.05-2.32 124.82 2.15 136.13 1 2.53 4.23 7.84 5.91 9.46 11.37 10.97 49.22 10.91 60.78 1.35 4.01-3.31 9.27-11.81 9.27-18.9v-48.66h-24.33c0 31.28 5.16 51.22-14.09 51.22-8.33 0-14.08-3.23-14.08-11.52v-112.68c0-12.76 7.1-12.8 16.64-12.8 6.2 0 10.25 4.05 10.25 10.24v35.85h25.61c0-35.94 7.13-69.14-32.01-69.14-19.69 0-46.1-1.44-46.1 29.45z"/>
   <path class="fil3" d="m471.19 343.15h-12.8v-67.86c28 0 23.04-2.01 23.04 57.61 0 6.2-4.05 10.25-10.24 10.25zm-38.41 88.35h21.76c4.9 0 0.47-0.39 3.85 1.28v-66.58c50.22 0 49.93-4.05 49.93-72.99 0-48.75-26.82-40.97-75.54-40.97v179.26z"/>
   <path class="fil3" d="m357.23 431.5h55.06c6.04 0 5.12 7.23 5.12-23.05-42.02 0-34.57 6.49-34.57-26.89l0.29-22.39c0.29-3.83-0.7-2.12 0.99-5.78 38.11 0 32.01 5.89 32.01-24.33h-32.01c-1.91-8.2-1.13-29.54-1.32-41.01-0.24-14.39-4.43-11.48 34.61-11.48v-24.33h-60.18v179.26z"/>
   <path class="fil3" d="m521.13 431.5c7.38 1.56 0.56 0 6.4 0h19.21v-179.26h-25.61v179.26z"/>
   <path class="fil3" d="m481.43 509.6h12.81v-30.73c5.44 3.99 9.92 16.5 15.36 20.49 0.99-3.68 6.65-11.32 9.63-15.98 3.19-4.99 0.38-3.03 4.46-4.51v30.73h12.8v-52.49h-11.52c-5.13 0-10.56 16.41-16.65 20.48-2.46-3.67-4.27-6.92-6.92-11-6.92-10.67-1.96-9.48-19.97-9.48v52.49z"/>
   <path class="fil3" d="m556.98 718.31c-9.02 0-7.68 1.12-7.68-14.08 13.62 0 16.64-1.62 16.64 7.68 0 4.14-4.65 6.4-8.96 6.4zm-21.77 29.45c0 4.85 2.99 3.84 10.25 3.84 9.81 0-2.13-23.04 7.68-23.04 4.52 0 11.63 15.99 15.36 23.04h12.81c1.48-6.98-6.28-17.11-10.25-23.04 2.09-3.12 4.1-4.02 5.91-6.9 5.06-8.03 5.57-28.96-13.59-28.96h-28.17v55.06z"/>
   <path class="fil3" d="m487.84 732.4c0-18.63-2.84-27.51 8.1-28.98 14.7-1.99 11.1 10.14 11.1 30.26 0 8.54-19.2 7.66-19.2-1.28zm-14.09-17.93c0 10.44-2.37 37.13 17.93 37.13 33.88 0 29.45-10.74 29.45-43.53 0-21.48-47.38-27.77-47.38 6.4z"/>
   <path class="fil3" d="m573.62 596.67h-147.24l35.85 12.8c8.5 2.55 30.83 12.27 36.91 12 3.98-0.18 13.91-4.42 17.97-5.77l53.85-17.85c0.28-0.11 0.66-0.27 0.91-0.37 0.24-0.1 0.69-0.32 0.88-0.4 0.2-0.08 0.6-0.24 0.87-0.41z"/>
   <path class="fil3" d="m368.76 705.51c0 11.02-0.4 15.63 14.22 20.34 3.66 1.18 6.85 2.04 10.57 3.52 4.84 1.93 5.8 1.91 5.94 8.15-4.8 1.11-5.7 2.74-10.84 1.95-5.97-0.92-7.16-1.89-8.37-7.07h-14.08c0.41 4.94 2.27 10.07 4.98 12.94 9.54 10.1 42.39 10.52 42.39-11.66 0-20.99-28.66-12.53-32.01-26.89 2.93-1.96 6.06-4.43 10.8-3.21 13.06 3.37-5.01 7.05 19.93 7.05 0-29.53-43.53-23.03-43.53-5.12z"/>
   <path class="fil3" d="m357.23 483.99c0 36.88 51.22 29.06 51.22 16.65v-21.77h-23.05v10.25h10.25v8.96c-34.47 8.03-27.65-30.73-10.25-30.73 4.74 0 10.79 3.38 14.09 5.12 2.39-3.57 5.12-5.44 6.4-10.24-29.14-15.42-48.66 0.82-48.66 21.76z"/>
   <path class="fil3" d="m594.11 695.26v56.34h35.85c5.72 0 5.72-12.8 0-12.8h-21.77v-11.53h21.77v-11.52h-21.77v-11.52h24.33v-11.53h-33.29c-3.13 0-5.12-2.84-5.12 2.56z"/>
   <path class="fil3" d="m549.3 509.6h40.97v-10.24h-28.17c0-14.41-3.72-11.52 25.61-11.52v-10.25h-25.61v-8.96l28.17-1.28v-10.24h-40.97v52.49z"/>
   <path class="fil3" d="m443.02 473.75h2.56c1.19 5.08 3.76 9.52 5.12 15.37h-12.8c1.18-5.08 3.76-9.52 5.12-15.37zm-26.89 35.85h14.09c1.07-12.86 6.86-10.24 21.76-10.24 4.21 0 5.89 6.86 7.69 10.24h12.8c-0.39-4.69-11.89-30.43-15.17-38.61-1.97-4.93-4.88-8.6-5.32-13.88h-14.08c-1.83 3.81-3.57 8.43-5.3 12.62l-16.47 39.87z"/>
   <path class="fil3" d="m628.68 495.52c0 8.49-14.84 4.22-23.05-1.28-4.47 2.99-5.15 4.18-7.68 8.96 3.69 2.47 4.81 3.93 9.93 5.44 36.19 10.65 46.63-20.75 21.52-29.21-13.15-4.43-17.27-1.47-14.8-12.08 17.7 0 9.79 1.65 19.2 3.84 2.09-1.53 4.89-5.42 6.41-7.68-10.29-14.05-47.67-8.04-39.69 13.97 5.33 14.7 28.16 8.89 28.16 18.04z"/>
   <path class="fil3" d="m421.25 697.83v6.4h15.37v43.53c0 5.86 14.08 5.86 14.08 0v-43.53h15.37v-11.53h-42.26c-5.39 0-2.56 2-2.56 5.13z"/>
  
 
</svg>
