<?xml version="1.0" encoding="UTF-8"?>
<!DOCTYPE svg  PUBLIC '-//W3C//DTD SVG 1.1//EN'  'http://www.w3.org/Graphics/SVG/1.1/DTD/svg11.dtd'>
<svg clip-rule="evenodd" fill-rule="evenodd" image-rendering="optimizeQuality" shape-rendering="geometricPrecision" text-rendering="geometricPrecision" version="1.1" viewBox="0 0 1000 1000" xml:space="preserve" xmlns="http://www.w3.org/2000/svg">
 <defs>
  <style type="text/css">
   <![CDATA[
    .fil0 {fill:white}
    .fil4 {fill:#34A853;fill-rule:nonzero}
    .fil3 {fill:#4285F4;fill-rule:nonzero}
    .fil1 {fill:#EA4335;fill-rule:nonzero}
    .fil2 {fill:#FBBC04;fill-rule:nonzero}
   ]]>
  </style>
 </defs>
 
  
  <circle class="fil0" cx="500" cy="500" r="500"/>
  
   <path class="fil1" d="m511.39 486.07-262.18 272.83c0.02 0.05 0.03 0.11 0.04 0.16 8.05 29.62 35.64 51.44 68.4 51.44 13.08 0 25.38-3.47 35.92-9.56l0.84-0.49 295.06-166.98-138.08-147.4z"/>
   <path class="fil2" d="m776.62 439.61-0.25-0.16-127.41-72.42-143.53 125.24 144.04 141.2 126.73-71.7c22.22-11.77 37.3-34.73 37.3-61.2 0-26.31-14.87-49.15-36.88-60.96z"/>
   <path class="fil3" d="m249.2 241.09c-1.58 5.7-2.41 11.68-2.41 17.86v482.1c0.26 6.92 0.83 12.18 2.42 17.85l271.19-265.84-271.2-251.97z"/>
   <path class="fil4" d="m513.32 500 135.64-132.97-294.72-167.6c-10.71-6.29-23.22-9.93-36.59-9.93-32.76 0-60.4 21.86-68.44 51.52 0 0.02-0.01 0.04-0.01 0.07l264.12 258.91z"/>
  
 
</svg>
