<?xml version="1.0" encoding="UTF-8"?>
<!DOCTYPE svg  PUBLIC '-//W3C//DTD SVG 1.1//EN'  'http://www.w3.org/Graphics/SVG/1.1/DTD/svg11.dtd'>
<svg clip-rule="evenodd" fill-rule="evenodd" image-rendering="optimizeQuality" shape-rendering="geometricPrecision" text-rendering="geometricPrecision" version="1.1" viewBox="0 0 1000 1000" xml:space="preserve" xmlns="http://www.w3.org/2000/svg">
 <defs>
  <style type="text/css">
   <![CDATA[
    .fil0 {fill:#FF7700}
    .fil1 {fill:#FFFEFE}
   ]]>
  </style>
 </defs>
 
  
  <circle class="fil0" cx="500" cy="500" r="500"/>
  <path class="fil1" d="m637.31 375c-12.1-89.04 95.08-102.48 104.24-24.92 9.89 83.77-93.88 101.14-104.24 24.92zm-260.42-15c-27.15-120.81 126.79-170.8 153.28-54.35 26.97 118.57-127.15 170.62-153.28 54.35zm203.11-75.71c-18.91-27.52-27.64-91.21-107.34-117-74.27-24.04-128.46 10.99-163.08 47.32-90.78 95.3-29.32 261.57 86.2 284.64 40.23 8.04 165.68-5.29 214.06-8.81 76.62-5.56 132.08-9.02 161.26-64.34 14.38-27.26 19.28-61.06 11.26-93.61-17.85-72.34-96.69-120.54-170.44-75.56-18.08 11.03-15.04 15.76-31.92 27.36z"/>
  <path class="fil1" d="m433.59 550c19.01 28.39 75.55 71.16 86.14 95.25 25.88 58.89-21.63 100.03-38.39 130.93 74.82 33.79 116.49 9.52 196.2-8.45 111.03-25.02 91.49-35.01 87.69-157.83-31.03 4.52-96.89 14.17-118.48 26.08l0.1 55.24 41.68-4.23 2.56 23.97c-45.06 9.44-48.64 18.47-64.41 1.86-14.44-13.97-10.72-74.25-3.6-93.45 19.52-25.21 105.97-31.85 141.47-39.69 3.9-47.25 3.66-58.1-41.5-63.3-81.46-9.38-123.66-0.75-203.6 6.57-41.8 3.83-64.68-2.62-85.86 27.05z"/>
  <path class="fil1" d="m372.79 772.8c-23.96 5.52-88.84-10.37-105.97-24.58-21.91-18.19-15.05-85.31-13.9-118.55 1.1-31.88-2.28-40.74 30.4-38.53 112.86 7.61 97.72 44.1 97.7 98.86-0.01 26.38 2.27 59.94-8.23 82.8zm126.13-87.8c-0.01-30.46-5.33-32.35-21.44-47.44-14.27-13.35-24.43-23.05-38.55-36.48-37.37-35.55-28.49-36.24-94.99-49.6-146.67-29.44-136.19-6.97-133.09 138.73 1.77 83.42 2.13 111.76 147.9 140.59 53.04 10.49 62.19-23.08 85.05-51.99 24.88-31.46 55.13-59.82 55.12-93.81z"/>
 
</svg>
