<?xml version="1.0" encoding="UTF-8"?>
<!DOCTYPE svg  PUBLIC '-//W3C//DTD SVG 1.1//EN'  'http://www.w3.org/Graphics/SVG/1.1/DTD/svg11.dtd'>
<svg clip-rule="evenodd" fill-rule="evenodd" image-rendering="optimizeQuality" shape-rendering="geometricPrecision" text-rendering="geometricPrecision" version="1.1" viewBox="0 0 1000 1000" xml:space="preserve" xmlns="http://www.w3.org/2000/svg">
 <defs>
  <style type="text/css">
   <![CDATA[
    .fil0 {fill:#FF7D01}
    .fil1 {fill:white;fill-rule:nonzero}
   ]]>
  </style>
 </defs>
 
  
  <circle class="fil0" cx="500" cy="500" r="500"/>
  <path class="fil1" d="m457.33 189.5c-52.29 0-94.65 42.19-94.65 94.26v44.14h-159.78l-31.26 482.6h656.72l-31.26-482.6h-159.74v-44.14c0-52.07-42.4-94.26-94.69-94.26h-85.34zm0.05 47.05h85.29c26.18 0 47.43 21.16 47.43 47.21v44.14h-180.16v-44.14c0-26.1 21.25-47.21 47.44-47.21zm-210.17 138.4h115.47v89.45c0 1.87 1.52 3.34 3.38 3.34h40.5c1.86 0 3.38-1.47 3.38-3.34v-89.45h180.16v89.45c0 1.87 1.52 3.34 3.38 3.34h40.5c1.87 0 3.38-1.47 3.38-3.34v-89.45h115.47l25.19 388.55h-556l25.19-388.55z"/>
 
</svg>
