<?xml version="1.0" encoding="UTF-8"?>
<!DOCTYPE svg  PUBLIC '-//W3C//DTD SVG 1.1//EN'  'http://www.w3.org/Graphics/SVG/1.1/DTD/svg11.dtd'>
<svg clip-rule="evenodd" fill-rule="evenodd" image-rendering="optimizeQuality" shape-rendering="geometricPrecision" text-rendering="geometricPrecision" version="1.1" viewBox="0 0 1000 1000" xml:space="preserve" xmlns="http://www.w3.org/2000/svg">
 <defs>
  <style type="text/css">
   <![CDATA[
    .fil0 {fill:#003087}
    .fil1 {fill:#253B80;fill-rule:nonzero}
    .fil2 {fill:#738DBD;fill-rule:nonzero}
    .fil3 {fill:#B2C1DB;fill-rule:nonzero}
    .fil4 {fill:white;fill-rule:nonzero}
   ]]>
  </style>
 </defs>
 
  
  <circle class="fil0" cx="500" cy="500" r="500"/>
  
   <path class="fil1" d="m386.36 789.44 10.76-68.35-23.97-0.56h-114.48l79.55-504.45c0.25-1.52 1.05-2.94 2.23-3.95 1.17-1.01 2.67-1.56 4.24-1.56h193.02c64.09 0 108.31 13.34 131.4 39.66 10.83 12.35 17.72 25.25 21.06 39.45 3.5 14.9 3.56 32.7 0.14 54.41l-0.24 1.59v13.91l10.82 6.13c9.12 4.84 16.36 10.38 21.92 16.71 9.26 10.55 15.25 23.97 17.78 39.88 2.61 16.36 1.75 35.83-2.53 57.87-4.94 25.35-12.92 47.43-23.7 65.5-9.92 16.65-22.56 30.46-37.56 41.16-14.33 10.17-31.35 17.88-50.58 22.82-18.65 4.86-39.9 7.31-63.22 7.31l-15.03-0.01c-10.75 0-21.18 3.86-29.37 10.8-8.22 7.08-13.65 16.75-15.32 27.33l-1.13 6.15-19.02 120.49-0.86 4.43c-0.23 1.39-0.62 2.1-1.19 2.57-0.52 0.43-1.25 0.72-1.98 0.72l-92.74-0.01z"/>
   <path class="fil2" d="m711.13 347.27c-0.58 3.69-1.24 7.45-1.98 11.32-25.45 130.7-112.54 175.85-223.77 175.85h-56.63c-13.6 0-25.07 9.87-27.18 23.29l-29 183.89-8.21 52.13c-1.38 8.8 5.41 16.75 14.3 16.75h100.45c11.89 0 22-8.64 23.87-20.37l0.99-5.1 18.91-120.02 1.22-6.59c1.85-11.77 11.97-20.42 23.87-20.42l15.01 0.01c97.32 0 173.5-39.51 195.77-153.84 9.3-47.77 4.49-87.65-20.13-115.7-7.44-8.46-16.68-15.47-27.49-21.2z"/>
   <path class="fil3" d="m684.5 336.65c-3.88-1.13-7.9-2.16-12.01-3.08-4.14-0.91-8.38-1.71-12.74-2.41-15.27-2.48-32-3.64-49.93-3.64h-151.29c-3.73 0-7.26 0.84-10.43 2.36-6.98 3.36-12.16 9.96-13.42 18.05l-32.19 203.86-0.92 5.95c2.12-13.42 13.58-23.3 27.18-23.3h56.64c111.23 0 198.31-45.18 223.77-175.85 0.76-3.87 1.4-7.64 1.98-11.32-6.44-3.41-13.42-6.34-20.93-8.83-1.85-0.61-3.78-1.21-5.71-1.79z"/>
   <path class="fil4" d="m434.68 347.93c1.25-8.09 6.43-14.69 13.41-18.03 3.19-1.52 6.71-2.36 10.43-2.36h151.3c17.93 0 34.66 1.17 49.93 3.64 4.36 0.7 8.6 1.5 12.74 2.41 4.11 0.93 8.13 1.95 12.01 3.09 1.94 0.57 3.86 1.17 5.73 1.77 7.51 2.49 14.49 5.44 20.93 8.83 7.57-48.3-0.06-81.18-26.18-110.96-28.79-32.79-80.76-46.82-147.24-46.82h-193.03c-13.58 0-25.17 9.88-27.27 23.32l-80.4 509.63c-1.58 10.08 6.19 19.18 16.36 19.18l119.17-0.01 29.92-189.84 32.19-203.85z"/>
  
 
</svg>
