<?xml version="1.0" encoding="UTF-8"?>
<!DOCTYPE svg  PUBLIC '-//W3C//DTD SVG 1.1//EN'  'http://www.w3.org/Graphics/SVG/1.1/DTD/svg11.dtd'>
<svg clip-rule="evenodd" fill-rule="evenodd" image-rendering="optimizeQuality" shape-rendering="geometricPrecision" text-rendering="geometricPrecision" version="1.1" viewBox="0 0 1000 1000" xml:space="preserve" xmlns="http://www.w3.org/2000/svg">
 <defs>
  <style type="text/css">
   
    .fil1 {fill:#F48256;fill-rule:nonzero}
    .fil3 {fill:white;fill-rule:nonzero}
    .fil0 {fill:url(#b)}
    .fil2 {fill:url(#a);fill-rule:nonzero}
   
  </style>
  <radialGradient id="b" cx="310" cy="150" r="479.86" gradientTransform="matrix(.82196 -0 -0 1.5 55 -75)" gradientUnits="userSpaceOnUse">
   <stop stop-color="#1585C6" offset="0"/>
   <stop stop-color="#093875" offset="1"/>
  </radialGradient>
  <linearGradient id="a" x1="346.74" x2="653.26" y1="382.61" y2="760.47" gradientUnits="userSpaceOnUse">
   <stop stop-color="#00BFF2" offset="0"/>
   <stop stop-color="#007DC4" offset="1"/>
  </linearGradient>
 </defs>
 
  
  <circle class="fil0" cx="500" cy="500" r="500"/>
  
   <path class="fil1" d="m466.63 211.41c4.14-0.43 8.24 0.2 12.29 1.85-26.9 36.67-31.73 105.64-32.57 131.82h18.57c1.02-34.11 7.73-92.98 28.97-121.03 24.8 25.72 40.76 81.97 45.75 121.03h18.77c-5.05-42.4-22.34-103.3-50.57-133.44 4.08-2.12 8.54-3.37 13.42-3.38 8.68-0.05 16.72 4.1 24.53 12.63 27.27 29.75 39.35 98.6 41.97 124.2h18.62c-2.24-28.75-14.44-93.86-40.85-129.54-12.85-17.37-27.79-26.13-44.37-26.05-11.08 0.06-20.49 3.65-28.55 9.64-8.91-5.21-18.22-7.37-27.85-6.39-49.46 5.04-62.84 81.94-64.62 152.31h18.62c2.1-82.33 19.27-130.73 47.87-133.65z"/>
   <path class="fil2" d="m729.61 344.24c-0.12-2.33-2.27-4.16-4.84-4.13l-49.48-7.11c-0.45-0.12-0.91-0.2-1.41-0.2-19.21-0.05-88.96-0.22-197.8-0.22-109.15 0-179.17 1.32-198.2 1.72-2.97 0.08-5.37 2.18-5.53 4.86-1.12 18.74-5.45 92.2-11.57 205.11-6.47 119.4-10.15 184.55-11.06 201.78-0.13 2.47 1.79 4.61 4.48 5.01l391.63 59.37c1.61 0.25 3.16-0.17 4.42-1v0.04l96.19-61.5c2.55-1.72 3.99-4.48 3.84-7.37l-20.67-396.36z"/>
   <polygon class="fil3" points="531.61 664.96 524.75 664.96 524.75 662.56 541.16 662.56 541.16 664.96 534.36 664.96 534.36 683.78 531.63 683.78 531.63 664.96"/>
   <polygon class="fil3" points="552.26 683.78 546.56 666.53 546.56 683.78 543.81 683.78 543.81 662.55 547.62 662.55 553.63 680.64 559.67 662.55 563.44 662.55 563.44 683.77 560.72 683.77 560.72 666.53 555.02 683.77 552.26 683.77"/>
   <path class="fil3" d="m419.46 425.79v228.69l51.78 16.43v-191.78c0-9.03 4.03-15.03 10.49-12.98 8.44 2.35 10.09 10.69 10.09 19.61v76.58c32.21 15.61 57.6-0.01 57.6-41.15 0-42.08-14.87-60.81-58.65-75.87-17.25-5.76-49.27-15.48-71.31-19.53z"/>
   <path class="fil3" d="m481.1 637.47 83.16-29.63c9.4-3.47 10.85-8.22 3.23-10.72-7.73-2.52-21.53-1.79-31.05 1.61l-55.36 19.53v-31.14l3.18-1.06s16.02-5.68 38.55-8.12c22.49-2.47 50.08 0.31 71.75 8.49 24.42 7.75 27.16 19.07 20.99 26.96-6.27 7.79-21.47 13.42-21.47 13.42l-113 40.6v-29.95h0.02v0.01z"/>
   <path class="fil3" d="m324.59 634.32c-25.05-6.99-29.23-21.73-17.81-30.23 10.53-7.81 28.49-13.65 28.49-13.65l74.18-26.45v30.1l-53.34 19.11c-9.46 3.37-10.85 8.14-3.25 10.64 7.73 2.59 21.49 1.88 30.94-1.62l25.65-9.25v26.88c-1.66 0.29-3.49 0.57-5.17 0.85-25.57 4.27-52.8 2.53-79.69-6.38z"/>
  
 
</svg>
