<?xml version="1.0" encoding="UTF-8"?>
<!DOCTYPE svg  PUBLIC '-//W3C//DTD SVG 1.1//EN'  'http://www.w3.org/Graphics/SVG/1.1/DTD/svg11.dtd'>
<svg clip-rule="evenodd" fill-rule="evenodd" image-rendering="optimizeQuality" shape-rendering="geometricPrecision" text-rendering="geometricPrecision" version="1.1" viewBox="0 0 1000 1000" xml:space="preserve" xmlns="http://www.w3.org/2000/svg">
 <defs>
  <style type="text/css">
   <![CDATA[
    .fil0 {fill:#1ED760;fill-rule:nonzero}
   ]]>
  </style>
 </defs>
 
 
  
  <path class="fil0" d="m500 0c-276.14 0-500 223.86-500 500 0 276.15 223.86 500 500 500 276.16 0 500-223.84 500-500 0-276.12-223.84-499.98-500.01-499.98l0.01-0.02zm229.29 721.15c-8.95 14.69-28.18 19.35-42.87 10.33-117.39-71.71-265.18-87.95-439.22-48.19-16.77 3.82-33.49-6.68-37.31-23.46-3.84-16.78 6.63-33.5 23.44-37.32 190.46-43.53 353.84-24.78 485.63 55.77 14.69 9.01 19.35 28.18 10.33 42.87zm61.2-136.17c-11.28 18.36-35.29 24.15-53.62 12.87-134.4-82.63-339.26-106.55-498.23-58.3-20.62 6.23-42.39-5.39-48.65-25.97-6.21-20.62 5.42-42.35 26-48.62 181.58-55.1 407.32-28.41 561.67 66.44 18.33 11.28 24.12 35.28 12.83 53.59v-0.01zm5.25-141.76c-161.14-95.72-427.01-104.52-580.87-57.82-24.71 7.49-50.83-6.46-58.32-31.17-7.49-24.72 6.45-50.83 31.17-58.34 176.62-53.61 470.22-43.25 655.75 66.89 22.28 13.19 29.56 41.89 16.36 64.08-13.13 22.23-41.91 29.55-64.06 16.36h-0.03z"/>
 
</svg>
