<?xml version="1.0" encoding="UTF-8"?>
<!DOCTYPE svg  PUBLIC '-//W3C//DTD SVG 1.1//EN'  'http://www.w3.org/Graphics/SVG/1.1/DTD/svg11.dtd'>
<svg clip-rule="evenodd" fill-rule="evenodd" image-rendering="optimizeQuality" shape-rendering="geometricPrecision" text-rendering="geometricPrecision" version="1.1" viewBox="0 0 1000 1000" xml:space="preserve" xmlns="http://www.w3.org/2000/svg">
 <defs>
  <style type="text/css">
   
    .fil1 {fill:white;fill-rule:nonzero}
    .fil0 {fill:url(#a);fill-rule:nonzero}
   
  </style>
  <linearGradient id="a" x1="500.22" x2="500.22" y2="1e3" gradientUnits="userSpaceOnUse">
   <stop stop-color="#111D2E" offset="0"/>
   <stop stop-color="#051839" offset=".21176"/>
   <stop stop-color="#0A1B48" offset=".41176"/>
   <stop stop-color="#132E62" offset=".58039"/>
   <stop stop-color="#144B7E" offset=".74118"/>
   <stop stop-color="#136497" offset=".87059"/>
   <stop stop-color="#1387B8" offset="1"/>
  </linearGradient>
 </defs>
 
  
  
   <path class="fil0" d="m20.36 643.82c61.81 206.05 253.02 356.18 479.32 356.18 276.31 0 500.32-223.86 500.32-500s-224.01-500-500.32-500c-265.15 0-482.11 206.13-499.25 466.78 32.38 54.33 45.02 87.94 19.94 177.04h-0.01z"/>
   
    <path class="fil1" d="m473.91 374.77c0 0.84 0 1.69 0.04 2.48l-122.43 177.73c-19.83-0.9-39.73 2.57-58.6 10.34-8.32 3.39-16.12 7.56-23.43 12.36l-268.84-110.6c0.01 0-6.22 102.28 19.71 178.5l190.05 78.37c9.54 42.62 38.8 80 81.96 97.98 70.61 29.48 152.04-4.12 181.41-74.72 7.64-18.46 11.21-37.81 10.69-57.13l175.18-125.1c1.42 0.04 2.88 0.08 4.29 0.08 104.84 0 190.04-85.4 190.04-190.29s-85.2-190.22-190.04-190.22c-104.78 0-190.03 85.33-190.03 190.22zm-29.38 360.17c-22.73 54.55-85.46 80.43-139.98 57.72-25.16-10.47-44.15-29.66-55.1-52.53l61.86 25.62c40.21 16.74 86.34-2.32 103.06-42.49 16.76-40.21-2.26-86.39-42.45-103.13l-63.95-26.48c24.68-9.36 52.73-9.7 78.94 1.2 26.43 10.99 46.93 31.67 57.79 58.11 10.87 26.44 10.83 55.62-0.17 81.98zm219.41-233.4c-69.78 0-126.6-56.86-126.6-126.77 0-69.85 56.82-126.73 126.6-126.73 69.83 0 126.65 56.88 126.65 126.73 0 69.91-56.81 126.77-126.65 126.77zm-94.86-126.96c0-52.59 42.6-95.24 95.08-95.24 52.52 0 95.12 42.65 95.12 95.24s-42.6 95.21-95.12 95.21c-52.48 0-95.08-42.62-95.08-95.21z"/>
   
  
 
</svg>
