<?xml version="1.0" encoding="UTF-8"?>
<!DOCTYPE svg  PUBLIC '-//W3C//DTD SVG 1.1//EN'  'http://www.w3.org/Graphics/SVG/1.1/DTD/svg11.dtd'>
<svg clip-rule="evenodd" fill-rule="evenodd" image-rendering="optimizeQuality" shape-rendering="geometricPrecision" text-rendering="geometricPrecision" version="1.1" viewBox="0 0 1000 1000" xml:space="preserve" xmlns="http://www.w3.org/2000/svg">
 <defs>
  <style type="text/css">
   <![CDATA[
    .fil0 {fill:white}
    .fil2 {fill:black;fill-rule:nonzero}
    .fil3 {fill:#00F2EA;fill-rule:nonzero}
    .fil1 {fill:#FF004F;fill-rule:nonzero}
   ]]>
  </style>
 </defs>
 
  
  <circle class="fil0" cx="500" cy="500" r="500"/>
  
   
    <path class="fil1" d="m644.29 405.99c43.66 31.2 97.15 49.55 154.92 49.55v-111.11c-10.94 0.01-21.84-1.13-32.54-3.4v87.46c-57.76 0-111.24-18.36-154.92-49.55v226.74c0 113.43-91.99 205.37-205.47 205.37-42.34 0-81.7-12.79-114.39-34.73 37.31 38.13 89.35 61.78 146.91 61.78 113.49 0 205.49-91.94 205.49-205.37v-226.74zm40.13-112.09c-22.31-24.36-36.96-55.85-40.13-90.66v-14.29h-30.83c7.76 44.24 34.23 82.04 70.96 104.95zm-320.76 395.38c-12.46-16.34-19.2-36.33-19.17-56.87 0-51.88 42.08-93.94 94-93.94 9.67-0.01 19.29 1.48 28.51 4.4v-113.59c-10.78-1.48-21.65-2.11-32.52-1.88v88.42c-9.23-2.93-18.85-4.41-28.53-4.4-51.91 0-93.99 42.06-93.99 93.94 0 36.68 21.03 68.45 51.7 83.92z"/>
    <path class="fil2" d="m611.75 378.94c43.68 31.19 97.16 49.55 154.92 49.55v-87.46c-32.24-6.86-60.78-23.71-82.25-47.13-36.73-22.91-63.2-60.71-70.96-104.95h-80.98v443.78c-0.19 51.73-42.2 93.62-94 93.62-30.52 0-57.65-14.54-74.82-37.07-30.67-15.47-51.7-47.24-51.7-83.92 0-51.88 42.07-93.94 93.99-93.94 9.94 0 19.53 1.55 28.52 4.4v-88.42c-111.48 2.31-201.14 93.35-201.14 205.33 0 55.89 22.33 106.57 58.56 143.59 32.69 21.94 72.05 34.74 114.39 34.74 113.48 0 205.47-91.95 205.47-205.38v-226.74z"/>
    <path class="fil3" d="m766.67 341.03v-23.65c-29.08 0.04-57.58-8.09-82.25-23.48 21.84 23.89 50.59 40.37 82.25 47.13zm-153.21-152.08c-0.74-4.23-1.31-8.49-1.71-12.76v-14.29h-111.81v443.78c-0.18 51.73-42.19 93.62-93.99 93.62-15.21 0-29.57-3.61-42.29-10.02 17.17 22.53 44.29 37.07 74.82 37.07 51.8 0 93.81-41.89 93.99-93.63v-443.77h80.99zm-178.98 238.45v-25.17c-9.35-1.28-18.77-1.92-28.2-1.91-113.49 0-205.48 91.94-205.48 205.36 0 71.11 36.15 133.77 91.1 170.64-36.24-37.02-58.57-87.7-58.57-143.6 0-111.97 89.66-203.01 201.15-205.32z"/>
   
  
 
</svg>
