<?xml version="1.0" encoding="UTF-8"?>
<!DOCTYPE svg  PUBLIC '-//W3C//DTD SVG 1.1//EN'  'http://www.w3.org/Graphics/SVG/1.1/DTD/svg11.dtd'>
<svg clip-rule="evenodd" fill-rule="evenodd" image-rendering="optimizeQuality" shape-rendering="geometricPrecision" text-rendering="geometricPrecision" version="1.1" viewBox="0 0 1000 1000" xml:space="preserve" xmlns="http://www.w3.org/2000/svg">
 <defs>
  <style type="text/css">
   <![CDATA[
    .fil0 {fill:#1DA1F2}
    .fil1 {fill:white;fill-rule:nonzero}
   ]]>
  </style>
 </defs>
 
  
  <circle class="fil0" cx="500" cy="500" r="500"/>
  
   <path class="fil1" d="m414.8 772c234.36 0 362.51-194.04 362.51-362.29 0-5.51-0.12-11-0.36-16.46 24.87-17.98 46.5-40.41 63.55-65.94-22.83 10.14-47.4 16.97-73.17 20.05 26.31-15.77 46.5-40.7 56.03-70.43-24.62 14.58-51.88 25.18-80.9 30.9-23.25-24.75-56.35-40.23-93.01-40.23-70.36 0-127.41 57.03-127.41 127.32 0 10 1.11 19.71 3.3 29.04-105.89-5.33-199.79-56-262.62-133.04-10.95 18.81-17.26 40.67-17.26 64 0 44.17 22.5 83.17 56.7 105.99-20.9-0.65-40.54-6.38-57.7-15.93-0.02 0.54-0.02 1.06-0.02 1.63 0 61.67 43.92 113.16 102.22 124.82-10.71 2.92-21.97 4.48-33.6 4.48-8.2 0-16.18-0.8-23.94-2.29 16.22 50.59 63.25 87.41 119.02 88.44-43.61 34.16-98.54 54.5-158.25 54.5-10.27 0-20.42-0.58-30.39-1.76 56.39 36.12 123.34 57.2 195.31 57.2h-0.01zm0 0z"/>
  
 
</svg>
