<?xml version="1.0" encoding="UTF-8"?>
<!DOCTYPE svg  PUBLIC '-//W3C//DTD SVG 1.1//EN'  'http://www.w3.org/Graphics/SVG/1.1/DTD/svg11.dtd'>
<svg clip-rule="evenodd" fill-rule="evenodd" image-rendering="optimizeQuality" shape-rendering="geometricPrecision" text-rendering="geometricPrecision" version="1.1" viewBox="0 0 1000 1000" xml:space="preserve" xmlns="http://www.w3.org/2000/svg">
 <defs>
  <style type="text/css">
   <![CDATA[
    .fil0 {fill:red}
    .fil1 {fill:white}
   ]]>
  </style>
 </defs>
 
  
  <circle class="fil0" cx="500" cy="500" r="500"/>
 
 
  
  <path class="fil1" d="m559.53 250.08c49.36-25.55 110.21-6.81 136.16 41.72 25.96 48.54 7.24 109.42-42.12 134.97l-40.43 21.29c34.89 1.27 68.08 20.43 85.53 53.22 25.96 48.96 7.23 109.42-42.13 134.96l-216.15 113.68c-49.36 25.55-110.21 6.81-136.16-41.72-25.96-48.54-6.81-109.42 42.12-134.97l40.42-21.29c-34.89-1.27-68.08-20.43-85.52-53.22-25.96-48.96-6.81-109.42 42.12-134.96l216.16-113.68z"/>
  <polygon class="fil0" points="442.94 419.53 574 500.43 442.94 580.89"/>
 
</svg>
