<?xml version="1.0" encoding="UTF-8"?>
<!DOCTYPE svg  PUBLIC '-//W3C//DTD SVG 1.1//EN'  'http://www.w3.org/Graphics/SVG/1.1/DTD/svg11.dtd'>
<svg clip-rule="evenodd" fill-rule="evenodd" image-rendering="optimizeQuality" shape-rendering="geometricPrecision" text-rendering="geometricPrecision" version="1.1" viewBox="0 0 1000 1000" xml:space="preserve" xmlns="http://www.w3.org/2000/svg">
 <defs>
  <style type="text/css">
   <![CDATA[
    .fil0 {fill:red}
    .fil1 {fill:white}
   ]]>
  </style>
 </defs>
 
  
  <circle class="fil0" cx="500" cy="500" r="500"/>
  <path class="fil1" d="m432.54 401.55 171.88 99.2-172.32 96.92 0.44-196.12zm61.6 332.44c57.5 0 229.85 0.28 273.77-16.84 34.67-13.51 49.06-40.71 55.73-84.62 6.33-41.62 8.32-89.84 8.32-132.53 0-42.26-2.01-89.29-7.9-130.49-6.38-44.64-20.61-72.15-54.7-86.16-58.36-23.99-477.87-23.61-537.25-0.49-34.78 13.54-49.07 40.95-55.76 84.74-6.34 41.49-8.32 89.77-8.32 132.4 0 41.98 1.92 89.86 8.02 130.73 6.64 44.46 20.61 71.73 54.66 85.86 40.87 16.95 209.05 17.4 263.43 17.4z"/>
 
</svg>
