<?xml version="1.0" encoding="UTF-8"?>
<!DOCTYPE svg PUBLIC "-//W3C//DTD SVG 1.1//EN" "http://www.w3.org/Graphics/SVG/1.1/DTD/svg11.dtd">
<!-- Creator: CorelDRAW -->
<svg xmlns="http://www.w3.org/2000/svg" xml:space="preserve" width="670px" height="456px" version="1.1" style="shape-rendering:geometricPrecision; text-rendering:geometricPrecision; image-rendering:optimizeQuality; fill-rule:evenodd; clip-rule:evenodd"
viewBox="0 0 670 456.03"
 xmlns:xlink="http://www.w3.org/1999/xlink"
 xmlns:xodm="http://www.corel.com/coreldraw/odm/2003">
 <defs>
  <style type="text/css">
   <![CDATA[
    .str0 {stroke:black;stroke-width:1.34;stroke-miterlimit:10}
    .str1 {stroke:black;stroke-width:1.34;stroke-miterlimit:4}
    .fil0 {fill:none;fill-rule:nonzero}
    .fil1 {fill:black;fill-rule:nonzero}
   ]]>
  </style>
 </defs>
 <g id="Capa_x0020_1">
  <metadata id="CorelCorpID_0Corel-Layer"/>
  <polyline class="fil0 str0" points="0.67,54.16 0.67,0.67 375.12,0.67 375.12,54.16 "/>
  <polyline class="fil0 str0" points="0.67,54.16 0.67,455.36 375.12,455.36 375.12,54.16 "/>
  <line class="fil0 str0" x1="0.67" y1="54.16" x2="375.12" y2= "54.16" />
  <polygon class="fil1" points="153.13,36.09 149.14,36.09 149.14,25.67 146.25,32.43 143.49,32.43 140.6,25.67 140.6,36.09 136.82,36.09 136.82,20.53 141.48,20.53 144.98,28.34 148.47,20.53 153.13,20.53 "/>
  <path class="fil1" d="M160.65 36.09l-3.76 0 0 -11.73 3.76 0 0 11.73zm0.1 -13.4l-3.96 0 0 -2.86 3.96 0 0 2.86zm15.01 8.23l-8.61 0c0.05,0.92 0.4,1.62 1.05,2.11 0.64,0.49 1.59,0.73 2.85,0.73 0.79,0 1.56,-0.14 2.3,-0.43 0.75,-0.28 1.34,-0.59 1.77,-0.92l0.42 0 0 3.02c-0.85,0.34 -1.65,0.59 -2.41,0.74 -0.75,0.16 -1.58,0.23 -2.49,0.23 -2.36,0 -4.16,-0.53 -5.41,-1.58 -1.26,-1.06 -1.88,-2.57 -1.88,-4.53 0,-1.93 0.59,-3.47 1.78,-4.6 1.18,-1.13 2.81,-1.7 4.88,-1.7 1.91,0 3.34,0.48 4.3,1.45 0.97,0.96 1.45,2.35 1.45,4.16l0 1.32zm-3.74 -2.21c-0.02,-0.78 -0.22,-1.38 -0.59,-1.77 -0.37,-0.4 -0.94,-0.6 -1.72,-0.6 -0.73,0 -1.32,0.19 -1.79,0.57 -0.47,0.37 -0.73,0.97 -0.78,1.8l4.88 0zm17.86 -0.94l0 8.32 -3.78 0 0 -5.86c0,-0.57 -0.01,-1.06 -0.04,-1.46 -0.03,-0.4 -0.11,-0.72 -0.23,-0.98 -0.13,-0.25 -0.32,-0.43 -0.57,-0.54 -0.26,-0.12 -0.61,-0.18 -1.07,-0.18 -0.37,0 -0.73,0.08 -1.08,0.23 -0.35,0.15 -0.66,0.31 -0.94,0.47l0 8.32 -3.76 0 0 -11.73 3.76 0 0 1.29c0.65,-0.51 1.27,-0.9 1.86,-1.19 0.59,-0.28 1.25,-0.43 1.97,-0.43 0.77,0 1.45,0.18 2.04,0.52 0.59,0.35 1.06,0.85 1.39,1.52 0.75,-0.63 1.48,-1.13 2.2,-1.49 0.71,-0.37 1.4,-0.55 2.09,-0.55 1.26,0 2.23,0.38 2.88,1.14 0.66,0.76 0.99,1.85 0.99,3.28l0 7.64 -3.78 0 0 -5.86c0,-0.58 -0.01,-1.07 -0.04,-1.46 -0.02,-0.4 -0.1,-0.72 -0.22,-0.98 -0.12,-0.25 -0.31,-0.43 -0.57,-0.54 -0.25,-0.12 -0.62,-0.18 -1.08,-0.18 -0.32,0 -0.62,0.06 -0.92,0.17 -0.3,0.1 -0.67,0.28 -1.1,0.53z"/>
  <path class="fil1" d="M213.29 30.06c0,1.85 -0.51,3.35 -1.53,4.51 -1.02,1.17 -2.29,1.75 -3.82,1.75 -0.65,0 -1.22,-0.07 -1.72,-0.21 -0.49,-0.14 -0.96,-0.34 -1.41,-0.61l-0.16 0.59 -3.6 0 0 -16.26 3.76 0 0 5.75c0.58,-0.46 1.17,-0.83 1.77,-1.12 0.6,-0.28 1.3,-0.43 2.08,-0.43 1.49,0 2.63,0.54 3.43,1.61 0.8,1.07 1.2,2.54 1.2,4.42zm-3.87 0.08c0,-1.05 -0.18,-1.85 -0.54,-2.42 -0.35,-0.56 -0.98,-0.84 -1.9,-0.84 -0.35,0 -0.72,0.05 -1.09,0.16 -0.38,0.1 -0.74,0.26 -1.08,0.46l0 5.89c0.27,0.1 0.53,0.17 0.77,0.2 0.25,0.04 0.54,0.05 0.88,0.05 1,0 1.74,-0.29 2.23,-0.87 0.48,-0.59 0.73,-1.47 0.73,-2.63z"/>
  <path class="fil1" d="M224.51 27.94l-0.33 0c-0.16,-0.06 -0.42,-0.1 -0.77,-0.12 -0.36,-0.03 -0.65,-0.05 -0.89,-0.05 -0.54,0 -1.01,0.04 -1.42,0.11 -0.41,0.07 -0.86,0.19 -1.33,0.35l0 7.86 -3.76 0 0 -11.73 3.76 0 0 1.72c0.83,-0.71 1.55,-1.18 2.16,-1.41 0.62,-0.24 1.18,-0.35 1.7,-0.35 0.13,0 0.28,0 0.45,0.01 0.16,0 0.31,0.01 0.43,0.03l0 3.58z"/>
  <path class="fil1" d="M238.64 30.23c0,1.93 -0.56,3.45 -1.69,4.56 -1.12,1.11 -2.7,1.67 -4.74,1.67 -2.03,0 -3.61,-0.56 -4.74,-1.67 -1.12,-1.11 -1.68,-2.63 -1.68,-4.56 0,-1.94 0.56,-3.47 1.7,-4.58 1.13,-1.1 2.7,-1.66 4.72,-1.66 2.05,0 3.63,0.56 4.75,1.67 1.12,1.12 1.68,2.64 1.68,4.57zm-4.63 2.85c0.24,-0.3 0.43,-0.66 0.55,-1.08 0.12,-0.42 0.18,-1.01 0.18,-1.75 0,-0.69 -0.06,-1.27 -0.19,-1.73 -0.12,-0.47 -0.3,-0.84 -0.52,-1.12 -0.22,-0.29 -0.49,-0.49 -0.8,-0.61 -0.32,-0.12 -0.66,-0.18 -1.02,-0.18 -0.36,0 -0.68,0.05 -0.96,0.15 -0.29,0.1 -0.56,0.29 -0.81,0.59 -0.23,0.27 -0.42,0.64 -0.55,1.11 -0.14,0.48 -0.21,1.07 -0.21,1.79 0,0.64 0.06,1.2 0.18,1.67 0.12,0.47 0.29,0.84 0.52,1.13 0.23,0.27 0.49,0.47 0.8,0.59 0.31,0.13 0.67,0.19 1.06,0.19 0.35,0 0.67,-0.05 0.98,-0.17 0.31,-0.11 0.57,-0.31 0.79,-0.58z"/>
  <line class="fil0 str0" x1="186.22" y1="147.77" x2="186.22" y2= "184.75" />
  <polygon class="fil1" points="186.22,196.79 180.2,184.75 192.24,184.75 "/>
  <polygon class="fil0 str0" points="186.22,196.79 180.2,184.75 192.24,184.75 "/>
  <path class="fil1" d="M206.28 127.71c0,1.32 -0.13,2.63 -0.38,3.92 -0.26,1.29 -0.64,2.54 -1.15,3.76 -0.5,1.22 -1.12,2.37 -1.85,3.47 -0.73,1.09 -1.56,2.11 -2.49,3.04 -0.94,0.93 -1.95,1.76 -3.04,2.49 -1.1,0.74 -2.25,1.35 -3.47,1.86 -1.22,0.5 -2.47,0.88 -3.76,1.14 -1.3,0.26 -2.6,0.38 -3.92,0.38 -1.32,0 -2.62,-0.12 -3.91,-0.38 -1.29,-0.26 -2.55,-0.64 -3.76,-1.14 -1.22,-0.51 -2.38,-1.12 -3.47,-1.86 -1.1,-0.73 -2.11,-1.56 -3.04,-2.49 -0.93,-0.93 -1.77,-1.95 -2.5,-3.04 -0.73,-1.1 -1.35,-2.25 -1.85,-3.47 -0.51,-1.22 -0.89,-2.47 -1.14,-3.76 -0.26,-1.29 -0.39,-2.6 -0.39,-3.92 0,-1.31 0.13,-2.62 0.39,-3.91 0.25,-1.29 0.64,-2.54 1.14,-3.76 0.5,-1.22 1.12,-2.37 1.85,-3.47 0.73,-1.09 1.57,-2.11 2.5,-3.04 0.93,-0.93 1.94,-1.76 3.04,-2.49 1.09,-0.74 2.25,-1.35 3.47,-1.86 1.21,-0.5 2.47,-0.88 3.76,-1.14 1.29,-0.26 2.59,-0.39 3.91,-0.39 1.32,0 2.62,0.13 3.92,0.39 1.29,0.26 2.54,0.64 3.76,1.14 1.22,0.51 2.37,1.12 3.47,1.86 1.09,0.73 2.1,1.56 3.04,2.49 0.93,0.93 1.76,1.95 2.49,3.04 0.73,1.1 1.35,2.25 1.85,3.47 0.51,1.22 0.89,2.47 1.15,3.76 0.25,1.29 0.38,2.6 0.38,3.91z"/>
  <path class="fil0 str1" d="M206.28 127.71c0,1.32 -0.13,2.63 -0.38,3.92 -0.26,1.29 -0.64,2.54 -1.15,3.76 -0.5,1.22 -1.12,2.37 -1.85,3.47 -0.73,1.09 -1.56,2.11 -2.49,3.04 -0.94,0.93 -1.95,1.76 -3.04,2.49 -1.1,0.74 -2.25,1.35 -3.47,1.86 -1.22,0.5 -2.47,0.88 -3.76,1.14 -1.3,0.26 -2.6,0.38 -3.92,0.38 -1.32,0 -2.62,-0.12 -3.91,-0.38 -1.29,-0.26 -2.55,-0.64 -3.76,-1.14 -1.22,-0.51 -2.38,-1.12 -3.47,-1.86 -1.1,-0.73 -2.11,-1.56 -3.04,-2.49 -0.93,-0.93 -1.77,-1.95 -2.5,-3.04 -0.73,-1.1 -1.35,-2.25 -1.85,-3.47 -0.51,-1.22 -0.89,-2.47 -1.14,-3.76 -0.26,-1.29 -0.39,-2.6 -0.39,-3.92 0,-1.31 0.13,-2.62 0.39,-3.91 0.25,-1.29 0.64,-2.54 1.14,-3.76 0.5,-1.22 1.12,-2.37 1.85,-3.47 0.73,-1.09 1.57,-2.11 2.5,-3.04 0.93,-0.93 1.94,-1.76 3.04,-2.49 1.09,-0.74 2.25,-1.35 3.47,-1.86 1.21,-0.5 2.47,-0.88 3.76,-1.14 1.29,-0.26 2.59,-0.39 3.91,-0.39 1.32,0 2.62,0.13 3.92,0.39 1.29,0.26 2.54,0.64 3.76,1.14 1.22,0.51 2.37,1.12 3.47,1.86 1.09,0.73 2.1,1.56 3.04,2.49 0.93,0.93 1.76,1.95 2.49,3.04 0.73,1.1 1.35,2.25 1.85,3.47 0.51,1.22 0.89,2.47 1.15,3.76 0.25,1.29 0.38,2.6 0.38,3.91z"/>
  <polygon class="fil0 str1" points="54.16,201.27 318.28,201.27 318.28,321.63 54.16,321.63 "/>
  <path class="fil1" d="M82.72 244.73l-6.15 0 0 -1.59 2.04 0 0 -12.38 -2.04 0 0 -1.59 6.15 0 0 1.59 -2.04 0 0 12.38 2.04 0 0 1.59zm13.12 0l-1.97 0 0 -6.64c0,-0.54 -0.03,-1.04 -0.09,-1.51 -0.06,-0.47 -0.18,-0.84 -0.35,-1.11 -0.17,-0.29 -0.42,-0.51 -0.75,-0.65 -0.32,-0.14 -0.75,-0.21 -1.27,-0.21 -0.54,0 -1.1,0.13 -1.68,0.39 -0.59,0.27 -1.15,0.61 -1.69,1.02l0 8.71 -1.96 0 0 -11.67 1.96 0 0 1.3c0.62,-0.51 1.25,-0.91 1.91,-1.19 0.65,-0.29 1.32,-0.43 2.01,-0.43 1.26,0 2.22,0.38 2.89,1.14 0.66,0.75 0.99,1.85 0.99,3.28l0 7.57zm13.25 -1.33c0,1.98 -0.45,3.43 -1.35,4.36 -0.9,0.93 -2.28,1.39 -4.15,1.39 -0.62,0 -1.22,-0.04 -1.81,-0.13 -0.59,-0.09 -1.17,-0.21 -1.74,-0.37l0 -2.01 0.1 0c0.32,0.13 0.83,0.28 1.53,0.47 0.69,0.18 1.39,0.27 2.09,0.27 0.67,0 1.22,-0.08 1.66,-0.24 0.44,-0.16 0.78,-0.38 1.02,-0.66 0.25,-0.28 0.42,-0.6 0.52,-0.99 0.11,-0.38 0.16,-0.81 0.16,-1.28l0 -1.07c-0.59,0.48 -1.16,0.83 -1.7,1.06 -0.54,0.24 -1.22,0.35 -2.06,0.35 -1.39,0 -2.5,-0.5 -3.32,-1.51 -0.82,-1 -1.22,-2.42 -1.22,-4.25 0,-1.01 0.14,-1.87 0.42,-2.6 0.28,-0.73 0.67,-1.36 1.15,-1.89 0.46,-0.49 1.01,-0.88 1.65,-1.15 0.65,-0.28 1.3,-0.41 1.94,-0.41 0.67,0 1.24,0.07 1.69,0.2 0.46,0.14 0.94,0.34 1.45,0.62l0.13 -0.5 1.84 0 0 10.34zm-1.97 -1.88l0 -6.36c-0.52,-0.24 -1.01,-0.4 -1.46,-0.51 -0.45,-0.1 -0.89,-0.15 -1.34,-0.15 -1.08,0 -1.93,0.37 -2.55,1.09 -0.62,0.72 -0.93,1.78 -0.93,3.15 0,1.31 0.23,2.31 0.69,2.98 0.46,0.68 1.22,1.02 2.29,1.02 0.57,0 1.14,-0.11 1.72,-0.33 0.57,-0.22 1.1,-0.52 1.58,-0.89zm13.11 -6.32l-0.1 0c-0.29,-0.07 -0.58,-0.12 -0.85,-0.15 -0.28,-0.03 -0.6,-0.05 -0.98,-0.05 -0.61,0 -1.19,0.14 -1.75,0.41 -0.57,0.26 -1.11,0.61 -1.63,1.04l0 8.28 -1.97 0 0 -11.67 1.97 0 0 1.72c0.78,-0.62 1.46,-1.07 2.06,-1.33 0.59,-0.26 1.2,-0.39 1.82,-0.39 0.34,0 0.59,0.01 0.74,0.03 0.16,0.01 0.39,0.05 0.69,0.1l0 2.01zm11.62 3.9l-8.6 0c0,0.72 0.11,1.34 0.33,1.88 0.21,0.53 0.51,0.97 0.89,1.31 0.36,0.33 0.79,0.58 1.29,0.75 0.49,0.17 1.04,0.25 1.64,0.25 0.8,0 1.59,-0.16 2.4,-0.48 0.8,-0.31 1.38,-0.62 1.72,-0.93l0.1 0 0 2.14c-0.66,0.28 -1.34,0.51 -2.03,0.7 -0.69,0.19 -1.41,0.28 -2.17,0.28 -1.93,0 -3.45,-0.52 -4.53,-1.57 -1.09,-1.05 -1.63,-2.54 -1.63,-4.47 0,-1.9 0.52,-3.42 1.56,-4.54 1.04,-1.12 2.41,-1.68 4.11,-1.68 1.58,0 2.79,0.46 3.64,1.38 0.86,0.92 1.28,2.22 1.28,3.91l0 1.07zm-1.91 -1.5c-0.01,-1.04 -0.27,-1.83 -0.78,-2.4 -0.51,-0.56 -1.29,-0.84 -2.33,-0.84 -1.06,0 -1.89,0.31 -2.52,0.93 -0.62,0.62 -0.97,1.39 -1.06,2.31l6.69 0zm13.23 3.77c0,1.06 -0.44,1.94 -1.32,2.62 -0.89,0.68 -2.09,1.02 -3.61,1.02 -0.87,0 -1.66,-0.1 -2.38,-0.3 -0.72,-0.21 -1.33,-0.44 -1.81,-0.68l0 -2.2 0.1 0c0.62,0.46 1.31,0.83 2.07,1.11 0.76,0.27 1.49,0.41 2.18,0.41 0.87,0 1.54,-0.14 2.03,-0.42 0.49,-0.27 0.73,-0.71 0.73,-1.31 0,-0.46 -0.13,-0.81 -0.4,-1.05 -0.26,-0.23 -0.77,-0.44 -1.52,-0.6 -0.28,-0.07 -0.64,-0.14 -1.09,-0.22 -0.45,-0.09 -0.86,-0.18 -1.23,-0.27 -1.02,-0.28 -1.75,-0.67 -2.18,-1.2 -0.43,-0.53 -0.64,-1.17 -0.64,-1.94 0,-0.48 0.1,-0.93 0.3,-1.36 0.19,-0.42 0.5,-0.8 0.9,-1.14 0.39,-0.32 0.89,-0.58 1.49,-0.77 0.6,-0.2 1.27,-0.29 2.02,-0.29 0.7,0 1.4,0.08 2.12,0.25 0.71,0.18 1.3,0.38 1.78,0.63l0 2.1 -0.11 0c-0.5,-0.37 -1.11,-0.68 -1.83,-0.94 -0.71,-0.25 -1.42,-0.38 -2.11,-0.38 -0.71,0 -1.32,0.14 -1.81,0.41 -0.5,0.28 -0.75,0.69 -0.75,1.23 0,0.48 0.15,0.84 0.45,1.09 0.3,0.24 0.77,0.44 1.42,0.59 0.37,0.09 0.77,0.17 1.22,0.25 0.45,0.09 0.83,0.16 1.12,0.23 0.92,0.21 1.62,0.57 2.12,1.08 0.49,0.51 0.74,1.2 0.74,2.05zm11.88 3.36l-1.96 0 0 -1.24c-0.17,0.12 -0.41,0.28 -0.7,0.49 -0.3,0.22 -0.59,0.39 -0.86,0.51 -0.33,0.16 -0.71,0.29 -1.13,0.4 -0.43,0.11 -0.93,0.16 -1.5,0.16 -1.05,0 -1.94,-0.34 -2.67,-1.04 -0.73,-0.7 -1.1,-1.58 -1.1,-2.66 0,-0.89 0.19,-1.6 0.57,-2.15 0.38,-0.55 0.92,-0.98 1.62,-1.29 0.72,-0.31 1.57,-0.53 2.56,-0.64 1,-0.11 2.07,-0.19 3.21,-0.25l0 -0.3c0,-0.45 -0.08,-0.82 -0.23,-1.11 -0.16,-0.29 -0.38,-0.52 -0.68,-0.69 -0.28,-0.16 -0.61,-0.27 -1,-0.32 -0.39,-0.06 -0.8,-0.09 -1.22,-0.09 -0.52,0 -1.09,0.07 -1.73,0.21 -0.63,0.13 -1.28,0.33 -1.96,0.59l-0.1 0 0 -2c0.38,-0.1 0.93,-0.22 1.66,-0.34 0.72,-0.13 1.43,-0.19 2.14,-0.19 0.82,0 1.54,0.07 2.14,0.2 0.61,0.14 1.14,0.37 1.59,0.7 0.44,0.32 0.77,0.73 1,1.24 0.23,0.51 0.35,1.14 0.35,1.89l0 7.92zm-1.96 -2.87l0 -3.25c-0.6,0.03 -1.3,0.09 -2.11,0.16 -0.81,0.07 -1.46,0.17 -1.93,0.3 -0.57,0.16 -1.02,0.41 -1.37,0.75 -0.35,0.33 -0.52,0.8 -0.52,1.39 0,0.67 0.2,1.17 0.6,1.51 0.41,0.34 1.02,0.51 1.85,0.51 0.69,0 1.32,-0.14 1.89,-0.41 0.58,-0.26 1.1,-0.59 1.59,-0.96zm22.33 2.87l-1.95 0 0 -1.24c-0.18,0.12 -0.41,0.28 -0.71,0.49 -0.3,0.22 -0.58,0.39 -0.86,0.51 -0.33,0.16 -0.7,0.29 -1.13,0.4 -0.42,0.11 -0.92,0.16 -1.49,0.16 -1.06,0 -1.95,-0.34 -2.68,-1.04 -0.73,-0.7 -1.1,-1.58 -1.1,-2.66 0,-0.89 0.19,-1.6 0.57,-2.15 0.38,-0.55 0.93,-0.98 1.63,-1.29 0.71,-0.31 1.56,-0.53 2.56,-0.64 0.99,-0.11 2.06,-0.19 3.21,-0.25l0 -0.3c0,-0.45 -0.08,-0.82 -0.24,-1.11 -0.16,-0.29 -0.38,-0.52 -0.67,-0.69 -0.28,-0.16 -0.62,-0.27 -1.01,-0.32 -0.39,-0.06 -0.79,-0.09 -1.22,-0.09 -0.51,0 -1.09,0.07 -1.72,0.21 -0.64,0.13 -1.29,0.33 -1.97,0.59l-0.1 0 0 -2c0.38,-0.1 0.94,-0.22 1.66,-0.34 0.72,-0.13 1.44,-0.19 2.14,-0.19 0.82,0 1.54,0.07 2.15,0.2 0.61,0.14 1.14,0.37 1.58,0.7 0.44,0.32 0.78,0.73 1,1.24 0.23,0.51 0.35,1.14 0.35,1.89l0 7.92zm-1.95 -2.87l0 -3.25c-0.6,0.03 -1.31,0.09 -2.12,0.16 -0.81,0.07 -1.45,0.17 -1.93,0.3 -0.56,0.16 -1.02,0.41 -1.37,0.75 -0.34,0.33 -0.52,0.8 -0.52,1.39 0,0.67 0.2,1.17 0.61,1.51 0.4,0.34 1.02,0.51 1.85,0.51 0.69,0 1.32,-0.14 1.89,-0.41 0.57,-0.26 1.1,-0.59 1.59,-0.96zm15.24 2.87l-1.96 0 0 -16.26 1.96 0 0 16.26zm12.96 0l-1.96 0 0 -1.24c-0.17,0.12 -0.41,0.28 -0.7,0.49 -0.3,0.22 -0.59,0.39 -0.86,0.51 -0.33,0.16 -0.71,0.29 -1.13,0.4 -0.43,0.11 -0.93,0.16 -1.5,0.16 -1.05,0 -1.94,-0.34 -2.67,-1.04 -0.73,-0.7 -1.1,-1.58 -1.1,-2.66 0,-0.89 0.19,-1.6 0.57,-2.15 0.38,-0.55 0.92,-0.98 1.62,-1.29 0.71,-0.31 1.57,-0.53 2.56,-0.64 1,-0.11 2.07,-0.19 3.21,-0.25l0 -0.3c0,-0.45 -0.08,-0.82 -0.23,-1.11 -0.16,-0.29 -0.38,-0.52 -0.68,-0.69 -0.28,-0.16 -0.61,-0.27 -1,-0.32 -0.39,-0.06 -0.8,-0.09 -1.22,-0.09 -0.52,0 -1.09,0.07 -1.73,0.21 -0.63,0.13 -1.28,0.33 -1.96,0.59l-0.11 0 0 -2c0.39,-0.1 0.94,-0.22 1.67,-0.34 0.72,-0.13 1.43,-0.19 2.14,-0.19 0.82,0 1.54,0.07 2.14,0.2 0.61,0.14 1.14,0.37 1.59,0.7 0.44,0.32 0.77,0.73 1,1.24 0.23,0.51 0.35,1.14 0.35,1.89l0 7.92zm-1.96 -2.87l0 -3.25c-0.6,0.03 -1.3,0.09 -2.11,0.16 -0.81,0.07 -1.46,0.17 -1.93,0.3 -0.57,0.16 -1.02,0.41 -1.37,0.75 -0.35,0.33 -0.52,0.8 -0.52,1.39 0,0.67 0.2,1.17 0.6,1.51 0.41,0.34 1.02,0.51 1.85,0.51 0.69,0 1.32,-0.14 1.89,-0.41 0.58,-0.26 1.1,-0.59 1.59,-0.96zm23.53 -3.11c0,0.95 -0.13,1.82 -0.41,2.6 -0.27,0.79 -0.65,1.45 -1.15,1.99 -0.46,0.52 -1,0.92 -1.62,1.2 -0.62,0.28 -1.28,0.42 -1.98,0.42 -0.61,0 -1.15,-0.07 -1.65,-0.2 -0.49,-0.13 -0.99,-0.34 -1.5,-0.61l0 4.89 -1.96 0 0 -15.98 1.96 0 0 1.22c0.53,-0.44 1.11,-0.8 1.77,-1.1 0.65,-0.29 1.34,-0.44 2.08,-0.44 1.41,0 2.5,0.53 3.29,1.59 0.78,1.06 1.17,2.54 1.17,4.42zm-2.03 0.06c0,-1.41 -0.24,-2.46 -0.72,-3.16 -0.48,-0.69 -1.22,-1.04 -2.21,-1.04 -0.57,0 -1.13,0.12 -1.7,0.36 -0.58,0.25 -1.12,0.57 -1.65,0.96l0 6.62c0.56,0.25 1.04,0.42 1.44,0.51 0.4,0.09 0.86,0.14 1.37,0.14 1.09,0 1.94,-0.37 2.55,-1.11 0.62,-0.74 0.92,-1.83 0.92,-3.28zm14.16 5.92l-1.95 0 0 -1.24c-0.18,0.12 -0.41,0.28 -0.71,0.49 -0.29,0.22 -0.58,0.39 -0.86,0.51 -0.33,0.16 -0.7,0.29 -1.13,0.4 -0.42,0.11 -0.92,0.16 -1.49,0.16 -1.05,0 -1.95,-0.34 -2.68,-1.04 -0.73,-0.7 -1.09,-1.58 -1.09,-2.66 0,-0.89 0.19,-1.6 0.57,-2.15 0.37,-0.55 0.92,-0.98 1.62,-1.29 0.71,-0.31 1.56,-0.53 2.56,-0.64 1,-0.11 2.07,-0.19 3.21,-0.25l0 -0.3c0,-0.45 -0.08,-0.82 -0.24,-1.11 -0.15,-0.29 -0.38,-0.52 -0.67,-0.69 -0.28,-0.16 -0.61,-0.27 -1,-0.32 -0.39,-0.06 -0.8,-0.09 -1.23,-0.09 -0.51,0 -1.09,0.07 -1.72,0.21 -0.63,0.13 -1.29,0.33 -1.97,0.59l-0.1 0 0 -2c0.38,-0.1 0.94,-0.22 1.66,-0.34 0.73,-0.13 1.44,-0.19 2.14,-0.19 0.83,0 1.54,0.07 2.15,0.2 0.61,0.14 1.14,0.37 1.58,0.7 0.44,0.32 0.78,0.73 1.01,1.24 0.23,0.51 0.34,1.14 0.34,1.89l0 7.92zm-1.95 -2.87l0 -3.25c-0.6,0.03 -1.31,0.09 -2.12,0.16 -0.81,0.07 -1.45,0.17 -1.93,0.3 -0.56,0.16 -1.02,0.41 -1.36,0.75 -0.35,0.33 -0.53,0.8 -0.53,1.39 0,0.67 0.21,1.17 0.61,1.51 0.4,0.34 1.02,0.51 1.85,0.51 0.69,0 1.32,-0.14 1.89,-0.41 0.57,-0.26 1.1,-0.59 1.59,-0.96zm15.49 2.87l-1.96 0 0 -6.64c0,-0.54 -0.03,-1.04 -0.1,-1.51 -0.06,-0.47 -0.17,-0.84 -0.34,-1.11 -0.18,-0.29 -0.43,-0.51 -0.75,-0.65 -0.33,-0.14 -0.76,-0.21 -1.28,-0.21 -0.53,0 -1.1,0.13 -1.68,0.39 -0.59,0.27 -1.15,0.61 -1.68,1.02l0 8.71 -1.97 0 0 -11.67 1.97 0 0 1.3c0.61,-0.51 1.24,-0.91 1.9,-1.19 0.65,-0.29 1.33,-0.43 2.02,-0.43 1.26,0 2.22,0.38 2.88,1.14 0.66,0.75 0.99,1.85 0.99,3.28l0 7.57zm9.84 -0.1c-0.37,0.09 -0.77,0.17 -1.2,0.24 -0.44,0.06 -0.83,0.09 -1.17,0.09 -1.19,0 -2.09,-0.32 -2.71,-0.96 -0.62,-0.64 -0.93,-1.67 -0.93,-3.08l0 -6.21 -1.33 0 0 -1.65 1.33 0 0 -3.35 1.96 0 0 3.35 4.05 0 0 1.65 -4.05 0 0 5.32c0,0.61 0.01,1.09 0.04,1.44 0.03,0.34 0.13,0.66 0.29,0.96 0.16,0.28 0.37,0.48 0.64,0.61 0.26,0.13 0.67,0.2 1.22,0.2 0.32,0 0.66,-0.05 1.01,-0.14 0.35,-0.1 0.6,-0.18 0.75,-0.24l0.1 0 0 1.77zm11.44 0.1l-1.95 0 0 -1.24c-0.17,0.12 -0.41,0.28 -0.7,0.49 -0.3,0.22 -0.59,0.39 -0.87,0.51 -0.32,0.16 -0.7,0.29 -1.12,0.4 -0.43,0.11 -0.93,0.16 -1.5,0.16 -1.05,0 -1.94,-0.34 -2.67,-1.04 -0.73,-0.7 -1.1,-1.58 -1.1,-2.66 0,-0.89 0.19,-1.6 0.57,-2.15 0.38,-0.55 0.92,-0.98 1.62,-1.29 0.71,-0.31 1.57,-0.53 2.56,-0.64 1,-0.11 2.07,-0.19 3.21,-0.25l0 -0.3c0,-0.45 -0.08,-0.82 -0.23,-1.11 -0.16,-0.29 -0.39,-0.52 -0.68,-0.69 -0.28,-0.16 -0.61,-0.27 -1,-0.32 -0.39,-0.06 -0.8,-0.09 -1.22,-0.09 -0.52,0 -1.09,0.07 -1.73,0.21 -0.63,0.13 -1.29,0.33 -1.96,0.59l-0.11 0 0 -2c0.39,-0.1 0.94,-0.22 1.67,-0.34 0.72,-0.13 1.43,-0.19 2.14,-0.19 0.82,0 1.53,0.07 2.14,0.2 0.61,0.14 1.14,0.37 1.59,0.7 0.44,0.32 0.77,0.73 1,1.24 0.23,0.51 0.34,1.14 0.34,1.89l0 7.92zm-1.95 -2.87l0 -3.25c-0.6,0.03 -1.3,0.09 -2.11,0.16 -0.82,0.07 -1.46,0.17 -1.93,0.3 -0.57,0.16 -1.02,0.41 -1.37,0.75 -0.35,0.33 -0.52,0.8 -0.52,1.39 0,0.67 0.2,1.17 0.6,1.51 0.41,0.34 1.02,0.51 1.85,0.51 0.69,0 1.32,-0.14 1.89,-0.41 0.57,-0.26 1.1,-0.59 1.59,-0.96zm7.72 2.87l-1.96 0 0 -16.26 1.96 0 0 16.26zm5.87 0l-1.96 0 0 -16.26 1.96 0 0 16.26zm12.96 0l-1.95 0 0 -1.24c-0.18,0.12 -0.41,0.28 -0.71,0.49 -0.3,0.22 -0.58,0.39 -0.86,0.51 -0.33,0.16 -0.7,0.29 -1.13,0.4 -0.42,0.11 -0.92,0.16 -1.49,0.16 -1.06,0 -1.95,-0.34 -2.68,-1.04 -0.73,-0.7 -1.1,-1.58 -1.1,-2.66 0,-0.89 0.19,-1.6 0.57,-2.15 0.38,-0.55 0.93,-0.98 1.63,-1.29 0.71,-0.31 1.56,-0.53 2.56,-0.64 0.99,-0.11 2.06,-0.19 3.21,-0.25l0 -0.3c0,-0.45 -0.08,-0.82 -0.24,-1.11 -0.16,-0.29 -0.38,-0.52 -0.67,-0.69 -0.28,-0.16 -0.62,-0.27 -1.01,-0.32 -0.39,-0.06 -0.79,-0.09 -1.22,-0.09 -0.51,0 -1.09,0.07 -1.72,0.21 -0.64,0.13 -1.29,0.33 -1.97,0.59l-0.1 0 0 -2c0.38,-0.1 0.94,-0.22 1.66,-0.34 0.72,-0.13 1.44,-0.19 2.14,-0.19 0.82,0 1.54,0.07 2.15,0.2 0.61,0.14 1.14,0.37 1.58,0.7 0.44,0.32 0.77,0.73 1,1.24 0.23,0.51 0.35,1.14 0.35,1.89l0 7.92zm-1.95 -2.87l0 -3.25c-0.6,0.03 -1.31,0.09 -2.12,0.16 -0.81,0.07 -1.45,0.17 -1.93,0.3 -0.56,0.16 -1.02,0.41 -1.37,0.75 -0.34,0.33 -0.52,0.8 -0.52,1.39 0,0.67 0.2,1.17 0.61,1.51 0.4,0.34 1.02,0.51 1.85,0.51 0.69,0 1.32,-0.14 1.89,-0.41 0.57,-0.26 1.1,-0.59 1.59,-0.96z"/>
  <path class="fil1" d="M83.73 264.16c0,0.95 -0.14,1.82 -0.41,2.6 -0.27,0.78 -0.65,1.45 -1.15,1.99 -0.46,0.52 -1,0.91 -1.62,1.2 -0.63,0.28 -1.29,0.42 -1.98,0.42 -0.61,0 -1.16,-0.07 -1.65,-0.2 -0.49,-0.13 -0.99,-0.34 -1.5,-0.61l0 4.88 -1.96 0 0 -15.97 1.96 0 0 1.22c0.53,-0.44 1.11,-0.8 1.76,-1.1 0.65,-0.3 1.35,-0.44 2.09,-0.44 1.4,0 2.5,0.53 3.28,1.59 0.79,1.06 1.18,2.54 1.18,4.42zm-2.03 0.06c0,-1.41 -0.24,-2.46 -0.72,-3.16 -0.48,-0.7 -1.22,-1.04 -2.21,-1.04 -0.57,0 -1.14,0.12 -1.71,0.36 -0.57,0.25 -1.11,0.57 -1.64,0.96l0 6.62c0.56,0.25 1.04,0.42 1.44,0.51 0.4,0.09 0.85,0.13 1.36,0.13 1.1,0 1.95,-0.36 2.56,-1.1 0.62,-0.74 0.92,-1.84 0.92,-3.28zm12.37 -3.61l-0.1 0c-0.29,-0.07 -0.58,-0.12 -0.85,-0.15 -0.28,-0.03 -0.6,-0.05 -0.98,-0.05 -0.61,0 -1.19,0.14 -1.76,0.41 -0.56,0.26 -1.1,0.61 -1.63,1.03l0 8.29 -1.96 0 0 -11.67 1.96 0 0 1.72c0.78,-0.62 1.47,-1.07 2.07,-1.33 0.59,-0.26 1.2,-0.39 1.82,-0.39 0.34,0 0.59,0.01 0.74,0.03 0.16,0.01 0.39,0.05 0.69,0.1l0 2.01zm3.96 -4.09l-2.21 0 0 -2.04 2.21 0 0 2.04zm-0.12 13.62l-1.97 0 0 -11.67 1.97 0 0 11.67zm13.64 0l-1.96 0 0 -6.65c0,-0.53 -0.03,-1.03 -0.1,-1.5 -0.06,-0.47 -0.17,-0.84 -0.34,-1.11 -0.18,-0.29 -0.43,-0.51 -0.75,-0.65 -0.33,-0.14 -0.76,-0.21 -1.28,-0.21 -0.53,0 -1.1,0.13 -1.68,0.39 -0.59,0.27 -1.15,0.61 -1.68,1.02l0 8.71 -1.97 0 0 -11.67 1.97 0 0 1.3c0.61,-0.51 1.24,-0.91 1.9,-1.2 0.65,-0.28 1.33,-0.42 2.02,-0.42 1.26,0 2.22,0.38 2.88,1.13 0.66,0.76 0.99,1.86 0.99,3.29l0 7.57zm12.41 -0.73c-0.65,0.31 -1.27,0.56 -1.86,0.73 -0.59,0.17 -1.22,0.26 -1.88,0.26 -0.84,0 -1.61,-0.12 -2.32,-0.37 -0.7,-0.25 -1.3,-0.62 -1.8,-1.12 -0.51,-0.5 -0.91,-1.14 -1.18,-1.9 -0.28,-0.77 -0.42,-1.67 -0.42,-2.69 0,-1.91 0.52,-3.41 1.57,-4.49 1.05,-1.09 2.43,-1.63 4.15,-1.63 0.67,0 1.33,0.09 1.97,0.28 0.65,0.19 1.24,0.42 1.77,0.69l0 2.18 -0.1 0c-0.6,-0.46 -1.22,-0.82 -1.86,-1.07 -0.63,-0.25 -1.25,-0.38 -1.86,-0.38 -1.11,0 -1.99,0.38 -2.64,1.12 -0.64,0.75 -0.96,1.85 -0.96,3.3 0,1.41 0.31,2.49 0.94,3.24 0.63,0.76 1.52,1.14 2.66,1.14 0.4,0 0.8,-0.05 1.21,-0.16 0.41,-0.1 0.78,-0.24 1.11,-0.41 0.28,-0.14 0.55,-0.3 0.8,-0.46 0.25,-0.16 0.45,-0.31 0.6,-0.42l0.1 0 0 2.16zm4.63 -12.89l-2.21 0 0 -2.04 2.21 0 0 2.04zm-0.12 13.62l-1.97 0 0 -11.67 1.97 0 0 11.67zm14.15 -5.98c0,0.95 -0.13,1.82 -0.4,2.6 -0.28,0.78 -0.66,1.45 -1.15,1.99 -0.46,0.52 -1,0.91 -1.63,1.2 -0.62,0.28 -1.28,0.42 -1.98,0.42 -0.6,0 -1.15,-0.07 -1.64,-0.2 -0.49,-0.13 -0.99,-0.34 -1.5,-0.61l0 4.88 -1.97 0 0 -15.97 1.97 0 0 1.22c0.52,-0.44 1.11,-0.8 1.76,-1.1 0.65,-0.3 1.34,-0.44 2.08,-0.44 1.41,0 2.5,0.53 3.29,1.59 0.78,1.06 1.17,2.54 1.17,4.42zm-2.02 0.06c0,-1.41 -0.24,-2.46 -0.72,-3.16 -0.48,-0.7 -1.22,-1.04 -2.22,-1.04 -0.56,0 -1.13,0.12 -1.7,0.36 -0.57,0.25 -1.12,0.57 -1.64,0.96l0 6.62c0.55,0.25 1.03,0.42 1.43,0.51 0.4,0.09 0.86,0.13 1.37,0.13 1.09,0 1.94,-0.36 2.56,-1.1 0.61,-0.74 0.92,-1.84 0.92,-3.28zm14.15 5.92l-1.95 0 0 -1.24c-0.17,0.12 -0.41,0.28 -0.71,0.49 -0.29,0.22 -0.58,0.38 -0.86,0.51 -0.32,0.16 -0.7,0.29 -1.13,0.4 -0.42,0.11 -0.92,0.16 -1.49,0.16 -1.05,0 -1.94,-0.34 -2.67,-1.04 -0.74,-0.7 -1.1,-1.59 -1.1,-2.67 0,-0.88 0.19,-1.6 0.57,-2.14 0.38,-0.55 0.92,-0.98 1.62,-1.29 0.71,-0.32 1.57,-0.53 2.56,-0.64 1,-0.11 2.07,-0.2 3.21,-0.25l0 -0.3c0,-0.45 -0.08,-0.82 -0.24,-1.11 -0.15,-0.29 -0.38,-0.52 -0.67,-0.69 -0.28,-0.16 -0.61,-0.27 -1,-0.32 -0.39,-0.06 -0.8,-0.09 -1.22,-0.09 -0.52,0 -1.09,0.07 -1.73,0.21 -0.63,0.13 -1.29,0.33 -1.96,0.59l-0.11 0 0 -2c0.39,-0.1 0.94,-0.22 1.66,-0.34 0.73,-0.13 1.44,-0.19 2.15,-0.19 0.82,0 1.53,0.07 2.14,0.2 0.61,0.14 1.14,0.37 1.59,0.7 0.43,0.32 0.77,0.73 1,1.24 0.23,0.51 0.34,1.14 0.34,1.89l0 7.92zm-1.95 -2.87l0 -3.25c-0.6,0.03 -1.3,0.08 -2.12,0.15 -0.81,0.07 -1.45,0.17 -1.92,0.31 -0.57,0.16 -1.02,0.41 -1.37,0.74 -0.35,0.34 -0.52,0.81 -0.52,1.4 0,0.67 0.2,1.17 0.6,1.51 0.41,0.34 1.02,0.51 1.85,0.51 0.69,0 1.32,-0.14 1.89,-0.41 0.57,-0.27 1.1,-0.59 1.59,-0.96zm7.72 2.87l-1.96 0 0 -16.26 1.96 0 0 16.26zm21.5 -11.67l-6.81 15.97 -2.1 0 2.17 -4.86 -4.64 -11.11 2.13 0 3.58 8.65 3.62 -8.65 2.05 0zm18.43 8.31c0,1.06 -0.44,1.94 -1.32,2.62 -0.88,0.68 -2.08,1.02 -3.61,1.02 -0.86,0 -1.65,-0.1 -2.37,-0.31 -0.73,-0.2 -1.33,-0.43 -1.82,-0.67l0 -2.2 0.11 0c0.62,0.46 1.31,0.83 2.07,1.11 0.76,0.27 1.48,0.41 2.18,0.41 0.86,0 1.54,-0.14 2.03,-0.42 0.48,-0.28 0.73,-0.71 0.73,-1.31 0,-0.46 -0.13,-0.81 -0.4,-1.05 -0.26,-0.24 -0.77,-0.44 -1.52,-0.6 -0.28,-0.07 -0.65,-0.14 -1.1,-0.22 -0.45,-0.09 -0.85,-0.18 -1.22,-0.28 -1.03,-0.27 -1.75,-0.67 -2.18,-1.19 -0.43,-0.53 -0.65,-1.17 -0.65,-1.94 0,-0.48 0.1,-0.93 0.3,-1.36 0.2,-0.42 0.5,-0.8 0.91,-1.14 0.39,-0.32 0.88,-0.58 1.49,-0.78 0.6,-0.19 1.27,-0.28 2.02,-0.28 0.69,0 1.4,0.08 2.11,0.25 0.72,0.17 1.31,0.38 1.78,0.63l0 2.1 -0.1 0c-0.5,-0.37 -1.11,-0.69 -1.83,-0.94 -0.72,-0.25 -1.42,-0.38 -2.11,-0.38 -0.72,0 -1.32,0.14 -1.82,0.41 -0.49,0.28 -0.74,0.69 -0.74,1.23 0,0.48 0.15,0.84 0.45,1.09 0.29,0.24 0.77,0.44 1.42,0.59 0.36,0.09 0.77,0.17 1.22,0.25 0.45,0.09 0.82,0.16 1.12,0.23 0.91,0.21 1.62,0.57 2.11,1.08 0.5,0.51 0.74,1.2 0.74,2.05zm12.58 -2.27l-8.6 0c0,0.72 0.11,1.34 0.33,1.87 0.21,0.54 0.51,0.97 0.89,1.32 0.36,0.33 0.79,0.58 1.29,0.75 0.49,0.16 1.04,0.25 1.64,0.25 0.8,0 1.6,-0.16 2.4,-0.48 0.8,-0.31 1.38,-0.63 1.72,-0.93l0.1 0 0 2.14c-0.66,0.28 -1.33,0.51 -2.02,0.7 -0.69,0.19 -1.42,0.28 -2.18,0.28 -1.93,0 -3.45,-0.52 -4.53,-1.57 -1.09,-1.05 -1.63,-2.54 -1.63,-4.47 0,-1.91 0.52,-3.42 1.56,-4.54 1.04,-1.12 2.41,-1.68 4.11,-1.68 1.58,0 2.79,0.46 3.64,1.37 0.86,0.92 1.28,2.23 1.28,3.92l0 1.07zm-1.91 -1.51c-0.01,-1.03 -0.27,-1.82 -0.78,-2.39 -0.51,-0.56 -1.29,-0.84 -2.33,-0.84 -1.05,0 -1.89,0.31 -2.52,0.93 -0.62,0.62 -0.97,1.38 -1.06,2.3l6.69 0zm6.88 7.14l-1.97 0 0 -16.26 1.97 0 0 16.26zm13.65 -5.63l-8.6 0c0,0.72 0.11,1.34 0.33,1.87 0.21,0.54 0.51,0.97 0.89,1.32 0.36,0.33 0.79,0.58 1.28,0.75 0.5,0.16 1.05,0.25 1.65,0.25 0.79,0 1.59,-0.16 2.4,-0.48 0.8,-0.31 1.38,-0.63 1.72,-0.93l0.1 0 0 2.14c-0.66,0.28 -1.34,0.51 -2.03,0.7 -0.69,0.19 -1.41,0.28 -2.17,0.28 -1.93,0 -3.45,-0.52 -4.53,-1.57 -1.09,-1.05 -1.63,-2.54 -1.63,-4.47 0,-1.91 0.52,-3.42 1.56,-4.54 1.04,-1.12 2.41,-1.68 4.11,-1.68 1.57,0 2.79,0.46 3.64,1.37 0.85,0.92 1.28,2.23 1.28,3.92l0 1.07zm-1.91 -1.51c-0.01,-1.03 -0.27,-1.82 -0.78,-2.39 -0.51,-0.56 -1.29,-0.84 -2.33,-0.84 -1.06,0 -1.89,0.31 -2.52,0.93 -0.62,0.62 -0.97,1.38 -1.06,2.3l6.69 0zm13.52 6.41c-0.66,0.31 -1.28,0.56 -1.87,0.73 -0.58,0.17 -1.21,0.26 -1.87,0.26 -0.84,0 -1.62,-0.12 -2.32,-0.37 -0.7,-0.25 -1.31,-0.62 -1.81,-1.12 -0.51,-0.5 -0.9,-1.14 -1.18,-1.9 -0.28,-0.77 -0.42,-1.67 -0.42,-2.69 0,-1.91 0.53,-3.41 1.58,-4.49 1.04,-1.09 2.43,-1.63 4.15,-1.63 0.67,0 1.32,0.09 1.97,0.28 0.64,0.19 1.23,0.42 1.77,0.69l0 2.18 -0.11 0c-0.59,-0.46 -1.21,-0.82 -1.85,-1.07 -0.64,-0.25 -1.26,-0.38 -1.86,-0.38 -1.12,0 -2,0.38 -2.64,1.12 -0.65,0.75 -0.97,1.85 -0.97,3.3 0,1.41 0.32,2.49 0.95,3.24 0.63,0.76 1.51,1.14 2.66,1.14 0.39,0 0.8,-0.05 1.21,-0.16 0.41,-0.1 0.78,-0.24 1.1,-0.41 0.29,-0.14 0.56,-0.3 0.81,-0.46 0.25,-0.16 0.45,-0.31 0.59,-0.42l0.11 0 0 2.16zm11.15 0c-0.66,0.31 -1.28,0.56 -1.87,0.73 -0.59,0.17 -1.21,0.26 -1.87,0.26 -0.85,0 -1.62,-0.12 -2.32,-0.37 -0.71,-0.25 -1.31,-0.62 -1.81,-1.12 -0.51,-0.5 -0.9,-1.14 -1.18,-1.9 -0.28,-0.77 -0.42,-1.67 -0.42,-2.69 0,-1.91 0.53,-3.41 1.57,-4.49 1.05,-1.09 2.44,-1.63 4.16,-1.63 0.66,0 1.32,0.09 1.97,0.28 0.64,0.19 1.23,0.42 1.77,0.69l0 2.18 -0.11 0c-0.6,-0.46 -1.21,-0.82 -1.85,-1.07 -0.64,-0.25 -1.26,-0.38 -1.87,-0.38 -1.11,0 -1.99,0.38 -2.64,1.12 -0.64,0.75 -0.96,1.85 -0.96,3.3 0,1.41 0.31,2.49 0.94,3.24 0.63,0.76 1.52,1.14 2.66,1.14 0.4,0 0.8,-0.05 1.21,-0.16 0.42,-0.1 0.79,-0.24 1.11,-0.41 0.29,-0.14 0.56,-0.3 0.81,-0.46 0.25,-0.16 0.45,-0.31 0.59,-0.42l0.11 0 0 2.16zm4.62 -12.89l-2.21 0 0 -2.04 2.21 0 0 2.04zm-0.12 13.62l-1.96 0 0 -11.67 1.96 0 0 11.67zm13.83 -5.83c0,1.9 -0.48,3.4 -1.46,4.5 -0.97,1.1 -2.28,1.65 -3.92,1.65 -1.65,0 -2.96,-0.55 -3.93,-1.65 -0.97,-1.1 -1.46,-2.6 -1.46,-4.5 0,-1.9 0.49,-3.4 1.46,-4.51 0.97,-1.1 2.28,-1.65 3.93,-1.65 1.64,0 2.95,0.55 3.92,1.65 0.98,1.11 1.46,2.61 1.46,4.51zm-2.02 0c0,-1.51 -0.3,-2.63 -0.89,-3.37 -0.59,-0.73 -1.42,-1.1 -2.47,-1.1 -1.06,0 -1.89,0.37 -2.48,1.1 -0.59,0.74 -0.88,1.86 -0.88,3.37 0,1.46 0.29,2.57 0.89,3.33 0.59,0.75 1.41,1.13 2.47,1.13 1.05,0 1.87,-0.37 2.46,-1.12 0.6,-0.75 0.9,-1.86 0.9,-3.34zm14.82 5.83l-1.96 0 0 -6.65c0,-0.53 -0.03,-1.03 -0.1,-1.5 -0.06,-0.47 -0.17,-0.84 -0.34,-1.11 -0.18,-0.29 -0.43,-0.51 -0.75,-0.65 -0.33,-0.14 -0.76,-0.21 -1.28,-0.21 -0.53,0 -1.1,0.13 -1.68,0.39 -0.59,0.27 -1.15,0.61 -1.68,1.02l0 8.71 -1.97 0 0 -11.67 1.97 0 0 1.3c0.61,-0.51 1.24,-0.91 1.9,-1.2 0.65,-0.28 1.33,-0.42 2.02,-0.42 1.26,0 2.22,0.38 2.88,1.13 0.66,0.76 0.99,1.86 0.99,3.29l0 7.57zm12.85 0l-1.95 0 0 -1.24c-0.18,0.12 -0.41,0.28 -0.71,0.49 -0.29,0.22 -0.58,0.38 -0.86,0.51 -0.33,0.16 -0.7,0.29 -1.13,0.4 -0.42,0.11 -0.92,0.16 -1.49,0.16 -1.05,0 -1.94,-0.34 -2.68,-1.04 -0.73,-0.7 -1.09,-1.59 -1.09,-2.67 0,-0.88 0.19,-1.6 0.57,-2.14 0.38,-0.55 0.92,-0.98 1.62,-1.29 0.71,-0.32 1.57,-0.53 2.56,-0.64 1,-0.11 2.07,-0.2 3.21,-0.25l0 -0.3c0,-0.45 -0.08,-0.82 -0.24,-1.11 -0.15,-0.29 -0.38,-0.52 -0.67,-0.69 -0.28,-0.16 -0.61,-0.27 -1,-0.32 -0.39,-0.06 -0.8,-0.09 -1.23,-0.09 -0.51,0 -1.09,0.07 -1.72,0.21 -0.63,0.13 -1.29,0.33 -1.96,0.59l-0.11 0 0 -2c0.39,-0.1 0.94,-0.22 1.66,-0.34 0.73,-0.13 1.44,-0.19 2.14,-0.19 0.83,0 1.54,0.07 2.15,0.2 0.61,0.14 1.14,0.37 1.58,0.7 0.44,0.32 0.78,0.73 1.01,1.24 0.23,0.51 0.34,1.14 0.34,1.89l0 7.92zm-1.95 -2.87l0 -3.25c-0.6,0.03 -1.31,0.08 -2.12,0.15 -0.81,0.07 -1.45,0.17 -1.92,0.31 -0.57,0.16 -1.02,0.41 -1.37,0.74 -0.35,0.34 -0.53,0.81 -0.53,1.4 0,0.67 0.21,1.17 0.61,1.51 0.4,0.34 1.02,0.51 1.85,0.51 0.69,0 1.32,-0.14 1.89,-0.41 0.57,-0.27 1.1,-0.59 1.59,-0.96z"/>
  <path class="fil1" d="M112.86 279.29l-0.45 6.05 -1.38 0 -0.45 -6.05 2.28 0zm-4.04 0l-0.45 6.05 -1.37 0 -0.45 -6.05 2.27 0zm19.9 15.13c-0.39,0.17 -0.73,0.32 -1.04,0.47 -0.31,0.15 -0.72,0.3 -1.22,0.46 -0.43,0.13 -0.89,0.25 -1.38,0.34 -0.5,0.09 -1.05,0.14 -1.65,0.14 -1.13,0 -2.15,-0.16 -3.08,-0.47 -0.92,-0.32 -1.72,-0.82 -2.4,-1.49 -0.67,-0.66 -1.2,-1.51 -1.57,-2.53 -0.38,-1.02 -0.57,-2.2 -0.57,-3.55 0,-1.29 0.18,-2.43 0.55,-3.44 0.36,-1.01 0.88,-1.86 1.56,-2.56 0.67,-0.68 1.47,-1.19 2.4,-1.55 0.94,-0.35 1.98,-0.53 3.12,-0.53 0.84,0 1.67,0.1 2.5,0.3 0.84,0.21 1.76,0.56 2.78,1.07l0 2.45 -0.16 0c-0.86,-0.71 -1.71,-1.24 -2.55,-1.56 -0.84,-0.33 -1.74,-0.49 -2.71,-0.49 -0.78,0 -1.49,0.12 -2.12,0.38 -0.63,0.25 -1.19,0.65 -1.69,1.18 -0.48,0.53 -0.85,1.19 -1.12,1.98 -0.27,0.8 -0.4,1.72 -0.4,2.77 0,1.09 0.14,2.03 0.44,2.82 0.3,0.78 0.68,1.43 1.14,1.92 0.49,0.52 1.06,0.9 1.71,1.14 0.65,0.25 1.34,0.37 2.07,0.37 0.99,0 1.93,-0.17 2.8,-0.51 0.87,-0.34 1.68,-0.85 2.44,-1.53l0.15 0 0 2.42zm12.53 -4.5l-8.59 0c0,0.72 0.1,1.34 0.32,1.87 0.22,0.54 0.51,0.97 0.89,1.31 0.36,0.34 0.79,0.59 1.29,0.76 0.5,0.16 1.04,0.25 1.64,0.25 0.8,0 1.6,-0.16 2.4,-0.48 0.81,-0.31 1.38,-0.63 1.72,-0.93l0.1 0 0 2.14c-0.66,0.28 -1.33,0.51 -2.02,0.7 -0.69,0.19 -1.42,0.28 -2.18,0.28 -1.93,0 -3.44,-0.52 -4.53,-1.57 -1.09,-1.05 -1.63,-2.54 -1.63,-4.47 0,-1.91 0.52,-3.42 1.56,-4.54 1.04,-1.12 2.41,-1.68 4.11,-1.68 1.58,0 2.79,0.46 3.64,1.37 0.86,0.92 1.28,2.23 1.28,3.92l0 1.07zm-1.91 -1.51c0,-1.03 -0.26,-1.82 -0.78,-2.39 -0.51,-0.56 -1.29,-0.85 -2.33,-0.85 -1.05,0 -1.89,0.31 -2.51,0.93 -0.63,0.62 -0.98,1.39 -1.06,2.31l6.68 0zm12.17 -2.39l-0.1 0c-0.29,-0.07 -0.58,-0.12 -0.85,-0.15 -0.28,-0.03 -0.6,-0.05 -0.98,-0.05 -0.6,0 -1.19,0.14 -1.75,0.4 -0.57,0.27 -1.11,0.62 -1.63,1.04l0 8.29 -1.97 0 0 -11.67 1.97 0 0 1.72c0.78,-0.62 1.46,-1.07 2.06,-1.33 0.6,-0.26 1.2,-0.39 1.82,-0.39 0.34,0 0.59,0.01 0.74,0.03 0.16,0.01 0.39,0.05 0.69,0.09l0 2.02zm9.14 0l-0.11 0c-0.29,-0.07 -0.58,-0.12 -0.85,-0.15 -0.28,-0.03 -0.6,-0.05 -0.98,-0.05 -0.6,0 -1.19,0.14 -1.75,0.4 -0.57,0.27 -1.11,0.62 -1.63,1.04l0 8.29 -1.97 0 0 -11.67 1.97 0 0 1.72c0.78,-0.62 1.47,-1.07 2.06,-1.33 0.6,-0.26 1.2,-0.39 1.82,-0.39 0.35,0 0.59,0.01 0.75,0.03 0.15,0.01 0.38,0.05 0.69,0.09l0 2.02z"/>
  <path class="fil1" d="M171.19 295.55l-1.96 0 0 -1.24c-0.17,0.11 -0.41,0.28 -0.7,0.49 -0.3,0.21 -0.58,0.38 -0.86,0.51 -0.33,0.16 -0.71,0.29 -1.13,0.4 -0.43,0.11 -0.92,0.16 -1.5,0.16 -1.05,0 -1.94,-0.35 -2.67,-1.04 -0.73,-0.7 -1.1,-1.59 -1.1,-2.67 0,-0.88 0.19,-1.6 0.57,-2.14 0.38,-0.55 0.92,-0.98 1.63,-1.29 0.71,-0.32 1.56,-0.53 2.56,-0.64 0.99,-0.11 2.06,-0.2 3.2,-0.25l0 -0.3c0,-0.45 -0.07,-0.82 -0.23,-1.11 -0.16,-0.29 -0.38,-0.52 -0.67,-0.69 -0.28,-0.16 -0.62,-0.27 -1.01,-0.32 -0.39,-0.06 -0.8,-0.09 -1.22,-0.09 -0.52,0 -1.09,0.07 -1.72,0.21 -0.64,0.13 -1.29,0.33 -1.97,0.59l-0.1 0 0 -2c0.38,-0.1 0.93,-0.22 1.66,-0.34 0.72,-0.13 1.44,-0.19 2.14,-0.19 0.82,0 1.54,0.06 2.15,0.2 0.61,0.14 1.13,0.37 1.58,0.7 0.44,0.32 0.77,0.73 1,1.24 0.23,0.51 0.35,1.14 0.35,1.89l0 7.92zm-1.96 -2.87l0 -3.25c-0.6,0.03 -1.3,0.08 -2.11,0.15 -0.81,0.07 -1.46,0.17 -1.93,0.31 -0.56,0.16 -1.02,0.41 -1.37,0.74 -0.35,0.34 -0.52,0.81 -0.52,1.4 0,0.67 0.2,1.17 0.61,1.51 0.4,0.34 1.02,0.5 1.84,0.5 0.69,0 1.32,-0.13 1.9,-0.4 0.57,-0.27 1.1,-0.59 1.58,-0.96zm13.02 -6.66l-0.1 0c-0.29,-0.07 -0.58,-0.12 -0.85,-0.15 -0.28,-0.03 -0.6,-0.05 -0.98,-0.05 -0.61,0 -1.19,0.14 -1.76,0.4 -0.56,0.27 -1.1,0.62 -1.63,1.04l0 8.29 -1.96 0 0 -11.67 1.96 0 0 1.72c0.78,-0.62 1.47,-1.07 2.07,-1.33 0.59,-0.26 1.2,-0.39 1.82,-0.39 0.34,0 0.59,0.01 0.74,0.03 0.16,0.01 0.39,0.05 0.69,0.09l0 2.02zm17.71 6.17c0,1.06 -0.44,1.93 -1.32,2.62 -0.88,0.68 -2.08,1.02 -3.61,1.02 -0.86,0 -1.66,-0.1 -2.38,-0.31 -0.72,-0.2 -1.32,-0.43 -1.81,-0.67l0 -2.21 0.11 0c0.61,0.47 1.3,0.84 2.06,1.12 0.76,0.27 1.49,0.41 2.19,0.41 0.86,0 1.54,-0.14 2.02,-0.42 0.49,-0.28 0.74,-0.72 0.74,-1.31 0,-0.46 -0.14,-0.81 -0.4,-1.05 -0.27,-0.24 -0.77,-0.44 -1.53,-0.61 -0.28,-0.06 -0.64,-0.13 -1.09,-0.21 -0.45,-0.09 -0.86,-0.18 -1.23,-0.28 -1.02,-0.27 -1.75,-0.67 -2.17,-1.19 -0.43,-0.53 -0.65,-1.17 -0.65,-1.94 0,-0.48 0.1,-0.93 0.3,-1.36 0.2,-0.42 0.5,-0.8 0.9,-1.14 0.39,-0.32 0.89,-0.58 1.49,-0.78 0.61,-0.19 1.28,-0.28 2.02,-0.28 0.7,0 1.41,0.08 2.12,0.25 0.71,0.17 1.31,0.38 1.78,0.63l0 2.09 -0.1 0c-0.5,-0.36 -1.11,-0.68 -1.83,-0.93 -0.72,-0.25 -1.42,-0.38 -2.11,-0.38 -0.72,0 -1.32,0.14 -1.82,0.41 -0.49,0.28 -0.74,0.69 -0.74,1.23 0,0.48 0.15,0.84 0.45,1.09 0.29,0.24 0.76,0.44 1.42,0.59 0.36,0.08 0.77,0.17 1.22,0.25 0.45,0.08 0.82,0.16 1.12,0.23 0.91,0.21 1.62,0.57 2.11,1.08 0.49,0.51 0.74,1.2 0.74,2.05zm12.58 -2.27l-8.6 0c0,0.72 0.11,1.34 0.33,1.87 0.21,0.54 0.51,0.97 0.88,1.31 0.37,0.34 0.8,0.59 1.29,0.76 0.5,0.16 1.05,0.25 1.65,0.25 0.79,0 1.59,-0.16 2.4,-0.48 0.8,-0.31 1.38,-0.63 1.72,-0.93l0.1 0 0 2.14c-0.66,0.28 -1.34,0.51 -2.03,0.7 -0.69,0.19 -1.41,0.28 -2.17,0.28 -1.94,0 -3.45,-0.52 -4.53,-1.57 -1.09,-1.05 -1.63,-2.54 -1.63,-4.47 0,-1.91 0.52,-3.42 1.56,-4.54 1.04,-1.12 2.41,-1.68 4.11,-1.68 1.57,0 2.79,0.46 3.64,1.37 0.85,0.92 1.28,2.23 1.28,3.92l0 1.07zm-1.91 -1.51c-0.01,-1.03 -0.27,-1.82 -0.78,-2.39 -0.51,-0.56 -1.29,-0.85 -2.34,-0.85 -1.05,0 -1.88,0.31 -2.51,0.93 -0.62,0.62 -0.97,1.39 -1.06,2.31l6.69 0zm13.23 3.78c0,1.06 -0.44,1.93 -1.33,2.62 -0.88,0.68 -2.08,1.02 -3.61,1.02 -0.86,0 -1.65,-0.1 -2.37,-0.31 -0.72,-0.2 -1.33,-0.43 -1.82,-0.67l0 -2.21 0.11 0c0.62,0.47 1.31,0.84 2.07,1.12 0.76,0.27 1.49,0.41 2.18,0.41 0.87,0 1.54,-0.14 2.03,-0.42 0.49,-0.28 0.73,-0.72 0.73,-1.31 0,-0.46 -0.13,-0.81 -0.4,-1.05 -0.26,-0.24 -0.77,-0.44 -1.52,-0.61 -0.28,-0.06 -0.65,-0.13 -1.09,-0.21 -0.45,-0.09 -0.86,-0.18 -1.23,-0.28 -1.03,-0.27 -1.75,-0.67 -2.18,-1.19 -0.43,-0.53 -0.64,-1.17 -0.64,-1.94 0,-0.48 0.1,-0.93 0.29,-1.36 0.2,-0.42 0.5,-0.8 0.91,-1.14 0.39,-0.32 0.89,-0.58 1.49,-0.78 0.6,-0.19 1.27,-0.28 2.02,-0.28 0.7,0 1.4,0.08 2.11,0.25 0.72,0.17 1.31,0.38 1.79,0.63l0 2.09 -0.11 0c-0.5,-0.36 -1.11,-0.68 -1.83,-0.93 -0.71,-0.25 -1.42,-0.38 -2.11,-0.38 -0.71,0 -1.32,0.14 -1.81,0.41 -0.5,0.28 -0.75,0.69 -0.75,1.23 0,0.48 0.15,0.84 0.45,1.09 0.3,0.24 0.77,0.44 1.42,0.59 0.37,0.08 0.77,0.17 1.22,0.25 0.45,0.08 0.82,0.16 1.12,0.23 0.92,0.21 1.62,0.57 2.11,1.08 0.5,0.51 0.75,1.2 0.75,2.05zm4.92 -10.26l-2.22 0 0 -2.04 2.22 0 0 2.04zm-0.13 13.62l-1.96 0 0 -11.67 1.96 0 0 11.67zm13.83 -5.83c0,1.9 -0.48,3.4 -1.46,4.5 -0.97,1.1 -2.28,1.65 -3.92,1.65 -1.65,0 -2.96,-0.55 -3.93,-1.65 -0.97,-1.1 -1.46,-2.6 -1.46,-4.5 0,-1.9 0.49,-3.4 1.46,-4.51 0.97,-1.1 2.28,-1.65 3.93,-1.65 1.64,0 2.95,0.55 3.92,1.65 0.98,1.11 1.46,2.61 1.46,4.51zm-2.02 0c0,-1.51 -0.3,-2.63 -0.89,-3.37 -0.59,-0.73 -1.41,-1.1 -2.47,-1.1 -1.06,0 -1.89,0.37 -2.48,1.1 -0.59,0.74 -0.88,1.86 -0.88,3.37 0,1.46 0.3,2.57 0.89,3.33 0.59,0.75 1.41,1.13 2.47,1.13 1.05,0 1.87,-0.37 2.46,-1.12 0.6,-0.75 0.9,-1.86 0.9,-3.34zm-0.11 -11.68l-2.85 3.91 -1.56 0 1.87 -3.91 2.54 0zm14.93 17.51l-1.96 0 0 -6.65c0,-0.53 -0.03,-1.04 -0.09,-1.5 -0.07,-0.48 -0.18,-0.84 -0.35,-1.11 -0.17,-0.29 -0.42,-0.51 -0.75,-0.65 -0.33,-0.14 -0.75,-0.21 -1.28,-0.21 -0.53,0 -1.09,0.13 -1.68,0.39 -0.58,0.27 -1.14,0.6 -1.68,1.02l0 8.71 -1.96 0 0 -11.67 1.96 0 0 1.29c0.61,-0.5 1.25,-0.9 1.9,-1.19 0.66,-0.28 1.33,-0.42 2.02,-0.42 1.26,0 2.22,0.37 2.88,1.13 0.66,0.76 0.99,1.86 0.99,3.28l0 7.58zm9.92 -16.26l-0.45 6.05 -1.38 0 -0.45 -6.05 2.28 0zm-4.03 0l-0.45 6.05 -1.38 0 -0.45 -6.05 2.28 0z"/>
  <polyline class="fil0 str0" points="375.12,54.16 375.12,0.67 669.33,0.67 669.33,54.16 "/>
  <polyline class="fil0 str0" points="375.12,54.16 375.12,455.36 669.33,455.36 669.33,54.16 "/>
  <line class="fil0 str0" x1="375.12" y1="54.16" x2="669.33" y2= "54.16" />
  <path class="fil1" d="M487.92 31.2c0,1.53 -0.65,2.78 -1.94,3.74 -1.3,0.95 -3.07,1.43 -5.3,1.43 -1.28,0 -2.41,-0.11 -3.37,-0.34 -0.95,-0.22 -1.85,-0.51 -2.69,-0.86l0 -3.73 0.44 0c0.83,0.66 1.76,1.17 2.79,1.53 1.02,0.35 2.01,0.53 2.96,0.53 0.24,0 0.56,-0.02 0.96,-0.06 0.4,-0.05 0.72,-0.12 0.97,-0.21 0.31,-0.13 0.56,-0.28 0.76,-0.47 0.2,-0.19 0.3,-0.47 0.3,-0.84 0,-0.34 -0.15,-0.63 -0.44,-0.88 -0.29,-0.25 -0.71,-0.44 -1.27,-0.57 -0.58,-0.14 -1.2,-0.27 -1.85,-0.39 -0.65,-0.12 -1.26,-0.28 -1.83,-0.47 -1.31,-0.42 -2.26,-1 -2.83,-1.73 -0.57,-0.72 -0.86,-1.63 -0.86,-2.71 0,-1.45 0.65,-2.63 1.95,-3.54 1.3,-0.92 2.97,-1.38 5.01,-1.38 1.02,0 2.03,0.1 3.03,0.3 1,0.2 1.87,0.45 2.6,0.75l0 3.58 -0.43 0c-0.63,-0.5 -1.4,-0.92 -2.3,-1.26 -0.91,-0.34 -1.84,-0.51 -2.79,-0.51 -0.33,0 -0.67,0.03 -1,0.07 -0.33,0.05 -0.65,0.13 -0.95,0.26 -0.27,0.1 -0.51,0.26 -0.7,0.47 -0.2,0.22 -0.29,0.46 -0.29,0.73 0,0.41 0.15,0.73 0.47,0.95 0.31,0.21 0.9,0.41 1.77,0.6 0.57,0.11 1.12,0.23 1.65,0.34 0.52,0.11 1.09,0.27 1.69,0.46 1.2,0.39 2.07,0.92 2.64,1.59 0.57,0.67 0.85,1.55 0.85,2.62zm6.3 4.89l-3.76 0 0 -11.73 3.76 0 0 11.73zm0.11 -13.4l-3.97 0 0 -2.86 3.97 0 0 2.86zm13.64 9.68c0,1.21 -0.54,2.19 -1.63,2.93 -1.09,0.74 -2.57,1.11 -4.46,1.11 -1.04,0 -1.99,-0.09 -2.84,-0.29 -0.85,-0.19 -1.53,-0.41 -2.05,-0.65l0 -3.09 0.35 0c0.18,0.13 0.4,0.28 0.65,0.43 0.25,0.16 0.6,0.33 1.05,0.51 0.39,0.16 0.83,0.3 1.33,0.41 0.49,0.12 1.02,0.18 1.58,0.18 0.74,0 1.29,-0.09 1.64,-0.25 0.36,-0.16 0.54,-0.4 0.54,-0.73 0,-0.28 -0.11,-0.49 -0.32,-0.62 -0.21,-0.13 -0.6,-0.25 -1.19,-0.37 -0.28,-0.06 -0.65,-0.13 -1.13,-0.2 -0.48,-0.07 -0.91,-0.16 -1.3,-0.27 -1.07,-0.28 -1.86,-0.71 -2.37,-1.3 -0.52,-0.59 -0.78,-1.32 -0.78,-2.2 0,-1.13 0.54,-2.06 1.61,-2.81 1.07,-0.75 2.53,-1.13 4.38,-1.13 0.88,0 1.72,0.09 2.52,0.27 0.81,0.18 1.44,0.37 1.89,0.57l0 2.97 -0.33 0c-0.55,-0.39 -1.19,-0.7 -1.9,-0.94 -0.72,-0.24 -1.44,-0.36 -2.17,-0.36 -0.61,0 -1.12,0.08 -1.53,0.25 -0.41,0.17 -0.62,0.41 -0.62,0.71 0,0.28 0.09,0.49 0.28,0.64 0.19,0.15 0.63,0.29 1.33,0.44 0.38,0.07 0.79,0.15 1.23,0.22 0.45,0.08 0.89,0.17 1.34,0.28 0.99,0.26 1.72,0.66 2.19,1.22 0.47,0.55 0.71,1.24 0.71,2.07zm10 3.62c-0.4,0.1 -0.83,0.18 -1.29,0.24 -0.45,0.06 -1,0.09 -1.66,0.09 -1.46,0 -2.55,-0.3 -3.26,-0.89 -0.72,-0.59 -1.07,-1.6 -1.07,-3.04l0 -5.48 -1.55 0 0 -2.55 1.55 0 0 -3.36 3.76 0 0 3.36 3.52 0 0 2.55 -3.52 0 0 4.15c0,0.42 0,0.77 0.01,1.08 0.01,0.31 0.06,0.58 0.17,0.83 0.09,0.24 0.27,0.43 0.51,0.58 0.25,0.14 0.61,0.21 1.08,0.21 0.2,0 0.46,-0.04 0.77,-0.13 0.32,-0.08 0.54,-0.16 0.67,-0.23l0.31 0 0 2.59z"/>
  <path class="fil1" d="M531.77 30.92l-8.61 0c0.06,0.92 0.41,1.62 1.05,2.11 0.65,0.49 1.6,0.73 2.85,0.73 0.79,0 1.56,-0.14 2.31,-0.43 0.74,-0.28 1.33,-0.59 1.76,-0.92l0.42 0 0 3.02c-0.85,0.34 -1.65,0.59 -2.4,0.74 -0.75,0.16 -1.59,0.23 -2.5,0.23 -2.35,0 -4.16,-0.53 -5.41,-1.58 -1.25,-1.06 -1.88,-2.57 -1.88,-4.53 0,-1.93 0.59,-3.47 1.78,-4.6 1.19,-1.13 2.82,-1.7 4.88,-1.7 1.91,0 3.35,0.48 4.31,1.45 0.96,0.96 1.44,2.35 1.44,4.16l0 1.32zm-3.74 -2.21c-0.02,-0.78 -0.22,-1.38 -0.58,-1.77 -0.37,-0.4 -0.95,-0.6 -1.73,-0.6 -0.72,0 -1.32,0.19 -1.78,0.57 -0.47,0.37 -0.73,0.97 -0.79,1.8l4.88 0zm17.86 -0.94l0 8.32 -3.78 0 0 -5.86c0,-0.57 -0.01,-1.06 -0.04,-1.46 -0.03,-0.4 -0.1,-0.72 -0.23,-0.98 -0.12,-0.25 -0.31,-0.43 -0.57,-0.54 -0.25,-0.12 -0.61,-0.18 -1.07,-0.18 -0.37,0 -0.73,0.08 -1.08,0.23 -0.34,0.15 -0.66,0.31 -0.94,0.47l0 8.32 -3.76 0 0 -11.73 3.76 0 0 1.29c0.65,-0.51 1.27,-0.9 1.86,-1.19 0.6,-0.28 1.25,-0.43 1.97,-0.43 0.77,0 1.45,0.18 2.05,0.52 0.59,0.35 1.05,0.85 1.39,1.52 0.75,-0.63 1.48,-1.13 2.19,-1.49 0.71,-0.37 1.41,-0.55 2.09,-0.55 1.27,0 2.23,0.38 2.89,1.14 0.66,0.76 0.98,1.85 0.98,3.28l0 7.64 -3.78 0 0 -5.86c0,-0.58 -0.01,-1.07 -0.03,-1.46 -0.03,-0.4 -0.1,-0.72 -0.23,-0.98 -0.12,-0.25 -0.3,-0.43 -0.56,-0.54 -0.26,-0.12 -0.62,-0.18 -1.09,-0.18 -0.31,0 -0.62,0.06 -0.92,0.17 -0.3,0.1 -0.66,0.28 -1.1,0.53z"/>
  <path class="fil1" d="M564.17 33.03l0 -2.45c-0.51,0.05 -1.06,0.1 -1.65,0.18 -0.6,0.07 -1.04,0.15 -1.35,0.25 -0.38,0.12 -0.66,0.29 -0.86,0.52 -0.2,0.23 -0.3,0.52 -0.3,0.89 0,0.25 0.02,0.44 0.06,0.6 0.04,0.15 0.15,0.3 0.31,0.44 0.17,0.14 0.36,0.24 0.58,0.31 0.22,0.06 0.57,0.09 1.04,0.09 0.38,0 0.76,-0.07 1.15,-0.23 0.38,-0.15 0.72,-0.35 1.02,-0.6zm0 1.82c-0.21,0.15 -0.46,0.33 -0.76,0.55 -0.3,0.22 -0.58,0.39 -0.84,0.51 -0.37,0.17 -0.75,0.29 -1.15,0.37 -0.4,0.08 -0.83,0.12 -1.31,0.12 -1.11,0 -2.04,-0.34 -2.8,-1.03 -0.75,-0.69 -1.12,-1.57 -1.12,-2.64 0,-0.86 0.19,-1.56 0.57,-2.1 0.38,-0.55 0.93,-0.98 1.63,-1.29 0.7,-0.31 1.56,-0.54 2.59,-0.67 1.03,-0.13 2.1,-0.23 3.21,-0.29l0 -0.06c0,-0.65 -0.27,-1.1 -0.8,-1.35 -0.53,-0.24 -1.31,-0.37 -2.34,-0.37 -0.62,0 -1.28,0.11 -1.98,0.33 -0.7,0.22 -1.21,0.39 -1.52,0.51l-0.34 0 0 -2.83c0.4,-0.11 1.04,-0.23 1.94,-0.37 0.89,-0.15 1.79,-0.22 2.69,-0.22 2.14,0 3.68,0.33 4.63,0.99 0.95,0.66 1.43,1.69 1.43,3.1l0 7.98 -3.73 0 0 -1.24z"/>
  <line class="fil0 str0" x1="522.89" y1="308.25" x2="522.89" y2= "345.23" />
  <polygon class="fil1" points="522.89,357.27 516.88,345.23 528.91,345.23 "/>
  <polygon class="fil0 str0" points="522.89,357.27 516.88,345.23 528.91,345.23 "/>
  <polygon class="fil0 str1" points="428.61,214.64 617.18,214.64 617.18,308.25 428.61,308.25 "/>
  <path class="fil1" d="M453.56 255.64c-0.38,0.17 -0.73,0.32 -1.04,0.47 -0.31,0.14 -0.71,0.3 -1.21,0.46 -0.43,0.13 -0.89,0.24 -1.39,0.34 -0.5,0.09 -1.05,0.14 -1.64,0.14 -1.13,0 -2.16,-0.16 -3.08,-0.48 -0.92,-0.31 -1.73,-0.81 -2.41,-1.49 -0.67,-0.66 -1.19,-1.5 -1.57,-2.52 -0.37,-1.02 -0.56,-2.2 -0.56,-3.56 0,-1.28 0.18,-2.42 0.54,-3.43 0.36,-1.01 0.89,-1.87 1.57,-2.56 0.66,-0.68 1.46,-1.19 2.4,-1.55 0.93,-0.35 1.97,-0.53 3.12,-0.53 0.83,0 1.67,0.1 2.5,0.3 0.83,0.2 1.76,0.56 2.77,1.07l0 2.45 -0.15 0c-0.86,-0.72 -1.71,-1.24 -2.55,-1.57 -0.85,-0.32 -1.75,-0.49 -2.71,-0.49 -0.79,0 -1.5,0.13 -2.13,0.39 -0.63,0.25 -1.19,0.64 -1.68,1.18 -0.48,0.52 -0.86,1.18 -1.13,1.98 -0.26,0.8 -0.4,1.72 -0.4,2.76 0,1.1 0.15,2.04 0.45,2.83 0.29,0.78 0.67,1.42 1.14,1.92 0.49,0.51 1.06,0.89 1.71,1.14 0.65,0.25 1.34,0.37 2.06,0.37 1,0 1.93,-0.17 2.8,-0.51 0.87,-0.34 1.69,-0.85 2.45,-1.54l0.14 0 0 2.43zm4.88 -12.5l-2.21 0 0 -2.03 2.21 0 0 2.03zm-0.12 13.63l-1.97 0 0 -11.67 1.97 0 0 11.67zm13.65 -5.63l-8.6 0c0,0.71 0.11,1.34 0.33,1.87 0.21,0.53 0.51,0.97 0.89,1.31 0.36,0.34 0.79,0.59 1.29,0.75 0.49,0.17 1.04,0.26 1.64,0.26 0.8,0 1.59,-0.16 2.4,-0.48 0.8,-0.32 1.38,-0.63 1.72,-0.93l0.1 0 0 2.14c-0.66,0.28 -1.34,0.51 -2.03,0.7 -0.69,0.18 -1.41,0.28 -2.17,0.28 -1.93,0 -3.45,-0.53 -4.53,-1.57 -1.09,-1.05 -1.63,-2.54 -1.63,-4.47 0,-1.91 0.52,-3.42 1.56,-4.54 1.04,-1.13 2.41,-1.69 4.11,-1.69 1.58,0 2.79,0.46 3.64,1.38 0.86,0.92 1.28,2.23 1.28,3.92l0 1.07zm-1.91 -1.51c-0.01,-1.03 -0.27,-1.83 -0.78,-2.39 -0.51,-0.57 -1.29,-0.85 -2.33,-0.85 -1.06,0 -1.89,0.31 -2.52,0.93 -0.62,0.62 -0.97,1.39 -1.06,2.31l6.69 0zm12.17 -2.39l-0.1 0c-0.3,-0.07 -0.58,-0.12 -0.85,-0.15 -0.28,-0.03 -0.61,-0.05 -0.98,-0.05 -0.61,0 -1.19,0.13 -1.76,0.4 -0.56,0.27 -1.1,0.62 -1.63,1.04l0 8.29 -1.96 0 0 -11.67 1.96 0 0 1.72c0.78,-0.63 1.47,-1.07 2.07,-1.33 0.59,-0.26 1.2,-0.39 1.82,-0.39 0.34,0 0.59,0.01 0.74,0.02 0.16,0.02 0.39,0.05 0.69,0.1l0 2.02zm9.13 0l-0.1 0c-0.29,-0.07 -0.58,-0.12 -0.85,-0.15 -0.28,-0.03 -0.6,-0.05 -0.98,-0.05 -0.61,0 -1.19,0.13 -1.76,0.4 -0.56,0.27 -1.1,0.62 -1.63,1.04l0 8.29 -1.96 0 0 -11.67 1.96 0 0 1.72c0.79,-0.63 1.47,-1.07 2.07,-1.33 0.59,-0.26 1.2,-0.39 1.82,-0.39 0.34,0 0.59,0.01 0.74,0.02 0.16,0.02 0.39,0.05 0.69,0.1l0 2.02z"/>
  <path class="fil1" d="M501.9 256.77l-1.95 0 0 -1.25c-0.17,0.12 -0.41,0.29 -0.7,0.5 -0.3,0.21 -0.59,0.38 -0.87,0.51 -0.32,0.16 -0.7,0.29 -1.13,0.4 -0.42,0.11 -0.92,0.16 -1.49,0.16 -1.05,0 -1.94,-0.35 -2.67,-1.04 -0.74,-0.7 -1.1,-1.59 -1.1,-2.67 0,-0.88 0.19,-1.6 0.57,-2.14 0.38,-0.55 0.92,-0.98 1.62,-1.3 0.71,-0.31 1.57,-0.52 2.56,-0.63 1,-0.11 2.07,-0.2 3.21,-0.25l0 -0.31c0,-0.44 -0.08,-0.81 -0.23,-1.1 -0.16,-0.3 -0.39,-0.53 -0.68,-0.69 -0.28,-0.16 -0.61,-0.27 -1,-0.33 -0.39,-0.05 -0.8,-0.08 -1.22,-0.08 -0.52,0 -1.09,0.07 -1.73,0.2 -0.63,0.14 -1.29,0.34 -1.96,0.59l-0.11 0 0 -1.99c0.39,-0.11 0.94,-0.22 1.66,-0.35 0.73,-0.12 1.44,-0.19 2.15,-0.19 0.82,0 1.53,0.07 2.14,0.21 0.61,0.13 1.14,0.37 1.59,0.69 0.43,0.32 0.77,0.74 1,1.25 0.23,0.51 0.34,1.14 0.34,1.89l0 7.92zm-1.95 -2.88l0 -3.25c-0.6,0.04 -1.3,0.09 -2.12,0.16 -0.81,0.07 -1.45,0.17 -1.92,0.3 -0.57,0.16 -1.02,0.41 -1.37,0.75 -0.35,0.34 -0.52,0.8 -0.52,1.4 0,0.67 0.2,1.17 0.6,1.51 0.41,0.33 1.02,0.5 1.85,0.5 0.69,0 1.32,-0.13 1.89,-0.4 0.57,-0.27 1.1,-0.59 1.59,-0.97zm15.24 2.88l-1.96 0 0 -16.26 1.96 0 0 16.26zm12.96 0l-1.95 0 0 -1.25c-0.18,0.12 -0.41,0.29 -0.71,0.5 -0.3,0.21 -0.58,0.38 -0.86,0.51 -0.33,0.16 -0.7,0.29 -1.13,0.4 -0.42,0.11 -0.92,0.16 -1.49,0.16 -1.05,0 -1.95,-0.35 -2.68,-1.04 -0.73,-0.7 -1.09,-1.59 -1.09,-2.67 0,-0.88 0.18,-1.6 0.56,-2.14 0.38,-0.55 0.93,-0.98 1.63,-1.3 0.71,-0.31 1.56,-0.52 2.56,-0.63 0.99,-0.11 2.06,-0.2 3.21,-0.25l0 -0.31c0,-0.44 -0.08,-0.81 -0.24,-1.1 -0.16,-0.3 -0.38,-0.53 -0.67,-0.69 -0.28,-0.16 -0.62,-0.27 -1.01,-0.33 -0.39,-0.05 -0.79,-0.08 -1.22,-0.08 -0.51,0 -1.09,0.07 -1.72,0.2 -0.64,0.14 -1.29,0.34 -1.97,0.59l-0.1 0 0 -1.99c0.38,-0.11 0.94,-0.22 1.66,-0.35 0.73,-0.12 1.44,-0.19 2.14,-0.19 0.82,0 1.54,0.07 2.15,0.21 0.61,0.13 1.14,0.37 1.58,0.69 0.44,0.32 0.78,0.74 1,1.25 0.24,0.51 0.35,1.14 0.35,1.89l0 7.92zm-1.95 -2.88l0 -3.25c-0.6,0.04 -1.31,0.09 -2.12,0.16 -0.81,0.07 -1.45,0.17 -1.93,0.3 -0.56,0.16 -1.02,0.41 -1.37,0.75 -0.34,0.34 -0.52,0.8 -0.52,1.4 0,0.67 0.2,1.17 0.61,1.51 0.4,0.33 1.02,0.5 1.85,0.5 0.69,0 1.32,-0.13 1.89,-0.4 0.57,-0.27 1.1,-0.59 1.59,-0.97zm21.59 -0.49c0,1.07 -0.44,1.94 -1.32,2.63 -0.88,0.68 -2.08,1.02 -3.61,1.02 -0.86,0 -1.65,-0.1 -2.38,-0.31 -0.72,-0.2 -1.32,-0.43 -1.81,-0.67l0 -2.21 0.11 0c0.62,0.47 1.31,0.84 2.06,1.12 0.76,0.27 1.49,0.41 2.19,0.41 0.86,0 1.54,-0.14 2.03,-0.42 0.48,-0.28 0.73,-0.72 0.73,-1.32 0,-0.46 -0.14,-0.8 -0.4,-1.04 -0.27,-0.24 -0.77,-0.44 -1.53,-0.61 -0.27,-0.06 -0.64,-0.13 -1.09,-0.22 -0.45,-0.08 -0.86,-0.17 -1.22,-0.27 -1.03,-0.27 -1.76,-0.67 -2.18,-1.19 -0.43,-0.53 -0.65,-1.18 -0.65,-1.94 0,-0.48 0.1,-0.94 0.3,-1.36 0.2,-0.43 0.5,-0.8 0.91,-1.14 0.39,-0.33 0.88,-0.59 1.48,-0.78 0.61,-0.19 1.28,-0.29 2.03,-0.29 0.69,0 1.4,0.09 2.11,0.26 0.72,0.17 1.31,0.38 1.78,0.62l0 2.1 -0.1 0c-0.5,-0.37 -1.11,-0.68 -1.83,-0.93 -0.72,-0.26 -1.42,-0.38 -2.11,-0.38 -0.72,0 -1.32,0.13 -1.82,0.41 -0.49,0.27 -0.74,0.68 -0.74,1.23 0,0.48 0.15,0.84 0.45,1.08 0.29,0.25 0.77,0.45 1.42,0.6 0.36,0.08 0.77,0.17 1.22,0.25 0.45,0.08 0.82,0.16 1.12,0.23 0.91,0.21 1.62,0.57 2.11,1.08 0.5,0.51 0.74,1.19 0.74,2.04zm12.58 -2.26l-8.6 0c0,0.71 0.11,1.34 0.33,1.87 0.21,0.53 0.51,0.97 0.89,1.31 0.36,0.34 0.79,0.59 1.29,0.75 0.49,0.17 1.04,0.26 1.64,0.26 0.8,0 1.59,-0.16 2.4,-0.48 0.8,-0.32 1.38,-0.63 1.72,-0.93l0.1 0 0 2.14c-0.66,0.28 -1.34,0.51 -2.03,0.7 -0.69,0.18 -1.41,0.28 -2.17,0.28 -1.93,0 -3.45,-0.53 -4.53,-1.57 -1.09,-1.05 -1.63,-2.54 -1.63,-4.47 0,-1.91 0.52,-3.42 1.56,-4.54 1.04,-1.13 2.41,-1.69 4.11,-1.69 1.58,0 2.79,0.46 3.64,1.38 0.86,0.92 1.28,2.23 1.28,3.92l0 1.07zm-1.91 -1.51c-0.01,-1.03 -0.27,-1.83 -0.78,-2.39 -0.51,-0.57 -1.29,-0.85 -2.33,-0.85 -1.06,0 -1.89,0.31 -2.52,0.93 -0.62,0.62 -0.97,1.39 -1.06,2.31l6.69 0zm13.23 3.77c0,1.07 -0.44,1.94 -1.33,2.63 -0.88,0.68 -2.08,1.02 -3.6,1.02 -0.87,0 -1.66,-0.1 -2.38,-0.31 -0.72,-0.2 -1.33,-0.43 -1.81,-0.67l0 -2.21 0.1 0c0.62,0.47 1.31,0.84 2.07,1.12 0.76,0.27 1.49,0.41 2.18,0.41 0.87,0 1.54,-0.14 2.03,-0.42 0.49,-0.28 0.73,-0.72 0.73,-1.32 0,-0.46 -0.13,-0.8 -0.4,-1.04 -0.26,-0.24 -0.77,-0.44 -1.52,-0.61 -0.28,-0.06 -0.64,-0.13 -1.09,-0.22 -0.45,-0.08 -0.86,-0.17 -1.23,-0.27 -1.02,-0.27 -1.75,-0.67 -2.18,-1.19 -0.43,-0.53 -0.64,-1.18 -0.64,-1.94 0,-0.48 0.1,-0.94 0.3,-1.36 0.19,-0.43 0.5,-0.8 0.9,-1.14 0.39,-0.33 0.89,-0.59 1.49,-0.78 0.6,-0.19 1.27,-0.29 2.02,-0.29 0.7,0 1.4,0.09 2.12,0.26 0.71,0.17 1.3,0.38 1.78,0.62l0 2.1 -0.11 0c-0.5,-0.37 -1.11,-0.68 -1.83,-0.93 -0.71,-0.26 -1.42,-0.38 -2.11,-0.38 -0.71,0 -1.32,0.13 -1.81,0.41 -0.5,0.27 -0.75,0.68 -0.75,1.23 0,0.48 0.15,0.84 0.45,1.08 0.3,0.25 0.77,0.45 1.42,0.6 0.37,0.08 0.77,0.17 1.22,0.25 0.45,0.08 0.83,0.16 1.12,0.23 0.92,0.21 1.62,0.57 2.12,1.08 0.49,0.51 0.74,1.19 0.74,2.04zm4.92 -10.26l-2.22 0 0 -2.03 2.22 0 0 2.03zm-0.13 13.63l-1.96 0 0 -11.67 1.96 0 0 11.67zm13.84 -5.83c0,1.9 -0.49,3.4 -1.47,4.5 -0.97,1.1 -2.28,1.65 -3.92,1.65 -1.65,0 -2.96,-0.55 -3.93,-1.65 -0.97,-1.1 -1.46,-2.6 -1.46,-4.5 0,-1.9 0.49,-3.41 1.46,-4.51 0.97,-1.11 2.28,-1.66 3.93,-1.66 1.64,0 2.95,0.55 3.92,1.66 0.98,1.1 1.47,2.61 1.47,4.51zm-2.03 0c0,-1.51 -0.3,-2.64 -0.89,-3.37 -0.59,-0.74 -1.41,-1.1 -2.47,-1.1 -1.06,0 -1.89,0.36 -2.48,1.1 -0.59,0.73 -0.88,1.86 -0.88,3.37 0,1.46 0.3,2.57 0.89,3.33 0.59,0.75 1.42,1.13 2.47,1.13 1.05,0 1.87,-0.38 2.47,-1.12 0.59,-0.75 0.89,-1.87 0.89,-3.34zm-0.11 -11.68l-2.85 3.9 -1.55 0 1.86 -3.9 2.54 0zm14.93 17.51l-1.96 0 0 -6.65c0,-0.53 -0.03,-1.04 -0.09,-1.51 -0.07,-0.47 -0.18,-0.83 -0.35,-1.1 -0.17,-0.29 -0.42,-0.51 -0.75,-0.65 -0.33,-0.15 -0.75,-0.22 -1.28,-0.22 -0.53,0 -1.09,0.14 -1.68,0.4 -0.58,0.26 -1.14,0.6 -1.68,1.01l0 8.72 -1.96 0 0 -11.67 1.96 0 0 1.29c0.61,-0.51 1.25,-0.9 1.9,-1.19 0.66,-0.28 1.33,-0.43 2.02,-0.43 1.26,0 2.22,0.38 2.88,1.14 0.66,0.76 0.99,1.85 0.99,3.28l0 7.58z"/>
  <path class="fil1" d="M467.57 283.51l-1.96 0 0 -1.22c-0.57,0.49 -1.15,0.87 -1.77,1.14 -0.61,0.27 -1.28,0.41 -1.99,0.41 -1.4,0 -2.5,-0.54 -3.32,-1.61 -0.82,-1.07 -1.23,-2.56 -1.23,-4.46 0,-0.99 0.14,-1.87 0.43,-2.65 0.28,-0.77 0.66,-1.43 1.14,-1.97 0.47,-0.53 1.03,-0.93 1.66,-1.21 0.63,-0.28 1.28,-0.42 1.95,-0.42 0.62,0 1.16,0.06 1.63,0.19 0.48,0.13 0.98,0.33 1.5,0.6l0 -5.05 1.96 0 0 16.25zm-1.96 -2.87l0 -6.7c-0.53,-0.23 -1,-0.4 -1.42,-0.49 -0.42,-0.09 -0.88,-0.13 -1.37,-0.13 -1.1,0 -1.96,0.38 -2.57,1.15 -0.61,0.76 -0.92,1.85 -0.92,3.26 0,1.38 0.24,2.43 0.71,3.16 0.47,0.72 1.23,1.08 2.28,1.08 0.55,0 1.12,-0.13 1.69,-0.37 0.57,-0.25 1.1,-0.57 1.6,-0.96zm15.6 -2.76l-8.6 0c0,0.72 0.11,1.34 0.32,1.88 0.22,0.53 0.51,0.97 0.89,1.31 0.36,0.33 0.79,0.58 1.29,0.75 0.5,0.17 1.05,0.25 1.65,0.25 0.79,0 1.59,-0.16 2.39,-0.47 0.81,-0.32 1.38,-0.63 1.72,-0.94l0.11 0 0 2.14c-0.66,0.28 -1.34,0.51 -2.03,0.7 -0.69,0.19 -1.41,0.29 -2.17,0.29 -1.94,0 -3.45,-0.53 -4.54,-1.58 -1.08,-1.05 -1.63,-2.53 -1.63,-4.46 0,-1.91 0.52,-3.43 1.56,-4.55 1.05,-1.12 2.42,-1.68 4.12,-1.68 1.57,0 2.78,0.46 3.64,1.38 0.85,0.92 1.28,2.22 1.28,3.92l0 1.06zm-1.91 -1.5c-0.01,-1.03 -0.27,-1.83 -0.78,-2.4 -0.52,-0.56 -1.29,-0.84 -2.34,-0.84 -1.05,0 -1.89,0.31 -2.51,0.93 -0.62,0.62 -0.98,1.39 -1.06,2.31l6.69 0zm14.39 7.13l-1.96 0 0 -16.25 1.96 0 0 16.25zm12.96 0l-1.95 0 0 -1.24c-0.18,0.12 -0.41,0.28 -0.71,0.5 -0.3,0.21 -0.58,0.38 -0.86,0.5 -0.33,0.16 -0.71,0.3 -1.13,0.41 -0.43,0.1 -0.92,0.16 -1.49,0.16 -1.06,0 -1.95,-0.35 -2.68,-1.05 -0.73,-0.69 -1.1,-1.58 -1.1,-2.66 0,-0.89 0.19,-1.6 0.57,-2.15 0.38,-0.55 0.92,-0.98 1.63,-1.29 0.71,-0.31 1.56,-0.52 2.56,-0.64 0.99,-0.11 2.06,-0.19 3.21,-0.25l0 -0.3c0,-0.45 -0.08,-0.81 -0.24,-1.11 -0.16,-0.29 -0.38,-0.52 -0.67,-0.69 -0.28,-0.16 -0.62,-0.26 -1.01,-0.32 -0.39,-0.06 -0.79,-0.08 -1.22,-0.08 -0.51,0 -1.09,0.06 -1.72,0.2 -0.64,0.13 -1.29,0.33 -1.97,0.59l-0.1 0 0 -2c0.38,-0.1 0.93,-0.22 1.66,-0.34 0.72,-0.13 1.44,-0.19 2.14,-0.19 0.82,0 1.54,0.07 2.15,0.21 0.61,0.13 1.14,0.36 1.58,0.69 0.44,0.32 0.77,0.73 1,1.24 0.23,0.51 0.35,1.14 0.35,1.89l0 7.92zm-1.95 -2.87l0 -3.25c-0.6,0.04 -1.31,0.09 -2.12,0.16 -0.81,0.07 -1.45,0.17 -1.93,0.3 -0.56,0.16 -1.02,0.41 -1.37,0.75 -0.35,0.34 -0.52,0.8 -0.52,1.39 0,0.67 0.2,1.17 0.61,1.51 0.4,0.34 1.02,0.51 1.85,0.51 0.69,0 1.32,-0.14 1.89,-0.4 0.57,-0.27 1.1,-0.59 1.59,-0.97zm21.88 2.14c-0.65,0.32 -1.27,0.56 -1.86,0.73 -0.59,0.18 -1.22,0.27 -1.88,0.27 -0.84,0 -1.61,-0.13 -2.32,-0.38 -0.7,-0.24 -1.3,-0.62 -1.8,-1.12 -0.51,-0.5 -0.91,-1.13 -1.18,-1.9 -0.28,-0.77 -0.42,-1.66 -0.42,-2.69 0,-1.9 0.52,-3.4 1.57,-4.49 1.05,-1.08 2.43,-1.63 4.15,-1.63 0.67,0 1.33,0.1 1.97,0.28 0.65,0.19 1.24,0.42 1.77,0.69l0 2.19 -0.1 0c-0.6,-0.47 -1.22,-0.83 -1.86,-1.08 -0.63,-0.25 -1.25,-0.38 -1.86,-0.38 -1.11,0 -1.99,0.38 -2.64,1.13 -0.64,0.75 -0.96,1.85 -0.96,3.29 0,1.41 0.31,2.49 0.94,3.25 0.63,0.75 1.52,1.13 2.66,1.13 0.4,0 0.8,-0.05 1.21,-0.15 0.41,-0.11 0.78,-0.25 1.11,-0.41 0.28,-0.15 0.55,-0.3 0.8,-0.47 0.25,-0.16 0.45,-0.3 0.6,-0.42l0.1 0 0 2.16zm12.2 0.73l-1.97 0 0 -1.29c-0.66,0.52 -1.29,0.92 -1.9,1.2 -0.61,0.28 -1.27,0.42 -2.01,0.42 -1.22,0 -2.18,-0.38 -2.86,-1.13 -0.68,-0.74 -1.02,-1.84 -1.02,-3.29l0 -7.58 1.96 0 0 6.65c0,0.59 0.03,1.1 0.09,1.52 0.05,0.42 0.17,0.78 0.35,1.08 0.19,0.31 0.43,0.53 0.73,0.67 0.3,0.14 0.74,0.21 1.31,0.21 0.51,0 1.06,-0.14 1.66,-0.4 0.61,-0.26 1.17,-0.6 1.69,-1.01l0 -8.72 1.97 0 0 11.67zm13.63 -5.63l-8.6 0c0,0.72 0.11,1.34 0.33,1.88 0.21,0.53 0.51,0.97 0.88,1.31 0.37,0.33 0.8,0.58 1.29,0.75 0.5,0.17 1.05,0.25 1.65,0.25 0.79,0 1.59,-0.16 2.4,-0.47 0.8,-0.32 1.38,-0.63 1.72,-0.94l0.1 0 0 2.14c-0.66,0.28 -1.34,0.51 -2.03,0.7 -0.69,0.19 -1.41,0.29 -2.17,0.29 -1.94,0 -3.45,-0.53 -4.53,-1.58 -1.09,-1.05 -1.63,-2.53 -1.63,-4.46 0,-1.91 0.52,-3.43 1.56,-4.55 1.04,-1.12 2.41,-1.68 4.11,-1.68 1.57,0 2.79,0.46 3.64,1.38 0.85,0.92 1.28,2.22 1.28,3.92l0 1.06zm-1.91 -1.5c-0.01,-1.03 -0.27,-1.83 -0.78,-2.4 -0.51,-0.56 -1.29,-0.84 -2.33,-0.84 -1.06,0 -1.89,0.31 -2.52,0.93 -0.62,0.62 -0.97,1.39 -1.06,2.31l6.69 0zm14.65 7.13l-1.97 0 0 -6.64c0,-0.54 -0.03,-1.04 -0.09,-1.51 -0.06,-0.47 -0.18,-0.84 -0.35,-1.1 -0.17,-0.3 -0.42,-0.51 -0.75,-0.66 -0.33,-0.14 -0.75,-0.21 -1.27,-0.21 -0.54,0 -1.1,0.13 -1.69,0.4 -0.58,0.26 -1.14,0.6 -1.68,1.01l0 8.71 -1.96 0 0 -11.67 1.96 0 0 1.3c0.62,-0.51 1.25,-0.91 1.9,-1.19 0.66,-0.29 1.33,-0.43 2.02,-0.43 1.26,0 2.22,0.38 2.88,1.14 0.67,0.76 1,1.85 1,3.28l0 7.57zm9.84 -0.1c-0.37,0.1 -0.77,0.18 -1.21,0.24 -0.43,0.06 -0.82,0.09 -1.16,0.09 -1.19,0 -2.1,-0.32 -2.72,-0.96 -0.62,-0.64 -0.93,-1.67 -0.93,-3.08l0 -6.21 -1.33 0 0 -1.65 1.33 0 0 -3.35 1.97 0 0 3.35 4.05 0 0 1.65 -4.05 0 0 5.32c0,0.61 0.01,1.09 0.04,1.44 0.02,0.34 0.12,0.67 0.29,0.97 0.15,0.27 0.36,0.48 0.63,0.61 0.27,0.13 0.68,0.19 1.23,0.19 0.32,0 0.65,-0.05 1,-0.14 0.35,-0.1 0.6,-0.17 0.75,-0.24l0.11 0 0 1.77zm11.44 0.1l-1.95 0 0 -1.24c-0.18,0.12 -0.41,0.28 -0.71,0.5 -0.3,0.21 -0.58,0.38 -0.86,0.5 -0.33,0.16 -0.7,0.3 -1.13,0.41 -0.42,0.1 -0.92,0.16 -1.49,0.16 -1.06,0 -1.95,-0.35 -2.68,-1.05 -0.73,-0.69 -1.1,-1.58 -1.1,-2.66 0,-0.89 0.19,-1.6 0.57,-2.15 0.38,-0.55 0.93,-0.98 1.63,-1.29 0.71,-0.31 1.56,-0.52 2.56,-0.64 0.99,-0.11 2.06,-0.19 3.21,-0.25l0 -0.3c0,-0.45 -0.08,-0.81 -0.24,-1.11 -0.16,-0.29 -0.38,-0.52 -0.67,-0.69 -0.28,-0.16 -0.62,-0.26 -1.01,-0.32 -0.39,-0.06 -0.79,-0.08 -1.22,-0.08 -0.51,0 -1.09,0.06 -1.72,0.2 -0.64,0.13 -1.29,0.33 -1.97,0.59l-0.1 0 0 -2c0.38,-0.1 0.94,-0.22 1.66,-0.34 0.72,-0.13 1.44,-0.19 2.14,-0.19 0.82,0 1.54,0.07 2.15,0.21 0.61,0.13 1.14,0.36 1.58,0.69 0.44,0.32 0.78,0.73 1,1.24 0.23,0.51 0.35,1.14 0.35,1.89l0 7.92zm-1.95 -2.87l0 -3.25c-0.6,0.04 -1.31,0.09 -2.12,0.16 -0.81,0.07 -1.45,0.17 -1.93,0.3 -0.56,0.16 -1.02,0.41 -1.37,0.75 -0.34,0.34 -0.52,0.8 -0.52,1.39 0,0.67 0.2,1.17 0.61,1.51 0.4,0.34 1.02,0.51 1.85,0.51 0.69,0 1.32,-0.14 1.89,-0.4 0.57,-0.27 1.1,-0.59 1.59,-0.97z"/>
  <path class="fil1" d="M537.61 381.81c-0.01,0.96 -0.1,1.92 -0.29,2.87 -0.19,0.94 -0.47,1.86 -0.84,2.76 -0.36,0.89 -0.82,1.74 -1.35,2.54 -0.54,0.8 -1.15,1.55 -1.83,2.23 -0.69,0.68 -1.43,1.29 -2.23,1.83 -0.81,0.53 -1.65,0.99 -2.55,1.36 -0.89,0.37 -1.81,0.65 -2.76,0.83 -0.94,0.19 -1.9,0.29 -2.87,0.29 -0.96,0 -1.92,-0.1 -2.87,-0.29 -0.94,-0.18 -1.86,-0.46 -2.76,-0.83 -0.89,-0.37 -1.74,-0.83 -2.54,-1.36 -0.8,-0.54 -1.55,-1.15 -2.23,-1.83 -0.68,-0.68 -1.29,-1.43 -1.83,-2.23 -0.53,-0.8 -0.99,-1.65 -1.36,-2.54 -0.37,-0.9 -0.65,-1.82 -0.83,-2.76 -0.19,-0.95 -0.29,-1.91 -0.29,-2.87 0,-0.97 0.1,-1.93 0.29,-2.87 0.18,-0.95 0.46,-1.87 0.83,-2.76 0.37,-0.89 0.83,-1.74 1.36,-2.55 0.54,-0.8 1.15,-1.54 1.83,-2.23 0.68,-0.68 1.43,-1.29 2.23,-1.82 0.8,-0.54 1.65,-0.99 2.54,-1.36 0.9,-0.37 1.82,-0.65 2.76,-0.84 0.95,-0.19 1.91,-0.28 2.87,-0.28 0.97,0 1.93,0.09 2.87,0.28 0.95,0.19 1.87,0.47 2.76,0.84 0.9,0.37 1.74,0.82 2.55,1.36 0.8,0.53 1.54,1.14 2.23,1.82 0.68,0.69 1.29,1.43 1.83,2.23 0.53,0.81 0.99,1.66 1.35,2.55 0.37,0.89 0.65,1.81 0.84,2.76 0.19,0.94 0.28,1.9 0.29,2.87z"/>
  <path class="fil0 str1" d="M537.61 381.81c-0.01,0.96 -0.1,1.92 -0.29,2.87 -0.19,0.94 -0.47,1.86 -0.84,2.76 -0.36,0.89 -0.82,1.74 -1.35,2.54 -0.54,0.8 -1.15,1.55 -1.83,2.23 -0.69,0.68 -1.43,1.29 -2.23,1.83 -0.81,0.53 -1.65,0.99 -2.55,1.36 -0.89,0.37 -1.81,0.65 -2.76,0.83 -0.94,0.19 -1.9,0.29 -2.87,0.29 -0.96,0 -1.92,-0.1 -2.87,-0.29 -0.94,-0.18 -1.86,-0.46 -2.76,-0.83 -0.89,-0.37 -1.74,-0.83 -2.54,-1.36 -0.8,-0.54 -1.55,-1.15 -2.23,-1.83 -0.68,-0.68 -1.29,-1.43 -1.83,-2.23 -0.53,-0.8 -0.99,-1.65 -1.36,-2.54 -0.37,-0.9 -0.65,-1.82 -0.83,-2.76 -0.19,-0.95 -0.29,-1.91 -0.29,-2.87 0,-0.97 0.1,-1.93 0.29,-2.87 0.18,-0.95 0.46,-1.87 0.83,-2.76 0.37,-0.89 0.83,-1.74 1.36,-2.55 0.54,-0.8 1.15,-1.54 1.83,-2.23 0.68,-0.68 1.43,-1.29 2.23,-1.82 0.8,-0.54 1.65,-0.99 2.54,-1.36 0.9,-0.37 1.82,-0.65 2.76,-0.84 0.95,-0.19 1.91,-0.28 2.87,-0.28 0.97,0 1.93,0.09 2.87,0.28 0.95,0.19 1.87,0.47 2.76,0.84 0.9,0.37 1.74,0.82 2.55,1.36 0.8,0.53 1.54,1.14 2.23,1.82 0.68,0.69 1.29,1.43 1.83,2.23 0.53,0.81 0.99,1.66 1.35,2.55 0.37,0.89 0.65,1.81 0.84,2.76 0.19,0.94 0.28,1.9 0.29,2.87z"/>
  <path class="fil0 str1" d="M542.95 381.81c0,1.31 -0.12,2.62 -0.38,3.91 -0.26,1.29 -0.64,2.55 -1.14,3.76 -0.51,1.22 -1.13,2.38 -1.86,3.47 -0.73,1.1 -1.56,2.11 -2.49,3.04 -0.93,0.93 -1.95,1.76 -3.04,2.5 -1.1,0.73 -2.25,1.35 -3.47,1.85 -1.22,0.5 -2.47,0.88 -3.76,1.14 -1.29,0.26 -2.6,0.39 -3.92,0.39 -1.31,0 -2.62,-0.13 -3.91,-0.39 -1.29,-0.26 -2.55,-0.64 -3.76,-1.14 -1.22,-0.5 -2.38,-1.12 -3.47,-1.85 -1.1,-0.74 -2.11,-1.57 -3.04,-2.5 -0.93,-0.93 -1.76,-1.94 -2.49,-3.04 -0.74,-1.09 -1.35,-2.25 -1.86,-3.47 -0.5,-1.21 -0.88,-2.47 -1.14,-3.76 -0.26,-1.29 -0.39,-2.6 -0.39,-3.91 0,-1.32 0.13,-2.63 0.39,-3.92 0.26,-1.29 0.64,-2.54 1.14,-3.76 0.51,-1.22 1.12,-2.37 1.86,-3.47 0.73,-1.09 1.56,-2.11 2.49,-3.04 0.93,-0.93 1.94,-1.76 3.04,-2.49 1.09,-0.73 2.25,-1.35 3.47,-1.86 1.21,-0.5 2.47,-0.88 3.76,-1.14 1.29,-0.25 2.6,-0.38 3.91,-0.38 1.32,0 2.63,0.13 3.92,0.38 1.29,0.26 2.54,0.64 3.76,1.14 1.22,0.51 2.37,1.13 3.47,1.86 1.09,0.73 2.11,1.56 3.04,2.49 0.93,0.93 1.76,1.95 2.49,3.04 0.73,1.1 1.35,2.25 1.86,3.47 0.5,1.22 0.88,2.47 1.14,3.76 0.26,1.29 0.38,2.6 0.38,3.92z"/>
  <line class="fil0 str0" x1="318.28" y1="261.45" x2="412.1" y2= "261.45" />
  <polygon class="fil1" points="424.13,261.45 412.1,267.47 412.1,255.43 "/>
  <polygon class="fil0 str0" points="424.13,261.45 412.1,267.47 412.1,255.43 "/>
 </g>
</svg>
